G04*
G04 #@! TF.GenerationSoftware,Altium Limited,Altium Designer,21.6.4 (81)*
G04*
G04 Layer_Color=65535*
%FSLAX25Y25*%
%MOIN*%
G70*
G04*
G04 #@! TF.SameCoordinates,32ACE0EF-A2FC-4BC7-9326-31937D1A4F50*
G04*
G04*
G04 #@! TF.FilePolarity,Positive*
G04*
G01*
G75*
%ADD10C,0.00394*%
%ADD11C,0.02000*%
%ADD12C,0.00984*%
%ADD13C,0.00600*%
%ADD14C,0.00787*%
%ADD15C,0.00300*%
%ADD16C,0.01000*%
G36*
X180700Y161250D02*
Y159750D01*
X179700D01*
Y161250D01*
X180700D01*
D02*
G37*
G36*
X209300Y149250D02*
Y147750D01*
X210300D01*
Y149250D01*
X209300D01*
D02*
G37*
G36*
X200250Y170800D02*
Y171800D01*
X201750D01*
Y170800D01*
X200250D01*
D02*
G37*
D10*
X224232Y155937D02*
G03*
X224232Y155937I-197J0D01*
G01*
D11*
X53000Y257850D02*
G03*
X53000Y257850I-1500J0D01*
G01*
X34500Y308500D02*
G03*
X34500Y308500I-1500J0D01*
G01*
X441850Y62000D02*
G03*
X441850Y62000I-1500J0D01*
G01*
D12*
X327992Y248681D02*
G03*
X327992Y248681I-492J0D01*
G01*
X414350Y128476D02*
G03*
X414350Y128476I-492J0D01*
G01*
X416272Y179628D02*
G03*
X416272Y179628I-492J0D01*
G01*
X160409Y149000D02*
G03*
X160409Y149000I-492J0D01*
G01*
D13*
X390415Y288299D02*
G03*
X390415Y288299I-800J0D01*
G01*
X205169Y281669D02*
G03*
X205169Y281669I-500J0D01*
G01*
X182800Y168700D02*
X185190D01*
X207200Y166310D02*
Y168700D01*
X204810Y144300D02*
X207200D01*
X182800D02*
X185190D01*
X182800Y166310D02*
Y168700D01*
X204810D02*
X207200D01*
Y144300D02*
Y146690D01*
X182800Y144300D02*
Y146690D01*
X38035Y250850D02*
X68535D01*
Y205150D02*
Y250850D01*
X38035Y205150D02*
X68535D01*
X38035D02*
Y250850D01*
Y307350D02*
X68535D01*
Y261650D02*
Y307350D01*
X38035Y261650D02*
X68535D01*
X38035D02*
Y307350D01*
X433350Y44965D02*
Y75465D01*
X387650Y44965D02*
X433350D01*
X387650D02*
Y75465D01*
X433350D01*
X399925Y272650D02*
X413074D01*
X415850Y278961D02*
Y285039D01*
X399925Y291350D02*
X413074D01*
X397150Y278961D02*
Y285039D01*
X277301Y137198D02*
Y189998D01*
X330101D01*
Y137198D02*
Y189998D01*
X277301Y137198D02*
X330101D01*
X325748Y136698D02*
Y137698D01*
Y189498D02*
Y190498D01*
X310000Y136698D02*
Y137698D01*
Y189498D02*
Y190498D01*
X294252Y136698D02*
Y137698D01*
Y189498D02*
Y190498D01*
X329601Y141551D02*
X330601D01*
X276801D02*
X277801D01*
X329601Y157299D02*
X330601D01*
X276801D02*
X277801D01*
X329601Y173047D02*
X330601D01*
X276801D02*
X277801D01*
X209169Y285197D02*
Y289158D01*
X216197D02*
X218831D01*
Y285197D02*
Y289158D01*
X213441Y282842D02*
X214559D01*
X209169Y289158D02*
X211803D01*
X219299Y107001D02*
X215701D01*
Y108801D01*
X216300Y109401D01*
X217500D01*
X218100Y108801D01*
Y107001D01*
Y108201D02*
X219299Y109401D01*
Y110600D02*
Y111800D01*
Y111200D01*
X215701D01*
X216300Y110600D01*
X215701Y113599D02*
Y115999D01*
X216300D01*
X218700Y113599D01*
X219299D01*
X214299Y107001D02*
X210701D01*
Y108801D01*
X211300Y109401D01*
X212500D01*
X213100Y108801D01*
Y107001D01*
Y108201D02*
X214299Y109401D01*
Y110600D02*
Y111800D01*
Y111200D01*
X210701D01*
X211300Y110600D01*
Y113599D02*
X210701Y114199D01*
Y115399D01*
X211300Y115999D01*
X211900D01*
X212500Y115399D01*
Y114799D01*
Y115399D01*
X213100Y115999D01*
X213700D01*
X214299Y115399D01*
Y114199D01*
X213700Y113599D01*
X215701Y93502D02*
X219299D01*
Y95301D01*
X218700Y95901D01*
X216300D01*
X215701Y95301D01*
Y93502D01*
X219299Y97100D02*
Y98300D01*
Y97700D01*
X215701D01*
X216300Y97100D01*
X219299Y101899D02*
X215701D01*
X217500Y100099D01*
Y102499D01*
X210701Y93502D02*
X214299D01*
Y95301D01*
X213700Y95901D01*
X211300D01*
X210701Y95301D01*
Y93502D01*
X214299Y97100D02*
Y98300D01*
Y97700D01*
X210701D01*
X211300Y97100D01*
Y100099D02*
X210701Y100699D01*
Y101899D01*
X211300Y102499D01*
X211900D01*
X212500Y101899D01*
Y101299D01*
Y101899D01*
X213100Y102499D01*
X213700D01*
X214299Y101899D01*
Y100699D01*
X213700Y100099D01*
X204701Y95001D02*
X208299D01*
Y96800D01*
X207700Y97400D01*
X205300D01*
X204701Y96800D01*
Y95001D01*
X207700Y98600D02*
X208299Y99200D01*
Y100399D01*
X207700Y100999D01*
X205300D01*
X204701Y100399D01*
Y99200D01*
X205300Y98600D01*
X205900D01*
X206500Y99200D01*
Y100999D01*
X218601Y162200D02*
X218001Y162799D01*
X216801D01*
X216201Y162200D01*
Y159800D01*
X216801Y159201D01*
X218001D01*
X218601Y159800D01*
X222200Y162799D02*
X219800D01*
Y161000D01*
X221000Y161600D01*
X221600D01*
X222200Y161000D01*
Y159800D01*
X221600Y159201D01*
X220400D01*
X219800Y159800D01*
X225199Y159201D02*
Y162799D01*
X223399Y161000D01*
X225799D01*
X344903Y111201D02*
Y114799D01*
X346703D01*
X347302Y114200D01*
Y113000D01*
X346703Y112400D01*
X344903D01*
X346103D02*
X347302Y111201D01*
X348502D02*
X349701D01*
X349102D01*
Y114799D01*
X348502Y114200D01*
X351501D02*
X352101Y114799D01*
X353300D01*
X353900Y114200D01*
Y113600D01*
X353300Y113000D01*
X352701D01*
X353300D01*
X353900Y112400D01*
Y111800D01*
X353300Y111201D01*
X352101D01*
X351501Y111800D01*
X355100Y113000D02*
X357499D01*
X358699Y111201D02*
X359898D01*
X359298D01*
Y114799D01*
X358699Y114200D01*
X364097Y114799D02*
X362897Y114200D01*
X361698Y113000D01*
Y111800D01*
X362298Y111201D01*
X363497D01*
X364097Y111800D01*
Y112400D01*
X363497Y113000D01*
X361698D01*
X345103Y101799D02*
Y98201D01*
X346903D01*
X347502Y98800D01*
Y101200D01*
X346903Y101799D01*
X345103D01*
X348702Y98800D02*
X349302Y98201D01*
X350501D01*
X351101Y98800D01*
Y101200D01*
X350501Y101799D01*
X349302D01*
X348702Y101200D01*
Y100600D01*
X349302Y100000D01*
X351101D01*
X352301D02*
X354700D01*
X355900Y101799D02*
Y98201D01*
X357699D01*
X358299Y98800D01*
Y101200D01*
X357699Y101799D01*
X355900D01*
X359499Y98201D02*
X360698D01*
X360098D01*
Y101799D01*
X359499Y101200D01*
X364897Y98201D02*
X362498D01*
X364897Y100600D01*
Y101200D01*
X364297Y101799D01*
X363097D01*
X362498Y101200D01*
X239601Y143299D02*
X242000Y139701D01*
Y143299D02*
X239601Y139701D01*
X243200D02*
X244399D01*
X243799D01*
Y143299D01*
X243200Y142700D01*
X114799Y263501D02*
X111201D01*
Y265300D01*
X111800Y265900D01*
X113000D01*
X113600Y265300D01*
Y263501D01*
Y264701D02*
X114799Y265900D01*
X111201Y267100D02*
Y269499D01*
X111800D01*
X114200Y267100D01*
X114799D01*
X119400Y263599D02*
X115802D01*
Y265399D01*
X116401Y265999D01*
X117601D01*
X118201Y265399D01*
Y263599D01*
Y264799D02*
X119400Y265999D01*
X115802Y269597D02*
X116401Y268398D01*
X117601Y267198D01*
X118801D01*
X119400Y267798D01*
Y268998D01*
X118801Y269597D01*
X118201D01*
X117601Y268998D01*
Y267198D01*
X124400Y263599D02*
X120801D01*
Y265399D01*
X121401Y265999D01*
X122601D01*
X123201Y265399D01*
Y263599D01*
Y264799D02*
X124400Y265999D01*
X120801Y269597D02*
Y267198D01*
X122601D01*
X122001Y268398D01*
Y268998D01*
X122601Y269597D01*
X123801D01*
X124400Y268998D01*
Y267798D01*
X123801Y267198D01*
X129299Y263501D02*
X125701D01*
Y265300D01*
X126300Y265900D01*
X127500D01*
X128100Y265300D01*
Y263501D01*
Y264701D02*
X129299Y265900D01*
Y268899D02*
X125701D01*
X127500Y267100D01*
Y269499D01*
X110801Y250599D02*
X114400D01*
Y252399D01*
X113801Y252999D01*
X111401D01*
X110801Y252399D01*
Y250599D01*
Y254198D02*
Y256597D01*
X111401D01*
X113801Y254198D01*
X114400D01*
X115802Y250599D02*
X119400D01*
Y252399D01*
X118801Y252999D01*
X116401D01*
X115802Y252399D01*
Y250599D01*
Y256597D02*
X116401Y255398D01*
X117601Y254198D01*
X118801D01*
X119400Y254798D01*
Y255998D01*
X118801Y256597D01*
X118201D01*
X117601Y255998D01*
Y254198D01*
X120801Y250599D02*
X124400D01*
Y252399D01*
X123801Y252999D01*
X121401D01*
X120801Y252399D01*
Y250599D01*
Y256597D02*
Y254198D01*
X122601D01*
X122001Y255398D01*
Y255998D01*
X122601Y256597D01*
X123801D01*
X124400Y255998D01*
Y254798D01*
X123801Y254198D01*
X125802Y250599D02*
X129400D01*
Y252399D01*
X128801Y252999D01*
X126401D01*
X125802Y252399D01*
Y250599D01*
X129400Y255998D02*
X125802D01*
X127601Y254198D01*
Y256597D01*
X207001Y174799D02*
Y171800D01*
X207601Y171201D01*
X208800D01*
X209400Y171800D01*
Y174799D01*
X210600Y174200D02*
X211200Y174799D01*
X212399D01*
X212999Y174200D01*
Y173600D01*
X212399Y173000D01*
X211799D01*
X212399D01*
X212999Y172400D01*
Y171800D01*
X212399Y171201D01*
X211200D01*
X210600Y171800D01*
X126801Y120201D02*
Y123799D01*
X128601D01*
X129201Y123200D01*
Y122000D01*
X128601Y121400D01*
X126801D01*
X128001D02*
X129201Y120201D01*
X132799Y123799D02*
X130400D01*
Y122000D01*
X131600Y122600D01*
X132200D01*
X132799Y122000D01*
Y120800D01*
X132200Y120201D01*
X131000D01*
X130400Y120800D01*
X133999Y120201D02*
X135199D01*
X134599D01*
Y123799D01*
X133999Y123200D01*
X85702Y175701D02*
Y179299D01*
X87501D01*
X88101Y178700D01*
Y177500D01*
X87501Y176900D01*
X85702D01*
X86901D02*
X88101Y175701D01*
X91100D02*
Y179299D01*
X89300Y177500D01*
X91700D01*
X95298Y179299D02*
X94099Y178700D01*
X92899Y177500D01*
Y176300D01*
X93499Y175701D01*
X94699D01*
X95298Y176300D01*
Y176900D01*
X94699Y177500D01*
X92899D01*
X96201Y123201D02*
Y126799D01*
X98001D01*
X98601Y126200D01*
Y125000D01*
X98001Y124400D01*
X96201D01*
X97401D02*
X98601Y123201D01*
X101600D02*
Y126799D01*
X99800Y125000D01*
X102200D01*
X105798Y126799D02*
X103399D01*
Y125000D01*
X104599Y125600D01*
X105199D01*
X105798Y125000D01*
Y123800D01*
X105199Y123201D01*
X103999D01*
X103399Y123800D01*
X118702Y125201D02*
Y128799D01*
X120501D01*
X121101Y128200D01*
Y127000D01*
X120501Y126400D01*
X118702D01*
X119901D02*
X121101Y125201D01*
X124100D02*
Y128799D01*
X122300Y127000D01*
X124700D01*
X127699Y125201D02*
Y128799D01*
X125899Y127000D01*
X128298D01*
X85202Y146201D02*
Y149799D01*
X87001D01*
X87601Y149200D01*
Y148000D01*
X87001Y147400D01*
X85202D01*
X86401D02*
X87601Y146201D01*
X90600D02*
Y149799D01*
X88800Y148000D01*
X91200D01*
X92399Y149200D02*
X92999Y149799D01*
X94199D01*
X94798Y149200D01*
Y148600D01*
X94199Y148000D01*
X93599D01*
X94199D01*
X94798Y147400D01*
Y146800D01*
X94199Y146201D01*
X92999D01*
X92399Y146800D01*
X199201Y95001D02*
X202799D01*
Y96800D01*
X202200Y97400D01*
X199800D01*
X199201Y96800D01*
Y95001D01*
X199800Y98600D02*
X199201Y99200D01*
Y100399D01*
X199800Y100999D01*
X200400D01*
X201000Y100399D01*
X201600Y100999D01*
X202200D01*
X202799Y100399D01*
Y99200D01*
X202200Y98600D01*
X201600D01*
X201000Y99200D01*
X200400Y98600D01*
X199800D01*
X201000Y99200D02*
Y100399D01*
X132601Y140200D02*
X132001Y140799D01*
X130802D01*
X130202Y140200D01*
Y137800D01*
X130802Y137201D01*
X132001D01*
X132601Y137800D01*
X133801Y137201D02*
X135001D01*
X134401D01*
Y140799D01*
X133801Y140200D01*
X138599Y137201D02*
Y140799D01*
X136800Y139000D01*
X139199D01*
X142798Y140799D02*
X141598Y140200D01*
X140399Y139000D01*
Y137800D01*
X140999Y137201D01*
X142198D01*
X142798Y137800D01*
Y138400D01*
X142198Y139000D01*
X140399D01*
X79101Y168200D02*
X78501Y168799D01*
X77302D01*
X76702Y168200D01*
Y165800D01*
X77302Y165201D01*
X78501D01*
X79101Y165800D01*
X80301Y165201D02*
X81501D01*
X80901D01*
Y168799D01*
X80301Y168200D01*
X85099Y165201D02*
Y168799D01*
X83300Y167000D01*
X85699D01*
X89298Y168799D02*
X86899D01*
Y167000D01*
X88098Y167600D01*
X88698D01*
X89298Y167000D01*
Y165800D01*
X88698Y165201D01*
X87499D01*
X86899Y165800D01*
X116601Y139200D02*
X116001Y139799D01*
X114802D01*
X114202Y139200D01*
Y136800D01*
X114802Y136201D01*
X116001D01*
X116601Y136800D01*
X117801Y136201D02*
X119000D01*
X118401D01*
Y139799D01*
X117801Y139200D01*
X122599Y136201D02*
Y139799D01*
X120800Y138000D01*
X123199D01*
X126798Y136201D02*
X124399D01*
X126798Y138600D01*
Y139200D01*
X126198Y139799D01*
X124999D01*
X124399Y139200D01*
X144201Y203200D02*
X143601Y203799D01*
X142401D01*
X141801Y203200D01*
Y200800D01*
X142401Y200201D01*
X143601D01*
X144201Y200800D01*
X147799Y203799D02*
X145400D01*
Y202000D01*
X146600Y202600D01*
X147200D01*
X147799Y202000D01*
Y200800D01*
X147200Y200201D01*
X146000D01*
X145400Y200800D01*
X148999Y200201D02*
X150199D01*
X149599D01*
Y203799D01*
X148999Y203200D01*
X156300Y121601D02*
X155701Y121001D01*
Y119801D01*
X156300Y119202D01*
X158700D01*
X159299Y119801D01*
Y121001D01*
X158700Y121601D01*
X159299Y124600D02*
X155701D01*
X157500Y122800D01*
Y125200D01*
X158700Y126399D02*
X159299Y126999D01*
Y128199D01*
X158700Y128798D01*
X156300D01*
X155701Y128199D01*
Y126999D01*
X156300Y126399D01*
X156900D01*
X157500Y126999D01*
Y128798D01*
X208799Y107001D02*
X205201D01*
Y108801D01*
X205800Y109401D01*
X207000D01*
X207600Y108801D01*
Y107001D01*
Y108201D02*
X208799Y109401D01*
Y110600D02*
Y111800D01*
Y111200D01*
X205201D01*
X205800Y110600D01*
X208799Y115999D02*
Y113599D01*
X206400Y115999D01*
X205800D01*
X205201Y115399D01*
Y114199D01*
X205800Y113599D01*
X166601Y140701D02*
Y144299D01*
X168401D01*
X169000Y143700D01*
Y142500D01*
X168401Y141900D01*
X166601D01*
X167801D02*
X169000Y140701D01*
X170200D02*
X171400D01*
X170800D01*
Y144299D01*
X170200Y143700D01*
X173199Y140701D02*
X174399D01*
X173799D01*
Y144299D01*
X173199Y143700D01*
X203799Y108501D02*
X200201D01*
Y110300D01*
X200800Y110900D01*
X202000D01*
X202600Y110300D01*
Y108501D01*
Y109701D02*
X203799Y110900D01*
X203200Y112100D02*
X203799Y112700D01*
Y113899D01*
X203200Y114499D01*
X200800D01*
X200201Y113899D01*
Y112700D01*
X200800Y112100D01*
X201400D01*
X202000Y112700D01*
Y114499D01*
X305501Y119201D02*
Y122799D01*
X307300D01*
X307900Y122200D01*
Y121000D01*
X307300Y120400D01*
X305501D01*
X306701D02*
X307900Y119201D01*
X309100Y122200D02*
X309700Y122799D01*
X310899D01*
X311499Y122200D01*
Y121600D01*
X310899Y121000D01*
X311499Y120400D01*
Y119800D01*
X310899Y119201D01*
X309700D01*
X309100Y119800D01*
Y120400D01*
X309700Y121000D01*
X309100Y121600D01*
Y122200D01*
X309700Y121000D02*
X310899D01*
X305001Y113201D02*
Y116799D01*
X306801D01*
X307401Y116200D01*
Y115000D01*
X306801Y114400D01*
X305001D01*
X306201D02*
X307401Y113201D01*
X308600D02*
X309800D01*
X309200D01*
Y116799D01*
X308600Y116200D01*
X311599D02*
X312199Y116799D01*
X313399D01*
X313999Y116200D01*
Y113800D01*
X313399Y113201D01*
X312199D01*
X311599Y113800D01*
Y116200D01*
X291900Y227200D02*
X291300Y227799D01*
X290101D01*
X289501Y227200D01*
Y224800D01*
X290101Y224201D01*
X291300D01*
X291900Y224800D01*
X295499Y227799D02*
X293100D01*
Y226000D01*
X294299Y226600D01*
X294899D01*
X295499Y226000D01*
Y224800D01*
X294899Y224201D01*
X293700D01*
X293100Y224800D01*
X334501Y239701D02*
Y243299D01*
X336300D01*
X336900Y242700D01*
Y241500D01*
X336300Y240900D01*
X334501D01*
X340499Y239701D02*
X338100D01*
X340499Y242100D01*
Y242700D01*
X339899Y243299D01*
X338700D01*
X338100Y242700D01*
X228601Y135200D02*
X228001Y135799D01*
X226801D01*
X226202Y135200D01*
Y132800D01*
X226801Y132201D01*
X228001D01*
X228601Y132800D01*
X231600Y132201D02*
Y135799D01*
X229800Y134000D01*
X232200D01*
X235799Y135799D02*
X233399D01*
Y134000D01*
X234599Y134600D01*
X235199D01*
X235799Y134000D01*
Y132800D01*
X235199Y132201D01*
X233999D01*
X233399Y132800D01*
X351201Y172700D02*
X350601Y173299D01*
X349401D01*
X348801Y172700D01*
Y170300D01*
X349401Y169701D01*
X350601D01*
X351201Y170300D01*
X354200Y169701D02*
Y173299D01*
X352400Y171500D01*
X354799D01*
X355999Y169701D02*
X357199D01*
X356599D01*
Y173299D01*
X355999Y172700D01*
X341101Y147200D02*
X340501Y147799D01*
X339301D01*
X338702Y147200D01*
Y144800D01*
X339301Y144201D01*
X340501D01*
X341101Y144800D01*
X344100Y144201D02*
Y147799D01*
X342300Y146000D01*
X344700D01*
X345899Y147200D02*
X346499Y147799D01*
X347699D01*
X348299Y147200D01*
Y144800D01*
X347699Y144201D01*
X346499D01*
X345899Y144800D01*
Y147200D01*
X293263Y95399D02*
X293862Y95999D01*
Y97199D01*
X293263Y97798D01*
X290863D01*
X290264Y97199D01*
Y95999D01*
X290863Y95399D01*
X293263Y94200D02*
X293862Y93600D01*
Y92400D01*
X293263Y91800D01*
X292663D01*
X292063Y92400D01*
Y93000D01*
Y92400D01*
X291463Y91800D01*
X290863D01*
X290264Y92400D01*
Y93600D01*
X290863Y94200D01*
Y90601D02*
X290264Y90001D01*
Y88801D01*
X290863Y88201D01*
X293263D01*
X293862Y88801D01*
Y90001D01*
X293263Y90601D01*
X292663D01*
X292063Y90001D01*
Y88201D01*
X273200Y136899D02*
X273799Y137499D01*
Y138699D01*
X273200Y139298D01*
X270800D01*
X270201Y138699D01*
Y137499D01*
X270800Y136899D01*
X273200Y135700D02*
X273799Y135100D01*
Y133900D01*
X273200Y133300D01*
X272600D01*
X272000Y133900D01*
Y134500D01*
Y133900D01*
X271400Y133300D01*
X270800D01*
X270201Y133900D01*
Y135100D01*
X270800Y135700D01*
X273200Y132101D02*
X273799Y131501D01*
Y130301D01*
X273200Y129701D01*
X272600D01*
X272000Y130301D01*
X271400Y129701D01*
X270800D01*
X270201Y130301D01*
Y131501D01*
X270800Y132101D01*
X271400D01*
X272000Y131501D01*
X272600Y132101D01*
X273200D01*
X272000Y131501D02*
Y130301D01*
X263700Y137399D02*
X264299Y137999D01*
Y139199D01*
X263700Y139798D01*
X261300D01*
X260701Y139199D01*
Y137999D01*
X261300Y137399D01*
X263700Y136200D02*
X264299Y135600D01*
Y134400D01*
X263700Y133800D01*
X263100D01*
X262500Y134400D01*
Y135000D01*
Y134400D01*
X261900Y133800D01*
X261300D01*
X260701Y134400D01*
Y135600D01*
X261300Y136200D01*
X264299Y132601D02*
Y130201D01*
X263700D01*
X261300Y132601D01*
X260701D01*
X268700Y136899D02*
X269299Y137499D01*
Y138699D01*
X268700Y139298D01*
X266300D01*
X265701Y138699D01*
Y137499D01*
X266300Y136899D01*
X268700Y135700D02*
X269299Y135100D01*
Y133900D01*
X268700Y133300D01*
X268100D01*
X267500Y133900D01*
Y134500D01*
Y133900D01*
X266900Y133300D01*
X266300D01*
X265701Y133900D01*
Y135100D01*
X266300Y135700D01*
X269299Y129701D02*
X268700Y130901D01*
X267500Y132101D01*
X266300D01*
X265701Y131501D01*
Y130301D01*
X266300Y129701D01*
X266900D01*
X267500Y130301D01*
Y132101D01*
X349601Y166200D02*
X349001Y166799D01*
X347801D01*
X347201Y166200D01*
Y163800D01*
X347801Y163201D01*
X349001D01*
X349601Y163800D01*
X350800Y166200D02*
X351400Y166799D01*
X352600D01*
X353200Y166200D01*
Y165600D01*
X352600Y165000D01*
X352000D01*
X352600D01*
X353200Y164400D01*
Y163800D01*
X352600Y163201D01*
X351400D01*
X350800Y163800D01*
X356799Y166799D02*
X354399D01*
Y165000D01*
X355599Y165600D01*
X356199D01*
X356799Y165000D01*
Y163800D01*
X356199Y163201D01*
X354999D01*
X354399Y163800D01*
X227001Y248668D02*
X230333D01*
X230999Y249334D01*
Y250667D01*
X230333Y251334D01*
X227001D01*
Y255332D02*
X227667Y253999D01*
X229000Y252666D01*
X230333D01*
X230999Y253333D01*
Y254666D01*
X230333Y255332D01*
X229666D01*
X229000Y254666D01*
Y252666D01*
X252001Y277168D02*
X255333D01*
X255999Y277835D01*
Y279168D01*
X255333Y279834D01*
X252001D01*
X255999Y283833D02*
Y281167D01*
X253333Y283833D01*
X252667D01*
X252001Y283167D01*
Y281834D01*
X252667Y281167D01*
X252001Y287832D02*
Y285166D01*
X254000D01*
X253333Y286499D01*
Y287165D01*
X254000Y287832D01*
X255333D01*
X255999Y287165D01*
Y285832D01*
X255333Y285166D01*
X223501Y282168D02*
X226833D01*
X227499Y282834D01*
Y284167D01*
X226833Y284834D01*
X223501D01*
Y286167D02*
Y288832D01*
X224167D01*
X226833Y286167D01*
X227499D01*
X318168Y261999D02*
Y258667D01*
X318834Y258001D01*
X320167D01*
X320834Y258667D01*
Y261999D01*
X324166Y258001D02*
Y261999D01*
X322166Y260000D01*
X324832D01*
X244499Y258668D02*
X240501D01*
Y260668D01*
X241167Y261334D01*
X242500D01*
X243166Y260668D01*
Y258668D01*
Y260001D02*
X244499Y261334D01*
X240501Y265333D02*
Y262667D01*
X242500D01*
X241833Y264000D01*
Y264667D01*
X242500Y265333D01*
X243833D01*
X244499Y264667D01*
Y263334D01*
X243833Y262667D01*
X244499Y269332D02*
Y266666D01*
X241833Y269332D01*
X241167D01*
X240501Y268665D01*
Y267332D01*
X241167Y266666D01*
X264502Y305501D02*
Y309499D01*
X266501D01*
X267167Y308833D01*
Y307500D01*
X266501Y306834D01*
X264502D01*
X265834D02*
X267167Y305501D01*
X268500D02*
X269833D01*
X269167D01*
Y309499D01*
X268500Y308833D01*
X271833D02*
X272499Y309499D01*
X273832D01*
X274498Y308833D01*
Y308166D01*
X273832Y307500D01*
X274498Y306834D01*
Y306167D01*
X273832Y305501D01*
X272499D01*
X271833Y306167D01*
Y306834D01*
X272499Y307500D01*
X271833Y308166D01*
Y308833D01*
X272499Y307500D02*
X273832D01*
X93168Y301501D02*
Y305499D01*
X95167D01*
X95834Y304833D01*
Y303500D01*
X95167Y302834D01*
X93168D01*
X94501D02*
X95834Y301501D01*
X97167Y304833D02*
X97833Y305499D01*
X99166D01*
X99832Y304833D01*
Y304166D01*
X99166Y303500D01*
X98499D01*
X99166D01*
X99832Y302834D01*
Y302167D01*
X99166Y301501D01*
X97833D01*
X97167Y302167D01*
X101668Y301501D02*
Y305499D01*
X103667D01*
X104333Y304833D01*
Y303500D01*
X103667Y302834D01*
X101668D01*
X103001D02*
X104333Y301501D01*
X108332D02*
X105666D01*
X108332Y304166D01*
Y304833D01*
X107666Y305499D01*
X106333D01*
X105666Y304833D01*
X110334Y301501D02*
Y305499D01*
X112334D01*
X113000Y304833D01*
Y303500D01*
X112334Y302834D01*
X110334D01*
X111667D02*
X113000Y301501D01*
X114333D02*
X115666D01*
X114999D01*
Y305499D01*
X114333Y304833D01*
X327668Y272999D02*
Y269001D01*
X330334D01*
X331666Y272333D02*
X332333Y272999D01*
X333666D01*
X334332Y272333D01*
Y271666D01*
X333666Y271000D01*
X332999D01*
X333666D01*
X334332Y270334D01*
Y269667D01*
X333666Y269001D01*
X332333D01*
X331666Y269667D01*
X328668Y289999D02*
Y286001D01*
X331334D01*
X335332D02*
X332666D01*
X335332Y288666D01*
Y289333D01*
X334666Y289999D01*
X333333D01*
X332666Y289333D01*
X334834Y309999D02*
Y306001D01*
X337500D01*
X338833D02*
X340166D01*
X339499D01*
Y309999D01*
X338833Y309333D01*
X61000Y309999D02*
X59667D01*
X60334D01*
Y306667D01*
X59667Y306001D01*
X59001D01*
X58334Y306667D01*
X62333Y306001D02*
X63666D01*
X62999D01*
Y309999D01*
X62333Y309333D01*
X92168Y274499D02*
Y270501D01*
X94167D01*
X94834Y271167D01*
Y273833D01*
X94167Y274499D01*
X92168D01*
X96166Y273833D02*
X96833Y274499D01*
X98166D01*
X98832Y273833D01*
Y273166D01*
X98166Y272500D01*
X97499D01*
X98166D01*
X98832Y271834D01*
Y271167D01*
X98166Y270501D01*
X96833D01*
X96166Y271167D01*
X101668Y274499D02*
Y270501D01*
X103667D01*
X104333Y271167D01*
Y273833D01*
X103667Y274499D01*
X101668D01*
X108332Y270501D02*
X105666D01*
X108332Y273166D01*
Y273833D01*
X107666Y274499D01*
X106333D01*
X105666Y273833D01*
X110334Y274499D02*
Y270501D01*
X112334D01*
X113000Y271167D01*
Y273833D01*
X112334Y274499D01*
X110334D01*
X114333Y270501D02*
X115666D01*
X114999D01*
Y274499D01*
X114333Y273833D01*
X240668Y301333D02*
X240002Y301999D01*
X238669D01*
X238002Y301333D01*
Y298667D01*
X238669Y298001D01*
X240002D01*
X240668Y298667D01*
X242001Y298001D02*
X243334D01*
X242667D01*
Y301999D01*
X242001Y301333D01*
X247999Y301999D02*
X246666Y301333D01*
X245333Y300000D01*
Y298667D01*
X246000Y298001D01*
X247333D01*
X247999Y298667D01*
Y299334D01*
X247333Y300000D01*
X245333D01*
X249332Y301333D02*
X249998Y301999D01*
X251331D01*
X251998Y301333D01*
Y300666D01*
X251331Y300000D01*
X251998Y299334D01*
Y298667D01*
X251331Y298001D01*
X249998D01*
X249332Y298667D01*
Y299334D01*
X249998Y300000D01*
X249332Y300666D01*
Y301333D01*
X249998Y300000D02*
X251331D01*
X257667Y262668D02*
X257001Y262002D01*
Y260669D01*
X257667Y260002D01*
X260333D01*
X260999Y260669D01*
Y262002D01*
X260333Y262668D01*
X260999Y264001D02*
Y265334D01*
Y264667D01*
X257001D01*
X257667Y264001D01*
X257001Y269999D02*
X257667Y268666D01*
X259000Y267333D01*
X260333D01*
X260999Y268000D01*
Y269333D01*
X260333Y269999D01*
X259666D01*
X259000Y269333D01*
Y267333D01*
X257001Y271332D02*
Y273998D01*
X257667D01*
X260333Y271332D01*
X260999D01*
X197667Y254334D02*
X197001Y253668D01*
Y252335D01*
X197667Y251668D01*
X200333D01*
X200999Y252335D01*
Y253668D01*
X200333Y254334D01*
X197667Y255667D02*
X197001Y256334D01*
Y257666D01*
X197667Y258333D01*
X198334D01*
X199000Y257666D01*
Y257000D01*
Y257666D01*
X199667Y258333D01*
X200333D01*
X200999Y257666D01*
Y256334D01*
X200333Y255667D01*
X200999Y261665D02*
X197001D01*
X199000Y259666D01*
Y262332D01*
X191667Y254334D02*
X191001Y253668D01*
Y252335D01*
X191667Y251668D01*
X194333D01*
X194999Y252335D01*
Y253668D01*
X194333Y254334D01*
X191667Y255667D02*
X191001Y256334D01*
Y257666D01*
X191667Y258333D01*
X192333D01*
X193000Y257666D01*
Y257000D01*
Y257666D01*
X193667Y258333D01*
X194333D01*
X194999Y257666D01*
Y256334D01*
X194333Y255667D01*
X191667Y259666D02*
X191001Y260332D01*
Y261665D01*
X191667Y262332D01*
X192333D01*
X193000Y261665D01*
Y260999D01*
Y261665D01*
X193667Y262332D01*
X194333D01*
X194999Y261665D01*
Y260332D01*
X194333Y259666D01*
X227667Y270334D02*
X227001Y269668D01*
Y268335D01*
X227667Y267668D01*
X230333D01*
X230999Y268335D01*
Y269668D01*
X230333Y270334D01*
X227667Y271667D02*
X227001Y272334D01*
Y273666D01*
X227667Y274333D01*
X228334D01*
X229000Y273666D01*
Y273000D01*
Y273666D01*
X229666Y274333D01*
X230333D01*
X230999Y273666D01*
Y272334D01*
X230333Y271667D01*
X230999Y278332D02*
Y275666D01*
X228334Y278332D01*
X227667D01*
X227001Y277665D01*
Y276332D01*
X227667Y275666D01*
X198167Y271001D02*
X197501Y270334D01*
Y269001D01*
X198167Y268335D01*
X200833D01*
X201499Y269001D01*
Y270334D01*
X200833Y271001D01*
X198167Y272334D02*
X197501Y273000D01*
Y274333D01*
X198167Y274999D01*
X198834D01*
X199500Y274333D01*
Y273666D01*
Y274333D01*
X200167Y274999D01*
X200833D01*
X201499Y274333D01*
Y273000D01*
X200833Y272334D01*
X201499Y276332D02*
Y277665D01*
Y276999D01*
X197501D01*
X198167Y276332D01*
X292334Y248333D02*
X291668Y248999D01*
X290335D01*
X289668Y248333D01*
Y245667D01*
X290335Y245001D01*
X291668D01*
X292334Y245667D01*
X293667Y248333D02*
X294334Y248999D01*
X295666D01*
X296333Y248333D01*
Y247666D01*
X295666Y247000D01*
X295000D01*
X295666D01*
X296333Y246334D01*
Y245667D01*
X295666Y245001D01*
X294334D01*
X293667Y245667D01*
X297666Y248333D02*
X298332Y248999D01*
X299665D01*
X300332Y248333D01*
Y245667D01*
X299665Y245001D01*
X298332D01*
X297666Y245667D01*
Y248333D01*
X342334Y272333D02*
X341668Y272999D01*
X340335D01*
X339668Y272333D01*
Y269667D01*
X340335Y269001D01*
X341668D01*
X342334Y269667D01*
X346333Y269001D02*
X343667D01*
X346333Y271666D01*
Y272333D01*
X345666Y272999D01*
X344334D01*
X343667Y272333D01*
X347666Y269667D02*
X348332Y269001D01*
X349665D01*
X350332Y269667D01*
Y272333D01*
X349665Y272999D01*
X348332D01*
X347666Y272333D01*
Y271666D01*
X348332Y271000D01*
X350332D01*
X271834Y271333D02*
X271168Y271999D01*
X269835D01*
X269168Y271333D01*
Y268667D01*
X269835Y268001D01*
X271168D01*
X271834Y268667D01*
X275833Y268001D02*
X273167D01*
X275833Y270666D01*
Y271333D01*
X275166Y271999D01*
X273834D01*
X273167Y271333D01*
X277166D02*
X277832Y271999D01*
X279165D01*
X279832Y271333D01*
Y270666D01*
X279165Y270000D01*
X279832Y269334D01*
Y268667D01*
X279165Y268001D01*
X277832D01*
X277166Y268667D01*
Y269334D01*
X277832Y270000D01*
X277166Y270666D01*
Y271333D01*
X277832Y270000D02*
X279165D01*
X271834Y286333D02*
X271168Y286999D01*
X269835D01*
X269168Y286333D01*
Y283667D01*
X269835Y283001D01*
X271168D01*
X271834Y283667D01*
X275833Y283001D02*
X273167D01*
X275833Y285666D01*
Y286333D01*
X275166Y286999D01*
X273834D01*
X273167Y286333D01*
X277166Y286999D02*
X279832D01*
Y286333D01*
X277166Y283667D01*
Y283001D01*
X341834Y288833D02*
X341168Y289499D01*
X339835D01*
X339168Y288833D01*
Y286167D01*
X339835Y285501D01*
X341168D01*
X341834Y286167D01*
X345833Y285501D02*
X343167D01*
X345833Y288166D01*
Y288833D01*
X345166Y289499D01*
X343834D01*
X343167Y288833D01*
X349832Y289499D02*
X348499Y288833D01*
X347166Y287500D01*
Y286167D01*
X347832Y285501D01*
X349165D01*
X349832Y286167D01*
Y286834D01*
X349165Y287500D01*
X347166D01*
X263834Y294333D02*
X263168Y294999D01*
X261835D01*
X261168Y294333D01*
Y291667D01*
X261835Y291001D01*
X263168D01*
X263834Y291667D01*
X267833Y291001D02*
X265167D01*
X267833Y293666D01*
Y294333D01*
X267166Y294999D01*
X265834D01*
X265167Y294333D01*
X271832Y294999D02*
X269166D01*
Y293000D01*
X270499Y293666D01*
X271165D01*
X271832Y293000D01*
Y291667D01*
X271165Y291001D01*
X269832D01*
X269166Y291667D01*
D14*
X307394Y106409D02*
Y107590D01*
X215909Y132169D02*
X217091D01*
X211909D02*
X213090D01*
X216409Y149201D02*
X217590D01*
X152000Y305000D02*
X172000D01*
X152000Y265000D02*
X172000D01*
X152000D02*
Y305000D01*
X172000Y265000D02*
Y305000D01*
X344331Y170909D02*
Y172090D01*
X332409Y143169D02*
X333591D01*
X109409Y120669D02*
X110591D01*
X114409D02*
X115591D01*
X117669Y131910D02*
Y133091D01*
X305000Y231671D02*
Y234353D01*
X330000Y231671D02*
Y234353D01*
X238516Y281902D02*
Y284756D01*
X247158D02*
X250484D01*
X238516D02*
X241843D01*
X250484Y281902D02*
Y284756D01*
X243417Y279244D02*
X245583D01*
X101201Y175909D02*
Y177091D01*
X101831Y166409D02*
Y167590D01*
X101669Y147909D02*
Y149091D01*
X416811Y130445D02*
Y148555D01*
X393189Y130445D02*
X416811D01*
X393189D02*
Y148555D01*
X416811D01*
X418732Y181597D02*
Y199707D01*
X395110Y181597D02*
X418732D01*
X395110D02*
Y199707D01*
X418732D01*
X406669Y174909D02*
Y176091D01*
Y170410D02*
Y171591D01*
X296201Y117409D02*
Y118591D01*
X219910Y149831D02*
X221091D01*
X119858Y191500D02*
X155646D01*
Y141500D02*
Y145929D01*
X119858Y141500D02*
X155646D01*
X119858D02*
Y145929D01*
Y187071D02*
Y191500D01*
X155646Y187071D02*
Y191500D01*
X171409Y145701D02*
X172591D01*
X207909Y132169D02*
X209090D01*
X203409D02*
X204591D01*
X304831Y113909D02*
Y115091D01*
X143425Y120047D02*
X146575D01*
X143425Y125953D02*
X146575D01*
X143240Y134953D02*
X146390D01*
X143240Y129047D02*
X146390D01*
X271410Y150331D02*
X272591D01*
X264409Y150831D02*
X265591D01*
X267910Y150331D02*
X269091D01*
X264500Y228000D02*
Y238000D01*
X284500D01*
Y228000D02*
Y238000D01*
X264500Y228000D02*
X284500D01*
X203500Y244465D02*
Y260500D01*
X223843Y248957D02*
Y256043D01*
D15*
X183335Y139000D02*
X186667Y142332D01*
Y139000D02*
X183335Y142332D01*
X185001Y139000D02*
Y142332D01*
X186667Y140666D02*
X183335D01*
D16*
X74999Y212498D02*
X73999Y213498D01*
X72000D01*
X71000Y212498D01*
Y208500D01*
X72000Y207500D01*
X73999D01*
X74999Y208500D01*
Y210499D01*
X72999D01*
X76998Y207500D02*
Y213498D01*
X80997Y207500D01*
Y213498D01*
X82996D02*
Y207500D01*
X85995D01*
X86995Y208500D01*
Y212498D01*
X85995Y213498D01*
X82996D01*
X414500Y85498D02*
X415500Y86498D01*
X417499D01*
X418499Y85498D01*
Y84499D01*
X417499Y83499D01*
X416499D01*
X417499D01*
X418499Y82499D01*
Y81500D01*
X417499Y80500D01*
X415500D01*
X414500Y81500D01*
X420498Y86498D02*
Y82499D01*
X422497Y80500D01*
X424497Y82499D01*
Y86498D01*
X426496Y85498D02*
X427496Y86498D01*
X429495D01*
X430495Y85498D01*
Y84499D01*
X429495Y83499D01*
X428496D01*
X429495D01*
X430495Y82499D01*
Y81500D01*
X429495Y80500D01*
X427496D01*
X426496Y81500D01*
X75499Y248498D02*
X71500D01*
Y245499D01*
X73499Y246499D01*
X74499D01*
X75499Y245499D01*
Y243500D01*
X74499Y242500D01*
X72500D01*
X71500Y243500D01*
X77498Y248498D02*
Y244499D01*
X79497Y242500D01*
X81497Y244499D01*
Y248498D01*
X83496Y247498D02*
X84496Y248498D01*
X86495D01*
X87495Y247498D01*
Y243500D01*
X86495Y242500D01*
X84496D01*
X83496Y243500D01*
Y247498D01*
X71500Y299500D02*
X73499D01*
X72500D01*
Y305498D01*
X71500Y304498D01*
X76498Y305498D02*
Y301499D01*
X78498Y299500D01*
X80497Y301499D01*
Y305498D01*
X82496Y304498D02*
X83496Y305498D01*
X85496D01*
X86495Y304498D01*
Y303499D01*
X85496Y302499D01*
X86495Y301499D01*
Y300500D01*
X85496Y299500D01*
X83496D01*
X82496Y300500D01*
Y301499D01*
X83496Y302499D01*
X82496Y303499D01*
Y304498D01*
X83496Y302499D02*
X85496D01*
X126002Y226499D02*
X125002Y225499D01*
Y223500D01*
X126002Y222500D01*
X130000D01*
X131000Y223500D01*
Y225499D01*
X130000Y226499D01*
X131000Y228498D02*
X127001D01*
X125002Y230497D01*
X127001Y232497D01*
X131000D01*
X128001D01*
Y228498D01*
X131000Y234496D02*
X125002D01*
X131000Y238495D01*
X125002D01*
Y240494D02*
X131000D01*
X128001D01*
Y244493D01*
X125002D01*
X131000D01*
X134002Y226499D02*
X133002Y225499D01*
Y223500D01*
X134002Y222500D01*
X138000D01*
X139000Y223500D01*
Y225499D01*
X138000Y226499D01*
X139000Y228498D02*
X135001D01*
X133002Y230497D01*
X135001Y232497D01*
X139000D01*
X136001D01*
Y228498D01*
X139000Y234496D02*
X133002D01*
X139000Y238495D01*
X133002D01*
Y240494D02*
X139000D01*
Y244493D01*
X149502Y211000D02*
X154500D01*
X155500Y212000D01*
Y213999D01*
X154500Y214999D01*
X149502D01*
X155500Y216998D02*
X151501D01*
X149502Y218997D01*
X151501Y220997D01*
X155500D01*
X152501D01*
Y216998D01*
X155500Y222996D02*
X149502D01*
Y225995D01*
X150502Y226995D01*
X152501D01*
X153501Y225995D01*
Y222996D01*
Y224995D02*
X155500Y226995D01*
X149502Y228994D02*
Y232993D01*
Y230994D01*
X155500D01*
X149502Y234992D02*
Y238991D01*
Y236992D01*
X155500D01*
X149502Y240990D02*
X155500Y244989D01*
X149502D02*
X155500Y240990D01*
X141502Y211500D02*
X146500D01*
X147500Y212500D01*
Y214499D01*
X146500Y215499D01*
X141502D01*
X147500Y217498D02*
X143501D01*
X141502Y219497D01*
X143501Y221497D01*
X147500D01*
X144501D01*
Y217498D01*
X147500Y223496D02*
X141502D01*
Y226495D01*
X142502Y227495D01*
X144501D01*
X145501Y226495D01*
Y223496D01*
Y225496D02*
X147500Y227495D01*
X141502Y229494D02*
Y233493D01*
Y231493D01*
X147500D01*
Y235492D02*
X141502D01*
Y238491D01*
X142502Y239491D01*
X144501D01*
X145501Y238491D01*
Y235492D01*
Y237492D02*
X147500Y239491D01*
X141502Y241490D02*
X147500Y245489D01*
X141502D02*
X147500Y241490D01*
X163001Y308501D02*
Y314499D01*
X166000D01*
X167000Y313499D01*
Y311500D01*
X166000Y310500D01*
X163001D01*
X168999Y308501D02*
X170999D01*
X169999D01*
Y314499D01*
X168999Y313499D01*
X26501Y234501D02*
Y232502D01*
Y233502D01*
X31499D01*
X32499Y232502D01*
Y231502D01*
X31499Y230502D01*
X32499Y236501D02*
Y238500D01*
Y237500D01*
X26501D01*
X27501Y236501D01*
X26501Y245498D02*
X27501Y243498D01*
X29500Y241499D01*
X31499D01*
X32499Y242498D01*
Y244498D01*
X31499Y245498D01*
X30500D01*
X29500Y244498D01*
Y241499D01*
X378001Y56501D02*
Y54502D01*
Y55501D01*
X382999D01*
X383999Y54502D01*
Y53502D01*
X382999Y52502D01*
X383999Y58500D02*
Y60500D01*
Y59500D01*
X378001D01*
X379001Y58500D01*
X378001Y67498D02*
Y63499D01*
X381000D01*
X380000Y65498D01*
Y66498D01*
X381000Y67498D01*
X382999D01*
X383999Y66498D01*
Y64499D01*
X382999Y63499D01*
X25001Y274501D02*
Y272502D01*
Y273501D01*
X29999D01*
X30999Y272502D01*
Y271502D01*
X29999Y270502D01*
X30999Y276501D02*
Y278500D01*
Y277500D01*
X25001D01*
X26001Y276501D01*
X30999Y284498D02*
X25001D01*
X28000Y281499D01*
Y285498D01*
X75299Y123998D02*
X73299D01*
X74299D01*
Y119000D01*
X73299Y118000D01*
X72300D01*
X71300Y119000D01*
X80297Y118000D02*
Y123998D01*
X77298Y120999D01*
X81297D01*
X277500Y199798D02*
Y194800D01*
X278500Y193800D01*
X280499D01*
X281499Y194800D01*
Y199798D01*
X287497Y193800D02*
X283498D01*
X287497Y197799D01*
Y198798D01*
X286497Y199798D01*
X284498D01*
X283498Y198798D01*
X118300Y200998D02*
Y196000D01*
X119300Y195000D01*
X121299D01*
X122299Y196000D01*
Y200998D01*
X124298Y195000D02*
X126297D01*
X125298D01*
Y200998D01*
X124298Y199998D01*
X133295Y200998D02*
X129296D01*
Y197999D01*
X131296Y198999D01*
X132296D01*
X133295Y197999D01*
Y196000D01*
X132296Y195000D01*
X130296D01*
X129296Y196000D01*
X402501Y299499D02*
X401501Y300499D01*
X399502D01*
X398502Y299499D01*
Y298500D01*
X399502Y297500D01*
X401501D01*
X402501Y296500D01*
Y295501D01*
X401501Y294501D01*
X399502D01*
X398502Y295501D01*
X404500Y300499D02*
Y294501D01*
X406500Y296500D01*
X408499Y294501D01*
Y300499D01*
X410498Y294501D02*
X412498D01*
X411498D01*
Y300499D01*
X410498Y299499D01*
X265100Y241400D02*
Y247398D01*
X268099D01*
X269099Y246398D01*
Y244399D01*
X268099Y243399D01*
X265100D01*
X271098Y241400D02*
X273097D01*
X272098D01*
Y247398D01*
X271098Y246398D01*
M02*
