G04*
G04 #@! TF.GenerationSoftware,Altium Limited,Altium Designer,21.6.4 (81)*
G04*
G04 Layer_Physical_Order=3*
G04 Layer_Color=128*
%FSLAX25Y25*%
%MOIN*%
G70*
G04*
G04 #@! TF.SameCoordinates,32ACE0EF-A2FC-4BC7-9326-31937D1A4F50*
G04*
G04*
G04 #@! TF.FilePolarity,Negative*
G04*
G01*
G75*
%ADD37C,0.01600*%
%ADD79C,0.01800*%
%ADD82C,0.04000*%
%ADD83C,0.05000*%
%ADD84C,0.04343*%
G04:AMPARAMS|DCode=85|XSize=82.622mil|YSize=82.622mil|CornerRadius=0mil|HoleSize=0mil|Usage=FLASHONLY|Rotation=0.000|XOffset=0mil|YOffset=0mil|HoleType=Round|Shape=Relief|Width=4mil|Gap=4mil|Entries=4|*
%AMTHD85*
7,0,0,0.08262,0.07462,0.00400,45*
%
%ADD85THD85*%
%ADD86C,0.05900*%
%ADD87C,0.04300*%
%ADD90C,0.13800*%
%ADD91C,0.07200*%
%ADD92C,0.02300*%
%ADD93C,0.01587*%
G36*
X125250Y80500D02*
X130000D01*
Y67500D01*
X125250D01*
Y51800D01*
X137550D01*
Y45600D01*
X77450D01*
Y51800D01*
X89750D01*
Y67500D01*
X85000D01*
Y80500D01*
X89750D01*
Y92900D01*
X125250D01*
Y80500D01*
D02*
G37*
D37*
X216347Y307347D02*
D03*
X277880Y158642D02*
D03*
X233000Y156500D02*
D03*
X250500Y164500D02*
D03*
X247203Y162412D02*
D03*
X244000Y160500D02*
D03*
X241000Y158500D02*
D03*
X276350Y151000D02*
D03*
X284500Y104500D02*
D03*
X292000Y107000D02*
D03*
X190500Y161401D02*
D03*
X176500Y156500D02*
D03*
X178929Y158366D02*
D03*
X195000Y156500D02*
D03*
X190000Y151401D02*
D03*
X199157Y161127D02*
D03*
X201000Y140500D02*
D03*
X199500Y151500D02*
D03*
X289600Y152500D02*
D03*
X220850Y140193D02*
D03*
X214500Y152901D02*
D03*
X226201Y138102D02*
D03*
X278000Y117000D02*
D03*
Y153000D02*
D03*
X268683Y179317D02*
D03*
X283000Y118401D02*
D03*
X284840Y139650D02*
D03*
X294500Y114500D02*
D03*
X288000Y110150D02*
D03*
X282500Y112500D02*
D03*
X294376Y139124D02*
D03*
X286834Y148696D02*
D03*
X160000Y183901D02*
D03*
X160500Y173901D02*
D03*
X402500Y201500D02*
D03*
X289566Y149425D02*
D03*
X324173Y162062D02*
D03*
X292639Y174622D02*
D03*
X207492Y314008D02*
D03*
X207692Y308725D02*
D03*
X210992Y311508D02*
D03*
X214000Y316850D02*
D03*
X211500Y302500D02*
D03*
X90500Y309000D02*
D03*
X85500Y306500D02*
D03*
X78500Y308000D02*
D03*
X89683Y312187D02*
D03*
X86500Y312500D02*
D03*
X76023Y311908D02*
D03*
X222023Y318408D02*
D03*
X114000Y184000D02*
D03*
X100000Y148500D02*
D03*
X103500Y158500D02*
D03*
X406000Y129500D02*
D03*
X414000Y150000D02*
D03*
X391000Y140500D02*
D03*
X394486Y191590D02*
D03*
X421000Y183000D02*
D03*
X408000Y179500D02*
D03*
X270500Y276000D02*
D03*
X319000Y249000D02*
D03*
X309000D02*
D03*
X209722Y298000D02*
D03*
X219000Y313000D02*
D03*
X198000Y286000D02*
D03*
X200000Y278500D02*
D03*
X216500Y298000D02*
D03*
X298976Y174583D02*
D03*
X299000Y218000D02*
D03*
X346000Y286000D02*
D03*
X341500Y279500D02*
D03*
X334500Y266500D02*
D03*
X346000Y279500D02*
D03*
X320996Y184004D02*
D03*
X324025Y183971D02*
D03*
X316500Y189000D02*
D03*
X313000Y192000D02*
D03*
X327400Y161675D02*
D03*
X289566Y180921D02*
D03*
X296000Y174500D02*
D03*
X283190Y143126D02*
D03*
X253000Y256500D02*
D03*
X99504Y163500D02*
D03*
X412500Y207500D02*
D03*
X404000Y150000D02*
D03*
X301000Y167220D02*
D03*
X307500Y160500D02*
D03*
X301500D02*
D03*
X307500Y167469D02*
D03*
X295850Y152600D02*
D03*
X286400Y165175D02*
D03*
X135000Y127500D02*
D03*
X244000Y295000D02*
D03*
X337531Y272532D02*
D03*
X326500Y271000D02*
D03*
X302000Y252500D02*
D03*
X327000Y290500D02*
D03*
X293000Y280000D02*
D03*
X279500Y293000D02*
D03*
X327000Y305500D02*
D03*
X280500D02*
D03*
X211500Y247000D02*
D03*
X206000Y269000D02*
D03*
X214000Y293000D02*
D03*
X105000Y276500D02*
D03*
X196610Y239831D02*
D03*
D79*
X227000Y273500D02*
D03*
D82*
X224500Y314000D02*
Y364000D01*
X157000D02*
X224500D01*
X157000Y314000D02*
Y364000D01*
X150000Y314000D02*
X157000D01*
X150000D02*
Y364000D01*
X63500D02*
X150000D01*
X63500Y314000D02*
Y364000D01*
X0Y314000D02*
X63500D01*
X0Y39000D02*
Y314000D01*
Y39000D02*
X77500D01*
Y45600D01*
X77450D02*
X77500D01*
X77450Y51800D02*
X77500D01*
Y52000D01*
X89750D01*
Y67500D01*
X84500D02*
X89750D01*
X83846Y67532D02*
X84500Y67500D01*
X82564Y67792D02*
X83846Y67532D01*
X81359Y68303D02*
X82564Y67792D01*
X80281Y69045D02*
X81359Y68303D01*
X79373Y69987D02*
X80281Y69045D01*
X78672Y71092D02*
X79373Y69987D01*
X78206Y72314D02*
X78672Y71092D01*
X77994Y73605D02*
X78206Y72314D01*
X77994Y73605D02*
X78044Y74913D01*
X78355Y76183D01*
X78914Y77367D01*
X79698Y78414D01*
X80675Y79284D01*
X81807Y79940D01*
X83047Y80358D01*
X84345Y80518D01*
X85000Y80500D01*
X89500D01*
Y93000D01*
X125000D01*
Y92900D02*
Y93000D01*
Y92900D02*
X125250D01*
X130000Y80500D02*
Y80500D01*
Y80500D02*
X130671Y80517D01*
X132000Y80344D01*
X133265Y79904D01*
X134414Y79213D01*
X135398Y78303D01*
X136174Y77210D01*
X136711Y75982D01*
X136985Y74670D01*
Y73330D02*
Y74670D01*
X136711Y72018D02*
X136985Y73330D01*
X136174Y70790D02*
X136711Y72018D01*
X135398Y69697D02*
X136174Y70790D01*
X134414Y68787D02*
X135398Y69697D01*
X133265Y68097D02*
X134414Y68787D01*
X132000Y67656D02*
X133265Y68097D01*
X130671Y67483D02*
X132000Y67656D01*
X130000Y67500D02*
X130671Y67483D01*
X125500Y67500D02*
X130000D01*
X125500Y52000D02*
Y67500D01*
Y52000D02*
X137500D01*
Y51800D02*
Y52000D01*
Y51800D02*
X137550D01*
X137500Y45600D02*
X137550D01*
X137500Y39000D02*
Y45600D01*
Y39000D02*
X137600Y38900D01*
X474900D01*
X475000Y39000D01*
Y314000D01*
X224500D02*
X475000D01*
X125250Y80500D02*
Y92900D01*
Y80500D02*
X130000D01*
X137550Y45600D02*
Y51800D01*
X77450Y45600D02*
Y51800D01*
D83*
X68500Y189000D02*
X145000D01*
X68500D02*
X68500Y43000D01*
X145000Y189000D02*
X145000Y43500D01*
X139000Y189500D02*
X142000D01*
D84*
X167000Y270000D02*
D03*
X157000D02*
D03*
X167000Y280000D02*
D03*
X157000D02*
D03*
X167000Y290000D02*
D03*
X157000D02*
D03*
X167000Y300000D02*
D03*
X157000D02*
D03*
X279500Y233000D02*
D03*
X269500D02*
D03*
D85*
X420500Y62000D02*
D03*
D86*
X51500Y218000D02*
D03*
Y238000D02*
D03*
Y274500D02*
D03*
Y294500D02*
D03*
X400500Y62000D02*
D03*
D87*
X125000Y109000D02*
D03*
X120000Y99000D02*
D03*
X115000Y109000D02*
D03*
X110000Y99000D02*
D03*
X105000Y109000D02*
D03*
X100000Y99000D02*
D03*
X90000D02*
D03*
X95000Y109000D02*
D03*
D90*
X457550Y56450D02*
D03*
X17550D02*
D03*
X457550Y296450D02*
D03*
X17550D02*
D03*
D91*
X137000Y86000D02*
D03*
X78000D02*
D03*
D92*
X465000Y285000D02*
D03*
Y255000D02*
D03*
Y225000D02*
D03*
Y195000D02*
D03*
Y165000D02*
D03*
Y135000D02*
D03*
Y105000D02*
D03*
Y75000D02*
D03*
Y45000D02*
D03*
X450000Y285000D02*
D03*
X457500Y270000D02*
D03*
X450000Y255000D02*
D03*
X457500Y240000D02*
D03*
X450000Y225000D02*
D03*
X457500Y210000D02*
D03*
X450000Y195000D02*
D03*
X457500Y180000D02*
D03*
X450000Y165000D02*
D03*
X457500Y150000D02*
D03*
X450000Y135000D02*
D03*
X457500Y120000D02*
D03*
X450000Y105000D02*
D03*
X457500Y90000D02*
D03*
X450000Y75000D02*
D03*
Y45000D02*
D03*
X442500Y300000D02*
D03*
X435000Y285000D02*
D03*
X442500Y270000D02*
D03*
X435000Y255000D02*
D03*
X442500Y240000D02*
D03*
X435000Y225000D02*
D03*
X442500Y210000D02*
D03*
X435000Y195000D02*
D03*
X442500Y180000D02*
D03*
X435000Y165000D02*
D03*
X442500Y150000D02*
D03*
X435000Y135000D02*
D03*
X442500Y120000D02*
D03*
X435000Y105000D02*
D03*
X442500Y90000D02*
D03*
X435000Y75000D02*
D03*
X442500Y60000D02*
D03*
X435000Y45000D02*
D03*
X427500Y300000D02*
D03*
Y270000D02*
D03*
X420000Y255000D02*
D03*
X427500Y240000D02*
D03*
X420000Y225000D02*
D03*
X427500Y210000D02*
D03*
Y180000D02*
D03*
X420000Y165000D02*
D03*
X427500Y150000D02*
D03*
Y120000D02*
D03*
X420000Y105000D02*
D03*
X427500Y90000D02*
D03*
Y60000D02*
D03*
X420000Y45000D02*
D03*
X412500Y300000D02*
D03*
X405000Y285000D02*
D03*
X412500Y270000D02*
D03*
X405000Y255000D02*
D03*
X412500Y240000D02*
D03*
X405000Y225000D02*
D03*
Y165000D02*
D03*
Y105000D02*
D03*
X412500Y90000D02*
D03*
X405000Y75000D02*
D03*
X412500Y60000D02*
D03*
X405000Y45000D02*
D03*
X397500Y300000D02*
D03*
Y270000D02*
D03*
X390000Y255000D02*
D03*
X397500Y240000D02*
D03*
X390000Y225000D02*
D03*
X397500Y210000D02*
D03*
X390000Y195000D02*
D03*
X397500Y180000D02*
D03*
X390000Y165000D02*
D03*
X397500Y150000D02*
D03*
Y120000D02*
D03*
X390000Y105000D02*
D03*
X397500Y90000D02*
D03*
X390000Y75000D02*
D03*
Y45000D02*
D03*
X382500Y300000D02*
D03*
X375000Y285000D02*
D03*
X382500Y270000D02*
D03*
X375000Y255000D02*
D03*
X382500Y240000D02*
D03*
X375000Y225000D02*
D03*
X382500Y210000D02*
D03*
X375000Y195000D02*
D03*
Y165000D02*
D03*
X382500Y150000D02*
D03*
X375000Y135000D02*
D03*
X382500Y120000D02*
D03*
X375000Y105000D02*
D03*
X382500Y90000D02*
D03*
X375000Y75000D02*
D03*
X382500Y60000D02*
D03*
X375000Y45000D02*
D03*
X367500Y300000D02*
D03*
X360000Y285000D02*
D03*
X367500Y270000D02*
D03*
Y240000D02*
D03*
X360000Y225000D02*
D03*
X367500Y210000D02*
D03*
X360000Y195000D02*
D03*
Y165000D02*
D03*
X367500Y150000D02*
D03*
X360000Y135000D02*
D03*
X367500Y120000D02*
D03*
X360000Y105000D02*
D03*
X367500Y90000D02*
D03*
X360000Y75000D02*
D03*
X367500Y60000D02*
D03*
X360000Y45000D02*
D03*
X352500Y300000D02*
D03*
X345000Y225000D02*
D03*
Y195000D02*
D03*
X352500Y150000D02*
D03*
X345000Y135000D02*
D03*
X352500Y120000D02*
D03*
X345000Y105000D02*
D03*
X352500Y90000D02*
D03*
X345000Y75000D02*
D03*
X352500Y60000D02*
D03*
X345000Y45000D02*
D03*
X337500Y300000D02*
D03*
X330000Y255000D02*
D03*
X337500Y240000D02*
D03*
Y210000D02*
D03*
Y150000D02*
D03*
Y90000D02*
D03*
X330000Y75000D02*
D03*
X337500Y60000D02*
D03*
X330000Y45000D02*
D03*
X315000Y135000D02*
D03*
X322500Y120000D02*
D03*
X315000Y105000D02*
D03*
X322500Y90000D02*
D03*
X315000Y75000D02*
D03*
X322500Y60000D02*
D03*
X315000Y45000D02*
D03*
X300000Y285000D02*
D03*
X307500Y270000D02*
D03*
Y210000D02*
D03*
Y120000D02*
D03*
Y90000D02*
D03*
X300000Y75000D02*
D03*
X307500Y60000D02*
D03*
X300000Y45000D02*
D03*
X292500Y270000D02*
D03*
X285000Y255000D02*
D03*
X292500Y240000D02*
D03*
Y210000D02*
D03*
Y90000D02*
D03*
X285000Y75000D02*
D03*
X292500Y60000D02*
D03*
X285000Y45000D02*
D03*
X277500Y300000D02*
D03*
X270000Y285000D02*
D03*
X277500Y270000D02*
D03*
X270000Y255000D02*
D03*
X277500Y240000D02*
D03*
X270000Y225000D02*
D03*
X277500Y210000D02*
D03*
Y90000D02*
D03*
X270000Y75000D02*
D03*
X277500Y60000D02*
D03*
X270000Y45000D02*
D03*
X262500Y300000D02*
D03*
X255000Y285000D02*
D03*
X262500Y270000D02*
D03*
Y240000D02*
D03*
X255000Y225000D02*
D03*
Y195000D02*
D03*
Y135000D02*
D03*
X262500Y120000D02*
D03*
Y90000D02*
D03*
X255000Y75000D02*
D03*
X262500Y60000D02*
D03*
X255000Y45000D02*
D03*
X247500Y300000D02*
D03*
X240000Y285000D02*
D03*
Y255000D02*
D03*
X247500Y210000D02*
D03*
X240000Y195000D02*
D03*
Y135000D02*
D03*
X247500Y120000D02*
D03*
Y90000D02*
D03*
X240000Y75000D02*
D03*
X247500Y60000D02*
D03*
X240000Y45000D02*
D03*
X232500Y300000D02*
D03*
X225000Y285000D02*
D03*
Y255000D02*
D03*
Y225000D02*
D03*
X232500Y210000D02*
D03*
X225000Y195000D02*
D03*
Y135000D02*
D03*
X232500Y120000D02*
D03*
Y90000D02*
D03*
X225000Y75000D02*
D03*
X232500Y60000D02*
D03*
X225000Y45000D02*
D03*
X210000Y255000D02*
D03*
Y225000D02*
D03*
X217500Y210000D02*
D03*
X210000Y195000D02*
D03*
X217500Y90000D02*
D03*
X210000Y75000D02*
D03*
X217500Y60000D02*
D03*
X210000Y45000D02*
D03*
X202500Y270000D02*
D03*
X195000Y255000D02*
D03*
Y225000D02*
D03*
X202500Y210000D02*
D03*
X195000Y195000D02*
D03*
X202500Y90000D02*
D03*
X195000Y75000D02*
D03*
X202500Y60000D02*
D03*
X195000Y45000D02*
D03*
X180000Y285000D02*
D03*
Y255000D02*
D03*
X187500Y240000D02*
D03*
X180000Y225000D02*
D03*
X187500Y210000D02*
D03*
X180000Y195000D02*
D03*
X187500Y180000D02*
D03*
X180000Y135000D02*
D03*
Y105000D02*
D03*
X187500Y90000D02*
D03*
X180000Y75000D02*
D03*
X187500Y60000D02*
D03*
X180000Y45000D02*
D03*
X165000Y285000D02*
D03*
Y255000D02*
D03*
X172500Y240000D02*
D03*
X165000Y225000D02*
D03*
X172500Y210000D02*
D03*
X165000Y195000D02*
D03*
X172500Y180000D02*
D03*
X165000Y135000D02*
D03*
X172500Y120000D02*
D03*
X165000Y105000D02*
D03*
X172500Y90000D02*
D03*
X165000Y75000D02*
D03*
X172500Y60000D02*
D03*
X165000Y45000D02*
D03*
X157500Y240000D02*
D03*
X150000Y225000D02*
D03*
X157500Y210000D02*
D03*
Y120000D02*
D03*
X150000Y105000D02*
D03*
X157500Y90000D02*
D03*
X150000Y75000D02*
D03*
X157500Y60000D02*
D03*
X150000Y45000D02*
D03*
X142500Y300000D02*
D03*
X135000Y285000D02*
D03*
X142500Y240000D02*
D03*
X135000Y225000D02*
D03*
X142500Y210000D02*
D03*
X135000Y195000D02*
D03*
X120000Y285000D02*
D03*
X127500Y270000D02*
D03*
X120000Y255000D02*
D03*
X127500Y240000D02*
D03*
X120000Y225000D02*
D03*
X127500Y210000D02*
D03*
X120000Y195000D02*
D03*
X105000Y255000D02*
D03*
X112500Y240000D02*
D03*
X105000Y225000D02*
D03*
X112500Y210000D02*
D03*
X105000Y195000D02*
D03*
X90000Y285000D02*
D03*
X97500Y270000D02*
D03*
X90000Y255000D02*
D03*
X97500Y240000D02*
D03*
X90000Y225000D02*
D03*
X97500Y210000D02*
D03*
X90000Y195000D02*
D03*
X75000Y285000D02*
D03*
X82500Y270000D02*
D03*
X75000Y255000D02*
D03*
Y225000D02*
D03*
X82500Y210000D02*
D03*
X75000Y195000D02*
D03*
X67500Y300000D02*
D03*
X60000Y285000D02*
D03*
X67500Y270000D02*
D03*
X60000Y255000D02*
D03*
Y225000D02*
D03*
X67500Y210000D02*
D03*
X60000Y195000D02*
D03*
Y165000D02*
D03*
Y135000D02*
D03*
Y105000D02*
D03*
Y75000D02*
D03*
Y45000D02*
D03*
X52500Y300000D02*
D03*
X45000Y285000D02*
D03*
Y255000D02*
D03*
Y225000D02*
D03*
X52500Y210000D02*
D03*
X45000Y195000D02*
D03*
X52500Y180000D02*
D03*
X45000Y165000D02*
D03*
X52500Y150000D02*
D03*
X45000Y135000D02*
D03*
X52500Y120000D02*
D03*
X45000Y105000D02*
D03*
X52500Y90000D02*
D03*
X45000Y75000D02*
D03*
X52500Y60000D02*
D03*
X45000Y45000D02*
D03*
X37500Y300000D02*
D03*
X30000Y285000D02*
D03*
X37500Y270000D02*
D03*
X30000Y255000D02*
D03*
X37500Y240000D02*
D03*
X30000Y225000D02*
D03*
X37500Y210000D02*
D03*
X30000Y195000D02*
D03*
X37500Y180000D02*
D03*
X30000Y165000D02*
D03*
X37500Y150000D02*
D03*
X30000Y135000D02*
D03*
X37500Y120000D02*
D03*
X30000Y105000D02*
D03*
X37500Y90000D02*
D03*
X30000Y75000D02*
D03*
X37500Y60000D02*
D03*
X30000Y45000D02*
D03*
X15000Y285000D02*
D03*
X22500Y270000D02*
D03*
X15000Y255000D02*
D03*
X22500Y240000D02*
D03*
X15000Y225000D02*
D03*
X22500Y210000D02*
D03*
X15000Y195000D02*
D03*
X22500Y180000D02*
D03*
X15000Y165000D02*
D03*
X22500Y150000D02*
D03*
X15000Y135000D02*
D03*
X22500Y120000D02*
D03*
X15000Y105000D02*
D03*
X22500Y90000D02*
D03*
X15000Y75000D02*
D03*
Y45000D02*
D03*
D93*
X135000Y165000D02*
D03*
Y135000D02*
D03*
Y105000D02*
D03*
X127500Y180000D02*
D03*
Y150000D02*
D03*
X120000Y135000D02*
D03*
X127500Y120000D02*
D03*
X120000Y105000D02*
D03*
X127500Y90000D02*
D03*
Y60000D02*
D03*
X105000Y165000D02*
D03*
Y105000D02*
D03*
X97500Y180000D02*
D03*
X90000Y165000D02*
D03*
Y135000D02*
D03*
X97500Y120000D02*
D03*
X90000Y105000D02*
D03*
X82500Y180000D02*
D03*
X75000Y165000D02*
D03*
X82500Y150000D02*
D03*
X75000Y135000D02*
D03*
X82500Y120000D02*
D03*
X75000Y105000D02*
D03*
X82500Y90000D02*
D03*
X75000Y75000D02*
D03*
X82500Y60000D02*
D03*
X75000Y45000D02*
D03*
M02*
