G04*
G04 #@! TF.GenerationSoftware,Altium Limited,Altium Designer,21.6.4 (81)*
G04*
G04 Layer_Physical_Order=1*
G04 Layer_Color=255*
%FSLAX25Y25*%
%MOIN*%
G70*
G04*
G04 #@! TF.SameCoordinates,32ACE0EF-A2FC-4BC7-9326-31937D1A4F50*
G04*
G04*
G04 #@! TF.FilePolarity,Positive*
G04*
G01*
G75*
%ADD16C,0.01000*%
%ADD24R,0.04200X0.01000*%
%ADD25R,0.01000X0.04200*%
%ADD29R,0.06100X0.03900*%
G04:AMPARAMS|DCode=32|XSize=51.18mil|YSize=23.62mil|CornerRadius=2.01mil|HoleSize=0mil|Usage=FLASHONLY|Rotation=90.000|XOffset=0mil|YOffset=0mil|HoleType=Round|Shape=RoundedRectangle|*
%AMROUNDEDRECTD32*
21,1,0.05118,0.01961,0,0,90.0*
21,1,0.04717,0.02362,0,0,90.0*
1,1,0.00402,0.00980,0.02358*
1,1,0.00402,0.00980,-0.02358*
1,1,0.00402,-0.00980,-0.02358*
1,1,0.00402,-0.00980,0.02358*
%
%ADD32ROUNDEDRECTD32*%
%ADD33R,0.00984X0.02657*%
%ADD34R,0.02264X0.00984*%
%ADD37C,0.01600*%
%ADD40R,0.01775X0.04375*%
%ADD46C,0.07100*%
%ADD54R,0.02362X0.01968*%
%ADD55R,0.01968X0.02362*%
%ADD56R,0.03543X0.03150*%
%ADD57R,0.15200X0.15200*%
%ADD58R,0.05118X0.06102*%
%ADD59R,0.03150X0.03543*%
%ADD60R,0.02913X0.10984*%
%ADD61R,0.02000X0.02000*%
%ADD62R,0.02000X0.02000*%
%ADD63R,0.06496X0.02992*%
%ADD64R,0.04331X0.06693*%
%ADD65R,0.07874X0.02756*%
%ADD66R,0.02756X0.07874*%
%ADD67O,0.02362X0.05709*%
%ADD68R,0.30300X0.40000*%
%ADD69R,0.01968X0.40000*%
%ADD70C,0.00500*%
%ADD71C,0.01500*%
%ADD72C,0.00400*%
%ADD73R,0.05906X0.05906*%
%ADD74C,0.05906*%
%ADD75C,0.04500*%
%ADD76C,0.07400*%
%ADD77R,0.05906X0.05906*%
%ADD78C,0.13000*%
%ADD79C,0.01800*%
%ADD80C,0.03000*%
%ADD81C,0.01772*%
G36*
X223697Y314000D02*
X223758Y313693D01*
X223932Y313432D01*
X224193Y313258D01*
X224500Y313197D01*
X291097D01*
Y312481D01*
X290937Y312047D01*
X290597Y312047D01*
X282063D01*
Y311002D01*
X278984D01*
Y311681D01*
X276016D01*
Y308319D01*
X278984D01*
Y309167D01*
X282063D01*
Y308291D01*
X290721Y308291D01*
X290836Y308053D01*
X290681Y307766D01*
X290542Y307609D01*
X286700D01*
Y305831D01*
Y304053D01*
X290597D01*
X290837Y304053D01*
X291093Y303665D01*
X290837Y303278D01*
X290597Y303278D01*
X286700D01*
Y301500D01*
Y299722D01*
X290526Y299722D01*
X290819Y299273D01*
X290711Y299047D01*
X282063D01*
Y298087D01*
X277110D01*
X276759Y298017D01*
X276461Y297818D01*
X275293Y296650D01*
X274016D01*
Y293287D01*
X276984D01*
Y295746D01*
X277490Y296252D01*
X282063D01*
Y295291D01*
X290732Y295291D01*
X290851Y295043D01*
X290664Y294719D01*
X290559Y294601D01*
X286700D01*
Y292823D01*
Y291045D01*
X290837D01*
Y291634D01*
X291337Y291835D01*
X291638Y291711D01*
X315260D01*
X315642Y291869D01*
X315679Y291957D01*
X316179Y291857D01*
Y291045D01*
X320316D01*
Y292823D01*
Y294601D01*
X316301D01*
X316179Y294601D01*
X316065Y294690D01*
Y294989D01*
X316528Y295391D01*
X320316D01*
Y297169D01*
Y298947D01*
X316301D01*
X316208Y298947D01*
X315983Y299182D01*
X316253Y299622D01*
X324953D01*
Y300837D01*
X330225D01*
X344654Y286409D01*
X344600Y286279D01*
Y285721D01*
X344813Y285207D01*
X345207Y284813D01*
X345722Y284600D01*
X346279D01*
X346793Y284813D01*
X347187Y285207D01*
X347400Y285721D01*
Y286279D01*
X347187Y286793D01*
X346793Y287187D01*
X346279Y287400D01*
X345722D01*
X345591Y287346D01*
X330969Y301969D01*
X330754Y302112D01*
X330500Y302163D01*
X324953D01*
Y303378D01*
X316253Y303378D01*
X315983Y303818D01*
X316208Y304053D01*
X316301Y304053D01*
X320316D01*
Y305831D01*
Y307609D01*
X316301D01*
X316198Y307609D01*
X315985Y307830D01*
X316235Y308291D01*
X324953D01*
Y309306D01*
X329516D01*
Y308287D01*
X332484D01*
Y311650D01*
X329516D01*
Y310631D01*
X324953D01*
Y312047D01*
X316301D01*
X316079Y312047D01*
X315801Y312432D01*
Y313197D01*
X474197D01*
Y39703D01*
X145500D01*
Y190000D01*
X68500D01*
Y39803D01*
X803D01*
Y313197D01*
X63500D01*
X63807Y313258D01*
X64068Y313432D01*
X64242Y313693D01*
X64303Y314000D01*
X80927D01*
Y313459D01*
Y300086D01*
X77342Y296500D01*
X75500D01*
Y295672D01*
X55379D01*
X55274Y296063D01*
X54741Y296987D01*
X53987Y297741D01*
X53063Y298274D01*
X52033Y298550D01*
X50967D01*
X49937Y298274D01*
X49013Y297741D01*
X48259Y296987D01*
X47726Y296063D01*
X47450Y295033D01*
Y293967D01*
X47726Y292937D01*
X48259Y292013D01*
X49013Y291259D01*
X49937Y290726D01*
X50967Y290450D01*
X52033D01*
X53063Y290726D01*
X53987Y291259D01*
X54741Y292013D01*
X55274Y292937D01*
X55379Y293327D01*
X77000D01*
X77449Y293417D01*
X77573Y293500D01*
X78500D01*
Y294342D01*
X82929Y298771D01*
X83183Y299151D01*
X83272Y299600D01*
Y310696D01*
X83735Y310887D01*
X95728Y298893D01*
Y295681D01*
X100272D01*
Y299831D01*
X96666D01*
X83272Y313224D01*
Y314000D01*
X120813D01*
X121020Y313500D01*
X120813Y313293D01*
X120600Y312778D01*
Y312222D01*
X120813Y311707D01*
X121207Y311313D01*
X121721Y311100D01*
X122278D01*
X122793Y311313D01*
X123187Y311707D01*
X123400Y312222D01*
Y312778D01*
X123187Y313293D01*
X122980Y313500D01*
X123187Y314000D01*
X127350D01*
X127542Y313538D01*
X113834Y299831D01*
X110228D01*
Y295681D01*
X114772D01*
Y298893D01*
X127766Y311887D01*
X128227Y311696D01*
Y284386D01*
X83842Y240000D01*
X82000D01*
Y239173D01*
X55379D01*
X55274Y239563D01*
X54741Y240487D01*
X53987Y241241D01*
X53063Y241774D01*
X52033Y242050D01*
X50967D01*
X49937Y241774D01*
X49013Y241241D01*
X48259Y240487D01*
X47726Y239563D01*
X47450Y238533D01*
Y237467D01*
X47726Y236437D01*
X48259Y235513D01*
X49013Y234759D01*
X49937Y234226D01*
X50967Y233950D01*
X52033D01*
X53063Y234226D01*
X53987Y234759D01*
X54741Y235513D01*
X55274Y236437D01*
X55379Y236827D01*
X83500D01*
X83949Y236917D01*
X84073Y237000D01*
X85000D01*
Y237842D01*
X130229Y283071D01*
X130483Y283451D01*
X130572Y283900D01*
Y314000D01*
X131952D01*
X132100Y313778D01*
Y313222D01*
X132313Y312707D01*
X132707Y312313D01*
X133221Y312100D01*
X133779D01*
X134293Y312313D01*
X134687Y312707D01*
X134900Y313222D01*
Y313467D01*
X134991Y313520D01*
X135400Y313620D01*
X135707Y313313D01*
X136222Y313100D01*
X136778D01*
X137293Y313313D01*
X137687Y313707D01*
X137808Y314000D01*
X149197D01*
X149258Y313693D01*
X149432Y313432D01*
X149693Y313258D01*
X150000Y313197D01*
X157000D01*
X157307Y313258D01*
X157568Y313432D01*
X157742Y313693D01*
X157803Y314000D01*
Y320959D01*
X203887D01*
Y314265D01*
X203938Y314011D01*
X204081Y313796D01*
X207291Y310587D01*
X207153Y310017D01*
X206899Y309912D01*
X206505Y309518D01*
X206292Y309003D01*
Y308447D01*
X206505Y307932D01*
X206899Y307538D01*
X207413Y307325D01*
X207970D01*
X208485Y307538D01*
X208776Y307829D01*
X212436Y304169D01*
X212153Y303745D01*
X211778Y303900D01*
X211222D01*
X210707Y303687D01*
X210313Y303293D01*
X210100Y302779D01*
Y302221D01*
X210313Y301707D01*
X210357Y301663D01*
X210150Y301163D01*
X182000D01*
Y302000D01*
X179000D01*
Y300663D01*
X170397D01*
X170218Y301333D01*
X169763Y302120D01*
X169120Y302763D01*
X168333Y303218D01*
X167455Y303453D01*
X166545D01*
X165667Y303218D01*
X164880Y302763D01*
X164237Y302120D01*
X163783Y301333D01*
X163547Y300455D01*
Y299545D01*
X163783Y298667D01*
X164237Y297880D01*
X164880Y297237D01*
X165667Y296782D01*
X166545Y296547D01*
X167455D01*
X168333Y296782D01*
X169120Y297237D01*
X169763Y297880D01*
X170218Y298667D01*
X170397Y299337D01*
X179000D01*
Y299000D01*
X182000D01*
Y299837D01*
X209193D01*
X209292Y299337D01*
X208929Y299187D01*
X208535Y298793D01*
X208322Y298278D01*
Y297722D01*
X208376Y297591D01*
X201448Y290663D01*
X182000D01*
Y291500D01*
X179000D01*
Y290663D01*
X170397D01*
X170218Y291333D01*
X169763Y292120D01*
X169120Y292763D01*
X168333Y293217D01*
X167455Y293453D01*
X166545D01*
X165667Y293217D01*
X164880Y292763D01*
X164237Y292120D01*
X163783Y291333D01*
X163547Y290455D01*
Y289545D01*
X163783Y288667D01*
X164237Y287880D01*
X164880Y287237D01*
X165667Y286783D01*
X166545Y286547D01*
X167455D01*
X168333Y286783D01*
X169120Y287237D01*
X169763Y287880D01*
X170218Y288667D01*
X170397Y289337D01*
X179000D01*
Y288500D01*
X182000D01*
Y289337D01*
X201722D01*
X201976Y289388D01*
X202191Y289531D01*
X209313Y296654D01*
X209444Y296600D01*
X210000D01*
X210209Y296687D01*
X210709Y296354D01*
Y285144D01*
X209857D01*
Y279769D01*
X210581D01*
Y275772D01*
X209181D01*
Y271228D01*
X210837D01*
Y266481D01*
X210288Y266114D01*
X209916Y265558D01*
X209786Y264902D01*
Y261555D01*
X209916Y260899D01*
X210288Y260343D01*
X210844Y259971D01*
X211500Y259841D01*
X212156Y259971D01*
X212712Y260343D01*
X213084Y260899D01*
X213214Y261555D01*
Y264902D01*
X213084Y265558D01*
X212712Y266114D01*
X212163Y266481D01*
Y271228D01*
X213331D01*
Y275772D01*
X211907D01*
Y279769D01*
X212632D01*
Y285144D01*
X212035D01*
Y300500D01*
Y301206D01*
X212293Y301313D01*
X212687Y301707D01*
X212900Y302221D01*
Y302779D01*
X212745Y303152D01*
X213169Y303436D01*
X216705Y299900D01*
X216498Y299400D01*
X216221D01*
X215707Y299187D01*
X215313Y298793D01*
X215100Y298278D01*
Y297722D01*
X215313Y297207D01*
X215707Y296813D01*
X215965Y296706D01*
Y285144D01*
X215369D01*
Y279769D01*
X216093D01*
Y275772D01*
X214669D01*
Y271228D01*
X215837D01*
Y266481D01*
X215288Y266114D01*
X214916Y265558D01*
X214786Y264902D01*
Y261555D01*
X214916Y260899D01*
X215288Y260343D01*
X215844Y259971D01*
X216500Y259841D01*
X217156Y259971D01*
X217712Y260343D01*
X218084Y260899D01*
X218214Y261555D01*
Y264902D01*
X218084Y265558D01*
X217712Y266114D01*
X217163Y266481D01*
Y271228D01*
X218819D01*
Y275772D01*
X217419D01*
Y279769D01*
X218143D01*
Y285144D01*
X217291D01*
Y296812D01*
X217293Y296813D01*
X217687Y297207D01*
X217900Y297722D01*
Y297998D01*
X218400Y298205D01*
X229274Y287330D01*
Y241790D01*
X229325Y241536D01*
X229342Y241511D01*
X229101Y241011D01*
X223214D01*
Y243445D01*
X223084Y244101D01*
X222712Y244657D01*
X222156Y245028D01*
X221500Y245159D01*
X220844Y245028D01*
X220288Y244657D01*
X219916Y244101D01*
X219786Y243445D01*
Y240098D01*
X219916Y239442D01*
X220288Y238886D01*
X220844Y238515D01*
X221500Y238384D01*
X222156Y238515D01*
X222712Y238886D01*
X223084Y239442D01*
X223132Y239686D01*
X229831D01*
X266735Y202781D01*
X266950Y202638D01*
X267204Y202587D01*
X274248D01*
X286628Y190207D01*
X286437Y189745D01*
X274859D01*
X229136Y235469D01*
X228921Y235612D01*
X228667Y235663D01*
X213275D01*
X210827Y238110D01*
X211073Y238571D01*
X211300Y238526D01*
Y241572D01*
X209888D01*
Y240098D01*
X209973Y239671D01*
X209512Y239425D01*
X208535Y240402D01*
X208320Y240546D01*
X208214Y240567D01*
Y243445D01*
X208084Y244101D01*
X207712Y244657D01*
X207156Y245028D01*
X206500Y245159D01*
X205844Y245028D01*
X205288Y244657D01*
X204916Y244101D01*
X204786Y243445D01*
Y240098D01*
X204916Y239442D01*
X205288Y238886D01*
X205844Y238515D01*
X206500Y238384D01*
X207156Y238515D01*
X207712Y238886D01*
X208135Y238928D01*
X212531Y234531D01*
X212746Y234388D01*
X213000Y234337D01*
X228393D01*
X274116Y188614D01*
X274331Y188470D01*
X274585Y188420D01*
X287143D01*
X288117Y187446D01*
X287910Y186946D01*
X287694D01*
X287216Y186748D01*
X286851Y186382D01*
X286653Y185904D01*
Y185700D01*
X286603Y185655D01*
X286126Y185869D01*
X286103Y185904D01*
X285905Y186382D01*
X285540Y186748D01*
X285062Y186946D01*
X284545D01*
X284067Y186748D01*
X283701Y186382D01*
X283503Y185904D01*
Y185387D01*
X283231Y185147D01*
X282954Y185537D01*
Y185904D01*
X282756Y186382D01*
X282390Y186748D01*
X281912Y186946D01*
X281395D01*
X280917Y186748D01*
X280552Y186382D01*
X280353Y185904D01*
Y185387D01*
X280447Y185163D01*
X280145Y184663D01*
X271033D01*
X270780Y184612D01*
X270565Y184469D01*
X265759Y179663D01*
X193000D01*
X192746Y179612D01*
X192531Y179469D01*
X186531Y173469D01*
X186388Y173254D01*
X186337Y173000D01*
Y170300D01*
X186000D01*
Y165500D01*
X184463D01*
Y165750D01*
X184412Y166004D01*
X184269Y166219D01*
X183976Y166511D01*
X183761Y166655D01*
X183507Y166706D01*
X163299D01*
X163045Y166655D01*
X162830Y166511D01*
X158752Y162433D01*
X158252Y162640D01*
Y165996D01*
X150756D01*
Y162004D01*
X157615D01*
X157823Y161504D01*
X157315Y160996D01*
X150756D01*
Y157004D01*
X158252D01*
Y160059D01*
X163573Y165380D01*
X181200D01*
Y163313D01*
X169906D01*
X169652Y163262D01*
X169437Y163119D01*
X158752Y152433D01*
X158252Y152640D01*
Y155996D01*
X150756D01*
Y154663D01*
X150506D01*
X150252Y154612D01*
X150037Y154469D01*
X149744Y154176D01*
X149601Y153961D01*
X149550Y153707D01*
Y141521D01*
X149601Y141268D01*
X149744Y141053D01*
X153010Y137787D01*
X153225Y137644D01*
X153478Y137593D01*
X153728D01*
Y136181D01*
X158272D01*
Y140331D01*
X153728D01*
Y139596D01*
X153266Y139405D01*
X150876Y141796D01*
Y147004D01*
X158252D01*
Y150059D01*
X170180Y161987D01*
X178354D01*
X178686Y161487D01*
X178600Y161278D01*
Y160722D01*
X178789Y160266D01*
X178723Y160026D01*
X178578Y159735D01*
X178136Y159552D01*
X177742Y159159D01*
X177529Y158644D01*
Y158104D01*
X177453Y158025D01*
X177125Y157756D01*
X176778Y157900D01*
X176222D01*
X175707Y157687D01*
X175313Y157293D01*
X175100Y156779D01*
Y156221D01*
X175313Y155707D01*
X175707Y155313D01*
X176222Y155100D01*
X176778D01*
X177293Y155313D01*
X177687Y155707D01*
X177688Y155710D01*
X178051D01*
X178156Y155544D01*
X178295Y155249D01*
X178100Y154779D01*
Y154221D01*
X178313Y153707D01*
X178707Y153313D01*
X178516Y152851D01*
X178361Y152663D01*
X173484D01*
Y153681D01*
X170516D01*
Y150319D01*
X173484D01*
Y151337D01*
X178290D01*
X178624Y150837D01*
X178600Y150778D01*
Y150222D01*
X178813Y149707D01*
X179207Y149313D01*
X179721Y149100D01*
X180279D01*
X180700Y149275D01*
X181033Y149136D01*
X181200Y149013D01*
Y147500D01*
X182837D01*
Y119000D01*
X182888Y118746D01*
X183031Y118531D01*
X197386Y104177D01*
X197601Y104033D01*
X197854Y103983D01*
X283199D01*
X283313Y103707D01*
X283707Y103313D01*
X284222Y103100D01*
X284778D01*
X285293Y103313D01*
X285687Y103707D01*
X285900Y104221D01*
Y104779D01*
X285687Y105293D01*
X285293Y105687D01*
X284930Y105837D01*
X285029Y106337D01*
X290759D01*
X290813Y106207D01*
X291207Y105813D01*
X291722Y105600D01*
X292279D01*
X292793Y105813D01*
X293187Y106207D01*
X293400Y106721D01*
Y107279D01*
X293187Y107793D01*
X292793Y108187D01*
X292279Y108400D01*
X291722D01*
X291207Y108187D01*
X290813Y107793D01*
X290759Y107663D01*
X197274D01*
X195950Y108987D01*
X196157Y109487D01*
X286759D01*
X286813Y109357D01*
X287207Y108963D01*
X287721Y108750D01*
X288279D01*
X288793Y108963D01*
X289187Y109357D01*
X289400Y109871D01*
Y110429D01*
X289187Y110943D01*
X288793Y111337D01*
X288279Y111550D01*
X287721D01*
X287207Y111337D01*
X286813Y110943D01*
X286759Y110813D01*
X283391D01*
X283292Y111313D01*
X283293Y111313D01*
X283687Y111707D01*
X283900Y112222D01*
Y112778D01*
X283687Y113293D01*
X283643Y113337D01*
X283850Y113837D01*
X293259D01*
X293313Y113707D01*
X293707Y113313D01*
X294221Y113100D01*
X294778D01*
X295293Y113313D01*
X295687Y113707D01*
X295741Y113837D01*
X296850D01*
Y113016D01*
X298337D01*
Y107293D01*
X298388Y107039D01*
X298531Y106824D01*
X298824Y106531D01*
X299039Y106388D01*
X299293Y106337D01*
X299413D01*
Y105516D01*
X302776D01*
Y108484D01*
X299663D01*
Y113016D01*
X300213D01*
Y115984D01*
X296850D01*
Y115163D01*
X295741D01*
X295687Y115293D01*
X295293Y115687D01*
X294778Y115900D01*
X294221D01*
X293707Y115687D01*
X293313Y115293D01*
X293259Y115163D01*
X278529D01*
X278430Y115663D01*
X278793Y115813D01*
X279187Y116207D01*
X279400Y116721D01*
Y117279D01*
X279187Y117793D01*
X278793Y118187D01*
X278278Y118400D01*
X277722D01*
X277207Y118187D01*
X276813Y117793D01*
X276600Y117279D01*
Y116721D01*
X276561Y116663D01*
X199275D01*
X197663Y118274D01*
Y136650D01*
X198163Y136857D01*
X198207Y136813D01*
X198722Y136600D01*
X199278D01*
X199793Y136813D01*
X200187Y137207D01*
X200400Y137722D01*
Y138278D01*
X200193Y138778D01*
X200220Y138837D01*
X200492Y139195D01*
X200722Y139100D01*
X201278D01*
X201793Y139313D01*
X201880Y139400D01*
X202023Y139403D01*
X202472Y139285D01*
X202516Y139220D01*
Y136787D01*
X205484D01*
Y140150D01*
X203663D01*
Y142700D01*
X204000D01*
Y147500D01*
X207387D01*
Y144050D01*
X207438Y143796D01*
X207581Y143581D01*
X207837Y143325D01*
Y140150D01*
X207016D01*
Y136787D01*
X209984D01*
Y140150D01*
X209163D01*
Y143600D01*
X209112Y143853D01*
X208969Y144068D01*
X208713Y144324D01*
Y147500D01*
X208800D01*
Y147909D01*
X209262Y148101D01*
X211103Y146260D01*
Y140150D01*
X211016D01*
Y136787D01*
X213984D01*
Y140150D01*
X212428D01*
Y146227D01*
X212929Y146434D01*
X215837Y143526D01*
Y140150D01*
X215016D01*
Y136787D01*
X217984D01*
Y140150D01*
X217163D01*
Y143800D01*
X217112Y144054D01*
X216969Y144269D01*
X208800Y152437D01*
Y153657D01*
X209300Y153763D01*
X215187Y147876D01*
X215402Y147732D01*
X215655Y147682D01*
X219016D01*
Y145787D01*
X221984D01*
Y147337D01*
X227636D01*
X227668Y147290D01*
X227400Y146790D01*
X226401D01*
Y143339D01*
Y139887D01*
X229160D01*
X229160Y139887D01*
X229441Y139787D01*
Y139787D01*
X229618Y139787D01*
X235559D01*
Y146890D01*
X230378D01*
X229295Y147973D01*
X229473Y148495D01*
X229718Y148549D01*
X232300D01*
Y152000D01*
Y155451D01*
X229718D01*
X229260Y155551D01*
X229082Y155551D01*
X223142D01*
Y152663D01*
X221219D01*
X218484Y155397D01*
Y157181D01*
X215516D01*
Y157163D01*
X208800D01*
Y157837D01*
X239759D01*
X239813Y157707D01*
X240207Y157313D01*
X240722Y157100D01*
X241279D01*
X241793Y157313D01*
X242187Y157707D01*
X242241Y157837D01*
X248059D01*
X254034Y151862D01*
X253916Y151273D01*
X253707Y151187D01*
X253313Y150793D01*
X253100Y150278D01*
Y149722D01*
X253313Y149207D01*
X253707Y148813D01*
X254222Y148600D01*
X254779D01*
X255293Y148813D01*
X255687Y149207D01*
X255773Y149416D01*
X256362Y149534D01*
X256783Y149113D01*
Y143475D01*
X256833Y143221D01*
X256977Y143006D01*
X266052Y133931D01*
X266267Y133788D01*
X266520Y133737D01*
X305400D01*
X305654Y133788D01*
X305869Y133931D01*
X311873Y139936D01*
X312017Y140151D01*
X312110Y140221D01*
X312522Y140389D01*
X312560Y140388D01*
X312891Y140251D01*
X313408D01*
X313886Y140449D01*
X314252Y140815D01*
X314450Y141293D01*
Y141533D01*
X314724Y141663D01*
X314859Y141599D01*
X314999Y141430D01*
Y141293D01*
X315197Y140815D01*
X315563Y140449D01*
X316041Y140251D01*
X316558D01*
X316632Y140282D01*
X318337Y138576D01*
Y117331D01*
X316728D01*
Y113181D01*
X321272D01*
Y117331D01*
X319663D01*
Y138850D01*
X319612Y139104D01*
X319469Y139319D01*
X318998Y139790D01*
X319133Y140115D01*
X319244Y140251D01*
X319707D01*
X319781Y140282D01*
X324837Y135225D01*
Y117331D01*
X323228D01*
Y113181D01*
X327772D01*
Y117331D01*
X326163D01*
Y135500D01*
X326112Y135754D01*
X325969Y135969D01*
X322148Y139790D01*
X322283Y140115D01*
X322393Y140251D01*
X322857D01*
X322972Y140299D01*
X331337Y131934D01*
Y117331D01*
X329728D01*
Y113181D01*
X334272D01*
Y117331D01*
X332663D01*
Y132208D01*
X332612Y132462D01*
X332469Y132677D01*
X325356Y139789D01*
X325396Y139927D01*
X325601Y140251D01*
X326007D01*
X326080Y140282D01*
X337837Y128525D01*
Y117331D01*
X336228D01*
Y113181D01*
X340772D01*
Y117331D01*
X339163D01*
Y128799D01*
X339112Y129053D01*
X338969Y129268D01*
X327017Y141219D01*
X327048Y141293D01*
Y141810D01*
X326850Y142288D01*
X326484Y142653D01*
X326007Y142851D01*
X325489D01*
X325012Y142653D01*
X324646Y142288D01*
X324484Y141897D01*
X324256Y141737D01*
X323948Y141621D01*
X323903Y141646D01*
X323898Y141655D01*
Y141810D01*
X323700Y142288D01*
X323335Y142653D01*
X322857Y142851D01*
X322340D01*
X321862Y142653D01*
X321496Y142288D01*
X321298Y141810D01*
X321275Y141774D01*
X320798Y141561D01*
X320749Y141605D01*
Y141810D01*
X320551Y142288D01*
X320518Y142782D01*
X321367Y143632D01*
X321862Y143599D01*
X322340Y143401D01*
X322857D01*
X323335Y143599D01*
X323700Y143964D01*
X323898Y144442D01*
Y144959D01*
X323700Y145437D01*
X323335Y145803D01*
X322857Y146001D01*
X322340D01*
X322218Y145950D01*
X321704Y146208D01*
X321674Y146331D01*
X321678Y146345D01*
X322196Y146610D01*
X322340Y146550D01*
X322857D01*
X323335Y146748D01*
X323700Y147114D01*
X323898Y147592D01*
Y148109D01*
X324155Y148287D01*
X324448Y147900D01*
Y147592D01*
X324646Y147114D01*
X325012Y146748D01*
X325489Y146550D01*
X326007D01*
X326484Y146748D01*
X326850Y147114D01*
X327048Y147592D01*
Y148109D01*
X326967Y148306D01*
X327284Y148806D01*
X331516D01*
Y147787D01*
X334484D01*
Y151150D01*
X331516D01*
Y150131D01*
X327337D01*
X327002Y150631D01*
X327048Y150741D01*
Y151259D01*
X326850Y151736D01*
X326626Y151961D01*
X326956Y152337D01*
X372017D01*
X391475Y132880D01*
X391690Y132736D01*
X391943Y132686D01*
X395150D01*
Y131520D01*
X404634D01*
X405008Y131520D01*
X405466Y131620D01*
X405784D01*
Y133348D01*
Y135077D01*
X405466D01*
X405008Y135177D01*
X404634Y135177D01*
X397822D01*
X397528Y135555D01*
X397528Y137539D01*
X397428Y137998D01*
X397428Y138316D01*
X395896D01*
X394364D01*
Y137998D01*
X394264Y137539D01*
X393853Y137210D01*
X390292D01*
X380876Y146625D01*
X381068Y147087D01*
X395250D01*
Y145852D01*
X396142D01*
Y145652D01*
X396342D01*
Y143923D01*
X396646D01*
X396715Y143845D01*
X396491Y143345D01*
X396096D01*
Y142653D01*
X397428D01*
Y143323D01*
X397428Y143345D01*
X397481Y143823D01*
X412178D01*
X412472Y143445D01*
X412472Y143323D01*
Y141461D01*
Y137524D01*
X412472D01*
X412572Y137439D01*
Y136747D01*
X414104D01*
Y136347D01*
X412572D01*
Y135805D01*
X411945Y135177D01*
X407335D01*
X406961Y135177D01*
X406502Y135077D01*
X406184D01*
Y133348D01*
Y131620D01*
X406502D01*
X406961Y131520D01*
X407335Y131520D01*
X409309D01*
X409419Y131254D01*
X409474Y131020D01*
X409356Y130844D01*
X409336Y130740D01*
X409207Y130687D01*
X408813Y130293D01*
X408600Y129779D01*
Y129221D01*
X408813Y128707D01*
X409207Y128313D01*
X409306Y128272D01*
Y127484D01*
X408287D01*
Y124516D01*
X409306D01*
Y123484D01*
X408287D01*
Y120516D01*
X411650D01*
Y123484D01*
X410631D01*
Y124516D01*
X411650D01*
Y127484D01*
X410631D01*
Y128246D01*
X410793Y128313D01*
X411187Y128707D01*
X411400Y129221D01*
Y129779D01*
X411187Y130293D01*
X410897Y130582D01*
X411835Y131520D01*
X414850D01*
Y134742D01*
X415506D01*
X415733Y134788D01*
X417489Y133031D01*
X417704Y132888D01*
X417958Y132837D01*
X422759D01*
X422813Y132707D01*
X423207Y132313D01*
X423722Y132100D01*
X424278D01*
X424793Y132313D01*
X425187Y132707D01*
X425400Y133221D01*
Y133779D01*
X425187Y134293D01*
X424964Y134516D01*
X425171Y135016D01*
X425650D01*
Y137984D01*
X424631D01*
Y139516D01*
X425650D01*
Y142484D01*
X422287D01*
Y139866D01*
X422000Y139700D01*
X421713Y139866D01*
Y142484D01*
X418350D01*
Y141147D01*
X415736D01*
Y141790D01*
X415986D01*
X416240Y141841D01*
X416455Y141984D01*
X418808Y144337D01*
X421591D01*
X421664Y144162D01*
X422057Y143768D01*
X422572Y143555D01*
X423129D01*
X423643Y143768D01*
X424037Y144162D01*
X424250Y144676D01*
Y145233D01*
X424037Y145748D01*
X423643Y146142D01*
X423129Y146355D01*
X422572D01*
X422057Y146142D01*
X421664Y145748D01*
X421628Y145663D01*
X418534D01*
X418280Y145612D01*
X418065Y145469D01*
X416192Y143596D01*
X415736Y143445D01*
Y143445D01*
X415736Y143445D01*
X414804D01*
X414750Y143923D01*
X414750Y143945D01*
Y145452D01*
X413858D01*
Y145652D01*
X413658D01*
Y147380D01*
X413340D01*
X412882Y147480D01*
X412508Y147480D01*
X408615D01*
Y151516D01*
X410713D01*
Y154484D01*
X407350D01*
Y152387D01*
X407340Y152372D01*
X407290Y152118D01*
Y147480D01*
X404678D01*
Y148766D01*
X404793Y148813D01*
X405187Y149207D01*
X405400Y149722D01*
Y150278D01*
X405187Y150793D01*
X405129Y150850D01*
X405337Y151350D01*
X405484D01*
Y154713D01*
X402516D01*
Y153694D01*
X376353D01*
X373629Y156418D01*
X373414Y156562D01*
X373161Y156612D01*
X336325D01*
X329100Y163837D01*
X329307Y164337D01*
X334669D01*
Y163228D01*
X338819D01*
Y167772D01*
X334669D01*
Y165663D01*
X327223D01*
X327217Y165669D01*
X327210Y165673D01*
X327000Y165871D01*
X326980Y166326D01*
X327048Y166489D01*
Y167007D01*
X326850Y167484D01*
X326484Y167850D01*
X326007Y168048D01*
X325489D01*
X325012Y167850D01*
X324646Y167484D01*
X324448Y167007D01*
Y166490D01*
X324208Y166358D01*
X323898Y166737D01*
Y167007D01*
X323700Y167484D01*
X323335Y167850D01*
X322857Y168048D01*
X322340D01*
X321862Y167850D01*
X321496Y167484D01*
X321298Y167007D01*
Y166490D01*
X321058Y166357D01*
X320749Y166737D01*
Y167007D01*
X320551Y167484D01*
X320185Y167850D01*
X319707Y168048D01*
X319190D01*
X318712Y167850D01*
X318347Y167484D01*
X318149Y167007D01*
Y166600D01*
X317599D01*
Y167007D01*
X317401Y167484D01*
X317036Y167850D01*
X316558Y168048D01*
X316041D01*
X315563Y167850D01*
X315197Y167484D01*
X314999Y167007D01*
X314976Y166971D01*
X314499Y166758D01*
X314450Y166802D01*
Y167007D01*
X314252Y167484D01*
X313886Y167850D01*
X313812Y167881D01*
Y168765D01*
X313886Y168796D01*
X314252Y169161D01*
X314450Y169639D01*
Y170156D01*
X314735Y170491D01*
X314970Y170193D01*
X314999Y170115D01*
Y169639D01*
X315197Y169161D01*
X315563Y168796D01*
X316041Y168598D01*
X316558D01*
X317036Y168796D01*
X317401Y169161D01*
X317599Y169639D01*
Y170156D01*
X317845Y170303D01*
X318149Y169915D01*
Y169639D01*
X318347Y169161D01*
X318712Y168796D01*
X319190Y168598D01*
X319707D01*
X320185Y168796D01*
X320551Y169161D01*
X320749Y169639D01*
Y170156D01*
X320994Y170303D01*
X321298Y169915D01*
Y169639D01*
X321496Y169161D01*
X321862Y168796D01*
X322340Y168598D01*
X322857D01*
X323335Y168796D01*
X323700Y169161D01*
X323898Y169639D01*
Y170156D01*
X324144Y170303D01*
X324448Y169915D01*
Y169639D01*
X324646Y169161D01*
X325012Y168796D01*
X325489Y168598D01*
X326007D01*
X326484Y168796D01*
X326850Y169161D01*
X327048Y169639D01*
Y170156D01*
X326973Y170337D01*
X327300Y170837D01*
X336350D01*
Y170016D01*
X339713D01*
Y172984D01*
X336350D01*
Y172163D01*
X327330D01*
X326996Y172663D01*
X327048Y172789D01*
Y173306D01*
X326850Y173784D01*
X326484Y174149D01*
X326007Y174347D01*
X325802D01*
X325758Y174397D01*
X325971Y174873D01*
X326007Y174897D01*
X326484Y175095D01*
X326850Y175460D01*
X326881Y175534D01*
X389490D01*
X389744Y175585D01*
X389959Y175728D01*
X396670Y182439D01*
X397071Y182671D01*
Y182671D01*
X397071Y182671D01*
X406555D01*
X406929Y182671D01*
X407388Y182771D01*
X407705D01*
Y184500D01*
Y186229D01*
X407388D01*
X406929Y186329D01*
X406555Y186329D01*
X399744D01*
X399449Y186707D01*
X399449Y188691D01*
X399349Y189149D01*
X399349Y189467D01*
X397817D01*
X396285D01*
Y189149D01*
X396185Y188691D01*
Y188473D01*
X395831Y188119D01*
X389503D01*
X389311Y188581D01*
X395067Y194337D01*
X395932D01*
X396285Y193984D01*
Y193804D01*
X397817D01*
X399349D01*
Y194350D01*
X399358Y194356D01*
X399977Y194974D01*
X414099D01*
X414394Y194597D01*
X414394Y194474D01*
Y190644D01*
X414394Y188675D01*
X414494Y188217D01*
Y187899D01*
X416026D01*
X417557D01*
Y188217D01*
X417652Y188649D01*
X417955Y188837D01*
X419337D01*
X419450Y188384D01*
X419450Y188337D01*
Y187200D01*
X421032D01*
X422613D01*
Y188337D01*
X422613Y188384D01*
X422626Y188438D01*
X422787Y188483D01*
X423287Y188102D01*
Y185516D01*
X426650D01*
Y188163D01*
X427150Y188371D01*
X427207Y188313D01*
X427722Y188100D01*
X428278D01*
X428793Y188313D01*
X429187Y188707D01*
X429400Y189222D01*
Y189778D01*
X429187Y190293D01*
X428793Y190687D01*
X428278Y190900D01*
X427722D01*
X427207Y190687D01*
X427150Y190629D01*
X426650Y190837D01*
Y193484D01*
X423671D01*
X423464Y193984D01*
X423687Y194207D01*
X423900Y194721D01*
Y195279D01*
X423687Y195793D01*
X423293Y196187D01*
X422779Y196400D01*
X422222D01*
X421707Y196187D01*
X421313Y195793D01*
X421259Y195663D01*
X417791D01*
X417538Y195612D01*
X417323Y195469D01*
X417172Y195318D01*
X416672Y195525D01*
Y196603D01*
X415779D01*
Y196803D01*
X415580D01*
Y198532D01*
X415262D01*
X414803Y198632D01*
X414429Y198632D01*
X410663D01*
Y201850D01*
X410984D01*
Y205213D01*
X408016D01*
Y201850D01*
X409337D01*
Y198632D01*
X406663D01*
Y201850D01*
X406984D01*
Y205213D01*
X404016D01*
Y204194D01*
X401714D01*
X401460Y204144D01*
X401245Y204000D01*
X380403Y183159D01*
X326881D01*
X326850Y183232D01*
X326484Y183598D01*
X326007Y183796D01*
X325909D01*
X325875Y183833D01*
X325878Y183953D01*
X325915Y184065D01*
X326060Y184368D01*
X326484Y184544D01*
X326850Y184909D01*
X327048Y185387D01*
Y185904D01*
X326850Y186382D01*
X326484Y186748D01*
X326411Y186778D01*
Y217438D01*
X327969Y218996D01*
X327977Y219008D01*
X329457D01*
Y230992D01*
X325543D01*
Y219008D01*
X325543D01*
X325708Y218610D01*
X325279Y218181D01*
X325136Y217966D01*
X325085Y217713D01*
Y186778D01*
X325012Y186748D01*
X324646Y186382D01*
X324448Y185904D01*
X324221Y185821D01*
X323922Y185812D01*
X323898Y185838D01*
Y185904D01*
X323700Y186382D01*
X323335Y186748D01*
X323261Y186778D01*
Y219008D01*
X324457D01*
Y230992D01*
X320543D01*
Y219008D01*
X321936D01*
Y186778D01*
X321862Y186748D01*
X321496Y186382D01*
X321298Y185904D01*
Y185419D01*
X321275Y185404D01*
X320749D01*
Y185904D01*
X320551Y186382D01*
X320185Y186748D01*
X319707Y186946D01*
X319289D01*
X317787Y188448D01*
X317900Y188722D01*
Y189278D01*
X317687Y189793D01*
X317293Y190187D01*
X316778Y190400D01*
X316399D01*
X316170Y190879D01*
X316969Y191677D01*
X317112Y191892D01*
X317163Y192146D01*
Y219008D01*
X319457D01*
Y230992D01*
X315543D01*
Y219008D01*
X315837D01*
Y192420D01*
X314802Y191384D01*
X314378Y191668D01*
X314400Y191721D01*
Y192279D01*
X314187Y192793D01*
X313793Y193187D01*
X313279Y193400D01*
X312721D01*
X312591Y193346D01*
X297719Y208219D01*
X297504Y208362D01*
X297250Y208413D01*
X269342D01*
X248663Y229093D01*
Y265350D01*
X249484D01*
Y266114D01*
X250728D01*
Y264681D01*
X255272D01*
Y268831D01*
X250728D01*
Y267949D01*
X249484D01*
Y268713D01*
X246516D01*
Y265350D01*
X247337D01*
Y229799D01*
X246875Y229607D01*
X238413Y238070D01*
Y283610D01*
X238362Y283864D01*
X238219Y284079D01*
X216813Y305485D01*
X216931Y306073D01*
X217140Y306160D01*
X217534Y306554D01*
X217747Y307068D01*
Y307625D01*
X217534Y308140D01*
X217140Y308534D01*
X217078Y308559D01*
Y320959D01*
X218837D01*
Y314400D01*
X218722D01*
X218207Y314187D01*
X217813Y313793D01*
X217600Y313279D01*
Y312721D01*
X217813Y312207D01*
X218207Y311813D01*
X218722Y311600D01*
X219279D01*
X219793Y311813D01*
X220187Y312207D01*
X220400Y312721D01*
Y313279D01*
X220187Y313793D01*
X220163Y313817D01*
Y320959D01*
X223697D01*
Y314000D01*
D02*
G37*
G36*
X235287Y282590D02*
Y238030D01*
X234825Y237839D01*
X230600Y242064D01*
Y286625D01*
X231062Y286816D01*
X235287Y282590D01*
D02*
G37*
G36*
X311654Y192409D02*
X311600Y192279D01*
Y191721D01*
X311813Y191207D01*
X312207Y190813D01*
X312721Y190600D01*
X313279D01*
X313332Y190622D01*
X313615Y190198D01*
X310332Y186915D01*
X310259Y186946D01*
X309741D01*
X309264Y186748D01*
X309026Y186510D01*
X308969Y186515D01*
X288859Y206625D01*
X289050Y207087D01*
X296975D01*
X311654Y192409D01*
D02*
G37*
G36*
X315100Y189101D02*
Y188722D01*
X315313Y188207D01*
X315707Y187813D01*
X316221Y187600D01*
X316760D01*
X317096Y187264D01*
X316813Y186840D01*
X316558Y186946D01*
X316041D01*
X315563Y186748D01*
X315197Y186382D01*
X314999Y185904D01*
Y185387D01*
X315197Y184909D01*
X315563Y184544D01*
X316041Y184346D01*
X316558D01*
X317036Y184544D01*
X317401Y184909D01*
X317599Y185387D01*
Y185904D01*
X317534Y186063D01*
X317965Y186327D01*
X318207Y186044D01*
X318149Y185904D01*
Y185387D01*
X318347Y184909D01*
X318712Y184544D01*
X319190Y184346D01*
X319489Y183941D01*
X319475Y183796D01*
X319190D01*
X318712Y183598D01*
X318347Y183232D01*
X318149Y182755D01*
Y182238D01*
X318347Y181760D01*
X318712Y181394D01*
X319190Y181196D01*
X319707D01*
X320185Y181394D01*
X320551Y181760D01*
X320691Y182099D01*
X321101Y182267D01*
X321249Y182280D01*
X321298Y182238D01*
X321338Y182142D01*
Y182142D01*
X321412Y181962D01*
X321496Y181760D01*
X321862Y181394D01*
X322340Y181196D01*
X322857D01*
X323335Y181394D01*
X323700Y181760D01*
X323898Y182238D01*
Y182246D01*
X324398Y182349D01*
X324500Y182111D01*
X324646Y181760D01*
X325012Y181394D01*
X325489Y181196D01*
X325525Y181173D01*
X325738Y180696D01*
X325694Y180647D01*
X325489D01*
X325012Y180448D01*
X324646Y180083D01*
X324448Y179605D01*
Y179088D01*
X324646Y178610D01*
X324823Y178433D01*
X324804Y178240D01*
X323829Y177266D01*
X323335Y177299D01*
X322857Y177497D01*
X322340D01*
X321862Y177299D01*
X321496Y176933D01*
X321298Y176455D01*
Y175938D01*
X321496Y175460D01*
X321862Y175095D01*
X322340Y174897D01*
X322857D01*
X323273Y174629D01*
X322858Y174347D01*
X322857Y174347D01*
X322340D01*
X321862Y174149D01*
X321496Y173784D01*
X321298Y173306D01*
Y172789D01*
X321059Y172658D01*
X320749Y173037D01*
Y173306D01*
X320551Y173784D01*
X320185Y174149D01*
X319707Y174347D01*
X319190D01*
X318712Y174149D01*
X318347Y173784D01*
X318149Y173306D01*
Y172789D01*
X317909Y172658D01*
X317599Y173037D01*
Y173306D01*
X317401Y173784D01*
X317036Y174149D01*
X316558Y174347D01*
X316041D01*
X315563Y174149D01*
X315197Y173784D01*
X315084Y173511D01*
X314598Y173282D01*
X314499Y173276D01*
X314460Y173299D01*
X314436Y173338D01*
X314252Y173784D01*
X313886Y174149D01*
X313408Y174347D01*
X312891D01*
X312413Y174149D01*
X312048Y173784D01*
X311850Y173306D01*
Y172789D01*
X312048Y172311D01*
X312413Y171945D01*
X312891Y171747D01*
X313408D01*
X313490Y171781D01*
X313606Y171657D01*
X313474Y171349D01*
X313351Y171198D01*
X312891D01*
X312413Y171000D01*
X312048Y170634D01*
X311850Y170156D01*
Y169639D01*
X312048Y169161D01*
X312413Y168796D01*
X312487Y168765D01*
Y167881D01*
X312413Y167850D01*
X312048Y167484D01*
X311850Y167007D01*
Y166489D01*
X312048Y166012D01*
X312413Y165646D01*
X312891Y165448D01*
X312938D01*
X313089Y165173D01*
X312938Y164898D01*
X312891D01*
X312413Y164700D01*
X312048Y164335D01*
X311850Y163857D01*
Y163340D01*
X312048Y162862D01*
X312413Y162496D01*
X312891Y162298D01*
X312927Y162275D01*
X313140Y161798D01*
X313095Y161749D01*
X312891D01*
X312413Y161551D01*
X312048Y161185D01*
X311850Y160707D01*
Y160190D01*
X312048Y159712D01*
X312413Y159347D01*
X312487Y159316D01*
Y158432D01*
X312413Y158401D01*
X312048Y158036D01*
X311850Y157558D01*
Y157041D01*
X312048Y156563D01*
X312413Y156197D01*
X312891Y155999D01*
X313408D01*
X313886Y156197D01*
X314252Y156563D01*
X314450Y157041D01*
Y157558D01*
X314252Y158036D01*
X313886Y158401D01*
X313812Y158432D01*
Y159316D01*
X313886Y159347D01*
X314252Y159712D01*
X314450Y160190D01*
Y160395D01*
X314499Y160439D01*
X314976Y160226D01*
X314999Y160190D01*
X315197Y159712D01*
X315563Y159347D01*
X316041Y159149D01*
X316558D01*
X317036Y159347D01*
X317401Y159712D01*
X317599Y160190D01*
Y160662D01*
X318149D01*
Y160190D01*
X318347Y159712D01*
X318712Y159347D01*
X319190Y159149D01*
X319707D01*
X320185Y159347D01*
X320551Y159712D01*
X320749Y160190D01*
Y160707D01*
X320551Y161185D01*
X320185Y161551D01*
X319707Y161749D01*
X319619D01*
X319274Y161784D01*
Y162298D01*
X319707D01*
X320185Y162496D01*
X320551Y162862D01*
X320749Y163340D01*
Y163857D01*
X320994Y164002D01*
X321298Y163614D01*
Y163340D01*
X321496Y162862D01*
X321862Y162496D01*
X322340Y162298D01*
X322773D01*
Y161784D01*
X322428Y161749D01*
X322340D01*
X321862Y161551D01*
X321496Y161185D01*
X321298Y160707D01*
Y160190D01*
X321496Y159712D01*
X321862Y159347D01*
X322340Y159149D01*
X322857D01*
X323335Y159347D01*
X323700Y159712D01*
X323898Y160190D01*
Y160662D01*
X324448D01*
Y160190D01*
X324646Y159712D01*
X325012Y159347D01*
X325489Y159149D01*
X326007D01*
X326484Y159347D01*
X326850Y159712D01*
X326897Y159827D01*
X327121Y160275D01*
X327678D01*
X328193Y160488D01*
X328587Y160882D01*
X328800Y161397D01*
Y161556D01*
X329300Y161763D01*
X334889Y156174D01*
X334697Y155712D01*
X330225D01*
X328169Y157768D01*
X327954Y157912D01*
X327701Y157962D01*
X326881D01*
X326850Y158036D01*
X326484Y158401D01*
X326007Y158599D01*
X325489D01*
X325012Y158401D01*
X324646Y158036D01*
X324448Y157558D01*
Y157041D01*
X324646Y156563D01*
X325012Y156197D01*
X325489Y155999D01*
X326007D01*
X326484Y156197D01*
X326850Y156563D01*
X326881Y156637D01*
X327426D01*
X328938Y155125D01*
X328747Y154663D01*
X326943D01*
X326850Y154886D01*
X326484Y155252D01*
X326007Y155450D01*
X325489D01*
X325012Y155252D01*
X324646Y154886D01*
X324448Y154408D01*
X324425Y154373D01*
X323948Y154159D01*
X323898Y154204D01*
Y154408D01*
X323700Y154886D01*
X323335Y155252D01*
X322857Y155450D01*
X322340D01*
X321862Y155252D01*
X321496Y154886D01*
X321298Y154408D01*
Y153891D01*
X321496Y153413D01*
X321862Y153048D01*
X322340Y152850D01*
X322544D01*
X322589Y152800D01*
X322375Y152323D01*
X322340Y152300D01*
X321862Y152102D01*
X321599Y151839D01*
X320641Y152796D01*
X320551Y153413D01*
X320569Y153457D01*
X320749Y153891D01*
Y154408D01*
X320551Y154886D01*
X320185Y155252D01*
X319707Y155450D01*
X319190D01*
X318712Y155252D01*
X318347Y154886D01*
X318149Y154408D01*
Y153891D01*
X317874Y153640D01*
X317857Y153656D01*
X317599Y154033D01*
Y154408D01*
X317401Y154886D01*
X317036Y155252D01*
X316558Y155450D01*
X316041D01*
X315563Y155252D01*
X315197Y154886D01*
X315088Y154621D01*
X314594Y154385D01*
X314499Y154380D01*
X314471Y154396D01*
X314432Y154451D01*
X314252Y154886D01*
X313886Y155252D01*
X313408Y155450D01*
X312891D01*
X312413Y155252D01*
X312048Y154886D01*
X311850Y154408D01*
Y153891D01*
X312048Y153413D01*
X312413Y153048D01*
X312891Y152850D01*
X313408D01*
X313534Y152902D01*
X313787Y152684D01*
X313522Y152253D01*
X313408Y152300D01*
X312891D01*
X312413Y152102D01*
X312048Y151736D01*
X311850Y151259D01*
Y150741D01*
X312048Y150264D01*
X312413Y149898D01*
X312891Y149700D01*
X313408D01*
X313886Y149898D01*
X314252Y150264D01*
X314450Y150741D01*
Y151062D01*
X314774Y151416D01*
X314999Y151259D01*
Y150741D01*
X315197Y150264D01*
X315563Y149898D01*
X316041Y149700D01*
X316558D01*
X317036Y149898D01*
X317401Y150264D01*
X317599Y150741D01*
Y151259D01*
X317799Y151330D01*
X318149Y150933D01*
Y150741D01*
X318347Y150264D01*
X318712Y149898D01*
X319190Y149700D01*
X319707D01*
X320071Y149851D01*
X320305Y149848D01*
X320685Y149691D01*
X320725Y149630D01*
X321356Y149000D01*
X321489Y148609D01*
X321420Y148402D01*
X321298Y148109D01*
X321275Y148073D01*
X320798Y147860D01*
X320749Y147905D01*
Y148109D01*
X320551Y148587D01*
X320185Y148952D01*
X319707Y149150D01*
X319190D01*
X318712Y148952D01*
X318347Y148587D01*
X318149Y148109D01*
Y147960D01*
X317866Y147702D01*
X317707Y147755D01*
X317599Y147835D01*
Y148109D01*
X317401Y148587D01*
X317036Y148952D01*
X316558Y149150D01*
X316041D01*
X315563Y148952D01*
X315197Y148587D01*
X314999Y148109D01*
Y147830D01*
X314724Y147676D01*
X314581Y147756D01*
X314450Y147918D01*
Y148109D01*
X314252Y148587D01*
X313886Y148952D01*
X313408Y149150D01*
X312891D01*
X312413Y148952D01*
X312048Y148587D01*
X311850Y148109D01*
Y147830D01*
X311575Y147676D01*
X311432Y147756D01*
X311300Y147918D01*
Y148109D01*
X311102Y148587D01*
X310736Y148952D01*
X310259Y149150D01*
X309863D01*
Y149700D01*
X310259D01*
X310736Y149898D01*
X311102Y150264D01*
X311300Y150741D01*
Y151259D01*
X311102Y151736D01*
X310736Y152102D01*
X310259Y152300D01*
X310223Y152323D01*
X310010Y152800D01*
X310054Y152850D01*
X310259D01*
X310736Y153048D01*
X311102Y153413D01*
X311300Y153891D01*
Y154408D01*
X311102Y154886D01*
X310736Y155252D01*
X310259Y155450D01*
X309741D01*
X309264Y155252D01*
X308898Y154886D01*
X308700Y154408D01*
Y154361D01*
X308425Y154210D01*
X308150Y154361D01*
Y154408D01*
X307952Y154886D01*
X307587Y155252D01*
X307109Y155450D01*
X306592D01*
X306114Y155252D01*
X305748Y154886D01*
X305550Y154408D01*
Y153891D01*
X305748Y153413D01*
X306114Y153048D01*
X306592Y152850D01*
X306796D01*
X306841Y152800D01*
X306627Y152323D01*
X306592Y152300D01*
X306114Y152102D01*
X305748Y151736D01*
X305550Y151259D01*
Y150741D01*
X305748Y150264D01*
X306114Y149898D01*
X306592Y149700D01*
X307064D01*
Y149150D01*
X306592D01*
X306114Y148952D01*
X305748Y148587D01*
X305550Y148109D01*
Y147592D01*
X305748Y147114D01*
X306114Y146748D01*
X306592Y146550D01*
X307109D01*
X307587Y146748D01*
X307952Y147114D01*
X308150Y147592D01*
Y147681D01*
X308185Y148025D01*
X308700D01*
Y147592D01*
X308898Y147114D01*
X309162Y146850D01*
X308081Y145770D01*
X307587Y145803D01*
X307109Y146001D01*
X306592D01*
X306114Y145803D01*
X305748Y145437D01*
X305550Y144959D01*
Y144442D01*
X305748Y143964D01*
X306114Y143599D01*
X306592Y143401D01*
X307109D01*
X307490Y143126D01*
X307114Y142855D01*
X307083Y142851D01*
X306592D01*
X306114Y142653D01*
X305748Y142288D01*
X305550Y141810D01*
Y141293D01*
X305748Y140815D01*
X306114Y140449D01*
X306592Y140251D01*
X306607D01*
X306814Y139751D01*
X303026Y135963D01*
X289396D01*
X289204Y136425D01*
X292613Y139834D01*
X293037Y139550D01*
X292976Y139402D01*
Y138846D01*
X293189Y138331D01*
X293583Y137937D01*
X294097Y137724D01*
X294654D01*
X295169Y137937D01*
X295563Y138331D01*
X295776Y138846D01*
Y139402D01*
X295563Y139917D01*
X295336Y140144D01*
X295169Y140311D01*
X295326Y140787D01*
X295354Y140815D01*
X295552Y141293D01*
Y141810D01*
X295354Y142288D01*
X294988Y142653D01*
X294511Y142851D01*
X294475Y142875D01*
X294262Y143351D01*
X294306Y143401D01*
X294511D01*
X294988Y143599D01*
X295354Y143964D01*
X295552Y144442D01*
Y144959D01*
X295354Y145437D01*
X294988Y145803D01*
X294511Y146001D01*
X294475Y146024D01*
X294262Y146501D01*
X294306Y146550D01*
X294511D01*
X294988Y146748D01*
X295354Y147114D01*
X295552Y147592D01*
Y148109D01*
X295354Y148587D01*
X294988Y148952D01*
X294511Y149150D01*
X293993D01*
X293516Y148952D01*
X293150Y148587D01*
X292952Y148109D01*
Y147905D01*
X292902Y147860D01*
X292426Y148073D01*
X292402Y148109D01*
X292204Y148587D01*
X291839Y148952D01*
X291361Y149150D01*
X290966D01*
Y149700D01*
X291361D01*
X291839Y149898D01*
X292204Y150264D01*
X292402Y150741D01*
Y151259D01*
X292204Y151736D01*
X291839Y152102D01*
X291361Y152300D01*
X291148D01*
X291135Y152414D01*
X291361Y152850D01*
X291839Y153048D01*
X292204Y153413D01*
X292402Y153891D01*
Y154408D01*
X292204Y154886D01*
X291839Y155252D01*
X291361Y155450D01*
X291157D01*
X291112Y155499D01*
X291325Y155976D01*
X291361Y155999D01*
X291839Y156197D01*
X292204Y156563D01*
X292402Y157041D01*
X292426Y157076D01*
X292902Y157289D01*
X292952Y157245D01*
Y157041D01*
X293150Y156563D01*
X293516Y156197D01*
X293993Y155999D01*
X294511D01*
X294988Y156197D01*
X295354Y156563D01*
X295552Y157041D01*
Y157558D01*
X295354Y158036D01*
X294988Y158401D01*
X294511Y158599D01*
X294464D01*
X294312Y158874D01*
X294464Y159149D01*
X294511D01*
X294988Y159347D01*
X295354Y159712D01*
X295552Y160190D01*
Y160707D01*
X295498Y160837D01*
X295498Y160895D01*
X295754Y161388D01*
X295969Y161531D01*
X296469Y162031D01*
X296612Y162246D01*
X297153Y162402D01*
X297163Y162398D01*
X297202D01*
Y163598D01*
Y164798D01*
X297163D01*
X297013Y165163D01*
X297443Y165548D01*
X297640D01*
X298081Y165731D01*
X298419Y166068D01*
X298602Y166509D01*
Y166548D01*
X297402D01*
Y166748D01*
X297202D01*
Y167948D01*
X297163D01*
X297013Y168312D01*
X297443Y168698D01*
X297640D01*
X298081Y168880D01*
X298419Y169218D01*
X298602Y169659D01*
Y169698D01*
X297402D01*
Y170098D01*
X298602D01*
Y170136D01*
X298419Y170577D01*
X298441Y171004D01*
X299469Y172031D01*
X299705Y172055D01*
X299815Y171945D01*
X300293Y171747D01*
X300810D01*
X301288Y171945D01*
X301653Y172311D01*
X301851Y172789D01*
Y172835D01*
X302126Y172987D01*
X302401Y172835D01*
Y172789D01*
X302599Y172311D01*
X302964Y171945D01*
X303442Y171747D01*
X303959D01*
X304437Y171945D01*
X304803Y172311D01*
X305001Y172789D01*
Y173306D01*
X304803Y173784D01*
X304437Y174149D01*
X303959Y174347D01*
X303755D01*
X303711Y174397D01*
X303924Y174873D01*
X303959Y174897D01*
X304437Y175095D01*
X304803Y175460D01*
X305001Y175938D01*
Y176455D01*
X304803Y176933D01*
X304437Y177299D01*
X303959Y177497D01*
X303871D01*
X303526Y177532D01*
Y178047D01*
X303959D01*
X304437Y178244D01*
X304803Y178610D01*
X305001Y179088D01*
Y179605D01*
X304803Y180083D01*
X304437Y180448D01*
X303959Y180647D01*
X303924Y180670D01*
X303711Y181147D01*
X303755Y181196D01*
X303959D01*
X304437Y181394D01*
X304932Y181427D01*
X306012Y180347D01*
X305748Y180083D01*
X305550Y179605D01*
Y179088D01*
X305748Y178610D01*
X306114Y178244D01*
X306592Y178047D01*
X307025D01*
Y177532D01*
X306681Y177497D01*
X306592D01*
X306114Y177299D01*
X305748Y176933D01*
X305550Y176455D01*
Y175938D01*
X305748Y175460D01*
X306114Y175095D01*
X306592Y174897D01*
X306627Y174873D01*
X306841Y174397D01*
X306796Y174347D01*
X306592D01*
X306114Y174149D01*
X305748Y173784D01*
X305550Y173306D01*
Y172789D01*
X305748Y172311D01*
X306114Y171945D01*
X306592Y171747D01*
X307109D01*
X307587Y171945D01*
X307952Y172311D01*
X308150Y172789D01*
Y172835D01*
X308425Y172987D01*
X308700Y172835D01*
Y172789D01*
X308898Y172311D01*
X309264Y171945D01*
X309741Y171747D01*
X310259D01*
X310736Y171945D01*
X311102Y172311D01*
X311300Y172789D01*
Y173306D01*
X311102Y173784D01*
X310736Y174149D01*
X310259Y174347D01*
X310054D01*
X310010Y174397D01*
X310223Y174873D01*
X310259Y174897D01*
X310736Y175095D01*
X311102Y175460D01*
X311300Y175938D01*
Y176455D01*
X311102Y176933D01*
X310736Y177299D01*
X310259Y177497D01*
X310170D01*
X309825Y177532D01*
Y178047D01*
X310259D01*
X310736Y178244D01*
X311102Y178610D01*
X311300Y179088D01*
Y179605D01*
X311102Y180083D01*
X310736Y180448D01*
X310259Y180647D01*
X310054D01*
X310010Y180696D01*
X310223Y181173D01*
X310259Y181196D01*
X310736Y181394D01*
X311102Y181760D01*
X311300Y182238D01*
X311323Y182273D01*
X311800Y182486D01*
X311850Y182442D01*
Y182238D01*
X312048Y181760D01*
X312413Y181394D01*
X312891Y181196D01*
X313408D01*
X313886Y181394D01*
X314252Y181760D01*
X314450Y182238D01*
Y182755D01*
X314252Y183232D01*
X313886Y183598D01*
X313408Y183796D01*
X313204D01*
X313159Y183846D01*
X313373Y184322D01*
X313408Y184346D01*
X313886Y184544D01*
X314252Y184909D01*
X314450Y185387D01*
Y185904D01*
X314252Y186382D01*
X313886Y186748D01*
X313408Y186946D01*
X312944D01*
X312834Y187082D01*
X312699Y187407D01*
X314621Y189330D01*
X315100Y189101D01*
D02*
G37*
G36*
X304811Y187526D02*
X304790Y187019D01*
X304681Y186935D01*
X304337Y186789D01*
X303959Y186946D01*
X303442D01*
X302964Y186748D01*
X302599Y186382D01*
X302401Y185904D01*
Y185387D01*
X302599Y184909D01*
X302964Y184544D01*
X303442Y184346D01*
X303959D01*
X304341Y184071D01*
X303965Y183800D01*
X303934Y183796D01*
X303442D01*
X302964Y183598D01*
X302599Y183232D01*
X302401Y182755D01*
Y182550D01*
X302351Y182506D01*
X301874Y182719D01*
X301851Y182755D01*
X301653Y183232D01*
X301288Y183598D01*
X300810Y183796D01*
X300293D01*
X299815Y183598D01*
X299449Y183232D01*
X299251Y182755D01*
Y182238D01*
X299027Y182134D01*
X298702Y182528D01*
Y182755D01*
X298504Y183232D01*
X298445Y183291D01*
X298469Y183531D01*
X299648Y184711D01*
X299815Y184544D01*
X300293Y184346D01*
X300810D01*
X301288Y184544D01*
X301653Y184909D01*
X301851Y185387D01*
Y185904D01*
X301653Y186382D01*
X301288Y186748D01*
X300810Y186946D01*
X300293D01*
X299815Y186748D01*
X299449Y186382D01*
X299346Y186134D01*
X299249Y186115D01*
X299164Y186058D01*
X298737Y186129D01*
X298572Y186217D01*
X298504Y186382D01*
X298138Y186748D01*
X297660Y186946D01*
X297143D01*
X297069Y186915D01*
X279159Y204825D01*
X279350Y205287D01*
X287049D01*
X304811Y187526D01*
D02*
G37*
G36*
X280388Y182837D02*
X280353Y182755D01*
Y182238D01*
X280384Y182163D01*
X280050Y181663D01*
X274000D01*
X273746Y181612D01*
X273531Y181469D01*
X273449Y181386D01*
X273348Y181319D01*
X272381Y180352D01*
X272314Y180251D01*
X269226Y177163D01*
X268120D01*
X267929Y177625D01*
X268275Y177971D01*
X268405Y177917D01*
X268962D01*
X269477Y178130D01*
X269870Y178524D01*
X270083Y179038D01*
Y179595D01*
X269870Y180110D01*
X269477Y180503D01*
X269268Y180590D01*
X269149Y181178D01*
X271308Y183337D01*
X280054D01*
X280388Y182837D01*
D02*
G37*
G36*
X396185Y186707D02*
X396776D01*
X397071Y186329D01*
Y184715D01*
X389216Y176860D01*
X327041D01*
X326688Y177260D01*
X326693Y177303D01*
X327667Y178277D01*
X327797Y178472D01*
X329162Y179837D01*
X381565D01*
X381819Y179888D01*
X382034Y180031D01*
X388796Y186794D01*
X396185D01*
Y186707D01*
D02*
G37*
G36*
X268938Y172125D02*
X268747Y171663D01*
X202700D01*
X202446Y171612D01*
X202231Y171469D01*
X201063Y170300D01*
X199591D01*
X199399Y170762D01*
X202474Y173837D01*
X267226D01*
X268938Y172125D01*
D02*
G37*
G36*
X199138Y176375D02*
X193063Y170300D01*
X191663D01*
Y171600D01*
X191779D01*
X192293Y171813D01*
X192687Y172207D01*
X192900Y172722D01*
Y173278D01*
X192687Y173793D01*
X192293Y174187D01*
X191966Y174322D01*
X191799Y174862D01*
X193774Y176837D01*
X198947D01*
X199138Y176375D01*
D02*
G37*
G36*
X280360Y176471D02*
X280353Y176455D01*
Y175938D01*
X280552Y175460D01*
X280917Y175095D01*
X281395Y174897D01*
X281912D01*
X282390Y175095D01*
X282756Y175460D01*
X282954Y175938D01*
Y176217D01*
X283228Y176372D01*
X283372Y176291D01*
X283503Y176129D01*
Y175938D01*
X283701Y175460D01*
X284067Y175095D01*
X284545Y174897D01*
X285062D01*
X285540Y175095D01*
X285905Y175460D01*
X286103Y175938D01*
Y176217D01*
X286378Y176372D01*
X286521Y176291D01*
X286653Y176129D01*
Y175938D01*
X286851Y175460D01*
X287216Y175095D01*
X287694Y174897D01*
X287783D01*
X288128Y174862D01*
Y174347D01*
X287694D01*
X287216Y174149D01*
X286851Y173784D01*
X286653Y173306D01*
Y172789D01*
X286851Y172311D01*
X287216Y171945D01*
X287694Y171747D01*
X288211D01*
X288386Y171819D01*
X288881Y171725D01*
X289009Y171578D01*
X289059Y171504D01*
X289536Y171027D01*
X289635Y170960D01*
X289759Y170850D01*
X289881Y170347D01*
X289802Y170156D01*
Y169639D01*
X290000Y169161D01*
X290366Y168796D01*
X290844Y168598D01*
X291361D01*
X291839Y168796D01*
X292204Y169161D01*
X292402Y169639D01*
Y169686D01*
X292677Y169837D01*
X292952Y169686D01*
Y169639D01*
X293150Y169161D01*
X293516Y168796D01*
X293993Y168598D01*
X294511D01*
X294892Y168323D01*
X294516Y168052D01*
X294485Y168048D01*
X293993D01*
X293516Y167850D01*
X293150Y167484D01*
X292952Y167007D01*
Y166802D01*
X292902Y166758D01*
X292426Y166971D01*
X292402Y167007D01*
X292204Y167484D01*
X291839Y167850D01*
X291361Y168048D01*
X290844D01*
X290366Y167850D01*
X290000Y167484D01*
X289802Y167007D01*
Y166550D01*
X289253D01*
Y167007D01*
X289055Y167484D01*
X288689Y167850D01*
X288211Y168048D01*
X287694D01*
X287216Y167850D01*
X286851Y167484D01*
X286653Y167007D01*
Y166489D01*
X286851Y166012D01*
X287216Y165646D01*
X287694Y165448D01*
X287846D01*
X288125Y165428D01*
Y164898D01*
X287694D01*
X287216Y164700D01*
X286851Y164335D01*
X286653Y163857D01*
Y163340D01*
X286410Y163201D01*
X286103Y163589D01*
Y163857D01*
X285905Y164335D01*
X285540Y164700D01*
X285062Y164898D01*
X284545D01*
X284067Y164700D01*
X283701Y164335D01*
X283503Y163857D01*
Y163340D01*
X283255Y163172D01*
X282954Y163549D01*
Y163857D01*
X282756Y164335D01*
X282390Y164700D01*
X281912Y164898D01*
X281395D01*
X280917Y164700D01*
X280552Y164335D01*
X280353Y163857D01*
Y163340D01*
X280388Y163256D01*
X279964Y162973D01*
X268562Y174375D01*
X268753Y174837D01*
X274000D01*
X274254Y174888D01*
X274469Y175031D01*
X276325Y176887D01*
X280082D01*
X280360Y176471D01*
D02*
G37*
G36*
X249005Y165337D02*
X248888Y165163D01*
X209171D01*
X209091Y165366D01*
X209442Y165837D01*
X248738D01*
X249005Y165337D01*
D02*
G37*
G36*
X245864Y163337D02*
X245713Y163119D01*
X208800D01*
Y163837D01*
X245603D01*
X245864Y163337D01*
D02*
G37*
G36*
X278641Y160922D02*
Y160292D01*
X278225Y160014D01*
X278158Y160041D01*
X277601D01*
X277087Y159828D01*
X276693Y159434D01*
X276480Y158920D01*
Y158363D01*
X276693Y157848D01*
X277087Y157455D01*
X277319Y157358D01*
Y154233D01*
X277207Y154187D01*
X276813Y153793D01*
X276600Y153279D01*
Y152722D01*
X276813Y152207D01*
X277207Y151813D01*
X277722Y151600D01*
X278278D01*
X278793Y151813D01*
X279187Y152207D01*
X279400Y152722D01*
X279900Y152915D01*
X280832Y151983D01*
X280841Y151885D01*
X280636Y151680D01*
X280453Y151239D01*
Y151200D01*
X281653D01*
Y151000D01*
X281854D01*
Y149800D01*
X281892D01*
X282186Y149922D01*
X282584Y149731D01*
X282646Y149669D01*
X282645Y149185D01*
X282245Y148904D01*
X281892Y149050D01*
X281854D01*
Y148050D01*
X282995D01*
X283202Y148201D01*
X283315Y148237D01*
X283346Y148216D01*
X283503Y148067D01*
Y147592D01*
X283701Y147114D01*
X284067Y146748D01*
X284545Y146550D01*
X285062D01*
X285540Y146748D01*
X285905Y147114D01*
X285930Y147173D01*
X286313Y147332D01*
X286834Y147154D01*
X286851Y147114D01*
X287216Y146748D01*
X287694Y146550D01*
X288211D01*
X288689Y146748D01*
X289055Y147114D01*
X289253Y147592D01*
Y147680D01*
X289288Y148025D01*
X289802D01*
Y147592D01*
X289896Y147365D01*
X289983Y147080D01*
X289822Y146759D01*
X288934Y145871D01*
X288902Y145824D01*
X288689Y145803D01*
X288211Y146001D01*
X287694D01*
X287216Y145803D01*
X286851Y145437D01*
X286653Y144959D01*
Y144442D01*
X286851Y143964D01*
X287216Y143599D01*
X287694Y143401D01*
X287935D01*
X288064Y143126D01*
X288001Y142991D01*
X287832Y142851D01*
X287694D01*
X287216Y142653D01*
X286851Y142288D01*
X286653Y141810D01*
Y141293D01*
X286851Y140815D01*
X287041Y140624D01*
X287070Y140053D01*
X287055Y140015D01*
X286702Y139753D01*
X286240Y139929D01*
X286027Y140443D01*
X285780Y140690D01*
X285905Y140815D01*
X286103Y141293D01*
Y141810D01*
X285905Y142288D01*
X285540Y142653D01*
X285062Y142851D01*
X284590D01*
Y143401D01*
X285062D01*
X285540Y143599D01*
X285905Y143964D01*
X286103Y144442D01*
Y144959D01*
X285905Y145437D01*
X285540Y145803D01*
X285062Y146001D01*
X284545D01*
X284067Y145803D01*
X283701Y145437D01*
X283503Y144959D01*
Y144871D01*
X283468Y144526D01*
X282954D01*
Y144959D01*
X282756Y145437D01*
X282390Y145803D01*
X281912Y146001D01*
X281395D01*
X280917Y145803D01*
X280552Y145437D01*
X280521Y145363D01*
X273484D01*
Y145713D01*
X270516D01*
Y143977D01*
X270016Y143709D01*
X269984Y143730D01*
Y145713D01*
X267016D01*
Y144694D01*
X266484D01*
Y146213D01*
X263516D01*
Y144086D01*
X263054Y143895D01*
X262163Y144786D01*
Y158000D01*
X262112Y158254D01*
X261969Y158469D01*
X253469Y166969D01*
X253254Y167112D01*
X253000Y167163D01*
X204000D01*
Y170300D01*
X204485Y170337D01*
X269226D01*
X278641Y160922D01*
D02*
G37*
G36*
X249313Y163707D02*
X249707Y163313D01*
X250221Y163100D01*
X250779D01*
X250909Y163154D01*
X251177Y162886D01*
X251392Y162742D01*
X251646Y162692D01*
X254579D01*
X259837Y157434D01*
Y151369D01*
X259375Y151177D01*
X248549Y162004D01*
X248603Y162134D01*
Y162691D01*
X248390Y163205D01*
X248258Y163337D01*
X248465Y163837D01*
X249259D01*
X249313Y163707D01*
D02*
G37*
G36*
X203600Y163500D02*
Y161500D01*
Y159500D01*
Y157500D01*
Y155500D01*
Y153500D01*
Y151500D01*
Y149500D01*
Y147900D01*
X186400D01*
Y149500D01*
Y151500D01*
Y153500D01*
Y155500D01*
Y157500D01*
Y159500D01*
Y161500D01*
Y163500D01*
Y165100D01*
X203600D01*
Y163500D01*
D02*
G37*
G36*
X402516Y151350D02*
X402663D01*
X402871Y150850D01*
X402813Y150793D01*
X402600Y150278D01*
Y149722D01*
X402813Y149207D01*
X403207Y148813D01*
X403353Y148753D01*
Y147480D01*
X398055D01*
X397317Y148219D01*
X397102Y148362D01*
X396848Y148413D01*
X380362D01*
X376868Y151907D01*
X377059Y152369D01*
X402516D01*
Y151350D01*
D02*
G37*
G36*
X267016Y142350D02*
X269047D01*
X270600Y140797D01*
Y140721D01*
X270813Y140207D01*
X271207Y139813D01*
X271722Y139600D01*
X272278D01*
X272793Y139813D01*
X273187Y140207D01*
X273400Y140721D01*
Y140888D01*
X280521D01*
X280552Y140815D01*
X280917Y140449D01*
X281395Y140251D01*
X281912D01*
X282390Y140449D01*
X282756Y140815D01*
X282954Y141293D01*
Y141726D01*
X283468D01*
X283503Y141381D01*
Y141293D01*
X283701Y140815D01*
X283863Y140653D01*
X283653Y140443D01*
X283440Y139928D01*
Y139372D01*
X283526Y139163D01*
X283194Y138663D01*
X268286D01*
X264560Y142388D01*
X264752Y142850D01*
X266484D01*
Y143369D01*
X267016D01*
Y142350D01*
D02*
G37*
G36*
X186000Y142700D02*
X188337D01*
Y115753D01*
X187875Y115562D01*
X184163Y119274D01*
Y147500D01*
X186000D01*
Y142700D01*
D02*
G37*
G36*
X194337Y117000D02*
X194388Y116746D01*
X194531Y116531D01*
X197031Y114031D01*
X197246Y113888D01*
X197500Y113837D01*
X280738D01*
X281005Y113337D01*
X280889Y113163D01*
X196774D01*
X193663Y116274D01*
Y142700D01*
X194337D01*
Y117000D01*
D02*
G37*
G36*
X192337Y116000D02*
X192388Y115746D01*
X192531Y115531D01*
X196031Y112031D01*
X196246Y111888D01*
X196500Y111837D01*
X281259D01*
X281313Y111707D01*
X281707Y111313D01*
X281708Y111313D01*
X281609Y110813D01*
X196124D01*
X191663Y115275D01*
Y142700D01*
X192337D01*
Y116000D01*
D02*
G37*
G36*
X284070Y105837D02*
X283707Y105687D01*
X283329Y105308D01*
X198129D01*
X197562Y105875D01*
X197753Y106337D01*
X283971D01*
X284070Y105837D01*
D02*
G37*
%LPC*%
G36*
X136278Y311900D02*
X135722D01*
X135207Y311687D01*
X134813Y311293D01*
X134600Y310778D01*
Y310222D01*
X134813Y309707D01*
X135207Y309313D01*
X135722Y309100D01*
X136278D01*
X136793Y309313D01*
X137187Y309707D01*
X137400Y310222D01*
Y310778D01*
X137187Y311293D01*
X136793Y311687D01*
X136278Y311900D01*
D02*
G37*
G36*
X117779Y310900D02*
X117221D01*
X116707Y310687D01*
X116313Y310293D01*
X116100Y309778D01*
Y309222D01*
X116313Y308707D01*
X116707Y308313D01*
X117221Y308100D01*
X117779D01*
X118293Y308313D01*
X118687Y308707D01*
X118900Y309222D01*
Y309778D01*
X118687Y310293D01*
X118293Y310687D01*
X117779Y310900D01*
D02*
G37*
G36*
X278884Y307644D02*
X277700D01*
Y306263D01*
X278884D01*
Y307644D01*
D02*
G37*
G36*
X277300D02*
X276116D01*
Y306263D01*
X277300D01*
Y307644D01*
D02*
G37*
G36*
X332384Y307613D02*
X331200D01*
Y306231D01*
X332384D01*
Y307613D01*
D02*
G37*
G36*
X330800D02*
X329616D01*
Y306231D01*
X330800D01*
Y307613D01*
D02*
G37*
G36*
X320716Y307609D02*
Y306031D01*
X324853D01*
Y307609D01*
X320716D01*
D02*
G37*
G36*
X286300D02*
X282163D01*
Y306031D01*
X286300D01*
Y307609D01*
D02*
G37*
G36*
X133779Y308400D02*
X133221D01*
X132707Y308187D01*
X132313Y307793D01*
X132100Y307278D01*
Y306721D01*
X132313Y306207D01*
X132707Y305813D01*
X133221Y305600D01*
X133779D01*
X134293Y305813D01*
X134687Y306207D01*
X134900Y306721D01*
Y307278D01*
X134687Y307793D01*
X134293Y308187D01*
X133779Y308400D01*
D02*
G37*
G36*
X278884Y305863D02*
X277700D01*
Y304482D01*
X278884D01*
Y305863D01*
D02*
G37*
G36*
X277300D02*
X276116D01*
Y304482D01*
X277300D01*
Y305863D01*
D02*
G37*
G36*
X332384Y305832D02*
X331200D01*
Y304450D01*
X332384D01*
Y305832D01*
D02*
G37*
G36*
X330800D02*
X329616D01*
Y304450D01*
X330800D01*
Y305832D01*
D02*
G37*
G36*
X124778Y306900D02*
X124222D01*
X123707Y306687D01*
X123313Y306293D01*
X123100Y305779D01*
Y305222D01*
X123313Y304707D01*
X123707Y304313D01*
X124222Y304100D01*
X124778D01*
X125293Y304313D01*
X125687Y304707D01*
X125900Y305222D01*
Y305779D01*
X125687Y306293D01*
X125293Y306687D01*
X124778Y306900D01*
D02*
G37*
G36*
X324853Y305631D02*
X320716D01*
Y304053D01*
X324853D01*
Y305631D01*
D02*
G37*
G36*
X286300D02*
X282163D01*
Y304053D01*
X286300D01*
Y305631D01*
D02*
G37*
G36*
Y303278D02*
X282163D01*
Y301700D01*
X286300D01*
Y303278D01*
D02*
G37*
G36*
Y301300D02*
X282163D01*
Y299722D01*
X286300D01*
Y301300D01*
D02*
G37*
G36*
X320716Y298947D02*
Y297369D01*
X324853D01*
Y298947D01*
X320716D01*
D02*
G37*
G36*
X157455Y303453D02*
X156545D01*
X155667Y303218D01*
X154880Y302763D01*
X154237Y302120D01*
X153782Y301333D01*
X153547Y300455D01*
Y299545D01*
X153782Y298667D01*
X154129Y298067D01*
X133031Y276969D01*
X132888Y276754D01*
X132837Y276500D01*
Y271831D01*
X130728D01*
Y267681D01*
X135228D01*
X135272Y267681D01*
X135728D01*
X135772Y267681D01*
X140228D01*
X140272Y267681D01*
X140728D01*
X140772Y267681D01*
X145228D01*
X145272Y267681D01*
X145728D01*
X145772Y267681D01*
X150272D01*
Y269093D01*
X153668D01*
X153782Y268667D01*
X154237Y267880D01*
X154880Y267237D01*
X155667Y266782D01*
X156545Y266547D01*
X157455D01*
X158333Y266782D01*
X159120Y267237D01*
X159763Y267880D01*
X160217Y268667D01*
X160453Y269545D01*
Y270455D01*
X160217Y271333D01*
X159763Y272120D01*
X159120Y272763D01*
X158333Y273218D01*
X157455Y273453D01*
X156545D01*
X155667Y273218D01*
X154880Y272763D01*
X154237Y272120D01*
X153782Y271333D01*
X153547Y270455D01*
Y270419D01*
X150272D01*
Y271831D01*
X145772D01*
X145728Y271831D01*
X145272D01*
X145228Y271831D01*
X144921D01*
X144730Y272293D01*
X151029Y278592D01*
X153826D01*
X154237Y277880D01*
X154880Y277237D01*
X155667Y276782D01*
X156545Y276547D01*
X157455D01*
X158333Y276782D01*
X159120Y277237D01*
X159763Y277880D01*
X160217Y278667D01*
X160453Y279545D01*
Y280455D01*
X160217Y281333D01*
X159763Y282120D01*
X159120Y282763D01*
X158333Y283218D01*
X157455Y283453D01*
X156545D01*
X155667Y283218D01*
X154880Y282763D01*
X154237Y282120D01*
X153782Y281333D01*
X153547Y280455D01*
Y279917D01*
X150754D01*
X150501Y279867D01*
X150286Y279723D01*
X142819Y272256D01*
X142675Y272041D01*
X142634Y271831D01*
X140772D01*
X140728Y271831D01*
X140272D01*
X140228Y271831D01*
X139163D01*
Y273726D01*
X153610Y288173D01*
X154106Y288107D01*
X154237Y287880D01*
X154880Y287237D01*
X155667Y286783D01*
X156545Y286547D01*
X157455D01*
X158333Y286783D01*
X159120Y287237D01*
X159763Y287880D01*
X160217Y288667D01*
X160453Y289545D01*
Y290455D01*
X160217Y291333D01*
X159763Y292120D01*
X159120Y292763D01*
X158333Y293217D01*
X157455Y293453D01*
X156545D01*
X155667Y293217D01*
X154880Y292763D01*
X154237Y292120D01*
X153782Y291333D01*
X153547Y290455D01*
Y289778D01*
X153378Y289744D01*
X153163Y289600D01*
X138031Y274469D01*
X137888Y274254D01*
X137837Y274000D01*
Y271831D01*
X135772D01*
X135728Y271831D01*
X135272D01*
X135228Y271831D01*
X134163D01*
Y276225D01*
X155067Y297129D01*
X155667Y296782D01*
X156545Y296547D01*
X157455D01*
X158333Y296782D01*
X159120Y297237D01*
X159763Y297880D01*
X160217Y298667D01*
X160453Y299545D01*
Y300455D01*
X160217Y301333D01*
X159763Y302120D01*
X159120Y302763D01*
X158333Y303218D01*
X157455Y303453D01*
D02*
G37*
G36*
X105279Y303400D02*
X104721D01*
X104207Y303187D01*
X103813Y302793D01*
X103600Y302278D01*
Y301722D01*
X103813Y301207D01*
X104207Y300813D01*
X104337Y300759D01*
Y299831D01*
X102728D01*
Y295681D01*
X107272D01*
Y299831D01*
X105663D01*
Y300759D01*
X105793Y300813D01*
X106187Y301207D01*
X106400Y301722D01*
Y302278D01*
X106187Y302793D01*
X105793Y303187D01*
X105279Y303400D01*
D02*
G37*
G36*
X324853Y296969D02*
X320716D01*
Y295391D01*
X324853D01*
Y296969D01*
D02*
G37*
G36*
X320716Y294601D02*
Y293023D01*
X324853D01*
Y294601D01*
X320716D01*
D02*
G37*
G36*
X286300D02*
X282163D01*
Y293023D01*
X286300D01*
Y294601D01*
D02*
G37*
G36*
X242213Y292984D02*
X238850D01*
Y292418D01*
X237062D01*
X236793Y292687D01*
X236279Y292900D01*
X235721D01*
X235207Y292687D01*
X234813Y292293D01*
X234600Y291778D01*
Y291221D01*
X234813Y290707D01*
X235207Y290313D01*
X235721Y290100D01*
X236279D01*
X236793Y290313D01*
X237062Y290582D01*
X238850D01*
Y290016D01*
X242213D01*
Y292984D01*
D02*
G37*
G36*
X246050Y292884D02*
X244669D01*
Y291700D01*
X246050D01*
Y292884D01*
D02*
G37*
G36*
X244268D02*
X242887D01*
Y291700D01*
X244268D01*
Y292884D01*
D02*
G37*
G36*
X324853Y292623D02*
X320716D01*
Y291045D01*
X324853D01*
Y292623D01*
D02*
G37*
G36*
X286300D02*
X282163D01*
Y291045D01*
X286300D01*
Y292623D01*
D02*
G37*
G36*
X246050Y291300D02*
X244669D01*
Y290116D01*
X246050D01*
Y291300D01*
D02*
G37*
G36*
X244268D02*
X242887D01*
Y290116D01*
X244268D01*
Y291300D01*
D02*
G37*
G36*
X215287Y292131D02*
X214200D01*
Y289743D01*
X215287D01*
Y292131D01*
D02*
G37*
G36*
X213800D02*
X212713D01*
Y289743D01*
X213800D01*
Y292131D01*
D02*
G37*
G36*
X458287Y303935D02*
X456813D01*
X455367Y303647D01*
X454005Y303083D01*
X452779Y302264D01*
X451737Y301221D01*
X450918Y299995D01*
X450353Y298633D01*
X450066Y297187D01*
Y295713D01*
X450353Y294267D01*
X450918Y292905D01*
X451737Y291679D01*
X452779Y290637D01*
X454005Y289818D01*
X455367Y289254D01*
X456813Y288966D01*
X458287D01*
X459733Y289254D01*
X461095Y289818D01*
X462321Y290637D01*
X463363Y291679D01*
X464182Y292905D01*
X464747Y294267D01*
X465034Y295713D01*
Y297187D01*
X464747Y298633D01*
X464182Y299995D01*
X463363Y301221D01*
X462321Y302264D01*
X461095Y303083D01*
X459733Y303647D01*
X458287Y303935D01*
D02*
G37*
G36*
X18287D02*
X16813D01*
X15367Y303647D01*
X14005Y303083D01*
X12779Y302264D01*
X11737Y301221D01*
X10917Y299995D01*
X10353Y298633D01*
X10066Y297187D01*
Y295713D01*
X10353Y294267D01*
X10917Y292905D01*
X11737Y291679D01*
X12779Y290637D01*
X14005Y289818D01*
X15367Y289254D01*
X16813Y288966D01*
X18287D01*
X19733Y289254D01*
X21095Y289818D01*
X22321Y290637D01*
X23363Y291679D01*
X24182Y292905D01*
X24747Y294267D01*
X25034Y295713D01*
Y297187D01*
X24747Y298633D01*
X24182Y299995D01*
X23363Y301221D01*
X22321Y302264D01*
X21095Y303083D01*
X19733Y303647D01*
X18287Y303935D01*
D02*
G37*
G36*
X324853Y290278D02*
X320716D01*
Y288700D01*
X324853D01*
Y290278D01*
D02*
G37*
G36*
X320316D02*
X316179D01*
Y288700D01*
X320316D01*
Y290278D01*
D02*
G37*
G36*
X215287Y289343D02*
X214200D01*
Y286956D01*
X215287D01*
Y289343D01*
D02*
G37*
G36*
X213800D02*
X212713D01*
Y286956D01*
X213800D01*
Y289343D01*
D02*
G37*
G36*
X324853Y288300D02*
X320716D01*
Y286722D01*
X324853D01*
Y288300D01*
D02*
G37*
G36*
X320316D02*
X316179D01*
Y286722D01*
X320316D01*
Y288300D01*
D02*
G37*
G36*
X276984Y292713D02*
X274016D01*
Y289350D01*
X275293D01*
X276792Y287851D01*
X277090Y287652D01*
X277441Y287582D01*
X282063D01*
Y286622D01*
X290937D01*
Y290378D01*
X282063D01*
Y289418D01*
X277821D01*
X276984Y290254D01*
Y292713D01*
D02*
G37*
G36*
X245480Y289142D02*
X244700D01*
Y286334D01*
X246131D01*
Y288492D01*
X245940Y288952D01*
X245480Y289142D01*
D02*
G37*
G36*
X244300D02*
X243520D01*
X243060Y288952D01*
X242869Y288492D01*
Y286334D01*
X244300D01*
Y289142D01*
D02*
G37*
G36*
X399715Y290749D02*
X392615D01*
Y285849D01*
X392615Y285849D01*
X392615D01*
X392380Y285451D01*
X340592Y233663D01*
X311708D01*
X311455Y233612D01*
X311240Y233469D01*
X308763Y230992D01*
X305543D01*
Y223407D01*
X301272D01*
Y225319D01*
X296728D01*
Y221169D01*
X298337D01*
Y219241D01*
X298207Y219187D01*
X297813Y218793D01*
X297600Y218279D01*
Y217722D01*
X297813Y217207D01*
X298207Y216813D01*
X298722Y216600D01*
X299278D01*
X299793Y216813D01*
X300187Y217207D01*
X300400Y217722D01*
Y218279D01*
X300187Y218793D01*
X299793Y219187D01*
X299663Y219241D01*
Y221169D01*
X301272D01*
Y222081D01*
X305543D01*
Y219008D01*
X309457D01*
Y229811D01*
X310081Y230436D01*
X310543Y230244D01*
Y219008D01*
X314457D01*
Y230992D01*
X311291D01*
X311100Y231454D01*
X311983Y232337D01*
X340866D01*
X341120Y232388D01*
X341335Y232531D01*
X394653Y285849D01*
X399715D01*
Y290749D01*
D02*
G37*
G36*
X420385D02*
X413285D01*
Y285849D01*
X420385D01*
Y290749D01*
D02*
G37*
G36*
X198278Y287400D02*
X197722D01*
X197207Y287187D01*
X196813Y286793D01*
X196600Y286279D01*
Y285721D01*
X196654Y285591D01*
X191726Y280663D01*
X182000D01*
Y281500D01*
X179000D01*
Y280663D01*
X170397D01*
X170218Y281333D01*
X169763Y282120D01*
X169120Y282763D01*
X168333Y283218D01*
X167455Y283453D01*
X166545D01*
X165667Y283218D01*
X164880Y282763D01*
X164237Y282120D01*
X163783Y281333D01*
X163547Y280455D01*
Y279545D01*
X163783Y278667D01*
X164237Y277880D01*
X164880Y277237D01*
X165667Y276782D01*
X166545Y276547D01*
X167455D01*
X168333Y276782D01*
X169120Y277237D01*
X169763Y277880D01*
X170218Y278667D01*
X170397Y279337D01*
X179000D01*
Y278500D01*
X182000D01*
Y279337D01*
X192000D01*
X192254Y279388D01*
X192469Y279531D01*
X197591Y284654D01*
X197722Y284600D01*
X198278D01*
X198793Y284813D01*
X199187Y285207D01*
X199400Y285721D01*
Y286279D01*
X199187Y286793D01*
X198793Y287187D01*
X198278Y287400D01*
D02*
G37*
G36*
X324853Y285947D02*
X320716D01*
Y284369D01*
X324853D01*
Y285947D01*
D02*
G37*
G36*
X320316D02*
X316179D01*
Y284369D01*
X320316D01*
Y285947D01*
D02*
G37*
G36*
X290837D02*
X286700D01*
Y284369D01*
X290837D01*
Y285947D01*
D02*
G37*
G36*
X286300D02*
X282163D01*
Y284369D01*
X286300D01*
Y285947D01*
D02*
G37*
G36*
X343050Y284384D02*
X341669D01*
Y283200D01*
X343050D01*
Y284384D01*
D02*
G37*
G36*
X341268D02*
X339887D01*
Y283200D01*
X341268D01*
Y284384D01*
D02*
G37*
G36*
X114772Y294319D02*
X110228D01*
Y290169D01*
X111582D01*
Y287331D01*
X110228D01*
Y283181D01*
X114772D01*
Y287331D01*
X113418D01*
Y290169D01*
X114772D01*
Y294319D01*
D02*
G37*
G36*
X107272D02*
X102728D01*
Y290169D01*
X104082D01*
Y287331D01*
X102728D01*
Y283181D01*
X107272D01*
Y287331D01*
X105918D01*
Y290169D01*
X107272D01*
Y294319D01*
D02*
G37*
G36*
X100272D02*
X95728D01*
Y290169D01*
X97082D01*
Y287331D01*
X95728D01*
Y283181D01*
X100272D01*
Y287331D01*
X98918D01*
Y290169D01*
X100272D01*
Y294319D01*
D02*
G37*
G36*
X246131Y285934D02*
X244700D01*
Y283125D01*
X245480D01*
X245940Y283316D01*
X246131Y283776D01*
Y285934D01*
D02*
G37*
G36*
X244300D02*
X242869D01*
Y283776D01*
X243060Y283316D01*
X243520Y283125D01*
X244300D01*
Y285934D01*
D02*
G37*
G36*
X324853Y283969D02*
X320716D01*
Y282391D01*
X324853D01*
Y283969D01*
D02*
G37*
G36*
X320316D02*
X316179D01*
Y282391D01*
X320316D01*
Y283969D01*
D02*
G37*
G36*
X290837D02*
X286700D01*
Y282391D01*
X290837D01*
Y283969D01*
D02*
G37*
G36*
X286300D02*
X282163D01*
Y282391D01*
X286300D01*
Y283969D01*
D02*
G37*
G36*
X343050Y282800D02*
X341669D01*
Y281616D01*
X343050D01*
Y282800D01*
D02*
G37*
G36*
X331213Y284484D02*
X327850D01*
Y282814D01*
X325870Y280833D01*
X324953D01*
Y281709D01*
X316079D01*
Y277953D01*
X324953D01*
Y278998D01*
X326250D01*
X326601Y279068D01*
X326899Y279267D01*
X329148Y281516D01*
X331213D01*
Y284484D01*
D02*
G37*
G36*
X290937Y281709D02*
X282063D01*
Y280817D01*
X280484D01*
Y281650D01*
X277516D01*
Y280886D01*
X275984D01*
Y281650D01*
X273016D01*
Y280902D01*
X271578D01*
X271293Y281187D01*
X270778Y281400D01*
X270221D01*
X269707Y281187D01*
X269313Y280793D01*
X269100Y280278D01*
Y279721D01*
X269313Y279207D01*
X269707Y278813D01*
X270221Y278600D01*
X270778D01*
X271293Y278813D01*
X271547Y279067D01*
X273016D01*
Y278287D01*
X275984D01*
Y279051D01*
X277516D01*
Y278287D01*
X280484D01*
Y278982D01*
X282063D01*
Y277953D01*
X290937D01*
Y281709D01*
D02*
G37*
G36*
X114672Y281719D02*
X112700D01*
Y279944D01*
X114672D01*
Y281719D01*
D02*
G37*
G36*
X112300D02*
X110328D01*
Y279944D01*
X112300D01*
Y281719D01*
D02*
G37*
G36*
X107172D02*
X105200D01*
Y279944D01*
X107172D01*
Y281719D01*
D02*
G37*
G36*
X104800D02*
X102828D01*
Y279944D01*
X104800D01*
Y281719D01*
D02*
G37*
G36*
X100172D02*
X98200D01*
Y279944D01*
X100172D01*
Y281719D01*
D02*
G37*
G36*
X97800D02*
X95828D01*
Y279944D01*
X97800D01*
Y281719D01*
D02*
G37*
G36*
X335150Y284484D02*
X331787D01*
Y281516D01*
X335150D01*
Y282082D01*
X335850D01*
Y281516D01*
X338078D01*
X340100Y279494D01*
Y279222D01*
X340313Y278707D01*
X340707Y278313D01*
X341221Y278100D01*
X341778D01*
X342293Y278313D01*
X342687Y278707D01*
X342900Y279222D01*
Y279779D01*
X342687Y280293D01*
X342293Y280687D01*
X341778Y280900D01*
X341221D01*
X340760Y280709D01*
X340353Y281116D01*
X340560Y281616D01*
X341268D01*
Y282800D01*
X339887D01*
Y282683D01*
X339387Y282425D01*
X339213Y282550D01*
Y284484D01*
X335850D01*
Y283918D01*
X335150D01*
Y284484D01*
D02*
G37*
G36*
X114672Y279544D02*
X112700D01*
Y277769D01*
X114672D01*
Y279544D01*
D02*
G37*
G36*
X112300D02*
X110328D01*
Y277769D01*
X112300D01*
Y279544D01*
D02*
G37*
G36*
X107172D02*
X105200D01*
Y277769D01*
X107172D01*
Y279544D01*
D02*
G37*
G36*
X104800D02*
X102828D01*
Y277769D01*
X104800D01*
Y279544D01*
D02*
G37*
G36*
X100172D02*
X98200D01*
Y277769D01*
X100172D01*
Y279544D01*
D02*
G37*
G36*
X97800D02*
X95828D01*
Y277769D01*
X97800D01*
Y279544D01*
D02*
G37*
G36*
X200278Y279900D02*
X199722D01*
X199207Y279687D01*
X198813Y279293D01*
X198600Y278779D01*
Y278222D01*
X198654Y278091D01*
X192226Y271663D01*
X181500D01*
Y272500D01*
X178500D01*
Y271663D01*
X170453D01*
Y273453D01*
X163547D01*
Y266547D01*
X170453D01*
Y270337D01*
X178500D01*
Y269500D01*
X181500D01*
Y270337D01*
X192500D01*
X192754Y270388D01*
X192969Y270531D01*
X199591Y277154D01*
X199722Y277100D01*
X200278D01*
X200793Y277313D01*
X201187Y277707D01*
X201400Y278222D01*
Y278779D01*
X201187Y279293D01*
X200793Y279687D01*
X200278Y279900D01*
D02*
G37*
G36*
X280384Y277613D02*
X279200D01*
Y276232D01*
X280384D01*
Y277613D01*
D02*
G37*
G36*
X275884D02*
X274700D01*
Y276232D01*
X275884D01*
Y277613D01*
D02*
G37*
G36*
X278800D02*
X277616D01*
Y276232D01*
X278800D01*
Y277613D01*
D02*
G37*
G36*
X274300D02*
X273116D01*
Y276232D01*
X274300D01*
Y277613D01*
D02*
G37*
G36*
X420285Y278051D02*
X417035D01*
Y275901D01*
X420285D01*
Y278051D01*
D02*
G37*
G36*
X416635D02*
X413385D01*
Y275901D01*
X416635D01*
Y278051D01*
D02*
G37*
G36*
X290837Y277278D02*
X286700D01*
Y275700D01*
X290837D01*
Y277278D01*
D02*
G37*
G36*
X286300D02*
X282163D01*
Y275700D01*
X286300D01*
Y277278D01*
D02*
G37*
G36*
X343050Y276884D02*
X341669D01*
Y275700D01*
X343050D01*
Y276884D01*
D02*
G37*
G36*
X341268D02*
X339887D01*
Y275700D01*
X341268D01*
Y276884D01*
D02*
G37*
G36*
X52020Y278450D02*
X51700D01*
Y274700D01*
X55450D01*
Y275020D01*
X55181Y276025D01*
X54661Y276925D01*
X53925Y277661D01*
X53025Y278181D01*
X52020Y278450D01*
D02*
G37*
G36*
X51300D02*
X50980D01*
X49975Y278181D01*
X49075Y277661D01*
X48339Y276925D01*
X47819Y276025D01*
X47550Y275020D01*
Y274700D01*
X51300D01*
Y278450D01*
D02*
G37*
G36*
X280384Y275832D02*
X279200D01*
Y274450D01*
X280384D01*
Y275832D01*
D02*
G37*
G36*
X278800D02*
X277616D01*
Y274450D01*
X278800D01*
Y275832D01*
D02*
G37*
G36*
X275884D02*
X274700D01*
Y274450D01*
X275884D01*
Y275832D01*
D02*
G37*
G36*
X274300D02*
X273116D01*
Y274450D01*
X274300D01*
Y275832D01*
D02*
G37*
G36*
X343050Y275300D02*
X341669D01*
Y274116D01*
X343050D01*
Y275300D01*
D02*
G37*
G36*
X341268D02*
X339887D01*
Y274116D01*
X341268D01*
Y275300D01*
D02*
G37*
G36*
X324953Y277378D02*
X316079D01*
Y273622D01*
X324953D01*
Y274582D01*
X327350D01*
Y274016D01*
X330713D01*
Y276984D01*
X327350D01*
Y276418D01*
X324953D01*
Y277378D01*
D02*
G37*
G36*
X290837Y275300D02*
X286700D01*
Y273722D01*
X290837D01*
Y275300D01*
D02*
G37*
G36*
X286300D02*
X282163D01*
Y273722D01*
X286300D01*
Y275300D01*
D02*
G37*
G36*
X207719Y275672D02*
X205944D01*
Y273700D01*
X207719D01*
Y275672D01*
D02*
G37*
G36*
X224231Y275672D02*
X222456D01*
Y273700D01*
X224231D01*
Y275672D01*
D02*
G37*
G36*
X222056D02*
X220281D01*
Y273700D01*
X222056D01*
Y275672D01*
D02*
G37*
G36*
X205544Y275672D02*
X203769D01*
Y273700D01*
X205544D01*
Y275672D01*
D02*
G37*
G36*
X420285Y275501D02*
X417035D01*
Y273351D01*
X420285D01*
Y275501D01*
D02*
G37*
G36*
X416635D02*
X413385D01*
Y273351D01*
X416635D01*
Y275501D01*
D02*
G37*
G36*
X399715Y278151D02*
X392615D01*
Y273251D01*
X399715D01*
Y278151D01*
D02*
G37*
G36*
X324853Y272947D02*
X320716D01*
Y271369D01*
X324853D01*
Y272947D01*
D02*
G37*
G36*
X320316D02*
X316179D01*
Y271369D01*
X320316D01*
Y272947D01*
D02*
G37*
G36*
X207719Y273300D02*
X205944D01*
Y271328D01*
X207719D01*
Y273300D01*
D02*
G37*
G36*
X205544D02*
X203769D01*
Y271328D01*
X205544D01*
Y273300D01*
D02*
G37*
G36*
X224231D02*
X222456D01*
Y271328D01*
X224231D01*
Y273300D01*
D02*
G37*
G36*
X222056D02*
X220281D01*
Y271328D01*
X222056D01*
Y273300D01*
D02*
G37*
G36*
X334650Y276984D02*
X331287D01*
Y274016D01*
X334650D01*
Y274582D01*
X335850D01*
Y274016D01*
X336329D01*
X336536Y273516D01*
X336345Y273324D01*
X336132Y272810D01*
Y272253D01*
X336345Y271739D01*
X336738Y271345D01*
X337253Y271131D01*
X337810D01*
X338324Y271345D01*
X338718Y271739D01*
X338931Y272253D01*
Y272810D01*
X338718Y273324D01*
X338527Y273516D01*
X338734Y274016D01*
X339213D01*
Y276984D01*
X335850D01*
Y276418D01*
X334650D01*
Y276984D01*
D02*
G37*
G36*
X55450Y274300D02*
X51700D01*
Y270550D01*
X52020D01*
X53025Y270819D01*
X53925Y271339D01*
X54661Y272075D01*
X55181Y272975D01*
X55450Y273980D01*
Y274300D01*
D02*
G37*
G36*
X51300D02*
X47550D01*
Y273980D01*
X47819Y272975D01*
X48339Y272075D01*
X49075Y271339D01*
X49975Y270819D01*
X50980Y270550D01*
X51300D01*
Y274300D01*
D02*
G37*
G36*
X241740Y280939D02*
X239779D01*
X239506Y280885D01*
X239274Y280730D01*
X239119Y280498D01*
X239065Y280224D01*
Y275508D01*
X239119Y275235D01*
X239274Y275003D01*
X239506Y274848D01*
X239582Y274833D01*
Y272562D01*
X239313Y272293D01*
X239100Y271778D01*
Y271221D01*
X239313Y270707D01*
X239707Y270313D01*
X240222Y270100D01*
X240778D01*
X241293Y270313D01*
X241687Y270707D01*
X241900Y271221D01*
Y271778D01*
X241687Y272293D01*
X241418Y272562D01*
Y274793D01*
X241740D01*
X242014Y274848D01*
X242245Y275003D01*
X242400Y275235D01*
X242455Y275508D01*
Y280224D01*
X242400Y280498D01*
X242245Y280730D01*
X242014Y280885D01*
X241740Y280939D01*
D02*
G37*
G36*
X324853Y270969D02*
X320716D01*
Y269391D01*
X324853D01*
Y270969D01*
D02*
G37*
G36*
X320316D02*
X316179D01*
Y269391D01*
X320316D01*
Y270969D01*
D02*
G37*
G36*
X290937Y273047D02*
X282063D01*
Y269291D01*
X290937D01*
Y273047D01*
D02*
G37*
G36*
X249220Y280939D02*
X247260D01*
X246986Y280885D01*
X246755Y280730D01*
X246600Y280498D01*
X246545Y280224D01*
Y275508D01*
X246600Y275235D01*
X246755Y275003D01*
X246986Y274848D01*
X247202Y274805D01*
Y272650D01*
X246516D01*
Y269287D01*
X249484D01*
Y272650D01*
X249038D01*
Y274793D01*
X249220D01*
X249494Y274848D01*
X249726Y275003D01*
X249881Y275235D01*
X249935Y275508D01*
Y280224D01*
X249881Y280498D01*
X249726Y280730D01*
X249494Y280885D01*
X249220Y280939D01*
D02*
G37*
G36*
X145728Y266319D02*
X145272D01*
X145228Y266319D01*
X140772D01*
X140728Y266319D01*
X140272D01*
X140228Y266319D01*
X135772D01*
X135728Y266319D01*
X135272D01*
X135228Y266319D01*
X130728D01*
Y262169D01*
X132337D01*
Y258831D01*
X130728D01*
Y254681D01*
X135228D01*
X135272Y254681D01*
X135728D01*
X135772Y254681D01*
X140228D01*
X140272Y254681D01*
X140728D01*
X140772Y254681D01*
X145228D01*
X145272Y254681D01*
X145728D01*
X145772Y254681D01*
X150272D01*
Y258831D01*
X148663D01*
Y262169D01*
X150272D01*
Y266319D01*
X145772D01*
X145728Y266319D01*
D02*
G37*
G36*
X324953Y268717D02*
X316079D01*
Y264961D01*
X324953D01*
Y265837D01*
X333259D01*
X333313Y265707D01*
X333707Y265313D01*
X334222Y265100D01*
X334778D01*
X335293Y265313D01*
X335687Y265707D01*
X335900Y266221D01*
Y266778D01*
X335687Y267293D01*
X335293Y267687D01*
X334778Y267900D01*
X334222D01*
X333707Y267687D01*
X333313Y267293D01*
X333259Y267163D01*
X324953D01*
Y268717D01*
D02*
G37*
G36*
X290937D02*
X282063D01*
Y264961D01*
X290937D01*
Y268717D01*
D02*
G37*
G36*
X206700Y266474D02*
Y263428D01*
X208112D01*
Y264902D01*
X207989Y265518D01*
X207640Y266041D01*
X207117Y266391D01*
X206700Y266474D01*
D02*
G37*
G36*
X206300D02*
X205883Y266391D01*
X205360Y266041D01*
X205011Y265518D01*
X204888Y264902D01*
Y263428D01*
X206300D01*
Y266474D01*
D02*
G37*
G36*
X255172Y263219D02*
X253200D01*
Y261444D01*
X255172D01*
Y263219D01*
D02*
G37*
G36*
X252800D02*
X250828D01*
Y261444D01*
X252800D01*
Y263219D01*
D02*
G37*
G36*
X208112Y263028D02*
X206700D01*
Y259983D01*
X207117Y260066D01*
X207640Y260415D01*
X207989Y260938D01*
X208112Y261555D01*
Y263028D01*
D02*
G37*
G36*
X206300D02*
X204888D01*
Y261555D01*
X205011Y260938D01*
X205360Y260415D01*
X205883Y260066D01*
X206300Y259983D01*
Y263028D01*
D02*
G37*
G36*
X316191Y264089D02*
X314613D01*
Y259952D01*
X316191D01*
Y264089D01*
D02*
G37*
G36*
X314213D02*
X312635D01*
Y259952D01*
X314213D01*
Y264089D01*
D02*
G37*
G36*
X311861D02*
X310283D01*
Y259952D01*
X311861D01*
Y264089D01*
D02*
G37*
G36*
X309883D02*
X308305D01*
Y259952D01*
X309883D01*
Y264089D01*
D02*
G37*
G36*
X307530D02*
X305952D01*
Y259952D01*
X307530D01*
Y264089D01*
D02*
G37*
G36*
X305552D02*
X303974D01*
Y259952D01*
X305552D01*
Y264089D01*
D02*
G37*
G36*
X221500Y266616D02*
X220844Y266485D01*
X220288Y266114D01*
X219916Y265558D01*
X219786Y264902D01*
Y261555D01*
X219916Y260899D01*
X220288Y260343D01*
X220844Y259971D01*
X221500Y259841D01*
X222156Y259971D01*
X222712Y260343D01*
X223084Y260899D01*
X223214Y261555D01*
Y264902D01*
X223084Y265558D01*
X222712Y266114D01*
X222156Y266485D01*
X221500Y266616D01*
D02*
G37*
G36*
X255172Y261044D02*
X253200D01*
Y259269D01*
X255172D01*
Y261044D01*
D02*
G37*
G36*
X252800D02*
X250828D01*
Y259269D01*
X252800D01*
Y261044D01*
D02*
G37*
G36*
X316191Y259552D02*
X314613D01*
Y255415D01*
X316191D01*
Y259552D01*
D02*
G37*
G36*
X314213D02*
X312635D01*
Y255415D01*
X314213D01*
Y259552D01*
D02*
G37*
G36*
X311861D02*
X310283D01*
Y255415D01*
X311861D01*
Y259552D01*
D02*
G37*
G36*
X309883D02*
X308305D01*
Y255415D01*
X309883D01*
Y259552D01*
D02*
G37*
G36*
X307530D02*
X305952D01*
Y255415D01*
X307530D01*
Y259552D01*
D02*
G37*
G36*
X305552D02*
X303974D01*
Y255415D01*
X305552D01*
Y259552D01*
D02*
G37*
G36*
X303299Y264189D02*
X299543D01*
Y255315D01*
X303299D01*
Y264189D01*
D02*
G37*
G36*
X298969D02*
X295213D01*
Y255315D01*
X298969D01*
Y264189D01*
D02*
G37*
G36*
X294638D02*
X290882D01*
Y255315D01*
X291978D01*
Y253984D01*
X291350D01*
Y253418D01*
X290562D01*
X290293Y253687D01*
X289778Y253900D01*
X289222D01*
X288707Y253687D01*
X288313Y253293D01*
X288100Y252779D01*
Y252221D01*
X288313Y251707D01*
X288707Y251313D01*
X289222Y251100D01*
X289778D01*
X290293Y251313D01*
X290562Y251582D01*
X291350D01*
Y251016D01*
X294713D01*
Y253984D01*
X293813D01*
Y255315D01*
X294638D01*
Y264189D01*
D02*
G37*
G36*
X298550Y253884D02*
X297168D01*
Y252700D01*
X298550D01*
Y253884D01*
D02*
G37*
G36*
X296768D02*
X295387D01*
Y252700D01*
X296768D01*
Y253884D01*
D02*
G37*
G36*
X150172Y253219D02*
X148200D01*
Y251444D01*
X150172D01*
Y253219D01*
D02*
G37*
G36*
X147800D02*
X145828D01*
Y251444D01*
X147800D01*
Y253219D01*
D02*
G37*
G36*
X145172D02*
X143200D01*
Y251444D01*
X145172D01*
Y253219D01*
D02*
G37*
G36*
X142800D02*
X140828D01*
Y251444D01*
X142800D01*
Y253219D01*
D02*
G37*
G36*
X140172D02*
X138200D01*
Y251444D01*
X140172D01*
Y253219D01*
D02*
G37*
G36*
X137800D02*
X135828D01*
Y251444D01*
X137800D01*
Y253219D01*
D02*
G37*
G36*
X135172D02*
X133200D01*
Y251444D01*
X135172D01*
Y253219D01*
D02*
G37*
G36*
X132800D02*
X130828D01*
Y251444D01*
X132800D01*
Y253219D01*
D02*
G37*
G36*
X298550Y252300D02*
X297168D01*
Y251116D01*
X298550D01*
Y252300D01*
D02*
G37*
G36*
X296768D02*
X295387D01*
Y251116D01*
X296768D01*
Y252300D01*
D02*
G37*
G36*
X150172Y251044D02*
X148200D01*
Y249269D01*
X150172D01*
Y251044D01*
D02*
G37*
G36*
X147800D02*
X145828D01*
Y249269D01*
X147800D01*
Y251044D01*
D02*
G37*
G36*
X145172D02*
X143200D01*
Y249269D01*
X145172D01*
Y251044D01*
D02*
G37*
G36*
X142800D02*
X140828D01*
Y249269D01*
X142800D01*
Y251044D01*
D02*
G37*
G36*
X140172D02*
X138200D01*
Y249269D01*
X140172D01*
Y251044D01*
D02*
G37*
G36*
X137800D02*
X135828D01*
Y249269D01*
X137800D01*
Y251044D01*
D02*
G37*
G36*
X135172D02*
X133200D01*
Y249269D01*
X135172D01*
Y251044D01*
D02*
G37*
G36*
X132800D02*
X130828D01*
Y249269D01*
X132800D01*
Y251044D01*
D02*
G37*
G36*
X329457Y247016D02*
X325543D01*
Y235032D01*
X329457D01*
Y244837D01*
X330759D01*
X330813Y244707D01*
X331207Y244313D01*
X331721Y244100D01*
X332278D01*
X332793Y244313D01*
X333187Y244707D01*
X333400Y245221D01*
Y245778D01*
X333187Y246293D01*
X332793Y246687D01*
X332278Y246900D01*
X331721D01*
X331207Y246687D01*
X330813Y246293D01*
X330759Y246163D01*
X329457D01*
Y247016D01*
D02*
G37*
G36*
X201172Y244219D02*
X199200D01*
Y242444D01*
X201172D01*
Y244219D01*
D02*
G37*
G36*
X198800D02*
X196828D01*
Y242444D01*
X198800D01*
Y244219D01*
D02*
G37*
G36*
X196172Y244219D02*
X194200D01*
Y242444D01*
X196172D01*
Y244219D01*
D02*
G37*
G36*
X193800D02*
X191828D01*
Y242444D01*
X193800D01*
Y244219D01*
D02*
G37*
G36*
X211700Y245017D02*
Y241972D01*
X213112D01*
Y243445D01*
X212989Y244062D01*
X212640Y244585D01*
X212117Y244934D01*
X211700Y245017D01*
D02*
G37*
G36*
X211300D02*
X210883Y244934D01*
X210360Y244585D01*
X210011Y244062D01*
X209888Y243445D01*
Y241972D01*
X211300D01*
Y245017D01*
D02*
G37*
G36*
X314357Y246916D02*
X312700D01*
Y241224D01*
X314357D01*
Y246916D01*
D02*
G37*
G36*
X324357D02*
X322700D01*
Y241224D01*
X324357D01*
Y246916D01*
D02*
G37*
G36*
X309357D02*
X307700D01*
Y241224D01*
X309357D01*
Y246916D01*
D02*
G37*
G36*
X319357D02*
X317700D01*
Y241224D01*
X319357D01*
Y246916D01*
D02*
G37*
G36*
X312300D02*
X310643D01*
Y241224D01*
X312300D01*
Y246916D01*
D02*
G37*
G36*
X322300D02*
X320643D01*
Y241224D01*
X322300D01*
Y246916D01*
D02*
G37*
G36*
X307300D02*
X305643D01*
Y241224D01*
X307300D01*
Y246916D01*
D02*
G37*
G36*
X317300D02*
X315643D01*
Y241224D01*
X317300D01*
Y246916D01*
D02*
G37*
G36*
X201172Y242044D02*
X199200D01*
Y240269D01*
X201172D01*
Y242044D01*
D02*
G37*
G36*
X198800D02*
X196828D01*
Y240269D01*
X198800D01*
Y242044D01*
D02*
G37*
G36*
X196172Y242044D02*
X194200D01*
Y240269D01*
X196172D01*
Y242044D01*
D02*
G37*
G36*
X193800D02*
X191828D01*
Y240269D01*
X193800D01*
Y242044D01*
D02*
G37*
G36*
X213112Y241572D02*
X211700D01*
Y238526D01*
X212117Y238609D01*
X212640Y238959D01*
X212989Y239481D01*
X213112Y240098D01*
Y241572D01*
D02*
G37*
G36*
X196779Y251900D02*
X196221D01*
X195707Y251687D01*
X195313Y251293D01*
X195100Y250779D01*
Y250221D01*
X194728Y249831D01*
X191728D01*
Y245681D01*
X196272D01*
Y245681D01*
X196728Y245681D01*
Y245681D01*
X201272D01*
Y246838D01*
X206764D01*
X207115Y246908D01*
X207413Y247107D01*
X208888Y248582D01*
X214034D01*
X215582Y247034D01*
Y244854D01*
X215288Y244657D01*
X214916Y244101D01*
X214786Y243445D01*
Y240098D01*
X214916Y239442D01*
X215288Y238886D01*
X215844Y238515D01*
X216500Y238384D01*
X217156Y238515D01*
X217712Y238886D01*
X218084Y239442D01*
X218214Y240098D01*
Y243445D01*
X218084Y244101D01*
X217712Y244657D01*
X217418Y244854D01*
Y247414D01*
X217348Y247765D01*
X217149Y248063D01*
X215063Y250149D01*
X214765Y250348D01*
X214414Y250418D01*
X208508D01*
X208157Y250348D01*
X207859Y250149D01*
X206384Y248674D01*
X201272D01*
Y249831D01*
X198272D01*
X197900Y250221D01*
Y250779D01*
X197687Y251293D01*
X197293Y251687D01*
X196779Y251900D01*
D02*
G37*
G36*
X324357Y240824D02*
X322700D01*
Y235132D01*
X324357D01*
Y240824D01*
D02*
G37*
G36*
X322300D02*
X320643D01*
Y235132D01*
X322300D01*
Y240824D01*
D02*
G37*
G36*
X319357D02*
X317700D01*
Y235132D01*
X319357D01*
Y240824D01*
D02*
G37*
G36*
X317300D02*
X315643D01*
Y235132D01*
X317300D01*
Y240824D01*
D02*
G37*
G36*
X314357D02*
X312700D01*
Y235132D01*
X314357D01*
Y240824D01*
D02*
G37*
G36*
X312300D02*
X310643D01*
Y235132D01*
X312300D01*
Y240824D01*
D02*
G37*
G36*
X309357D02*
X307700D01*
Y235132D01*
X309357D01*
Y240824D01*
D02*
G37*
G36*
X307300D02*
X305643D01*
Y235132D01*
X307300D01*
Y240824D01*
D02*
G37*
G36*
X269941Y236353D02*
X269700D01*
Y233200D01*
X272853D01*
Y233441D01*
X272624Y234294D01*
X272183Y235059D01*
X271559Y235683D01*
X270794Y236124D01*
X269941Y236353D01*
D02*
G37*
G36*
X269300D02*
X269059D01*
X268206Y236124D01*
X267441Y235683D01*
X266817Y235059D01*
X266376Y234294D01*
X266147Y233441D01*
Y233200D01*
X269300D01*
Y236353D01*
D02*
G37*
G36*
X272853Y232800D02*
X269700D01*
Y229647D01*
X269941D01*
X270794Y229876D01*
X271559Y230317D01*
X272183Y230941D01*
X272624Y231706D01*
X272853Y232559D01*
Y232800D01*
D02*
G37*
G36*
X269300D02*
X266147D01*
Y232559D01*
X266376Y231706D01*
X266817Y230941D01*
X267441Y230317D01*
X268206Y229876D01*
X269059Y229647D01*
X269300D01*
Y232800D01*
D02*
G37*
G36*
X282953Y236453D02*
X276047D01*
Y229547D01*
X282953D01*
Y236453D01*
D02*
G37*
G36*
X301172Y230731D02*
X299200D01*
Y228956D01*
X301172D01*
Y230731D01*
D02*
G37*
G36*
X298800D02*
X296828D01*
Y228956D01*
X298800D01*
Y230731D01*
D02*
G37*
G36*
X301172Y228556D02*
X299200D01*
Y226781D01*
X301172D01*
Y228556D01*
D02*
G37*
G36*
X298800D02*
X296828D01*
Y226781D01*
X298800D01*
Y228556D01*
D02*
G37*
G36*
X52020Y221950D02*
X51700D01*
Y218200D01*
X55450D01*
Y218520D01*
X55181Y219525D01*
X54661Y220425D01*
X53925Y221161D01*
X53025Y221681D01*
X52020Y221950D01*
D02*
G37*
G36*
X51300D02*
X50980D01*
X49975Y221681D01*
X49075Y221161D01*
X48339Y220425D01*
X47819Y219525D01*
X47550Y218520D01*
Y218200D01*
X51300D01*
Y221950D01*
D02*
G37*
G36*
X85900Y218900D02*
X84700D01*
Y217700D01*
X85900D01*
Y218900D01*
D02*
G37*
G36*
X84300D02*
X83100D01*
Y217700D01*
X84300D01*
Y218900D01*
D02*
G37*
G36*
X85900Y217300D02*
X84700D01*
Y216100D01*
X85900D01*
Y217300D01*
D02*
G37*
G36*
X84300D02*
X83100D01*
Y216100D01*
X84300D01*
Y217300D01*
D02*
G37*
G36*
X55450Y217800D02*
X51700D01*
Y214050D01*
X52020D01*
X53025Y214319D01*
X53925Y214839D01*
X54661Y215575D01*
X55181Y216475D01*
X55450Y217480D01*
Y217800D01*
D02*
G37*
G36*
X51300D02*
X47550D01*
Y217480D01*
X47819Y216475D01*
X48339Y215575D01*
X49075Y214839D01*
X49975Y214319D01*
X50980Y214050D01*
X51300D01*
Y217800D01*
D02*
G37*
G36*
X410884Y209050D02*
X409700D01*
Y207668D01*
X410884D01*
Y209050D01*
D02*
G37*
G36*
X409300D02*
X408116D01*
Y207668D01*
X409300D01*
Y209050D01*
D02*
G37*
G36*
X410884Y207269D02*
X409700D01*
Y205887D01*
X410884D01*
Y207269D01*
D02*
G37*
G36*
X409300D02*
X408116D01*
Y205887D01*
X409300D01*
Y207269D01*
D02*
G37*
G36*
X405278Y212900D02*
X404721D01*
X404207Y212687D01*
X403813Y212293D01*
X403600Y211778D01*
Y211222D01*
X403813Y210707D01*
X404207Y210313D01*
X404721Y210100D01*
X404837D01*
Y209150D01*
X404016D01*
Y205787D01*
X406984D01*
Y209150D01*
X406163D01*
Y210683D01*
X406187Y210707D01*
X406400Y211222D01*
Y211778D01*
X406187Y212293D01*
X405793Y212687D01*
X405278Y212900D01*
D02*
G37*
G36*
X415979Y198532D02*
Y197003D01*
X416672D01*
Y198532D01*
X415979D01*
D02*
G37*
G36*
X145719Y198672D02*
X143944D01*
Y196700D01*
X145719D01*
Y198672D01*
D02*
G37*
G36*
X143544D02*
X141769D01*
Y196700D01*
X143544D01*
Y198672D01*
D02*
G37*
G36*
X145719Y196300D02*
X143944D01*
Y194328D01*
X145719D01*
Y196300D01*
D02*
G37*
G36*
X143544D02*
X141769D01*
Y194328D01*
X143544D01*
Y196300D01*
D02*
G37*
G36*
X399349Y193404D02*
X397817D01*
X396285D01*
Y192712D01*
X396285Y192212D01*
Y191836D01*
X397817D01*
X399349D01*
Y192528D01*
X399349Y193028D01*
Y193404D01*
D02*
G37*
G36*
Y191436D02*
X397817D01*
X396285D01*
Y190744D01*
X396285Y190244D01*
Y189867D01*
X397817D01*
X399349D01*
Y190559D01*
X399349Y191059D01*
Y191436D01*
D02*
G37*
G36*
X417557Y187499D02*
X416026D01*
X414494D01*
Y186829D01*
X414494Y186807D01*
X414440Y186329D01*
X409256D01*
X408882Y186329D01*
X408423Y186229D01*
X408106D01*
Y184500D01*
Y182771D01*
X408423D01*
X408882Y182671D01*
X409256Y182671D01*
X412993D01*
Y180805D01*
X412707Y180687D01*
X412313Y180293D01*
X412100Y179779D01*
Y179221D01*
X412313Y178707D01*
X412707Y178313D01*
X412837Y178259D01*
Y176984D01*
X411287D01*
Y174016D01*
X412306D01*
Y172484D01*
X411287D01*
Y169516D01*
X414650D01*
Y172484D01*
X413631D01*
Y174016D01*
X414650D01*
Y176984D01*
X414163D01*
Y178259D01*
X414293Y178313D01*
X414687Y178707D01*
X414900Y179221D01*
Y179779D01*
X414687Y180293D01*
X414318Y180662D01*
Y182671D01*
X416772D01*
Y186307D01*
X416772Y186329D01*
X416825Y186807D01*
X417557D01*
Y187499D01*
D02*
G37*
G36*
X422613Y186800D02*
X421232D01*
Y185616D01*
X422613D01*
Y186800D01*
D02*
G37*
G36*
X420831D02*
X419450D01*
Y185616D01*
X420831D01*
Y186800D01*
D02*
G37*
G36*
X151331Y198772D02*
X147181D01*
Y194228D01*
X148593D01*
Y182496D01*
X148644Y182243D01*
X148787Y182027D01*
X150756Y180059D01*
Y177004D01*
X158252D01*
Y180996D01*
X151693D01*
X151185Y181504D01*
X151392Y182004D01*
X158252D01*
Y183337D01*
X158718D01*
X158813Y183108D01*
X159207Y182714D01*
X159722Y182501D01*
X160278D01*
X160793Y182714D01*
X161187Y183108D01*
X161400Y183623D01*
Y184180D01*
X161187Y184694D01*
X160793Y185088D01*
X160278Y185301D01*
X159722D01*
X159207Y185088D01*
X158813Y184694D01*
X158800Y184663D01*
X158252D01*
Y185996D01*
X150756D01*
Y182640D01*
X150256Y182433D01*
X149919Y182771D01*
Y194228D01*
X151331D01*
Y198772D01*
D02*
G37*
G36*
X410613Y176884D02*
X409232D01*
Y175700D01*
X410613D01*
Y176884D01*
D02*
G37*
G36*
X408832D02*
X407450D01*
Y175700D01*
X408832D01*
Y176884D01*
D02*
G37*
G36*
X410613Y175300D02*
X409232D01*
Y174116D01*
X410613D01*
Y175300D01*
D02*
G37*
G36*
X408832D02*
X407450D01*
Y174116D01*
X408832D01*
Y175300D01*
D02*
G37*
G36*
X158252Y175996D02*
X150756D01*
Y172004D01*
X158252D01*
Y173337D01*
X159218D01*
X159313Y173108D01*
X159707Y172714D01*
X160222Y172501D01*
X160778D01*
X161293Y172714D01*
X161687Y173108D01*
X161900Y173623D01*
Y174180D01*
X161687Y174694D01*
X161293Y175088D01*
X160778Y175301D01*
X160222D01*
X159707Y175088D01*
X159313Y174694D01*
X159300Y174663D01*
X158252D01*
Y175996D01*
D02*
G37*
G36*
X343550Y172884D02*
X342168D01*
Y171700D01*
X343550D01*
Y172884D01*
D02*
G37*
G36*
X341769D02*
X340387D01*
Y171700D01*
X341769D01*
Y172884D01*
D02*
G37*
G36*
X410613Y172384D02*
X409232D01*
Y171200D01*
X410613D01*
Y172384D01*
D02*
G37*
G36*
X408832D02*
X407450D01*
Y171200D01*
X408832D01*
Y172384D01*
D02*
G37*
G36*
X343550Y171300D02*
X342168D01*
Y170116D01*
X343550D01*
Y171300D01*
D02*
G37*
G36*
X341769D02*
X340387D01*
Y170116D01*
X341769D01*
Y171300D01*
D02*
G37*
G36*
X410613Y170800D02*
X409232D01*
Y169616D01*
X410613D01*
Y170800D01*
D02*
G37*
G36*
X408832D02*
X407450D01*
Y169616D01*
X408832D01*
Y170800D01*
D02*
G37*
G36*
X158252Y170996D02*
X150756D01*
Y167004D01*
X158252D01*
Y170996D01*
D02*
G37*
G36*
X344231Y167672D02*
X342456D01*
Y165700D01*
X344231D01*
Y167672D01*
D02*
G37*
G36*
X342056D02*
X340281D01*
Y165700D01*
X342056D01*
Y167672D01*
D02*
G37*
G36*
X344231Y165300D02*
X342456D01*
Y163328D01*
X344231D01*
Y165300D01*
D02*
G37*
G36*
X342056D02*
X340281D01*
Y163328D01*
X342056D01*
Y165300D01*
D02*
G37*
G36*
X405484Y158650D02*
X402516D01*
Y158171D01*
X402016Y157964D01*
X401793Y158187D01*
X401278Y158400D01*
X400722D01*
X400207Y158187D01*
X399813Y157793D01*
X399600Y157279D01*
Y156721D01*
X399813Y156207D01*
X400207Y155813D01*
X400722Y155600D01*
X401278D01*
X401793Y155813D01*
X402016Y156036D01*
X402516Y155829D01*
Y155287D01*
X405484D01*
Y158650D01*
D02*
G37*
G36*
X414550Y154384D02*
X413168D01*
Y153200D01*
X414550D01*
Y154384D01*
D02*
G37*
G36*
X412769D02*
X411387D01*
Y153200D01*
X412769D01*
Y154384D01*
D02*
G37*
G36*
X232700Y155451D02*
Y152200D01*
X235459D01*
Y155451D01*
X232700D01*
D02*
G37*
G36*
X414550Y152800D02*
X413168D01*
Y151616D01*
X414550D01*
Y152800D01*
D02*
G37*
G36*
X412769D02*
X411387D01*
Y151616D01*
X412769D01*
Y152800D01*
D02*
G37*
G36*
X235459Y151800D02*
X232700D01*
Y148549D01*
X235459D01*
Y151800D01*
D02*
G37*
G36*
X173384Y149644D02*
X172200D01*
Y148263D01*
X173384D01*
Y149644D01*
D02*
G37*
G36*
X171800D02*
X170616D01*
Y148263D01*
X171800D01*
Y149644D01*
D02*
G37*
G36*
X173384Y147863D02*
X172200D01*
Y146482D01*
X173384D01*
Y147863D01*
D02*
G37*
G36*
X171800D02*
X170616D01*
Y146482D01*
X171800D01*
Y147863D01*
D02*
G37*
G36*
X414058Y147380D02*
Y145852D01*
X414750D01*
Y147380D01*
X414058D01*
D02*
G37*
G36*
X334384Y147113D02*
X333200D01*
Y145731D01*
X334384D01*
Y147113D01*
D02*
G37*
G36*
X332800D02*
X331616D01*
Y145731D01*
X332800D01*
Y147113D01*
D02*
G37*
G36*
X334384Y145332D02*
X333200D01*
Y143950D01*
X334384D01*
Y145332D01*
D02*
G37*
G36*
X332800D02*
X331616D01*
Y143950D01*
X332800D01*
Y145332D01*
D02*
G37*
G36*
X395942Y145452D02*
X395250D01*
Y143923D01*
X395942D01*
Y145452D01*
D02*
G37*
G36*
X221884Y145113D02*
X220700D01*
Y143731D01*
X221884D01*
Y145113D01*
D02*
G37*
G36*
X220300D02*
X219116D01*
Y143731D01*
X220300D01*
Y145113D01*
D02*
G37*
G36*
X226001Y146790D02*
X223242D01*
Y143539D01*
X226001D01*
Y146790D01*
D02*
G37*
G36*
X326007Y146001D02*
X325489D01*
X325012Y145803D01*
X324646Y145437D01*
X324448Y144959D01*
Y144442D01*
X324646Y143964D01*
X325012Y143599D01*
X325489Y143401D01*
X326007D01*
X326484Y143599D01*
X326850Y143964D01*
X327048Y144442D01*
Y144959D01*
X326850Y145437D01*
X326484Y145803D01*
X326007Y146001D01*
D02*
G37*
G36*
X395696Y143345D02*
X394364D01*
Y142653D01*
X395696D01*
Y143345D01*
D02*
G37*
G36*
X221884Y143332D02*
X220700D01*
Y141950D01*
X221884D01*
Y143332D01*
D02*
G37*
G36*
X220300D02*
X219116D01*
Y141950D01*
X220300D01*
Y143332D01*
D02*
G37*
G36*
X397428Y142253D02*
X395896D01*
X394364D01*
Y141561D01*
X394364Y141061D01*
Y140684D01*
X395896D01*
X397428D01*
Y141376D01*
X397428Y141876D01*
Y142253D01*
D02*
G37*
G36*
X226001Y143139D02*
X223242D01*
Y139887D01*
X226001D01*
Y143139D01*
D02*
G37*
G36*
X397428Y140284D02*
X395896D01*
X394364D01*
Y139592D01*
X394364Y139092D01*
Y138716D01*
X395896D01*
X397428D01*
Y139408D01*
X397428Y139908D01*
Y140284D01*
D02*
G37*
G36*
X158172Y134719D02*
X156200D01*
Y132944D01*
X158172D01*
Y134719D01*
D02*
G37*
G36*
X155800D02*
X153828D01*
Y132944D01*
X155800D01*
Y134719D01*
D02*
G37*
G36*
X152695Y135747D02*
X150330D01*
Y132200D01*
X152695D01*
Y135747D01*
D02*
G37*
G36*
X149930D02*
X147565D01*
Y132200D01*
X149930D01*
Y135747D01*
D02*
G37*
G36*
X158172Y132544D02*
X156200D01*
Y130769D01*
X158172D01*
Y132544D01*
D02*
G37*
G36*
X155800D02*
X153828D01*
Y130769D01*
X155800D01*
Y132544D01*
D02*
G37*
G36*
X217984Y136213D02*
X215016D01*
Y132850D01*
X215316D01*
Y128918D01*
X215228Y128831D01*
X214772D01*
X214728Y128831D01*
X213163D01*
Y132850D01*
X213984D01*
Y136213D01*
X211016D01*
Y132850D01*
X211837D01*
Y128831D01*
X210228D01*
Y124681D01*
X214728D01*
X214772Y124681D01*
X215228D01*
X215272Y124681D01*
X219772D01*
Y128831D01*
X216641D01*
Y132850D01*
X217984D01*
Y136213D01*
D02*
G37*
G36*
X209984D02*
X207016D01*
Y132850D01*
X207103D01*
Y128831D01*
X204772D01*
X204728Y128831D01*
X204272D01*
X204228Y128831D01*
X202663D01*
Y132060D01*
X203453Y132850D01*
X205484D01*
Y136213D01*
X202516D01*
Y133788D01*
X201531Y132803D01*
X201388Y132588D01*
X201337Y132335D01*
Y128831D01*
X199728D01*
Y124681D01*
X204228D01*
X204272Y124681D01*
X204728D01*
X204772Y124681D01*
X209272D01*
Y128831D01*
X208429D01*
Y132850D01*
X209984D01*
Y136213D01*
D02*
G37*
G36*
X152695Y131800D02*
X150330D01*
Y128253D01*
X152695D01*
Y131800D01*
D02*
G37*
G36*
X149930D02*
X147565D01*
Y128253D01*
X149930D01*
Y131800D01*
D02*
G37*
G36*
X407613Y127384D02*
X406231D01*
Y126200D01*
X407613D01*
Y127384D01*
D02*
G37*
G36*
X405831D02*
X404450D01*
Y126200D01*
X405831D01*
Y127384D01*
D02*
G37*
G36*
X407613Y125800D02*
X406231D01*
Y124616D01*
X407613D01*
Y125800D01*
D02*
G37*
G36*
X405831D02*
X404450D01*
Y124616D01*
X405831D01*
Y125800D01*
D02*
G37*
G36*
X152880Y126746D02*
X150515D01*
Y123200D01*
X152880D01*
Y126746D01*
D02*
G37*
G36*
X150115D02*
X147750D01*
Y123200D01*
X150115D01*
Y126746D01*
D02*
G37*
G36*
X407613Y123384D02*
X406231D01*
Y122200D01*
X407613D01*
Y123384D01*
D02*
G37*
G36*
X405831D02*
X404450D01*
Y122200D01*
X405831D01*
Y123384D01*
D02*
G37*
G36*
X407613Y121800D02*
X406231D01*
Y120616D01*
X407613D01*
Y121800D01*
D02*
G37*
G36*
X405831D02*
X404450D01*
Y120616D01*
X405831D01*
Y121800D01*
D02*
G37*
G36*
X204272Y123319D02*
Y123319D01*
X199728D01*
Y119169D01*
X204272D01*
Y119169D01*
X204728D01*
Y119169D01*
X209272D01*
Y120581D01*
X210228D01*
Y119169D01*
X214772D01*
Y119169D01*
X215228D01*
Y119169D01*
X219772D01*
Y120109D01*
X220272Y120208D01*
X220313Y120108D01*
X220707Y119714D01*
X221221Y119501D01*
X221778D01*
X222293Y119714D01*
X222687Y120108D01*
X222900Y120623D01*
Y121180D01*
X222687Y121694D01*
X222293Y122088D01*
X221778Y122301D01*
X221221D01*
X220707Y122088D01*
X220526Y121907D01*
X219772D01*
Y123319D01*
X215257D01*
X215228Y123319D01*
Y123319D01*
X214772D01*
X214772Y123319D01*
X214743Y123319D01*
X210228D01*
Y121907D01*
X209272D01*
Y123319D01*
X204728D01*
Y123319D01*
X204272D01*
D02*
G37*
G36*
X152880Y122800D02*
X150515D01*
Y119254D01*
X152880D01*
Y122800D01*
D02*
G37*
G36*
X150115D02*
X147750D01*
Y119254D01*
X150115D01*
Y122800D01*
D02*
G37*
G36*
X304081Y119384D02*
X302700D01*
Y118200D01*
X304081D01*
Y119384D01*
D02*
G37*
G36*
X302300D02*
X300919D01*
Y118200D01*
X302300D01*
Y119384D01*
D02*
G37*
G36*
X304081Y117800D02*
X302700D01*
Y116616D01*
X304081D01*
Y117800D01*
D02*
G37*
G36*
X302300D02*
X300919D01*
Y116616D01*
X302300D01*
Y117800D01*
D02*
G37*
G36*
X283278Y119801D02*
X282721D01*
X282207Y119588D01*
X281813Y119194D01*
X281600Y118680D01*
Y118123D01*
X281813Y117608D01*
X282207Y117214D01*
X282721Y117001D01*
X283278D01*
X283793Y117214D01*
X284187Y117608D01*
X284241Y117738D01*
X296882D01*
Y116516D01*
X300244D01*
Y119484D01*
X296882D01*
Y119064D01*
X284241D01*
X284187Y119194D01*
X283793Y119588D01*
X283278Y119801D01*
D02*
G37*
G36*
X304150Y115984D02*
X300787D01*
Y113016D01*
X304150D01*
Y113837D01*
X306259D01*
X306313Y113707D01*
X306707Y113313D01*
X307222Y113100D01*
X307779D01*
X308293Y113313D01*
X308687Y113707D01*
X308900Y114222D01*
Y114778D01*
X308687Y115293D01*
X308293Y115687D01*
X307779Y115900D01*
X307222D01*
X306707Y115687D01*
X306313Y115293D01*
X306259Y115163D01*
X304150D01*
Y115984D01*
D02*
G37*
G36*
X306613Y108384D02*
X305231D01*
Y107200D01*
X306613D01*
Y108384D01*
D02*
G37*
G36*
X304832D02*
X303450D01*
Y107200D01*
X304832D01*
Y108384D01*
D02*
G37*
G36*
X306613Y106800D02*
X305231D01*
Y105616D01*
X306613D01*
Y106800D01*
D02*
G37*
G36*
X304832D02*
X303450D01*
Y105616D01*
X304832D01*
Y106800D01*
D02*
G37*
G36*
X340772Y111819D02*
X336228D01*
Y107669D01*
X337837D01*
Y105331D01*
X336228D01*
Y101181D01*
X340772D01*
Y105331D01*
X339163D01*
Y107669D01*
X340772D01*
Y111819D01*
D02*
G37*
G36*
X334272D02*
X329728D01*
Y107669D01*
X331337D01*
Y105331D01*
X329728D01*
Y101181D01*
X334272D01*
Y105331D01*
X332663D01*
Y107669D01*
X334272D01*
Y111819D01*
D02*
G37*
G36*
X327772D02*
X323228D01*
Y107669D01*
X324837D01*
Y105331D01*
X323228D01*
Y101181D01*
X327772D01*
Y105331D01*
X326163D01*
Y107669D01*
X327772D01*
Y111819D01*
D02*
G37*
G36*
X321272D02*
X316728D01*
Y107669D01*
X316816D01*
Y105331D01*
X316728D01*
Y101181D01*
X321272D01*
Y105331D01*
X318141D01*
Y107669D01*
X321272D01*
Y111819D01*
D02*
G37*
G36*
X340672Y99719D02*
X338700D01*
Y97944D01*
X340672D01*
Y99719D01*
D02*
G37*
G36*
X338300D02*
X336328D01*
Y97944D01*
X338300D01*
Y99719D01*
D02*
G37*
G36*
X334172D02*
X332200D01*
Y97944D01*
X334172D01*
Y99719D01*
D02*
G37*
G36*
X331800D02*
X329828D01*
Y97944D01*
X331800D01*
Y99719D01*
D02*
G37*
G36*
X327672D02*
X325700D01*
Y97944D01*
X327672D01*
Y99719D01*
D02*
G37*
G36*
X325300D02*
X323328D01*
Y97944D01*
X325300D01*
Y99719D01*
D02*
G37*
G36*
X321172D02*
X319200D01*
Y97944D01*
X321172D01*
Y99719D01*
D02*
G37*
G36*
X318800D02*
X316828D01*
Y97944D01*
X318800D01*
Y99719D01*
D02*
G37*
G36*
X340672Y97544D02*
X338700D01*
Y95769D01*
X340672D01*
Y97544D01*
D02*
G37*
G36*
X338300D02*
X336328D01*
Y95769D01*
X338300D01*
Y97544D01*
D02*
G37*
G36*
X334172D02*
X332200D01*
Y95769D01*
X334172D01*
Y97544D01*
D02*
G37*
G36*
X331800D02*
X329828D01*
Y95769D01*
X331800D01*
Y97544D01*
D02*
G37*
G36*
X327672D02*
X325700D01*
Y95769D01*
X327672D01*
Y97544D01*
D02*
G37*
G36*
X325300D02*
X323328D01*
Y95769D01*
X325300D01*
Y97544D01*
D02*
G37*
G36*
X321172D02*
X319200D01*
Y95769D01*
X321172D01*
Y97544D01*
D02*
G37*
G36*
X318800D02*
X316828D01*
Y95769D01*
X318800D01*
Y97544D01*
D02*
G37*
G36*
X401020Y65950D02*
X400700D01*
Y62200D01*
X404450D01*
Y62520D01*
X404181Y63525D01*
X403661Y64425D01*
X402925Y65161D01*
X402025Y65681D01*
X401020Y65950D01*
D02*
G37*
G36*
X400300D02*
X399980D01*
X398975Y65681D01*
X398075Y65161D01*
X397339Y64425D01*
X396819Y63525D01*
X396550Y62520D01*
Y62200D01*
X400300D01*
Y65950D01*
D02*
G37*
G36*
X404450Y61800D02*
X400700D01*
Y58050D01*
X401020D01*
X402025Y58319D01*
X402925Y58839D01*
X403661Y59575D01*
X404181Y60475D01*
X404450Y61480D01*
Y61800D01*
D02*
G37*
G36*
X400300D02*
X396550D01*
Y61480D01*
X396819Y60475D01*
X397339Y59575D01*
X398075Y58839D01*
X398975Y58319D01*
X399980Y58050D01*
X400300D01*
Y61800D01*
D02*
G37*
G36*
X411500Y88000D02*
X408500D01*
Y85000D01*
X411500D01*
Y85159D01*
X411962Y85351D01*
X419837Y77476D01*
Y66015D01*
X418937Y65774D01*
X418013Y65241D01*
X417259Y64487D01*
X416726Y63563D01*
X416450Y62533D01*
Y61467D01*
X416726Y60437D01*
X417259Y59513D01*
X418013Y58759D01*
X418937Y58226D01*
X419967Y57950D01*
X421033D01*
X422063Y58226D01*
X422987Y58759D01*
X423741Y59513D01*
X424274Y60437D01*
X424550Y61467D01*
Y62533D01*
X424274Y63563D01*
X423741Y64487D01*
X422987Y65241D01*
X422063Y65774D01*
X421163Y66015D01*
Y77750D01*
X421112Y78004D01*
X420969Y78219D01*
X412219Y86969D01*
X412004Y87112D01*
X411750Y87163D01*
X411500D01*
Y88000D01*
D02*
G37*
G36*
X458287Y63935D02*
X456813D01*
X455367Y63647D01*
X454005Y63083D01*
X452779Y62264D01*
X451737Y61221D01*
X450918Y59995D01*
X450353Y58633D01*
X450066Y57187D01*
Y55713D01*
X450353Y54267D01*
X450918Y52905D01*
X451737Y51679D01*
X452779Y50637D01*
X454005Y49818D01*
X455367Y49254D01*
X456813Y48966D01*
X458287D01*
X459733Y49254D01*
X461095Y49818D01*
X462321Y50637D01*
X463363Y51679D01*
X464182Y52905D01*
X464747Y54267D01*
X465034Y55713D01*
Y57187D01*
X464747Y58633D01*
X464182Y59995D01*
X463363Y61221D01*
X462321Y62264D01*
X461095Y63083D01*
X459733Y63647D01*
X458287Y63935D01*
D02*
G37*
G36*
X18287D02*
X16813D01*
X15367Y63647D01*
X14005Y63083D01*
X12779Y62264D01*
X11737Y61221D01*
X10917Y59995D01*
X10353Y58633D01*
X10066Y57187D01*
Y55713D01*
X10353Y54267D01*
X10917Y52905D01*
X11737Y51679D01*
X12779Y50637D01*
X14005Y49818D01*
X15367Y49254D01*
X16813Y48966D01*
X18287D01*
X19733Y49254D01*
X21095Y49818D01*
X22321Y50637D01*
X23363Y51679D01*
X24182Y52905D01*
X24747Y54267D01*
X25034Y55713D01*
Y57187D01*
X24747Y58633D01*
X24182Y59995D01*
X23363Y61221D01*
X22321Y62264D01*
X21095Y63083D01*
X19733Y63647D01*
X18287Y63935D01*
D02*
G37*
G36*
X316558Y183796D02*
X316041D01*
X315563Y183598D01*
X315197Y183232D01*
X314999Y182755D01*
Y182238D01*
X315197Y181760D01*
X315563Y181394D01*
X316041Y181196D01*
X316558D01*
X317036Y181394D01*
X317401Y181760D01*
X317599Y182238D01*
Y182755D01*
X317401Y183232D01*
X317036Y183598D01*
X316558Y183796D01*
D02*
G37*
G36*
X322857Y180647D02*
X322340D01*
X321862Y180448D01*
X321496Y180083D01*
X321298Y179605D01*
Y179088D01*
X321496Y178610D01*
X321862Y178244D01*
X322340Y178047D01*
X322857D01*
X323335Y178244D01*
X323700Y178610D01*
X323898Y179088D01*
Y179605D01*
X323700Y180083D01*
X323335Y180448D01*
X322857Y180647D01*
D02*
G37*
G36*
X319707D02*
X319190D01*
X318712Y180448D01*
X318347Y180083D01*
X318149Y179605D01*
Y179088D01*
X318347Y178610D01*
X318712Y178244D01*
X319190Y178047D01*
X319707D01*
X320185Y178244D01*
X320551Y178610D01*
X320749Y179088D01*
Y179605D01*
X320551Y180083D01*
X320185Y180448D01*
X319707Y180647D01*
D02*
G37*
G36*
X316558D02*
X316041D01*
X315563Y180448D01*
X315197Y180083D01*
X314999Y179605D01*
Y179088D01*
X315197Y178610D01*
X315563Y178244D01*
X316041Y178047D01*
X316558D01*
X317036Y178244D01*
X317401Y178610D01*
X317599Y179088D01*
Y179605D01*
X317401Y180083D01*
X317036Y180448D01*
X316558Y180647D01*
D02*
G37*
G36*
X313408D02*
X312891D01*
X312413Y180448D01*
X312048Y180083D01*
X311850Y179605D01*
Y179088D01*
X312048Y178610D01*
X312413Y178244D01*
X312891Y178047D01*
X313408D01*
X313886Y178244D01*
X314252Y178610D01*
X314450Y179088D01*
Y179605D01*
X314252Y180083D01*
X313886Y180448D01*
X313408Y180647D01*
D02*
G37*
G36*
X319707Y177497D02*
X319190D01*
X318712Y177299D01*
X318347Y176933D01*
X318149Y176455D01*
Y175938D01*
X318347Y175460D01*
X318712Y175095D01*
X319190Y174897D01*
X319707D01*
X320185Y175095D01*
X320551Y175460D01*
X320749Y175938D01*
Y176455D01*
X320551Y176933D01*
X320185Y177299D01*
X319707Y177497D01*
D02*
G37*
G36*
X316558D02*
X316041D01*
X315563Y177299D01*
X315197Y176933D01*
X314999Y176455D01*
Y175938D01*
X315197Y175460D01*
X315563Y175095D01*
X316041Y174897D01*
X316558D01*
X317036Y175095D01*
X317401Y175460D01*
X317599Y175938D01*
Y176455D01*
X317401Y176933D01*
X317036Y177299D01*
X316558Y177497D01*
D02*
G37*
G36*
X313408D02*
X312891D01*
X312413Y177299D01*
X312048Y176933D01*
X311850Y176455D01*
Y175938D01*
X312048Y175460D01*
X312413Y175095D01*
X312891Y174897D01*
X313408D01*
X313886Y175095D01*
X314252Y175460D01*
X314450Y175938D01*
Y176455D01*
X314252Y176933D01*
X313886Y177299D01*
X313408Y177497D01*
D02*
G37*
G36*
X310239Y171098D02*
X310200D01*
Y170098D01*
X311200D01*
Y170136D01*
X311017Y170577D01*
X310680Y170915D01*
X310239Y171098D01*
D02*
G37*
G36*
X309800D02*
X309761D01*
X309320Y170915D01*
X308983Y170577D01*
X308800Y170136D01*
Y170098D01*
X309800D01*
Y171098D01*
D02*
G37*
G36*
X307089D02*
X307050D01*
Y170098D01*
X308050D01*
Y170136D01*
X307868Y170577D01*
X307530Y170915D01*
X307089Y171098D01*
D02*
G37*
G36*
X306650D02*
X306612D01*
X306171Y170915D01*
X305833Y170577D01*
X305650Y170136D01*
Y170098D01*
X306650D01*
Y171098D01*
D02*
G37*
G36*
X303940D02*
X303901D01*
Y170098D01*
X304901D01*
Y170136D01*
X304718Y170577D01*
X304380Y170915D01*
X303940Y171098D01*
D02*
G37*
G36*
X303501D02*
X303462D01*
X303021Y170915D01*
X302683Y170577D01*
X302501Y170136D01*
Y170098D01*
X303501D01*
Y171098D01*
D02*
G37*
G36*
X300790D02*
X300751D01*
Y170098D01*
X301751D01*
Y170136D01*
X301569Y170577D01*
X301231Y170915D01*
X300790Y171098D01*
D02*
G37*
G36*
X300351D02*
X300312D01*
X299871Y170915D01*
X299534Y170577D01*
X299351Y170136D01*
Y170098D01*
X300351D01*
Y171098D01*
D02*
G37*
G36*
X311200Y169698D02*
X310200D01*
Y168698D01*
X310239D01*
X310680Y168880D01*
X311017Y169218D01*
X311200Y169659D01*
Y169698D01*
D02*
G37*
G36*
X309800D02*
X308800D01*
Y169659D01*
X308983Y169218D01*
X309320Y168880D01*
X309761Y168698D01*
X309800D01*
Y169698D01*
D02*
G37*
G36*
X308050D02*
X307050D01*
Y168698D01*
X307089D01*
X307530Y168880D01*
X307868Y169218D01*
X308050Y169659D01*
Y169698D01*
D02*
G37*
G36*
X306650D02*
X305650D01*
Y169659D01*
X305833Y169218D01*
X306171Y168880D01*
X306612Y168698D01*
X306650D01*
Y169698D01*
D02*
G37*
G36*
X304901D02*
X303901D01*
Y168698D01*
X303940D01*
X304380Y168880D01*
X304718Y169218D01*
X304901Y169659D01*
Y169698D01*
D02*
G37*
G36*
X303501D02*
X302501D01*
Y169659D01*
X302683Y169218D01*
X303021Y168880D01*
X303462Y168698D01*
X303501D01*
Y169698D01*
D02*
G37*
G36*
X301751D02*
X300751D01*
Y168698D01*
X300790D01*
X301231Y168880D01*
X301569Y169218D01*
X301751Y169659D01*
Y169698D01*
D02*
G37*
G36*
X300351D02*
X299351D01*
Y169659D01*
X299534Y169218D01*
X299871Y168880D01*
X300312Y168698D01*
X300351D01*
Y169698D01*
D02*
G37*
G36*
X310239Y167948D02*
X310200D01*
Y166948D01*
X311200D01*
Y166987D01*
X311017Y167428D01*
X310680Y167765D01*
X310239Y167948D01*
D02*
G37*
G36*
X309800D02*
X309761D01*
X309320Y167765D01*
X308983Y167428D01*
X308800Y166987D01*
Y166948D01*
X309800D01*
Y167948D01*
D02*
G37*
G36*
X297640D02*
X297602D01*
Y166948D01*
X298602D01*
Y166987D01*
X298419Y167428D01*
X298081Y167765D01*
X297640Y167948D01*
D02*
G37*
G36*
X311200Y166548D02*
X310200D01*
Y165548D01*
X310239D01*
X310680Y165731D01*
X311017Y166068D01*
X311200Y166509D01*
Y166548D01*
D02*
G37*
G36*
X309800D02*
X308800D01*
Y166509D01*
X308983Y166068D01*
X309320Y165731D01*
X309761Y165548D01*
X309800D01*
Y166548D01*
D02*
G37*
G36*
X310239Y164798D02*
X310200D01*
Y163798D01*
X311200D01*
Y163837D01*
X311017Y164278D01*
X310680Y164616D01*
X310239Y164798D01*
D02*
G37*
G36*
X309800D02*
X309761D01*
X309320Y164616D01*
X308983Y164278D01*
X308800Y163837D01*
Y163798D01*
X309800D01*
Y164798D01*
D02*
G37*
G36*
X297640D02*
X297602D01*
Y163798D01*
X298602D01*
Y163837D01*
X298419Y164278D01*
X298081Y164616D01*
X297640Y164798D01*
D02*
G37*
G36*
X311200Y163398D02*
X310200D01*
Y162398D01*
X310239D01*
X310680Y162581D01*
X311017Y162919D01*
X311200Y163360D01*
Y163398D01*
D02*
G37*
G36*
X309800D02*
X308800D01*
Y163360D01*
X308983Y162919D01*
X309320Y162581D01*
X309761Y162398D01*
X309800D01*
Y163398D01*
D02*
G37*
G36*
X298602D02*
X297602D01*
Y162398D01*
X297640D01*
X298081Y162581D01*
X298419Y162919D01*
X298602Y163360D01*
Y163398D01*
D02*
G37*
G36*
X310239Y161649D02*
X310200D01*
Y160649D01*
X311200D01*
Y160687D01*
X311017Y161129D01*
X310680Y161466D01*
X310239Y161649D01*
D02*
G37*
G36*
X309800D02*
X309761D01*
X309320Y161466D01*
X308983Y161129D01*
X308800Y160687D01*
Y160649D01*
X309800D01*
Y161649D01*
D02*
G37*
G36*
X297640D02*
X297602D01*
Y160649D01*
X298602D01*
Y160687D01*
X298419Y161129D01*
X298081Y161466D01*
X297640Y161649D01*
D02*
G37*
G36*
X297202D02*
X297163D01*
X296722Y161466D01*
X296384Y161129D01*
X296202Y160687D01*
Y160649D01*
X297202D01*
Y161649D01*
D02*
G37*
G36*
X311200Y160249D02*
X310200D01*
Y159249D01*
X310239D01*
X310680Y159432D01*
X311017Y159769D01*
X311200Y160210D01*
Y160249D01*
D02*
G37*
G36*
X309800D02*
X308800D01*
Y160210D01*
X308983Y159769D01*
X309320Y159432D01*
X309761Y159249D01*
X309800D01*
Y160249D01*
D02*
G37*
G36*
X298602D02*
X297602D01*
Y159249D01*
X297640D01*
X298081Y159432D01*
X298419Y159769D01*
X298602Y160210D01*
Y160249D01*
D02*
G37*
G36*
X297202D02*
X296202D01*
Y160210D01*
X296384Y159769D01*
X296722Y159432D01*
X297163Y159249D01*
X297202D01*
Y160249D01*
D02*
G37*
G36*
X310239Y158499D02*
X310200D01*
Y157499D01*
X311200D01*
Y157538D01*
X311017Y157979D01*
X310680Y158317D01*
X310239Y158499D01*
D02*
G37*
G36*
X309800D02*
X309761D01*
X309320Y158317D01*
X308983Y157979D01*
X308800Y157538D01*
Y157499D01*
X309800D01*
Y158499D01*
D02*
G37*
G36*
X307089D02*
X307050D01*
Y157499D01*
X308050D01*
Y157538D01*
X307868Y157979D01*
X307530Y158317D01*
X307089Y158499D01*
D02*
G37*
G36*
X306650D02*
X306612D01*
X306171Y158317D01*
X305833Y157979D01*
X305650Y157538D01*
Y157499D01*
X306650D01*
Y158499D01*
D02*
G37*
G36*
X303940D02*
X303901D01*
Y157499D01*
X304901D01*
Y157538D01*
X304718Y157979D01*
X304380Y158317D01*
X303940Y158499D01*
D02*
G37*
G36*
X303501D02*
X303462D01*
X303021Y158317D01*
X302683Y157979D01*
X302501Y157538D01*
Y157499D01*
X303501D01*
Y158499D01*
D02*
G37*
G36*
X300790D02*
X300751D01*
Y157499D01*
X301751D01*
Y157538D01*
X301569Y157979D01*
X301231Y158317D01*
X300790Y158499D01*
D02*
G37*
G36*
X300351D02*
X300312D01*
X299871Y158317D01*
X299534Y157979D01*
X299351Y157538D01*
Y157499D01*
X300351D01*
Y158499D01*
D02*
G37*
G36*
X297640D02*
X297602D01*
Y157499D01*
X298602D01*
Y157538D01*
X298419Y157979D01*
X298081Y158317D01*
X297640Y158499D01*
D02*
G37*
G36*
X297202D02*
X297163D01*
X296722Y158317D01*
X296384Y157979D01*
X296202Y157538D01*
Y157499D01*
X297202D01*
Y158499D01*
D02*
G37*
G36*
X311200Y157099D02*
X310200D01*
Y156099D01*
X310239D01*
X310680Y156282D01*
X311017Y156620D01*
X311200Y157061D01*
Y157099D01*
D02*
G37*
G36*
X309800D02*
X308800D01*
Y157061D01*
X308983Y156620D01*
X309320Y156282D01*
X309761Y156099D01*
X309800D01*
Y157099D01*
D02*
G37*
G36*
X308050D02*
X307050D01*
Y156099D01*
X307089D01*
X307530Y156282D01*
X307868Y156620D01*
X308050Y157061D01*
Y157099D01*
D02*
G37*
G36*
X306650D02*
X305650D01*
Y157061D01*
X305833Y156620D01*
X306171Y156282D01*
X306612Y156099D01*
X306650D01*
Y157099D01*
D02*
G37*
G36*
X304901D02*
X303901D01*
Y156099D01*
X303940D01*
X304380Y156282D01*
X304718Y156620D01*
X304901Y157061D01*
Y157099D01*
D02*
G37*
G36*
X303501D02*
X302501D01*
Y157061D01*
X302683Y156620D01*
X303021Y156282D01*
X303462Y156099D01*
X303501D01*
Y157099D01*
D02*
G37*
G36*
X301751D02*
X300751D01*
Y156099D01*
X300790D01*
X301231Y156282D01*
X301569Y156620D01*
X301751Y157061D01*
Y157099D01*
D02*
G37*
G36*
X300351D02*
X299351D01*
Y157061D01*
X299534Y156620D01*
X299871Y156282D01*
X300312Y156099D01*
X300351D01*
Y157099D01*
D02*
G37*
G36*
X298602D02*
X297602D01*
Y156099D01*
X297640D01*
X298081Y156282D01*
X298419Y156620D01*
X298602Y157061D01*
Y157099D01*
D02*
G37*
G36*
X297202D02*
X296202D01*
Y157061D01*
X296384Y156620D01*
X296722Y156282D01*
X297163Y156099D01*
X297202D01*
Y157099D01*
D02*
G37*
G36*
X322857Y158599D02*
X322340D01*
X321862Y158401D01*
X321496Y158036D01*
X321298Y157558D01*
Y157041D01*
X321496Y156563D01*
X321862Y156197D01*
X322340Y155999D01*
X322857D01*
X323335Y156197D01*
X323700Y156563D01*
X323898Y157041D01*
Y157558D01*
X323700Y158036D01*
X323335Y158401D01*
X322857Y158599D01*
D02*
G37*
G36*
X319707D02*
X319190D01*
X318712Y158401D01*
X318347Y158036D01*
X318149Y157558D01*
Y157041D01*
X318347Y156563D01*
X318712Y156197D01*
X319190Y155999D01*
X319707D01*
X320185Y156197D01*
X320551Y156563D01*
X320749Y157041D01*
Y157558D01*
X320551Y158036D01*
X320185Y158401D01*
X319707Y158599D01*
D02*
G37*
G36*
X316558D02*
X316041D01*
X315563Y158401D01*
X315197Y158036D01*
X314999Y157558D01*
Y157041D01*
X315197Y156563D01*
X315563Y156197D01*
X316041Y155999D01*
X316558D01*
X317036Y156197D01*
X317401Y156563D01*
X317599Y157041D01*
Y157558D01*
X317401Y158036D01*
X317036Y158401D01*
X316558Y158599D01*
D02*
G37*
G36*
X297640Y155350D02*
X297602D01*
Y154350D01*
X298602D01*
Y154388D01*
X298419Y154829D01*
X298081Y155167D01*
X297640Y155350D01*
D02*
G37*
G36*
X297202D02*
X297163D01*
X296722Y155167D01*
X296384Y154829D01*
X296202Y154388D01*
Y154350D01*
X297202D01*
Y155350D01*
D02*
G37*
G36*
X294491D02*
X294452D01*
Y154350D01*
X295452D01*
Y154388D01*
X295269Y154829D01*
X294932Y155167D01*
X294491Y155350D01*
D02*
G37*
G36*
X294052D02*
X294013D01*
X293572Y155167D01*
X293235Y154829D01*
X293052Y154388D01*
Y154350D01*
X294052D01*
Y155350D01*
D02*
G37*
G36*
X303959Y155450D02*
X303442D01*
X302964Y155252D01*
X302599Y154886D01*
X302401Y154408D01*
Y154361D01*
X302126Y154210D01*
X301851Y154361D01*
Y154408D01*
X301653Y154886D01*
X301288Y155252D01*
X300810Y155450D01*
X300293D01*
X299815Y155252D01*
X299449Y154886D01*
X299251Y154408D01*
Y153891D01*
X299449Y153413D01*
X299815Y153048D01*
X300293Y152850D01*
X300497D01*
X300541Y152800D01*
X300328Y152323D01*
X300293Y152300D01*
X299815Y152102D01*
X299449Y151736D01*
X299251Y151259D01*
Y150741D01*
X299449Y150264D01*
X299815Y149898D01*
X300293Y149700D01*
X300688D01*
Y149150D01*
X300293D01*
X299815Y148952D01*
X299449Y148587D01*
X299251Y148109D01*
Y147592D01*
X299449Y147114D01*
X299815Y146748D01*
X300293Y146550D01*
X300810D01*
X301288Y146748D01*
X301653Y147114D01*
X301851Y147592D01*
Y148025D01*
X302366D01*
X302401Y147681D01*
Y147592D01*
X302599Y147114D01*
X302964Y146748D01*
X303442Y146550D01*
X303959D01*
X304437Y146748D01*
X304803Y147114D01*
X305001Y147592D01*
Y148109D01*
X304803Y148587D01*
X304437Y148952D01*
X303959Y149150D01*
X303488D01*
Y149700D01*
X303959D01*
X304437Y149898D01*
X304803Y150264D01*
X305001Y150741D01*
Y151259D01*
X304803Y151736D01*
X304437Y152102D01*
X303959Y152300D01*
X303924Y152323D01*
X303711Y152800D01*
X303755Y152850D01*
X303959D01*
X304437Y153048D01*
X304803Y153413D01*
X305001Y153891D01*
Y154408D01*
X304803Y154886D01*
X304437Y155252D01*
X303959Y155450D01*
D02*
G37*
G36*
X298602Y153950D02*
X297602D01*
Y152950D01*
X297640D01*
X298081Y153132D01*
X298419Y153470D01*
X298602Y153911D01*
Y153950D01*
D02*
G37*
G36*
X297202D02*
X296202D01*
Y153911D01*
X296384Y153470D01*
X296722Y153132D01*
X297163Y152950D01*
X297202D01*
Y153950D01*
D02*
G37*
G36*
X295452D02*
X294452D01*
Y152950D01*
X294491D01*
X294932Y153132D01*
X295269Y153470D01*
X295452Y153911D01*
Y153950D01*
D02*
G37*
G36*
X294052D02*
X293052D01*
Y153911D01*
X293235Y153470D01*
X293572Y153132D01*
X294013Y152950D01*
X294052D01*
Y153950D01*
D02*
G37*
G36*
X297660Y152300D02*
X297143D01*
X296665Y152102D01*
X296300Y151736D01*
X296102Y151259D01*
Y150741D01*
X296300Y150264D01*
X296665Y149898D01*
X297143Y149700D01*
X297660D01*
X298138Y149898D01*
X298504Y150264D01*
X298702Y150741D01*
Y151259D01*
X298504Y151736D01*
X298138Y152102D01*
X297660Y152300D01*
D02*
G37*
G36*
X294511D02*
X293993D01*
X293516Y152102D01*
X293150Y151736D01*
X292952Y151259D01*
Y150741D01*
X293150Y150264D01*
X293516Y149898D01*
X293993Y149700D01*
X294511D01*
X294988Y149898D01*
X295354Y150264D01*
X295552Y150741D01*
Y151259D01*
X295354Y151736D01*
X294988Y152102D01*
X294511Y152300D01*
D02*
G37*
G36*
X297660Y149150D02*
X297143D01*
X296665Y148952D01*
X296300Y148587D01*
X296102Y148109D01*
Y147592D01*
X296300Y147114D01*
X296665Y146748D01*
X297143Y146550D01*
X297660D01*
X298138Y146748D01*
X298504Y147114D01*
X298702Y147592D01*
Y148109D01*
X298504Y148587D01*
X298138Y148952D01*
X297660Y149150D01*
D02*
G37*
G36*
X303959Y146001D02*
X303442D01*
X302964Y145803D01*
X302599Y145437D01*
X302401Y144959D01*
Y144442D01*
X302599Y143964D01*
X302964Y143599D01*
X303442Y143401D01*
X303959D01*
X304437Y143599D01*
X304803Y143964D01*
X305001Y144442D01*
Y144959D01*
X304803Y145437D01*
X304437Y145803D01*
X303959Y146001D01*
D02*
G37*
G36*
X300810D02*
X300293D01*
X299815Y145803D01*
X299449Y145437D01*
X299251Y144959D01*
Y144442D01*
X299449Y143964D01*
X299815Y143599D01*
X300293Y143401D01*
X300810D01*
X301288Y143599D01*
X301653Y143964D01*
X301851Y144442D01*
Y144959D01*
X301653Y145437D01*
X301288Y145803D01*
X300810Y146001D01*
D02*
G37*
G36*
X297660D02*
X297143D01*
X296665Y145803D01*
X296300Y145437D01*
X296102Y144959D01*
Y144442D01*
X296300Y143964D01*
X296665Y143599D01*
X297143Y143401D01*
X297660D01*
X298138Y143599D01*
X298504Y143964D01*
X298702Y144442D01*
Y144959D01*
X298504Y145437D01*
X298138Y145803D01*
X297660Y146001D01*
D02*
G37*
G36*
X303959Y142851D02*
X303442D01*
X302964Y142653D01*
X302599Y142288D01*
X302401Y141810D01*
Y141293D01*
X302599Y140815D01*
X302964Y140449D01*
X303442Y140251D01*
X303959D01*
X304437Y140449D01*
X304803Y140815D01*
X305001Y141293D01*
Y141810D01*
X304803Y142288D01*
X304437Y142653D01*
X303959Y142851D01*
D02*
G37*
G36*
X300810D02*
X300293D01*
X299815Y142653D01*
X299449Y142288D01*
X299251Y141810D01*
Y141293D01*
X299449Y140815D01*
X299815Y140449D01*
X300293Y140251D01*
X300810D01*
X301288Y140449D01*
X301653Y140815D01*
X301851Y141293D01*
Y141810D01*
X301653Y142288D01*
X301288Y142653D01*
X300810Y142851D01*
D02*
G37*
G36*
X297660D02*
X297143D01*
X296665Y142653D01*
X296300Y142288D01*
X296102Y141810D01*
Y141293D01*
X296300Y140815D01*
X296665Y140449D01*
X297143Y140251D01*
X297660D01*
X298138Y140449D01*
X298504Y140815D01*
X298702Y141293D01*
Y141810D01*
X298504Y142288D01*
X298138Y142653D01*
X297660Y142851D01*
D02*
G37*
G36*
X285062Y174347D02*
X284545D01*
X284067Y174149D01*
X283701Y173784D01*
X283503Y173306D01*
Y172789D01*
X283701Y172311D01*
X284067Y171945D01*
X284545Y171747D01*
X285062D01*
X285540Y171945D01*
X285905Y172311D01*
X286103Y172789D01*
Y173306D01*
X285905Y173784D01*
X285540Y174149D01*
X285062Y174347D01*
D02*
G37*
G36*
X281912D02*
X281395D01*
X280917Y174149D01*
X280552Y173784D01*
X280353Y173306D01*
Y172789D01*
X280552Y172311D01*
X280917Y171945D01*
X281395Y171747D01*
X281912D01*
X282390Y171945D01*
X282756Y172311D01*
X282954Y172789D01*
Y173306D01*
X282756Y173784D01*
X282390Y174149D01*
X281912Y174347D01*
D02*
G37*
G36*
X285042Y171098D02*
X285003D01*
Y170098D01*
X286003D01*
Y170136D01*
X285821Y170577D01*
X285483Y170915D01*
X285042Y171098D01*
D02*
G37*
G36*
X284603D02*
X284564D01*
X284123Y170915D01*
X283786Y170577D01*
X283603Y170136D01*
Y170098D01*
X284603D01*
Y171098D01*
D02*
G37*
G36*
X286003Y169698D02*
X285003D01*
Y168698D01*
X285042D01*
X285483Y168880D01*
X285821Y169218D01*
X286003Y169659D01*
Y169698D01*
D02*
G37*
G36*
X284603D02*
X283603D01*
Y169659D01*
X283786Y169218D01*
X284123Y168880D01*
X284564Y168698D01*
X284603D01*
Y169698D01*
D02*
G37*
G36*
X288211Y171198D02*
X287694D01*
X287216Y171000D01*
X286851Y170634D01*
X286653Y170156D01*
Y169639D01*
X286851Y169161D01*
X287216Y168796D01*
X287694Y168598D01*
X288211D01*
X288689Y168796D01*
X289055Y169161D01*
X289253Y169639D01*
Y170156D01*
X289055Y170634D01*
X288689Y171000D01*
X288211Y171198D01*
D02*
G37*
G36*
X281912D02*
X281395D01*
X280917Y171000D01*
X280552Y170634D01*
X280353Y170156D01*
Y169639D01*
X280552Y169161D01*
X280917Y168796D01*
X281395Y168598D01*
X281912D01*
X282390Y168796D01*
X282756Y169161D01*
X282954Y169639D01*
Y170156D01*
X282756Y170634D01*
X282390Y171000D01*
X281912Y171198D01*
D02*
G37*
G36*
X285062Y168048D02*
X284545D01*
X284067Y167850D01*
X283701Y167484D01*
X283503Y167007D01*
Y166489D01*
X283701Y166012D01*
X284067Y165646D01*
X284545Y165448D01*
X285062D01*
X285540Y165646D01*
X285905Y166012D01*
X286103Y166489D01*
Y167007D01*
X285905Y167484D01*
X285540Y167850D01*
X285062Y168048D01*
D02*
G37*
G36*
X281912D02*
X281395D01*
X280917Y167850D01*
X280552Y167484D01*
X280353Y167007D01*
Y166489D01*
X280552Y166012D01*
X280917Y165646D01*
X281395Y165448D01*
X281912D01*
X282390Y165646D01*
X282756Y166012D01*
X282954Y166489D01*
Y167007D01*
X282756Y167484D01*
X282390Y167850D01*
X281912Y168048D01*
D02*
G37*
G36*
X281453Y150800D02*
X280453D01*
Y150761D01*
X280636Y150320D01*
X280974Y149983D01*
X281415Y149800D01*
X281453D01*
Y150800D01*
D02*
G37*
G36*
X266384Y150050D02*
X265200D01*
Y148669D01*
X266384D01*
Y150050D01*
D02*
G37*
G36*
X264800D02*
X263616D01*
Y148669D01*
X264800D01*
Y150050D01*
D02*
G37*
G36*
X273384Y149550D02*
X272200D01*
Y148169D01*
X273384D01*
Y149550D01*
D02*
G37*
G36*
X271800D02*
X270616D01*
Y148169D01*
X271800D01*
Y149550D01*
D02*
G37*
G36*
X269884D02*
X268700D01*
Y148169D01*
X269884D01*
Y149550D01*
D02*
G37*
G36*
X268300D02*
X267116D01*
Y148169D01*
X268300D01*
Y149550D01*
D02*
G37*
G36*
X281453Y149050D02*
X281415D01*
X280974Y148868D01*
X280636Y148530D01*
X280453Y148089D01*
Y148050D01*
X281453D01*
Y149050D01*
D02*
G37*
G36*
X266384Y148268D02*
X265200D01*
Y146887D01*
X266384D01*
Y148268D01*
D02*
G37*
G36*
X264800D02*
X263616D01*
Y146887D01*
X264800D01*
Y148268D01*
D02*
G37*
G36*
X282854Y147650D02*
X281854D01*
Y146650D01*
X281892D01*
X282333Y146833D01*
X282671Y147171D01*
X282854Y147612D01*
Y147650D01*
D02*
G37*
G36*
X281453D02*
X280453D01*
Y147612D01*
X280636Y147171D01*
X280974Y146833D01*
X281415Y146650D01*
X281453D01*
Y147650D01*
D02*
G37*
G36*
X273384Y147768D02*
X272200D01*
Y146387D01*
X273384D01*
Y147768D01*
D02*
G37*
G36*
X271800D02*
X270616D01*
Y146387D01*
X271800D01*
Y147768D01*
D02*
G37*
G36*
X269884D02*
X268700D01*
Y146387D01*
X269884D01*
Y147768D01*
D02*
G37*
G36*
X268300D02*
X267116D01*
Y146387D01*
X268300D01*
Y147768D01*
D02*
G37*
G36*
X203000Y164500D02*
X195200D01*
Y156700D01*
X203000D01*
Y164500D01*
D02*
G37*
G36*
X194800D02*
X187000D01*
Y156700D01*
X194800D01*
Y164500D01*
D02*
G37*
G36*
X203000Y156300D02*
X195200D01*
Y148500D01*
X203000D01*
Y156300D01*
D02*
G37*
G36*
X194800D02*
X187000D01*
Y148500D01*
X194800D01*
Y156300D01*
D02*
G37*
%LPD*%
D16*
X51750Y217750D02*
X84250D01*
X51500Y218000D02*
X51750Y217750D01*
X84250D02*
X84500Y217500D01*
X286000Y276000D02*
X286500Y275500D01*
X279000Y276031D02*
X279031Y276000D01*
X286000D01*
X274484Y276016D02*
X274500Y276031D01*
X270500Y276000D02*
X270516Y276016D01*
X274484D01*
X274500Y276031D02*
X279000D01*
X216628Y282585D02*
X216756Y282457D01*
X216500Y298000D02*
X216628Y297872D01*
X216744Y273500D02*
X216756Y273512D01*
X216500Y273256D02*
X216744Y273500D01*
X211244Y282457D02*
X211372Y282585D01*
X342984Y282516D02*
X346000Y279500D01*
X341469Y283000D02*
X341953Y282516D01*
X342984D01*
X346000Y279500D02*
X346000D01*
X341953Y275984D02*
X342484D01*
X346000Y279500D01*
X341469Y275500D02*
X341953Y275984D01*
X336850Y283016D02*
X337516D01*
X336835Y283000D02*
X336850Y283016D01*
X333469Y283000D02*
X336835D01*
X320600Y279915D02*
X326250D01*
X329335Y283000D01*
X329532D01*
X320516Y279831D02*
X320600Y279915D01*
X289059Y284000D02*
X292000D01*
X240500Y277606D02*
X240760Y277866D01*
X236000Y291500D02*
X240531D01*
X236000Y291500D02*
X236000Y291500D01*
X244484Y286150D02*
Y291484D01*
X244468Y291500D02*
X244484Y291484D01*
X240500Y271500D02*
Y277606D01*
X248120Y277746D02*
X248240Y277866D01*
X248120Y271089D02*
Y277746D01*
X244484Y286150D02*
X244500Y286134D01*
X248000Y267032D02*
X252724D01*
X253000Y261244D02*
X253000Y261244D01*
X253000Y256500D02*
Y261244D01*
X252724Y267032D02*
X253000Y266756D01*
X248000Y270969D02*
X248120Y271089D01*
X281580Y179273D02*
X281653Y179347D01*
X274573Y179273D02*
X281580D01*
X274500Y179200D02*
X274573Y179273D01*
X216500Y241772D02*
Y247414D01*
X214414Y249500D02*
X216500Y247414D01*
X208508Y249500D02*
X214414D01*
X206764Y247756D02*
X208508Y249500D01*
X199000Y247756D02*
X206764D01*
X222256Y273500D02*
X227000D01*
X270500Y280000D02*
X270516Y279984D01*
X274484D02*
X274500Y279969D01*
X270516Y279984D02*
X274484D01*
X274500Y279969D02*
X279000D01*
X332968Y275500D02*
X332968Y275500D01*
X326453Y305831D02*
X326783Y305500D01*
X327000D01*
X326783Y290500D02*
X327000D01*
X325339Y291945D02*
X326783Y290500D01*
X325547Y285047D02*
X327000Y286500D01*
X320516Y292823D02*
X321394Y291945D01*
X320516Y284169D02*
X321394Y285047D01*
X320516Y275500D02*
X320516Y275500D01*
X302000Y252500D02*
X304500D01*
X293000Y280000D02*
Y283000D01*
X292000Y284000D02*
X293000Y283000D01*
X292000Y275500D02*
X293000Y276500D01*
X292760Y259752D02*
X292896Y259616D01*
Y252636D02*
X293032Y252500D01*
X296969Y252500D02*
X296969Y252500D01*
X293032D02*
X293032Y252500D01*
X286415Y310085D02*
X286500Y310169D01*
X283941Y301500D02*
X286500D01*
X286411Y292911D02*
X286500Y292823D01*
X286322Y279653D02*
X286500Y279831D01*
X286431Y279900D02*
X286500Y279831D01*
Y284169D02*
X289059D01*
X286415Y284085D02*
X286500Y284169D01*
X286415Y284085D02*
X286500Y284000D01*
X280500Y305500D02*
X280716D01*
X281047Y305831D01*
X277500Y310000D02*
X277585Y310085D01*
X280500Y305500D02*
X280653Y305347D01*
Y304788D02*
Y305347D01*
X280283Y305500D02*
X280500D01*
X277500Y306063D02*
X279720D01*
X280283Y305500D01*
X275697Y295756D02*
X277110Y297169D01*
X275500Y295756D02*
X275697D01*
Y290244D02*
X277441Y288500D01*
X279500Y293000D02*
X279589Y292911D01*
X275500Y290244D02*
X275697D01*
X279000Y279969D02*
X279069Y279900D01*
X327000Y286500D02*
Y290500D01*
X326415Y271085D02*
X326500Y271000D01*
X320516Y292823D02*
Y297169D01*
Y271169D02*
X320600Y271085D01*
X293000Y276500D02*
Y280000D01*
X292896Y252636D02*
Y259616D01*
X337531Y275500D02*
X337531Y275500D01*
X320516Y305831D02*
X326453D01*
X321394Y291945D02*
X325339D01*
X321394Y285047D02*
X325547D01*
X320516Y275500D02*
X329031D01*
X305752Y259752D02*
X310083D01*
X314413D01*
X304500Y252500D02*
X305752Y253752D01*
X281047Y305831D02*
X286500D01*
X277585Y310085D02*
X286415D01*
X277110Y297169D02*
X286500D01*
X277441Y288500D02*
X286500D01*
X279589Y292911D02*
X286411D01*
X286500Y284000D02*
X292000D01*
X279069Y279900D02*
X286431D01*
X286500Y275500D02*
X292000D01*
X289500Y252500D02*
X293032D01*
X320600Y271085D02*
X326415D01*
X305752Y253752D02*
Y259752D01*
X280653Y304788D02*
X283941Y301500D01*
X332968Y275500D02*
X337531D01*
X296969Y252500D02*
X302000D01*
X211244Y273512D02*
X211500Y273256D01*
Y241772D02*
Y247000D01*
X206000Y268783D02*
X206500Y268284D01*
X206000Y268783D02*
Y269000D01*
X205744Y273500D02*
X206000Y273244D01*
Y269000D02*
Y273244D01*
X222256Y273500D02*
X222256Y273500D01*
X214000Y289543D02*
Y293000D01*
X194000Y247756D02*
X194197D01*
X196347Y249906D01*
Y250347D01*
X196500Y250500D01*
X198803Y247756D02*
X199000D01*
X196653Y249906D02*
X198803Y247756D01*
X196653Y249906D02*
Y250347D01*
X196500Y250500D02*
X196653Y250347D01*
X194000Y242244D02*
X194197D01*
X196610Y239831D01*
X198803Y242244D02*
X199000D01*
X196763Y240204D02*
X198803Y242244D01*
X196763Y239984D02*
Y240204D01*
X196610Y239831D02*
X196763Y239984D01*
X199000Y242244D02*
X199197D01*
X211500Y240098D02*
Y241772D01*
X105000Y276500D02*
Y279744D01*
X105000Y276500D02*
X105000Y276500D01*
Y279744D02*
X112500D01*
X98000D02*
X105000D01*
X112500Y285256D02*
Y292244D01*
Y285256D02*
X112500Y285256D01*
X105000Y285256D02*
Y292244D01*
Y285256D02*
X105000Y285256D01*
X98000Y285256D02*
Y292244D01*
Y285256D02*
X98000Y285256D01*
D24*
X183800Y148500D02*
D03*
Y150500D02*
D03*
Y152500D02*
D03*
Y154500D02*
D03*
Y156500D02*
D03*
Y158500D02*
D03*
Y160500D02*
D03*
Y162500D02*
D03*
Y164500D02*
D03*
X206200D02*
D03*
Y162500D02*
D03*
Y160500D02*
D03*
Y158500D02*
D03*
Y156500D02*
D03*
Y154500D02*
D03*
Y152500D02*
D03*
Y150500D02*
D03*
Y148500D02*
D03*
D25*
X187000Y167700D02*
D03*
X189000D02*
D03*
X191000D02*
D03*
X193000D02*
D03*
X195000D02*
D03*
X197000D02*
D03*
X199000D02*
D03*
X201000D02*
D03*
X203000D02*
D03*
Y145300D02*
D03*
X201000D02*
D03*
X199000D02*
D03*
X197000D02*
D03*
X195000D02*
D03*
X193000D02*
D03*
X191000D02*
D03*
X189000D02*
D03*
X187000D02*
D03*
D29*
X396165Y288299D02*
D03*
Y275701D02*
D03*
X416835D02*
D03*
Y288299D02*
D03*
D32*
X240760Y277866D02*
D03*
X248240D02*
D03*
X244500Y286134D02*
D03*
D33*
X413858Y133348D02*
D03*
X411890D02*
D03*
X409921D02*
D03*
X407953D02*
D03*
X405984D02*
D03*
X404016D02*
D03*
X402047D02*
D03*
X400079D02*
D03*
X398110D02*
D03*
X396142D02*
D03*
X413858Y145652D02*
D03*
X411890D02*
D03*
X409921D02*
D03*
X407953D02*
D03*
X405984D02*
D03*
X404016D02*
D03*
X402047D02*
D03*
X400079D02*
D03*
X398110D02*
D03*
X396142D02*
D03*
X415779Y184500D02*
D03*
X413811D02*
D03*
X411842D02*
D03*
X409874D02*
D03*
X407905D02*
D03*
X405937D02*
D03*
X403968D02*
D03*
X402000D02*
D03*
X400032D02*
D03*
X398063D02*
D03*
X415779Y196803D02*
D03*
X413811D02*
D03*
X411842D02*
D03*
X409874D02*
D03*
X407905D02*
D03*
X405937D02*
D03*
X403968D02*
D03*
X402000D02*
D03*
X400032D02*
D03*
X398063D02*
D03*
D34*
X414104Y136547D02*
D03*
Y138516D02*
D03*
Y140484D02*
D03*
Y142453D02*
D03*
X395896Y136547D02*
D03*
Y138516D02*
D03*
Y140484D02*
D03*
Y142453D02*
D03*
X416026Y187699D02*
D03*
Y189667D02*
D03*
Y191636D02*
D03*
Y193604D02*
D03*
X397817Y187699D02*
D03*
Y189667D02*
D03*
Y191636D02*
D03*
Y193604D02*
D03*
D37*
X325748Y141551D02*
D03*
X322598D02*
D03*
X319449D02*
D03*
X316299D02*
D03*
X313150D02*
D03*
X310000D02*
D03*
X306850D02*
D03*
X303701D02*
D03*
X300551D02*
D03*
X297402D02*
D03*
X294252D02*
D03*
X291102D02*
D03*
X287953D02*
D03*
X284803D02*
D03*
X281653D02*
D03*
X325748Y144701D02*
D03*
X322598D02*
D03*
X319449D02*
D03*
X316299D02*
D03*
X313150D02*
D03*
X310000D02*
D03*
X306850D02*
D03*
X303701D02*
D03*
X300551D02*
D03*
X297402D02*
D03*
X294252D02*
D03*
X291102D02*
D03*
X287953D02*
D03*
X284803D02*
D03*
X281653D02*
D03*
X325748Y147850D02*
D03*
X322598D02*
D03*
X319449D02*
D03*
X316299D02*
D03*
X313150D02*
D03*
X310000D02*
D03*
X306850D02*
D03*
X303701D02*
D03*
X300551D02*
D03*
X297402D02*
D03*
X294252D02*
D03*
X291102D02*
D03*
X287953D02*
D03*
X284803D02*
D03*
X281653D02*
D03*
X325748Y151000D02*
D03*
X322598D02*
D03*
X319449D02*
D03*
X316299D02*
D03*
X313150D02*
D03*
X310000D02*
D03*
X306850D02*
D03*
X303701D02*
D03*
X300551D02*
D03*
X297402D02*
D03*
X294252D02*
D03*
X291102D02*
D03*
X287953D02*
D03*
X284803D02*
D03*
X281653D02*
D03*
X325748Y154150D02*
D03*
X322598D02*
D03*
X319449D02*
D03*
X316299D02*
D03*
X313150D02*
D03*
X310000D02*
D03*
X306850D02*
D03*
X303701D02*
D03*
X300551D02*
D03*
X297402D02*
D03*
X294252D02*
D03*
X291102D02*
D03*
X287953D02*
D03*
X284803D02*
D03*
X281653D02*
D03*
X325748Y157299D02*
D03*
X322598D02*
D03*
X319449D02*
D03*
X316299D02*
D03*
X313150D02*
D03*
X310000D02*
D03*
X306850D02*
D03*
X303701D02*
D03*
X300551D02*
D03*
X297402D02*
D03*
X294252D02*
D03*
X291102D02*
D03*
X287953D02*
D03*
X284803D02*
D03*
X281653D02*
D03*
X325748Y160449D02*
D03*
X322598D02*
D03*
X319449D02*
D03*
X316299D02*
D03*
X313150D02*
D03*
X310000D02*
D03*
X297402D02*
D03*
X294252D02*
D03*
X291102D02*
D03*
X287953D02*
D03*
X284803D02*
D03*
X281653D02*
D03*
X325748Y163598D02*
D03*
X322598D02*
D03*
X319449D02*
D03*
X316299D02*
D03*
X313150D02*
D03*
X310000D02*
D03*
X297402D02*
D03*
X294252D02*
D03*
X291102D02*
D03*
X287953D02*
D03*
X284803D02*
D03*
X281653D02*
D03*
X325748Y166748D02*
D03*
X322598D02*
D03*
X319449D02*
D03*
X316299D02*
D03*
X313150D02*
D03*
X310000D02*
D03*
X297402D02*
D03*
X294252D02*
D03*
X291102D02*
D03*
X287953D02*
D03*
X284803D02*
D03*
X281653D02*
D03*
X325748Y169898D02*
D03*
X322598D02*
D03*
X319449D02*
D03*
X316299D02*
D03*
X313150D02*
D03*
X310000D02*
D03*
X306850D02*
D03*
X303701D02*
D03*
X300551D02*
D03*
X297402D02*
D03*
X294252D02*
D03*
X291102D02*
D03*
X287953D02*
D03*
X284803D02*
D03*
X281653D02*
D03*
X325748Y173047D02*
D03*
X322598D02*
D03*
X319449D02*
D03*
X316299D02*
D03*
X313150D02*
D03*
X310000D02*
D03*
X306850D02*
D03*
X303701D02*
D03*
X300551D02*
D03*
X297402D02*
D03*
X294252D02*
D03*
X291102D02*
D03*
X287953D02*
D03*
X284803D02*
D03*
X281653D02*
D03*
X325748Y176197D02*
D03*
X322598D02*
D03*
X319449D02*
D03*
X316299D02*
D03*
X313150D02*
D03*
X310000D02*
D03*
X306850D02*
D03*
X303701D02*
D03*
X300551D02*
D03*
X297402D02*
D03*
X294252D02*
D03*
X291102D02*
D03*
X287953D02*
D03*
X284803D02*
D03*
X281653D02*
D03*
X325748Y179347D02*
D03*
X322598D02*
D03*
X319449D02*
D03*
X316299D02*
D03*
X313150D02*
D03*
X310000D02*
D03*
X306850D02*
D03*
X303701D02*
D03*
X300551D02*
D03*
X297402D02*
D03*
X294252D02*
D03*
X291102D02*
D03*
X287953D02*
D03*
X284803D02*
D03*
X281653D02*
D03*
X325748Y182496D02*
D03*
X322598D02*
D03*
X319449D02*
D03*
X316299D02*
D03*
X313150D02*
D03*
X310000D02*
D03*
X306850D02*
D03*
X303701D02*
D03*
X300551D02*
D03*
X297402D02*
D03*
X294252D02*
D03*
X291102D02*
D03*
X287953D02*
D03*
X284803D02*
D03*
X281653D02*
D03*
X325748Y185646D02*
D03*
X322598D02*
D03*
X319449D02*
D03*
X316299D02*
D03*
X313150D02*
D03*
X310000D02*
D03*
X306850D02*
D03*
X303701D02*
D03*
X300551D02*
D03*
X297402D02*
D03*
X294252D02*
D03*
X291102D02*
D03*
X287953D02*
D03*
X284803D02*
D03*
X281653D02*
D03*
D40*
X214000Y289543D02*
D03*
X216756Y282457D02*
D03*
X211244D02*
D03*
D46*
X51500Y218000D02*
D03*
Y238000D02*
D03*
Y274500D02*
D03*
Y294500D02*
D03*
X400500Y62000D02*
D03*
X420500D02*
D03*
D54*
X301095Y107000D02*
D03*
X305031D02*
D03*
X338032Y171500D02*
D03*
X341968D02*
D03*
X120031Y132500D02*
D03*
X123969D02*
D03*
X244468Y291500D02*
D03*
X240531D02*
D03*
X103563Y176500D02*
D03*
X107500D02*
D03*
X99468Y167000D02*
D03*
X95531D02*
D03*
X104032Y148500D02*
D03*
X107968D02*
D03*
X409031Y153000D02*
D03*
X412968D02*
D03*
X420031Y141000D02*
D03*
X423969D02*
D03*
X409969Y122000D02*
D03*
X406032D02*
D03*
X409969Y126000D02*
D03*
X406032D02*
D03*
X424968Y187000D02*
D03*
X421032D02*
D03*
X423969Y136500D02*
D03*
X420031D02*
D03*
X409031Y175500D02*
D03*
X412968D02*
D03*
X409031Y171000D02*
D03*
X412968D02*
D03*
X421032Y192000D02*
D03*
X424968D02*
D03*
X298563Y118000D02*
D03*
X302500D02*
D03*
X302468Y114500D02*
D03*
X298532D02*
D03*
X329031Y275500D02*
D03*
X332968D02*
D03*
X329532Y283000D02*
D03*
X333469D02*
D03*
X296969Y252500D02*
D03*
X293032D02*
D03*
X341469Y275500D02*
D03*
X337531D02*
D03*
X341469Y283000D02*
D03*
X337531D02*
D03*
D55*
X216500Y138469D02*
D03*
Y134531D02*
D03*
X212500Y138469D02*
D03*
Y134531D02*
D03*
X217000Y155500D02*
D03*
Y151563D02*
D03*
X333000Y149469D02*
D03*
Y145531D02*
D03*
X110000Y123031D02*
D03*
Y126969D02*
D03*
X115000Y123031D02*
D03*
Y126969D02*
D03*
X404000Y153032D02*
D03*
Y156968D02*
D03*
X248000Y267032D02*
D03*
Y270969D02*
D03*
X409500Y203532D02*
D03*
Y207469D02*
D03*
X405500Y207469D02*
D03*
Y203532D02*
D03*
X220500Y147468D02*
D03*
Y143532D02*
D03*
X172000Y148063D02*
D03*
Y152000D02*
D03*
X208500Y134531D02*
D03*
Y138469D02*
D03*
X204000Y134531D02*
D03*
Y138469D02*
D03*
X272000Y147968D02*
D03*
Y144032D02*
D03*
X265000Y148468D02*
D03*
Y144532D02*
D03*
X268500Y147968D02*
D03*
Y144032D02*
D03*
X277500Y306063D02*
D03*
Y310000D02*
D03*
X331000Y309968D02*
D03*
Y306031D02*
D03*
X279000Y276031D02*
D03*
Y279969D02*
D03*
X274500Y276031D02*
D03*
Y279969D02*
D03*
X275500Y291032D02*
D03*
Y294969D02*
D03*
D56*
X207000Y121244D02*
D03*
Y126756D02*
D03*
X212500Y121244D02*
D03*
Y126756D02*
D03*
X217500Y121244D02*
D03*
Y126756D02*
D03*
X332000Y103256D02*
D03*
Y97744D02*
D03*
X338500Y103256D02*
D03*
Y97744D02*
D03*
X325500Y103256D02*
D03*
Y97744D02*
D03*
X325500Y109744D02*
D03*
Y115256D02*
D03*
X332000Y109744D02*
D03*
Y115256D02*
D03*
X338500Y109744D02*
D03*
Y115256D02*
D03*
X319000Y109744D02*
D03*
Y115256D02*
D03*
X319000Y103256D02*
D03*
Y97744D02*
D03*
X156000Y132744D02*
D03*
Y138256D02*
D03*
X133000Y269756D02*
D03*
Y264244D02*
D03*
X143000Y269756D02*
D03*
Y264244D02*
D03*
X148000Y269756D02*
D03*
Y264244D02*
D03*
X148000Y251244D02*
D03*
Y256756D02*
D03*
X143000Y251244D02*
D03*
Y256756D02*
D03*
X138000Y269756D02*
D03*
Y264244D02*
D03*
X138000Y251244D02*
D03*
Y256756D02*
D03*
X133000Y251244D02*
D03*
Y256756D02*
D03*
X299000Y223244D02*
D03*
Y228756D02*
D03*
X253000Y266756D02*
D03*
Y261244D02*
D03*
X202000Y126756D02*
D03*
Y121244D02*
D03*
X98000Y297756D02*
D03*
Y292244D02*
D03*
X105000Y297756D02*
D03*
Y292244D02*
D03*
X112500Y297756D02*
D03*
Y292244D02*
D03*
X98000Y279744D02*
D03*
Y285256D02*
D03*
X105000Y279744D02*
D03*
Y285256D02*
D03*
X112500Y279744D02*
D03*
Y285256D02*
D03*
X199000Y247756D02*
D03*
Y242244D02*
D03*
X194000Y242244D02*
D03*
Y247756D02*
D03*
D57*
X195000Y156500D02*
D03*
D58*
X232500Y152000D02*
D03*
Y143339D02*
D03*
X226201Y152000D02*
D03*
Y143339D02*
D03*
D59*
X336744Y165500D02*
D03*
X342256D02*
D03*
X143744Y196500D02*
D03*
X149256D02*
D03*
X216744Y273500D02*
D03*
X222256D02*
D03*
X211256Y273500D02*
D03*
X205744D02*
D03*
D60*
X327500Y241024D02*
D03*
X322500D02*
D03*
X317500D02*
D03*
X312500D02*
D03*
X307500D02*
D03*
Y225000D02*
D03*
X312500D02*
D03*
X317500D02*
D03*
X322500D02*
D03*
X327500D02*
D03*
D61*
X77000Y295000D02*
D03*
X83500Y238500D02*
D03*
X410000Y86500D02*
D03*
X84500Y217500D02*
D03*
D62*
X180500Y290000D02*
D03*
Y300500D02*
D03*
Y280000D02*
D03*
X180000Y271000D02*
D03*
D63*
X121000Y184000D02*
D03*
Y179000D02*
D03*
Y174000D02*
D03*
Y169000D02*
D03*
Y164000D02*
D03*
Y159000D02*
D03*
Y154000D02*
D03*
Y149000D02*
D03*
X154504Y184000D02*
D03*
Y179000D02*
D03*
Y174000D02*
D03*
Y169000D02*
D03*
Y164000D02*
D03*
Y159000D02*
D03*
Y154000D02*
D03*
Y149000D02*
D03*
D64*
X150315Y123000D02*
D03*
X139685D02*
D03*
X139500Y132000D02*
D03*
X150130D02*
D03*
D65*
X286500Y297169D02*
D03*
Y292823D02*
D03*
Y301500D02*
D03*
Y310169D02*
D03*
Y305831D02*
D03*
Y284169D02*
D03*
Y275500D02*
D03*
Y288500D02*
D03*
Y279831D02*
D03*
Y271169D02*
D03*
X320516Y297169D02*
D03*
Y292823D02*
D03*
Y301500D02*
D03*
Y310169D02*
D03*
Y305831D02*
D03*
Y284169D02*
D03*
Y275500D02*
D03*
Y266839D02*
D03*
Y288500D02*
D03*
Y279831D02*
D03*
Y271169D02*
D03*
X286500Y266839D02*
D03*
D66*
X292760Y259752D02*
D03*
X297091D02*
D03*
X301421D02*
D03*
X310083D02*
D03*
X314413D02*
D03*
X305752D02*
D03*
D67*
X206500Y263228D02*
D03*
X211500D02*
D03*
X216500D02*
D03*
X221500D02*
D03*
Y241772D02*
D03*
X216500D02*
D03*
X211500D02*
D03*
X206500D02*
D03*
D68*
X82100Y341775D02*
D03*
X129400D02*
D03*
D69*
X217150D02*
D03*
X214000D02*
D03*
X210850D02*
D03*
X207700D02*
D03*
X204550D02*
D03*
X201400D02*
D03*
X198250D02*
D03*
X191950D02*
D03*
X195100D02*
D03*
X188800D02*
D03*
X185650D02*
D03*
X182500D02*
D03*
X179350D02*
D03*
X176200D02*
D03*
X173050D02*
D03*
X169900D02*
D03*
X163600D02*
D03*
X160450D02*
D03*
X166750D02*
D03*
X220300D02*
D03*
D70*
X283353Y156699D02*
X284452Y155600D01*
X289652D02*
X291102Y154150D01*
X284452Y155600D02*
X289652D01*
X215655Y148345D02*
X220500D01*
X228331Y148000D02*
X232500Y143831D01*
X220500Y147468D02*
X221031Y148000D01*
X228331D01*
X326149Y152500D02*
X326649Y153000D01*
X322598Y154150D02*
X324248Y152500D01*
X326149D01*
X183500Y119000D02*
Y148250D01*
X197854Y104646D02*
X284354D01*
X183500Y119000D02*
X197854Y104646D01*
X189000Y173000D02*
X193500Y177500D01*
X266867D02*
X268683Y179317D01*
X193500Y177500D02*
X266867D01*
X324298Y174497D02*
Y176797D01*
Y174497D02*
X325748Y173047D01*
X324298Y176797D02*
X325272Y177772D01*
X326224D02*
X327198Y178746D01*
Y178810D01*
X325272Y177772D02*
X326224D01*
X327198Y178810D02*
X328888Y180500D01*
X325748Y179347D02*
X327902Y181500D01*
X381293D01*
X308550Y140550D02*
Y145301D01*
X303300Y135300D02*
X308550Y140550D01*
X312501Y143001D02*
X313750D01*
X311450Y141950D02*
X312501Y143001D01*
X311450Y140951D02*
Y141950D01*
X214000Y307360D02*
Y316850D01*
X308500Y184500D02*
X309000Y184000D01*
X287697Y206850D02*
X308500Y186047D01*
X214000Y316850D02*
Y341775D01*
X308500Y184500D02*
Y186047D01*
X398889Y194824D02*
X400032Y195966D01*
X397126Y195000D02*
X397302Y194824D01*
X381565Y180500D02*
X388522Y187457D01*
X325748Y176197D02*
X389490D01*
X401714Y203532D02*
X405500D01*
X389490Y176197D02*
X397642Y184348D01*
X388522Y187457D02*
X397305D01*
X381293Y181500D02*
X394793Y195000D01*
X397302Y194824D02*
X398889D01*
X328888Y180500D02*
X381565D01*
X394793Y195000D02*
X397126D01*
X325748Y182496D02*
X380678D01*
X401714Y203532D01*
X411890Y134185D02*
X413110Y135405D01*
X415506D02*
X415572Y135472D01*
X415986D01*
X413110Y135405D02*
X415506D01*
X415986Y135472D02*
X417958Y133500D01*
X289403Y144100D02*
Y145403D01*
X289357Y140084D02*
Y140905D01*
X289403Y145403D02*
X290291Y146291D01*
X289357Y142198D02*
X289403Y142152D01*
X290291Y146291D02*
X292692D01*
X289357Y144054D02*
X289403Y144100D01*
X289357Y142198D02*
Y144054D01*
X289403Y140951D02*
Y142152D01*
X289357Y140905D02*
X289403Y140951D01*
X292500Y142949D02*
X294252Y144701D01*
X292552Y140951D02*
Y142152D01*
X292500Y140898D02*
X292552Y140951D01*
X292500Y142204D02*
X292552Y142152D01*
X288042Y136200D02*
X292500Y140658D01*
Y140898D01*
Y142204D02*
Y142949D01*
X266520Y134400D02*
X305400D01*
X311404Y140905D02*
X311450Y140951D01*
X305400Y134400D02*
X311404Y140404D01*
Y140905D01*
X308550Y145301D02*
X309649Y146400D01*
X316900D02*
X316999Y146500D01*
X317650D02*
X319449Y144701D01*
X309649Y146400D02*
X316900D01*
X316999Y146500D02*
X317650D01*
X320853Y145347D02*
X320899Y145301D01*
X316946Y142956D02*
X318803D01*
X315653D02*
X315699Y143001D01*
X313796Y142956D02*
X315653D01*
X320049Y143251D02*
X320899Y144100D01*
X206200Y158500D02*
X241000D01*
X315699Y143001D02*
X316900D01*
X316946Y142956D01*
X320853Y145347D02*
Y146446D01*
X319098Y143251D02*
X320049D01*
X313750Y143001D02*
X313796Y142956D01*
X241000Y158500D02*
X248333D01*
X318803Y142956D02*
X319098Y143251D01*
X320899Y144100D02*
Y145301D01*
X320000Y152500D02*
X321148Y151352D01*
Y150399D02*
X321194Y150354D01*
X315000Y152500D02*
X320000D01*
X321194Y150099D02*
Y150354D01*
X321148Y150399D02*
Y151352D01*
X325898Y154000D02*
X372565D01*
X325748Y154150D02*
X325898Y154000D01*
X372565D02*
X390017Y136547D01*
X372292Y153000D02*
X391943Y133348D01*
X336050Y155950D02*
X373161D01*
X328402Y163598D02*
X336050Y155950D01*
X376079Y153032D02*
X404000D01*
X329950Y155050D02*
X372788D01*
X398110Y146000D02*
Y146488D01*
X390017Y136547D02*
X395896D01*
X373161Y155950D02*
X376079Y153032D01*
X372788Y155050D02*
X380087Y147750D01*
X326649Y153000D02*
X372292D01*
X327701Y157299D02*
X329950Y155050D01*
X380087Y147750D02*
X396848D01*
X398110Y146488D01*
X298002Y177647D02*
X298099Y177550D01*
X281053Y177647D02*
X298002D01*
X298099Y177550D02*
X298994D01*
X276050D02*
X280956D01*
X274000Y175500D02*
X276050Y177550D01*
X280956D02*
X281053Y177647D01*
X266033Y179000D02*
X271033Y184000D01*
X286307D02*
X287807Y185500D01*
X271033Y184000D02*
X286307D01*
X292802Y185045D02*
X293847Y184000D01*
X298000D01*
X299502Y185502D01*
X300408D02*
X300551Y185646D01*
X299502Y185502D02*
X300408D01*
X292571Y185341D02*
X292802Y185110D01*
Y185045D02*
Y185110D01*
X287836Y189937D02*
X288563D01*
X291404Y187096D01*
X291703D02*
X292552Y186246D01*
Y185948D02*
Y186246D01*
X292571Y185341D02*
Y185929D01*
X294252Y185646D02*
Y185819D01*
X291404Y187096D02*
X291703D01*
X292552Y185948D02*
X292571Y185929D01*
X267577Y204150D02*
X275921D01*
X294252Y185819D01*
X204550Y314265D02*
Y341775D01*
X216416Y307416D02*
Y341041D01*
X235950Y237050D02*
Y282865D01*
Y237050D02*
X267950Y205050D01*
X221500Y241209D02*
X222360Y240348D01*
X210992Y309096D02*
X236850Y283238D01*
X229937Y241790D02*
Y287605D01*
X287324Y205950D02*
X305500Y187774D01*
X229937Y241790D02*
X267577Y204150D01*
X274523Y203250D02*
X287836Y189937D01*
X274585Y189083D02*
X287417D01*
X277997Y205050D02*
X297402Y185646D01*
X221500Y241209D02*
Y241772D01*
X267204Y203250D02*
X274523D01*
X268695Y206850D02*
X287697D01*
X230106Y240348D02*
X267204Y203250D01*
X268322Y205950D02*
X287324D01*
X204550Y314265D02*
X235950Y282865D01*
X237750Y237795D02*
X268695Y206850D01*
X237750Y237795D02*
Y283610D01*
X236850Y237422D02*
X268322Y205950D01*
X287417Y189083D02*
X289500Y187000D01*
X236850Y237422D02*
Y283238D01*
X222360Y240348D02*
X230106D01*
X267950Y205050D02*
X277997D01*
X216347Y307347D02*
X216416Y307416D01*
X289500Y184500D02*
Y187000D01*
X210992Y311492D02*
X211000Y311500D01*
X214000Y307360D02*
X237750Y283610D01*
X210992Y309096D02*
Y311492D01*
X290707Y183189D02*
X291102Y182794D01*
Y182496D02*
Y182794D01*
X290707Y183189D02*
Y183293D01*
X289500Y184500D02*
X290707Y183293D01*
X308550Y180797D02*
X310000Y179347D01*
X306499Y180797D02*
X308550D01*
X305400Y181895D02*
X306499Y180797D01*
X297250Y207750D02*
X313000Y192000D01*
X269068Y207750D02*
X297250D01*
X305500Y186346D02*
Y187774D01*
X305400Y181895D02*
Y186246D01*
X248000Y228818D02*
X269068Y207750D01*
X248000Y228818D02*
Y267032D01*
X248000Y267032D01*
X305400Y186246D02*
X305500Y186346D01*
X289528Y171973D02*
X290005Y171495D01*
X292700D01*
X289528Y171973D02*
Y174583D01*
X296990Y171472D02*
X297972D01*
X299000Y172500D01*
Y174560D01*
X296801Y171348D02*
X296866D01*
X296990Y171472D01*
X295952Y170498D02*
X296801Y171348D01*
X296000Y162500D02*
Y162949D01*
X295952Y162998D02*
Y170498D01*
Y162998D02*
X296000Y162949D01*
X295500Y162000D02*
X296000Y162500D01*
X283205Y162000D02*
X295500D01*
X281653Y160449D02*
X283205Y162000D01*
X280204Y159848D02*
Y161796D01*
Y159848D02*
X281240Y158812D01*
X277982Y153018D02*
Y158539D01*
X277880Y158642D02*
X277982Y158539D01*
X279304Y159475D02*
Y161196D01*
X282192Y158812D02*
X283353Y157650D01*
X280000Y153753D02*
Y158779D01*
X279304Y159475D02*
X280000Y158779D01*
X283353Y156699D02*
Y157650D01*
X281240Y158812D02*
X282192D01*
X267500Y174500D02*
X280204Y161796D01*
X269500Y171000D02*
X279304Y161196D01*
X280000Y153753D02*
X281300Y152452D01*
X283349Y149304D02*
X284803Y147850D01*
X282252Y152452D02*
X283349Y151355D01*
X281300Y152452D02*
X282252D01*
X283349Y149304D02*
Y151355D01*
X206200Y160500D02*
X244000D01*
X247606D02*
X258500Y149606D01*
Y143693D02*
X266893Y135300D01*
X258500Y143693D02*
Y149606D01*
X244000Y160500D02*
X247606D01*
X259500Y143966D02*
Y150116D01*
Y143966D02*
X267266Y136200D01*
X247203Y162412D02*
X259500Y150116D01*
X257446Y143475D02*
X266520Y134400D01*
X257446Y143475D02*
Y149388D01*
X248333Y158500D02*
X257446Y149388D01*
X260500Y144239D02*
Y157708D01*
Y144239D02*
X267639Y137100D01*
X254854Y163354D02*
X260500Y157708D01*
X206244Y162456D02*
X247159D01*
X206200Y162500D02*
X206244Y162456D01*
X286373Y137100D02*
X289357Y140084D01*
X267266Y136200D02*
X288042D01*
X247159Y162456D02*
X247203Y162500D01*
X266893Y135300D02*
X303300D01*
X253000Y166500D02*
X261500Y158000D01*
X247203Y162412D02*
Y162500D01*
X261500Y144511D02*
Y158000D01*
Y144511D02*
X268011Y138000D01*
X267639Y137100D02*
X286373D01*
X299000Y107293D02*
Y114032D01*
Y107293D02*
X299293Y107000D01*
X298532Y114500D02*
X299000Y114032D01*
X299293Y107000D02*
X301095D01*
X294500Y114500D02*
X298532D01*
X251646Y163354D02*
X254854D01*
X250500Y164500D02*
X251646Y163354D01*
X206200Y164500D02*
X250500D01*
X203250Y166500D02*
X253000D01*
X203000Y166750D02*
X203250Y166500D01*
X203000Y166750D02*
Y167700D01*
X265090Y147878D02*
X268410D01*
X270542Y147968D02*
X270559Y147985D01*
X271266D02*
Y148059D01*
X265000Y147968D02*
X265090Y147878D01*
X270559Y147985D02*
X271266D01*
X268410Y147878D02*
X268500Y147968D01*
X270542D01*
X276500Y151000D02*
X281653D01*
X273207Y148900D02*
X275059Y150751D01*
X276251D02*
X276500Y151000D01*
X275059Y150751D02*
X276251D01*
X272107Y148900D02*
X273207D01*
X271266Y148059D02*
X272107Y148900D01*
X284354Y104646D02*
X284500Y104500D01*
X197000Y107000D02*
X292000D01*
X189000Y115000D02*
X197000Y107000D01*
X277000Y116000D02*
X278000Y117000D01*
X199000Y116000D02*
X277000D01*
X191000Y167700D02*
Y172148D01*
X189000Y167700D02*
Y173000D01*
X187000D02*
X193000Y179000D01*
X187000Y167700D02*
Y173000D01*
X193000Y179000D02*
X266033D01*
X199000Y138000D02*
Y145300D01*
X178929Y158366D02*
X178997Y158433D01*
X180000Y150500D02*
X183800D01*
X176500Y156500D02*
X183800D01*
X180000Y161000D02*
X180352D01*
X201000Y140500D02*
Y145300D01*
X180352Y161000D02*
X180852Y160500D01*
X179500Y154500D02*
X183800D01*
X178997Y158433D02*
X183733D01*
X180852Y160500D02*
X183800D01*
X183733Y158433D02*
X183800Y158500D01*
X206200Y150500D02*
X207800D01*
X211766Y139203D02*
Y146534D01*
X207800Y150500D02*
X211766Y146534D01*
X183750Y148500D02*
X183800D01*
X183500Y148250D02*
X183750Y148500D01*
X193000Y169300D02*
X200200Y176500D01*
X286457Y181000D02*
X287953Y182496D01*
X269500Y176500D02*
X272850Y179850D01*
X274000Y181000D02*
X286457D01*
X272850Y179850D02*
Y179883D01*
X273850Y180850D02*
X274000Y181000D01*
X273817Y180850D02*
X273850D01*
X200200Y176500D02*
X269500D01*
X272850Y179883D02*
X273817Y180850D01*
X195000Y169300D02*
X201200Y175500D01*
X300551Y179107D02*
Y179347D01*
X298994Y177550D02*
X300551Y179107D01*
X201200Y175500D02*
X274000D01*
X292692Y146291D02*
X294252Y147850D01*
X206200Y156500D02*
X216444D01*
X220944Y152000D01*
X207800Y152500D02*
X216500Y143800D01*
Y138469D02*
Y143800D01*
X220944Y152000D02*
X226201D01*
X203000Y139665D02*
Y145300D01*
X204000Y138469D02*
Y138665D01*
X203000Y139665D02*
X204000Y138665D01*
X206200Y148500D02*
X207800D01*
X208050Y148250D01*
X208500Y138469D02*
Y143600D01*
X208050Y144050D02*
X208500Y143600D01*
X208050Y144050D02*
Y148250D01*
X197500Y114500D02*
X294500D01*
X286000Y138000D02*
X287953Y139953D01*
X195850Y110150D02*
X288000D01*
X196500Y112500D02*
X282500D01*
X169906Y162650D02*
X183650D01*
X156256Y149000D02*
X169906Y162650D01*
X163299Y166043D02*
X183507D01*
X156256Y159000D02*
X163299Y166043D01*
X179592Y152500D02*
X183800D01*
X172000Y152000D02*
X179092D01*
X179592Y152500D01*
X201000Y167700D02*
Y169300D01*
X202700Y171000D01*
X269500D01*
X197000Y118000D02*
X199000Y116000D01*
X197000Y118000D02*
Y145300D01*
X193000Y167700D02*
Y169300D01*
X195000Y167700D02*
Y169300D01*
X189000Y115000D02*
Y145300D01*
X206200Y152500D02*
X207800D01*
X206200Y154500D02*
X209500D01*
X215655Y148345D01*
X195000Y117000D02*
X197500Y114500D01*
X195000Y117000D02*
Y145300D01*
X193000Y116000D02*
X196500Y112500D01*
X193000Y116000D02*
Y145300D01*
X191000Y115000D02*
X195850Y110150D01*
X191000Y115000D02*
Y145300D01*
X183650Y162650D02*
X183800Y162500D01*
X183507Y166043D02*
X183800Y165750D01*
Y164500D02*
Y165750D01*
X268011Y138000D02*
X286000D01*
X197000Y167700D02*
Y169300D01*
X202200Y174500D01*
X267500D01*
X287953Y139953D02*
Y141551D01*
X154504Y159000D02*
X156256D01*
X154504Y149000D02*
X156256D01*
X303998Y157299D02*
X307199Y160500D01*
X289500Y158875D02*
X292676D01*
X289600Y152500D02*
X289601D01*
X211766Y139203D02*
X212500Y138469D01*
X319449Y147850D02*
X320853Y146446D01*
X220500Y140500D02*
X221000Y140000D01*
X220500Y140500D02*
Y143532D01*
X215006Y152494D02*
X216266D01*
X217000Y151563D02*
Y151760D01*
X216266Y152494D02*
X217000Y151760D01*
X214500Y153000D02*
X215006Y152494D01*
X217500Y121244D02*
X221256D01*
X221500Y121000D01*
X212500Y121244D02*
X217500D01*
X207000D02*
X212500D01*
X202000D02*
X207000D01*
X277982Y153018D02*
X278000Y153000D01*
X325748Y141551D02*
X338500Y128799D01*
Y115256D02*
Y128799D01*
X319000Y115256D02*
Y138850D01*
X316299Y141551D02*
X319000Y138850D01*
X318803Y109744D02*
X319000D01*
X317478Y108419D02*
X318803Y109744D01*
X317478Y104581D02*
Y108419D01*
Y104581D02*
X318803Y103256D01*
X319000D01*
X325500Y115256D02*
Y135500D01*
X319449Y141551D02*
X325500Y135500D01*
X332000Y115256D02*
Y132208D01*
X322657Y141551D02*
X332000Y132208D01*
X322598Y141551D02*
X322657D01*
X298162Y118401D02*
X298563Y118000D01*
X283000Y118401D02*
X298162D01*
X302468Y114500D02*
X307500D01*
X302468Y114500D02*
X302468Y114500D01*
X294500D02*
X294500Y114500D01*
X284822Y139668D02*
Y141533D01*
X284803Y141551D02*
X284822Y141533D01*
Y139668D02*
X284840Y139650D01*
X202000Y126756D02*
X202175D01*
X203500Y128081D01*
X202000Y132335D02*
X203598Y133933D01*
X204000Y134335D01*
X215978Y134010D02*
X216500Y134531D01*
X215978Y128081D02*
Y134010D01*
Y128081D02*
X217303Y126756D01*
X217500D01*
X207766Y133797D02*
X208500Y134531D01*
X207766Y127522D02*
Y133797D01*
X207000Y126756D02*
X207766Y127522D01*
X204000Y134335D02*
Y134531D01*
X202000Y126756D02*
Y132335D01*
Y126756D02*
X202175D01*
X203500Y128081D01*
X211902Y133933D02*
X212500Y134531D01*
X211902Y133933D02*
Y133933D01*
Y133933D02*
X212500Y133335D01*
Y126756D02*
Y133335D01*
X294314Y139186D02*
Y141489D01*
X294252Y141551D02*
X294314Y141489D01*
Y139186D02*
X294376Y139124D01*
X286971Y148696D02*
X287816Y147850D01*
X286834Y148696D02*
X286971D01*
X287816Y147850D02*
X287953D01*
X232500Y143339D02*
Y143831D01*
X300551Y159199D02*
X301500Y160148D01*
X300551Y157299D02*
Y159199D01*
X154504Y184000D02*
X160000D01*
X154504Y174000D02*
X160000D01*
X272000Y141000D02*
Y144032D01*
X272000Y144032D01*
X289547Y149425D02*
X289566D01*
X287953Y151000D02*
X287972D01*
X289547Y149425D01*
X322598Y160468D02*
X324173Y162043D01*
X322598Y160449D02*
Y160468D01*
X324173Y162043D02*
Y162062D01*
X292639Y174622D02*
X292658D01*
X294233Y173047D02*
X294252D01*
X292658Y174622D02*
X294233Y173047D01*
X207500Y341575D02*
X207700Y341775D01*
X207500Y319633D02*
Y341575D01*
X207492Y319625D02*
X207500Y319633D01*
X207492Y314008D02*
Y319625D01*
X208921Y308621D02*
X229937Y287605D01*
X207692Y308725D02*
X207796Y308621D01*
X208921D01*
X210850Y311650D02*
Y341775D01*
Y311650D02*
X211000Y311500D01*
X211372Y302372D02*
X211500Y302500D01*
X211372Y300500D02*
Y302372D01*
X228667Y235000D02*
X274585Y189083D01*
X213000Y235000D02*
X228667D01*
X325500Y103256D02*
Y109744D01*
Y103256D02*
X325500Y103256D01*
X332000Y103256D02*
Y109744D01*
Y103256D02*
X332000Y103256D01*
X338500Y109744D02*
X338500Y109744D01*
Y103256D02*
Y109744D01*
X114000Y184000D02*
X121000D01*
X115000Y119000D02*
Y123031D01*
Y119000D02*
X125000Y109000D01*
Y104000D02*
Y109000D01*
X110000Y99000D02*
Y104000D01*
X105000Y109000D02*
X110000Y104000D01*
X105000Y109000D02*
X110000Y114000D01*
Y123031D02*
X110000Y123031D01*
X110000Y114000D02*
Y123031D01*
X120000Y99000D02*
X125000Y104000D01*
X108167Y159000D02*
X121000D01*
X95000Y145833D02*
X108167Y159000D01*
X95000Y109000D02*
Y145833D01*
X90000Y99000D02*
X103959Y112959D01*
Y135957D01*
X117002Y149000D01*
X121000D01*
X136477Y86523D02*
Y122707D01*
Y86523D02*
X137000Y86000D01*
X136477Y122707D02*
X136770Y123000D01*
X135000Y124770D02*
Y127500D01*
Y132500D01*
X272352Y141000D02*
X272903Y141551D01*
X272000Y141000D02*
X272352D01*
X268774Y143561D02*
Y144032D01*
Y143561D02*
X271086Y141249D01*
X272903Y141551D02*
X281653D01*
X271086Y141249D02*
X271751D01*
X272000Y141000D01*
X298366Y118000D02*
X298563D01*
X314885Y171500D02*
X338032D01*
X313338Y173047D02*
X314885Y171500D01*
X313150Y173047D02*
X313338D01*
X416244Y193453D02*
X417791Y195000D01*
X422500D01*
X412500Y207500D02*
X416000Y204000D01*
Y196505D02*
Y204000D01*
X313150Y166748D02*
Y169898D01*
X308425Y174622D02*
Y177810D01*
Y174622D02*
X310000Y173047D01*
X306850D02*
X308425Y174622D01*
X167000Y280000D02*
X180500D01*
X192000D02*
X198000Y286000D01*
X180500Y280000D02*
X192000D01*
X201722Y290000D02*
X209722Y298000D01*
X167000Y290000D02*
X201722D01*
X391943Y133348D02*
X396142D01*
X325748Y163598D02*
X328402D01*
X325748Y157299D02*
X327701D01*
X100000Y148500D02*
X104032D01*
X104032Y148500D01*
X107968D02*
X108165D01*
X113665Y154000D01*
X121000D01*
X103748Y158500D02*
X119248Y174000D01*
X103500Y158500D02*
X103748D01*
X119248Y174000D02*
X121000D01*
X114500Y127469D02*
X115000Y126969D01*
X110500Y127469D02*
X114500D01*
X110000Y126969D02*
X110500Y127469D01*
X115734Y127703D02*
Y128400D01*
X115000Y126969D02*
X115734Y127703D01*
X119835Y132500D02*
X120031D01*
X115734Y128400D02*
X119835Y132500D01*
X115734Y128400D02*
X115734D01*
X320717Y309968D02*
X331000D01*
X320516Y310169D02*
X320717Y309968D01*
X330766Y306266D02*
X331000Y306031D01*
X330249Y305749D02*
X330766Y306266D01*
X327249Y305749D02*
X330249D01*
X327000Y305500D02*
X327249Y305749D01*
X307500Y223951D02*
Y229035D01*
X308707Y230242D01*
X308950D01*
X311708Y233000D01*
X322500Y241024D02*
Y243559D01*
X319249Y248310D02*
Y248751D01*
X321293Y246266D02*
X321293D01*
X319249Y248310D02*
X321293Y246266D01*
X322500Y243559D02*
Y245059D01*
X319000Y249000D02*
X319249Y248751D01*
X321293Y246266D02*
X322500Y245059D01*
X311293Y242230D02*
Y246707D01*
Y242230D02*
X312500Y241024D01*
X309000Y249000D02*
X311293Y246707D01*
X409969Y126000D02*
Y130591D01*
X411890Y132512D01*
Y133348D01*
X406000Y126031D02*
Y129500D01*
X405984Y129469D02*
Y133348D01*
X406000Y126031D02*
X406032Y126000D01*
Y122000D02*
Y126000D01*
X413656Y183421D02*
X413784Y183549D01*
X413500Y179500D02*
X413656Y179656D01*
X413784Y183549D02*
X413811D01*
X413500Y175918D02*
Y179500D01*
X413656Y179656D02*
Y183421D01*
X413082Y175500D02*
X413500Y175918D01*
X412727Y153000D02*
X413165D01*
X413900Y150100D02*
Y152266D01*
X413929Y145722D02*
Y149929D01*
X413858Y145652D02*
X413929Y145722D01*
Y149929D02*
X414000Y150000D01*
X413165Y153000D02*
X413900Y152266D01*
Y150100D02*
X414000Y150000D01*
X391008Y140492D02*
X395888D01*
X395896Y140484D01*
X391000Y140500D02*
X391008Y140492D01*
X395896Y138516D02*
Y140484D01*
X405000Y211500D02*
X405500Y211000D01*
Y207469D02*
Y211000D01*
X397742Y191636D02*
X397817Y191711D01*
X397742Y191636D02*
X397817D01*
X394636D02*
X397742D01*
X394500Y191500D02*
X394636Y191636D01*
X397817Y189667D02*
Y191636D01*
X397551Y193604D02*
X397817D01*
X397217D02*
X397551D01*
X397817Y191711D02*
Y193604D01*
X398063Y197640D02*
X401923Y201500D01*
X402500D01*
X398063Y196803D02*
Y197640D01*
X421000Y183000D02*
Y186969D01*
X421032Y187000D01*
X416026Y187699D02*
X420333D01*
X421032Y187000D01*
X408100Y177052D02*
Y184684D01*
X408284Y171734D02*
Y176234D01*
X408137D02*
X408284D01*
X408100Y177052D02*
X408137Y177015D01*
Y176234D02*
Y177015D01*
X409018Y171000D02*
X409031D01*
X408284Y171734D02*
X409018Y171000D01*
X408100Y176234D02*
X408835Y175500D01*
X412968Y171000D02*
Y175500D01*
X408835D02*
X409031D01*
X408000Y184784D02*
X408100Y184684D01*
X408835Y153000D02*
X409031D01*
X407953Y152118D02*
X408835Y153000D01*
X407953Y145652D02*
Y152118D01*
X418534Y145000D02*
X423000D01*
X395896Y140484D02*
Y142453D01*
Y144569D01*
X396142Y144815D02*
Y145652D01*
X395896Y144569D02*
X396142Y144815D01*
X410000Y86500D02*
X411750D01*
X420500Y77750D01*
Y62000D02*
Y77750D01*
X317707Y241230D02*
Y247707D01*
X317500Y241024D02*
X317707Y241230D01*
Y247707D02*
X319000Y249000D01*
X322500Y223500D02*
Y225000D01*
X322598Y185646D02*
Y223402D01*
X322500Y223500D02*
X322598Y223402D01*
X307707Y241230D02*
Y247707D01*
X307500Y241024D02*
X307707Y241230D01*
Y247707D02*
X309000Y249000D01*
X327500Y219465D02*
Y225000D01*
X325748Y217713D02*
X327500Y219465D01*
X325748Y185646D02*
Y217713D01*
X316500Y192146D02*
Y224000D01*
X317500Y225000D01*
X310000Y185646D02*
X316500Y192146D01*
X306293Y222744D02*
X307500Y223951D01*
X299500Y222744D02*
X306293D01*
X299000Y223244D02*
X299500Y222744D01*
X299000Y223244D02*
X299500Y222744D01*
X340866Y233000D02*
X396165Y288299D01*
X311708Y233000D02*
X340866D01*
X321500Y244559D02*
X322500Y243559D01*
X328707Y245500D02*
X332500D01*
X327500Y244293D02*
X328707Y245500D01*
X327500Y241024D02*
Y244293D01*
X299000Y223244D02*
X299500Y222744D01*
X135000Y132500D02*
X139000D01*
X123969D02*
X135000D01*
Y124770D02*
X136770Y123000D01*
X139000Y132500D02*
X139500Y132000D01*
X149315Y131185D02*
X150130Y132000D01*
X149315Y124000D02*
Y131185D01*
Y124000D02*
X150315Y123000D01*
X150130Y132000D02*
Y132744D01*
X156000D01*
X136770Y123000D02*
X139685D01*
X123969Y132500D02*
X123969Y132500D01*
X150213Y153707D02*
X150506Y154000D01*
X150213Y141521D02*
Y153707D01*
Y141521D02*
X153478Y138256D01*
X156000D01*
X150506Y154000D02*
X154504D01*
X206500Y240794D02*
Y241772D01*
X208066Y239934D02*
X213000Y235000D01*
X207360Y239934D02*
X208066D01*
X206500Y240794D02*
X207360Y239934D01*
X133500Y270256D02*
Y276500D01*
X157000Y300000D01*
X133000Y269756D02*
X133500Y270256D01*
X138500Y274000D02*
X153632Y289132D01*
X138000Y269756D02*
X138500Y270256D01*
Y274000D01*
X156132Y289132D02*
X157000Y290000D01*
X153632Y289132D02*
X156132D01*
X143288Y270044D02*
Y271788D01*
X143000Y269756D02*
X143288Y270044D01*
Y271788D02*
X150754Y279254D01*
X156254D01*
X148000Y269756D02*
X156756D01*
X157000Y270000D01*
X156254Y279254D02*
X157000Y280000D01*
X148000Y256756D02*
Y264244D01*
Y256756D02*
X148000Y256756D01*
X143000Y256756D02*
Y264244D01*
Y256756D02*
X143000Y256756D01*
X138000Y256756D02*
X138000Y256756D01*
X138000Y256756D02*
Y264244D01*
X133000Y256756D02*
X133000Y256756D01*
X133000Y256756D02*
Y264244D01*
X168000Y271000D02*
X180500D01*
X167000Y270000D02*
X168000Y271000D01*
X180500D02*
X192500D01*
X167000Y300000D02*
X180000D01*
X180500Y300500D01*
X193000D01*
X211372Y282585D02*
Y300500D01*
X193000D02*
X211372D01*
X192500Y271000D02*
X200000Y278500D01*
X216628Y282585D02*
Y297872D01*
X216756Y273512D02*
Y282457D01*
X211244Y273512D02*
Y282457D01*
X298976Y174583D02*
X299000Y174560D01*
Y218852D02*
Y222744D01*
Y219000D02*
Y222744D01*
X299000D02*
Y223244D01*
X149256Y182496D02*
Y196500D01*
Y182496D02*
X152752Y179000D01*
X219566Y321798D02*
Y341041D01*
X219500Y313108D02*
Y321732D01*
X219566Y341041D02*
X220300Y341775D01*
X219500Y321732D02*
X219566Y321798D01*
X326949Y165000D02*
X336244D01*
X336744Y165500D01*
X326749Y165200D02*
X326949Y165000D01*
X317875Y165200D02*
X326749D01*
X314751D02*
X317875D01*
X320516Y301500D02*
X330500D01*
X346000Y286000D01*
X337728Y283000D02*
X338463Y282266D01*
Y282069D02*
X340783Y279749D01*
X341251D02*
X341500Y279500D01*
X337531Y283000D02*
X337728D01*
X338463Y282069D02*
Y282266D01*
X340783Y279749D02*
X341251D01*
X320854Y266500D02*
X334500D01*
X320516Y266839D02*
X320854Y266500D01*
X319449Y182496D02*
X319469D01*
X320976Y184004D01*
X320996D01*
X322598Y182496D02*
Y182520D01*
X324025Y183947D02*
Y183971D01*
X322598Y182520D02*
X324025Y183947D01*
X319449Y185646D02*
Y185848D01*
X316500Y188797D02*
Y189000D01*
Y188797D02*
X319449Y185848D01*
X326889Y161500D02*
X327500D01*
X325748Y160449D02*
X325838D01*
X326889Y161500D01*
X289566Y180921D02*
X302126D01*
X303701Y182496D01*
X404016Y150000D02*
Y153016D01*
Y145652D02*
Y150000D01*
X297402Y173047D02*
Y173073D01*
X296000Y174474D02*
X297402Y173073D01*
X296000Y174474D02*
Y174500D01*
X406000Y196739D02*
Y203031D01*
X410000Y196434D02*
Y203031D01*
X409500Y203532D02*
X410000Y203031D01*
X405500Y203532D02*
X406000Y203031D01*
X400032Y195966D02*
Y196803D01*
X417958Y133500D02*
X424000D01*
Y136469D01*
X423969Y136500D02*
X424000Y136469D01*
X423969Y136500D02*
Y138500D01*
Y141000D01*
X414104Y136547D02*
X419984D01*
X420031Y136500D01*
X414104Y140484D02*
X419516D01*
X420031Y141000D01*
X411890Y133348D02*
Y134185D01*
X414120Y138500D02*
X423969D01*
X414104Y138516D02*
X414120Y138500D01*
X283209Y143126D02*
X284784Y144701D01*
X284803D01*
X283190Y143126D02*
X283209D01*
X309000Y184000D02*
X311646D01*
X313150Y182496D01*
X284803Y169898D02*
X286400Y168301D01*
Y165175D02*
Y168301D01*
X284602Y169898D02*
X284803D01*
X321824Y149469D02*
X333000D01*
X321194Y150099D02*
X321824Y149469D01*
X313350Y154150D02*
X315000Y152500D01*
X333000Y149469D02*
X333000Y149469D01*
X313150Y154150D02*
X313350D01*
X291101Y151000D02*
X291102D01*
X289601Y152500D02*
X291101Y151000D01*
X397305Y187457D02*
X397396Y187547D01*
X397742Y189667D02*
X397817D01*
X397500Y189909D02*
X397742Y189667D01*
X396975Y193846D02*
X397217Y193604D01*
X397400Y193453D02*
X397551Y193604D01*
X244000Y291968D02*
Y295000D01*
Y291968D02*
X244468Y291500D01*
X415986Y142453D02*
X418534Y145000D01*
X414104Y142453D02*
X415986D01*
X99468Y163531D02*
X99500Y163500D01*
X99468Y163531D02*
Y167000D01*
X99665D01*
X103563Y170898D02*
Y176500D01*
X99665Y167000D02*
X103563Y170898D01*
X107697Y176500D02*
X110197Y179000D01*
X107500Y176500D02*
X107697D01*
X110197Y179000D02*
X121000D01*
X409969Y122000D02*
Y126000D01*
X401000Y157000D02*
X403968D01*
X404000Y156968D01*
Y153032D02*
X404016Y153016D01*
X405469Y207500D02*
X405500Y207469D01*
X409500Y207469D02*
X409531Y207500D01*
X415604Y189516D02*
X415620Y189500D01*
X424968D01*
X409531Y207500D02*
X412500D01*
X424968Y189500D02*
Y192000D01*
Y187000D02*
Y189500D01*
Y187000D02*
X424968Y187000D01*
X424968Y189500D02*
X428000D01*
X420516Y191484D02*
X421032Y192000D01*
X415604Y191484D02*
X420516D01*
X397396Y193453D02*
X397400D01*
X216416Y341041D02*
X217150Y341775D01*
X300464Y167036D02*
X300648Y167220D01*
X301000D02*
X301011D01*
X301000Y166487D02*
Y167220D01*
X298322Y163809D02*
X301000Y166487D01*
X297612Y163809D02*
X298322D01*
X297402Y163598D02*
X297612Y163809D01*
X295826Y152600D02*
X295851D01*
X297401Y154150D02*
X297402D01*
X295851Y152600D02*
X297401Y154150D01*
X300177Y166748D02*
X300648Y167220D01*
X301000D01*
X300551Y169898D02*
X300762Y169687D01*
X297402Y166748D02*
X300177D01*
X289525Y165150D02*
X292654D01*
X307500Y167469D02*
X307535D01*
X309965Y169898D01*
X307852Y167469D02*
X308450Y166870D01*
X309878D01*
X310000Y166748D01*
X306850Y168001D02*
Y169898D01*
Y168001D02*
X307383Y167469D01*
X307500D01*
X309965Y169898D02*
X310000D01*
X294252Y154150D02*
X294276D01*
X295826Y152600D01*
X303689Y169898D02*
X303701D01*
X301011Y167220D02*
X303689Y169898D01*
X307199Y160500D02*
X307500D01*
X307749Y160251D01*
Y159550D02*
Y160251D01*
Y159550D02*
X310000Y157299D01*
X303650Y157248D02*
X303701Y157299D01*
X303650Y157126D02*
Y157563D01*
X301749Y159464D02*
X303650Y157563D01*
X301749Y159464D02*
Y160148D01*
X301500Y160397D02*
X301749Y160148D01*
X301500Y160397D02*
Y160500D01*
X307500Y160474D02*
X307500Y160474D01*
X309974D01*
X310000Y160449D01*
X307500Y160474D02*
Y160500D01*
Y160148D02*
Y160474D01*
X307000Y159648D02*
X307500Y160148D01*
X307000Y157449D02*
Y159648D01*
X306850Y157299D02*
X307000Y157449D01*
X301474Y160474D02*
X301500Y160500D01*
X297427Y160474D02*
X301474D01*
X297402Y160449D02*
X297427Y160474D01*
X301500Y160148D02*
Y160500D01*
X300751Y167469D02*
X301000Y167220D01*
X299831Y167469D02*
X300751D01*
X297402Y169898D02*
X299831Y167469D01*
X300762Y167458D02*
Y169687D01*
X302126Y174622D02*
Y177810D01*
X303701Y157299D02*
X303998D01*
X298446Y157446D02*
X300375Y159375D01*
X314763Y162062D02*
X317874D01*
X313150Y160449D02*
X314763Y162062D01*
X308464Y149425D02*
Y152536D01*
X308464Y149425D02*
X308464Y149425D01*
X302087D02*
Y152536D01*
Y149425D02*
X302088Y149425D01*
X313150Y157299D02*
Y160449D01*
X314698Y165200D02*
X314751D01*
X313150Y163598D02*
X314751Y165200D01*
X313150Y166748D02*
X314698Y165200D01*
X297350Y169701D02*
X297799D01*
X297549Y157446D02*
X298446D01*
X297402Y157299D02*
X297549Y157446D01*
X302087Y152536D02*
Y152613D01*
X300551Y154150D02*
X302087Y152613D01*
Y152536D02*
X303701Y154150D01*
X308464Y152536D02*
Y152613D01*
X306850Y154150D02*
X308464Y152536D01*
Y152613D02*
X310000Y154150D01*
X302126Y174622D02*
X303701Y173047D01*
X292676Y158875D02*
X292678D01*
X292676D02*
X294252Y157299D01*
X292678Y158875D02*
X294252Y160449D01*
X292654Y165150D02*
X292700D01*
X294252Y163598D01*
X292654Y165150D02*
X294252Y166748D01*
X292700Y171450D02*
Y171495D01*
X291102Y169898D02*
X292700Y171495D01*
Y171450D02*
X294252Y169898D01*
X265000Y144032D02*
X268774D01*
X272000D02*
X272669Y144701D01*
X281653D01*
X272000Y147968D02*
X272118Y147850D01*
X281653D01*
X300551Y173047D02*
X302101Y174597D01*
X308400Y174399D02*
Y174451D01*
X105000Y297756D02*
X105000Y297756D01*
Y302000D01*
X337531Y272532D02*
Y275500D01*
X97803Y297756D02*
X98000D01*
X82100Y313459D02*
X97803Y297756D01*
X112697D02*
X129400Y314459D01*
X112500Y297756D02*
X112697D01*
X206500Y263228D02*
Y268284D01*
X216500Y263228D02*
Y273256D01*
X211500Y263228D02*
Y273256D01*
D71*
X232500Y152000D02*
X233000Y152500D01*
Y156500D01*
X226201Y138201D02*
Y143339D01*
X226000Y138000D02*
X226201Y138201D01*
X129400Y283900D02*
Y314459D01*
X83500Y238000D02*
X129400Y283900D01*
X51500Y238000D02*
X83500D01*
X129400Y314459D02*
Y341775D01*
X82100Y299600D02*
Y313459D01*
X51500Y294500D02*
X77000D01*
X82100Y299600D01*
Y325100D02*
Y341775D01*
Y313459D02*
Y325100D01*
D72*
X92000Y167000D02*
X95531D01*
X90000Y165000D02*
X92000Y167000D01*
D73*
X167000Y270000D02*
D03*
D74*
X157000D02*
D03*
X167000Y280000D02*
D03*
X157000D02*
D03*
X167000Y290000D02*
D03*
X157000D02*
D03*
X167000Y300000D02*
D03*
X157000D02*
D03*
X269500Y233000D02*
D03*
D75*
X125000Y109000D02*
D03*
X120000Y99000D02*
D03*
X115000Y109000D02*
D03*
X110000Y99000D02*
D03*
X105000Y109000D02*
D03*
X100000Y99000D02*
D03*
X90000D02*
D03*
X95000Y109000D02*
D03*
D76*
X137000Y86000D02*
D03*
X78000D02*
D03*
D77*
X279500Y233000D02*
D03*
D78*
X457550Y56450D02*
D03*
X17550D02*
D03*
X457550Y296450D02*
D03*
X17550D02*
D03*
D79*
X216347Y307347D02*
D03*
X277880Y158642D02*
D03*
X254500Y150000D02*
D03*
X233000Y156500D02*
D03*
X250500Y164500D02*
D03*
X247203Y162412D02*
D03*
X244000Y160500D02*
D03*
X241000Y158500D02*
D03*
X276350Y151000D02*
D03*
X284500Y104500D02*
D03*
X292000Y107000D02*
D03*
X191500Y173000D02*
D03*
X199000Y138000D02*
D03*
X190500Y161401D02*
D03*
X176500Y156500D02*
D03*
X180000Y150500D02*
D03*
X178929Y158366D02*
D03*
X179500Y154500D02*
D03*
X195000Y156500D02*
D03*
X190000Y151401D02*
D03*
X199157Y161127D02*
D03*
X201000Y140500D02*
D03*
X180000Y161000D02*
D03*
X199500Y151500D02*
D03*
X289500Y158875D02*
D03*
X289600Y152500D02*
D03*
X220850Y140193D02*
D03*
X214500Y152901D02*
D03*
X226201Y138102D02*
D03*
X221500Y120901D02*
D03*
X278000Y117000D02*
D03*
Y153000D02*
D03*
X268683Y179317D02*
D03*
X283000Y118401D02*
D03*
X307500Y114500D02*
D03*
X284840Y139650D02*
D03*
X294500Y114500D02*
D03*
X288000Y110150D02*
D03*
X282500Y112500D02*
D03*
X294376Y139124D02*
D03*
X286834Y148696D02*
D03*
X160000Y183901D02*
D03*
X160500Y173901D02*
D03*
X402500Y201500D02*
D03*
X289566Y149425D02*
D03*
X324173Y162062D02*
D03*
X292639Y174622D02*
D03*
X207492Y314008D02*
D03*
X207692Y308725D02*
D03*
X210992Y311508D02*
D03*
X214000Y316850D02*
D03*
X211500Y302500D02*
D03*
X90500Y309000D02*
D03*
X85500Y306500D02*
D03*
X78500Y308000D02*
D03*
X89683Y312187D02*
D03*
X86500Y312500D02*
D03*
X76023Y311908D02*
D03*
X222023Y318408D02*
D03*
X114000Y184000D02*
D03*
X272000Y141000D02*
D03*
X422500Y195000D02*
D03*
X100000Y148500D02*
D03*
X103500Y158500D02*
D03*
X410000Y129500D02*
D03*
X406000D02*
D03*
X413500Y179500D02*
D03*
X414000Y150000D02*
D03*
X391000Y140500D02*
D03*
X405000Y211500D02*
D03*
X394486Y191590D02*
D03*
X421000Y183000D02*
D03*
X408000Y179500D02*
D03*
X422850Y144955D02*
D03*
X270500Y276000D02*
D03*
X319000Y249000D02*
D03*
X309000D02*
D03*
X332000Y245500D02*
D03*
X133500Y313500D02*
D03*
X117500Y309500D02*
D03*
X209722Y298000D02*
D03*
X219000Y313000D02*
D03*
X198000Y286000D02*
D03*
X200000Y278500D02*
D03*
X216500Y298000D02*
D03*
X298976Y174583D02*
D03*
X299000Y218000D02*
D03*
X346000Y286000D02*
D03*
X341500Y279500D02*
D03*
X334500Y266500D02*
D03*
X346000Y279500D02*
D03*
X320996Y184004D02*
D03*
X324025Y183971D02*
D03*
X316500Y189000D02*
D03*
X313000Y192000D02*
D03*
X327400Y161675D02*
D03*
X289528Y174583D02*
D03*
X289566Y180921D02*
D03*
X296000Y174500D02*
D03*
X424000Y133500D02*
D03*
X283190Y143126D02*
D03*
X236000Y291500D02*
D03*
X240500Y271500D02*
D03*
X253000Y256500D02*
D03*
X274500Y179200D02*
D03*
X99504Y163500D02*
D03*
X412500Y207500D02*
D03*
X401000Y157000D02*
D03*
X404000Y150000D02*
D03*
X428000Y189500D02*
D03*
X308464Y149425D02*
D03*
X317874Y162062D02*
D03*
X302088Y149425D02*
D03*
X308425Y177810D02*
D03*
X302126D02*
D03*
X301000Y167220D02*
D03*
X307500Y160500D02*
D03*
X301500D02*
D03*
X307500Y167469D02*
D03*
X295850Y152600D02*
D03*
X286400Y165175D02*
D03*
X317875Y165200D02*
D03*
X289525Y165150D02*
D03*
X133500Y307000D02*
D03*
X136000Y310500D02*
D03*
X136500Y314500D02*
D03*
X124500Y305500D02*
D03*
X122000Y312500D02*
D03*
X127000Y316000D02*
D03*
X227000Y273500D02*
D03*
X135000Y127500D02*
D03*
X244000Y295000D02*
D03*
X337531Y272532D02*
D03*
X326500Y271000D02*
D03*
X302000Y252500D02*
D03*
X270500Y280000D02*
D03*
X327000Y290500D02*
D03*
X293000Y280000D02*
D03*
X279500Y293000D02*
D03*
X289500Y252500D02*
D03*
X327000Y305500D02*
D03*
X280500D02*
D03*
X211500Y247000D02*
D03*
X206000Y269000D02*
D03*
X214000Y293000D02*
D03*
X105000Y276500D02*
D03*
Y302000D02*
D03*
X196500Y250500D02*
D03*
X196610Y239831D02*
D03*
D80*
X465000Y285000D02*
D03*
Y255000D02*
D03*
Y225000D02*
D03*
Y195000D02*
D03*
Y165000D02*
D03*
Y135000D02*
D03*
Y105000D02*
D03*
Y75000D02*
D03*
Y45000D02*
D03*
X450000Y285000D02*
D03*
X457500Y270000D02*
D03*
X450000Y255000D02*
D03*
X457500Y240000D02*
D03*
X450000Y225000D02*
D03*
X457500Y210000D02*
D03*
X450000Y195000D02*
D03*
X457500Y180000D02*
D03*
X450000Y165000D02*
D03*
X457500Y150000D02*
D03*
X450000Y135000D02*
D03*
X457500Y120000D02*
D03*
X450000Y105000D02*
D03*
X457500Y90000D02*
D03*
X450000Y75000D02*
D03*
Y45000D02*
D03*
X442500Y300000D02*
D03*
X435000Y285000D02*
D03*
X442500Y270000D02*
D03*
X435000Y255000D02*
D03*
X442500Y240000D02*
D03*
X435000Y225000D02*
D03*
X442500Y210000D02*
D03*
X435000Y195000D02*
D03*
X442500Y180000D02*
D03*
X435000Y165000D02*
D03*
X442500Y150000D02*
D03*
X435000Y135000D02*
D03*
X442500Y120000D02*
D03*
X435000Y105000D02*
D03*
X442500Y90000D02*
D03*
X435000Y75000D02*
D03*
X442500Y60000D02*
D03*
X435000Y45000D02*
D03*
X427500Y300000D02*
D03*
Y270000D02*
D03*
X420000Y255000D02*
D03*
X427500Y240000D02*
D03*
X420000Y225000D02*
D03*
X427500Y210000D02*
D03*
Y180000D02*
D03*
X420000Y165000D02*
D03*
X427500Y150000D02*
D03*
Y120000D02*
D03*
X420000Y105000D02*
D03*
X427500Y90000D02*
D03*
Y60000D02*
D03*
X420000Y45000D02*
D03*
X412500Y300000D02*
D03*
X405000Y285000D02*
D03*
X412500Y270000D02*
D03*
X405000Y255000D02*
D03*
X412500Y240000D02*
D03*
X405000Y225000D02*
D03*
Y165000D02*
D03*
Y105000D02*
D03*
X412500Y90000D02*
D03*
X405000Y75000D02*
D03*
X412500Y60000D02*
D03*
X405000Y45000D02*
D03*
X397500Y300000D02*
D03*
Y270000D02*
D03*
X390000Y255000D02*
D03*
X397500Y240000D02*
D03*
X390000Y225000D02*
D03*
X397500Y210000D02*
D03*
X390000Y195000D02*
D03*
X397500Y180000D02*
D03*
X390000Y165000D02*
D03*
X397500Y150000D02*
D03*
Y120000D02*
D03*
X390000Y105000D02*
D03*
X397500Y90000D02*
D03*
X390000Y75000D02*
D03*
Y45000D02*
D03*
X382500Y300000D02*
D03*
X375000Y285000D02*
D03*
X382500Y270000D02*
D03*
X375000Y255000D02*
D03*
X382500Y240000D02*
D03*
X375000Y225000D02*
D03*
X382500Y210000D02*
D03*
X375000Y195000D02*
D03*
Y165000D02*
D03*
X382500Y150000D02*
D03*
X375000Y135000D02*
D03*
X382500Y120000D02*
D03*
X375000Y105000D02*
D03*
X382500Y90000D02*
D03*
X375000Y75000D02*
D03*
X382500Y60000D02*
D03*
X375000Y45000D02*
D03*
X367500Y300000D02*
D03*
X360000Y285000D02*
D03*
X367500Y270000D02*
D03*
Y240000D02*
D03*
X360000Y225000D02*
D03*
X367500Y210000D02*
D03*
X360000Y195000D02*
D03*
Y165000D02*
D03*
X367500Y150000D02*
D03*
X360000Y135000D02*
D03*
X367500Y120000D02*
D03*
X360000Y105000D02*
D03*
X367500Y90000D02*
D03*
X360000Y75000D02*
D03*
X367500Y60000D02*
D03*
X360000Y45000D02*
D03*
X352500Y300000D02*
D03*
X345000Y225000D02*
D03*
Y195000D02*
D03*
X352500Y150000D02*
D03*
X345000Y135000D02*
D03*
X352500Y120000D02*
D03*
X345000Y105000D02*
D03*
X352500Y90000D02*
D03*
X345000Y75000D02*
D03*
X352500Y60000D02*
D03*
X345000Y45000D02*
D03*
X337500Y300000D02*
D03*
X330000Y255000D02*
D03*
X337500Y240000D02*
D03*
Y210000D02*
D03*
Y150000D02*
D03*
Y90000D02*
D03*
X330000Y75000D02*
D03*
X337500Y60000D02*
D03*
X330000Y45000D02*
D03*
X315000Y135000D02*
D03*
X322500Y120000D02*
D03*
X315000Y105000D02*
D03*
X322500Y90000D02*
D03*
X315000Y75000D02*
D03*
X322500Y60000D02*
D03*
X315000Y45000D02*
D03*
X300000Y285000D02*
D03*
X307500Y270000D02*
D03*
Y210000D02*
D03*
Y120000D02*
D03*
Y90000D02*
D03*
X300000Y75000D02*
D03*
X307500Y60000D02*
D03*
X300000Y45000D02*
D03*
X292500Y270000D02*
D03*
X285000Y255000D02*
D03*
X292500Y240000D02*
D03*
Y210000D02*
D03*
Y90000D02*
D03*
X285000Y75000D02*
D03*
X292500Y60000D02*
D03*
X285000Y45000D02*
D03*
X277500Y300000D02*
D03*
X270000Y285000D02*
D03*
X277500Y270000D02*
D03*
X270000Y255000D02*
D03*
X277500Y240000D02*
D03*
X270000Y225000D02*
D03*
X277500Y210000D02*
D03*
Y90000D02*
D03*
X270000Y75000D02*
D03*
X277500Y60000D02*
D03*
X270000Y45000D02*
D03*
X262500Y300000D02*
D03*
X255000Y285000D02*
D03*
X262500Y270000D02*
D03*
Y240000D02*
D03*
X255000Y225000D02*
D03*
Y195000D02*
D03*
Y135000D02*
D03*
X262500Y120000D02*
D03*
Y90000D02*
D03*
X255000Y75000D02*
D03*
X262500Y60000D02*
D03*
X255000Y45000D02*
D03*
X247500Y300000D02*
D03*
X240000Y285000D02*
D03*
Y255000D02*
D03*
X247500Y210000D02*
D03*
X240000Y195000D02*
D03*
Y135000D02*
D03*
X247500Y120000D02*
D03*
Y90000D02*
D03*
X240000Y75000D02*
D03*
X247500Y60000D02*
D03*
X240000Y45000D02*
D03*
X232500Y300000D02*
D03*
X225000Y285000D02*
D03*
Y255000D02*
D03*
Y225000D02*
D03*
X232500Y210000D02*
D03*
X225000Y195000D02*
D03*
Y135000D02*
D03*
X232500Y120000D02*
D03*
Y90000D02*
D03*
X225000Y75000D02*
D03*
X232500Y60000D02*
D03*
X225000Y45000D02*
D03*
X210000Y255000D02*
D03*
Y225000D02*
D03*
X217500Y210000D02*
D03*
X210000Y195000D02*
D03*
X217500Y90000D02*
D03*
X210000Y75000D02*
D03*
X217500Y60000D02*
D03*
X210000Y45000D02*
D03*
X202500Y270000D02*
D03*
X195000Y255000D02*
D03*
Y225000D02*
D03*
X202500Y210000D02*
D03*
X195000Y195000D02*
D03*
X202500Y90000D02*
D03*
X195000Y75000D02*
D03*
X202500Y60000D02*
D03*
X195000Y45000D02*
D03*
X180000Y285000D02*
D03*
Y255000D02*
D03*
X187500Y240000D02*
D03*
X180000Y225000D02*
D03*
X187500Y210000D02*
D03*
X180000Y195000D02*
D03*
X187500Y180000D02*
D03*
X180000Y135000D02*
D03*
Y105000D02*
D03*
X187500Y90000D02*
D03*
X180000Y75000D02*
D03*
X187500Y60000D02*
D03*
X180000Y45000D02*
D03*
X165000Y285000D02*
D03*
Y255000D02*
D03*
X172500Y240000D02*
D03*
X165000Y225000D02*
D03*
X172500Y210000D02*
D03*
X165000Y195000D02*
D03*
X172500Y180000D02*
D03*
X165000Y135000D02*
D03*
X172500Y120000D02*
D03*
X165000Y105000D02*
D03*
X172500Y90000D02*
D03*
X165000Y75000D02*
D03*
X172500Y60000D02*
D03*
X165000Y45000D02*
D03*
X157500Y240000D02*
D03*
X150000Y225000D02*
D03*
X157500Y210000D02*
D03*
Y120000D02*
D03*
X150000Y105000D02*
D03*
X157500Y90000D02*
D03*
X150000Y75000D02*
D03*
X157500Y60000D02*
D03*
X150000Y45000D02*
D03*
X142500Y300000D02*
D03*
X135000Y285000D02*
D03*
X142500Y240000D02*
D03*
X135000Y225000D02*
D03*
X142500Y210000D02*
D03*
X135000Y195000D02*
D03*
X120000Y285000D02*
D03*
X127500Y270000D02*
D03*
X120000Y255000D02*
D03*
X127500Y240000D02*
D03*
X120000Y225000D02*
D03*
X127500Y210000D02*
D03*
X120000Y195000D02*
D03*
X105000Y255000D02*
D03*
X112500Y240000D02*
D03*
X105000Y225000D02*
D03*
X112500Y210000D02*
D03*
X105000Y195000D02*
D03*
X90000Y285000D02*
D03*
X97500Y270000D02*
D03*
X90000Y255000D02*
D03*
X97500Y240000D02*
D03*
X90000Y225000D02*
D03*
X97500Y210000D02*
D03*
X90000Y195000D02*
D03*
X75000Y285000D02*
D03*
X82500Y270000D02*
D03*
X75000Y255000D02*
D03*
Y225000D02*
D03*
X82500Y210000D02*
D03*
X75000Y195000D02*
D03*
X67500Y300000D02*
D03*
X60000Y285000D02*
D03*
X67500Y270000D02*
D03*
X60000Y255000D02*
D03*
Y225000D02*
D03*
X67500Y210000D02*
D03*
X60000Y195000D02*
D03*
Y165000D02*
D03*
Y135000D02*
D03*
Y105000D02*
D03*
Y75000D02*
D03*
Y45000D02*
D03*
X52500Y300000D02*
D03*
X45000Y285000D02*
D03*
Y255000D02*
D03*
Y225000D02*
D03*
X52500Y210000D02*
D03*
X45000Y195000D02*
D03*
X52500Y180000D02*
D03*
X45000Y165000D02*
D03*
X52500Y150000D02*
D03*
X45000Y135000D02*
D03*
X52500Y120000D02*
D03*
X45000Y105000D02*
D03*
X52500Y90000D02*
D03*
X45000Y75000D02*
D03*
X52500Y60000D02*
D03*
X45000Y45000D02*
D03*
X37500Y300000D02*
D03*
X30000Y285000D02*
D03*
X37500Y270000D02*
D03*
X30000Y255000D02*
D03*
X37500Y240000D02*
D03*
X30000Y225000D02*
D03*
X37500Y210000D02*
D03*
X30000Y195000D02*
D03*
X37500Y180000D02*
D03*
X30000Y165000D02*
D03*
X37500Y150000D02*
D03*
X30000Y135000D02*
D03*
X37500Y120000D02*
D03*
X30000Y105000D02*
D03*
X37500Y90000D02*
D03*
X30000Y75000D02*
D03*
X37500Y60000D02*
D03*
X30000Y45000D02*
D03*
X15000Y285000D02*
D03*
X22500Y270000D02*
D03*
X15000Y255000D02*
D03*
X22500Y240000D02*
D03*
X15000Y225000D02*
D03*
X22500Y210000D02*
D03*
X15000Y195000D02*
D03*
X22500Y180000D02*
D03*
X15000Y165000D02*
D03*
X22500Y150000D02*
D03*
X15000Y135000D02*
D03*
X22500Y120000D02*
D03*
X15000Y105000D02*
D03*
X22500Y90000D02*
D03*
X15000Y75000D02*
D03*
Y45000D02*
D03*
D81*
X135000Y165000D02*
D03*
Y135000D02*
D03*
Y105000D02*
D03*
X127500Y180000D02*
D03*
Y150000D02*
D03*
X120000Y135000D02*
D03*
X127500Y120000D02*
D03*
X120000Y105000D02*
D03*
X127500Y90000D02*
D03*
Y60000D02*
D03*
X105000Y165000D02*
D03*
Y105000D02*
D03*
X97500Y180000D02*
D03*
X90000Y165000D02*
D03*
Y135000D02*
D03*
X97500Y120000D02*
D03*
X90000Y105000D02*
D03*
X82500Y180000D02*
D03*
X75000Y165000D02*
D03*
X82500Y150000D02*
D03*
X75000Y135000D02*
D03*
X82500Y120000D02*
D03*
X75000Y105000D02*
D03*
X82500Y90000D02*
D03*
X75000Y75000D02*
D03*
X82500Y60000D02*
D03*
X75000Y45000D02*
D03*
M02*
