M48
;Layer_Color=9474304
;FILE_FORMAT=2:4
INCH,LZ
;TYPE=PLATED
T1F00S00C0.0079
T2F00S00C0.0080
T3F00S00C0.0100
T4F00S00C0.0150
T5F00S00C0.0350
T6F00S00C0.0354
T7F00S00C0.0510
T8F00S00C0.0640
;TYPE=NON_PLATED
T9F00S00C0.1300
%
T01
X0075Y0045
X00825Y006
X0075Y0075
X00825Y009
X009Y0105
X0105
X012
X0135
X01275Y012
X0135Y0135
X012
X01275Y015
X00825
X009Y0135
X0075
X00825Y012
X00975
X0075Y0105
X01275Y009
Y006
X0135Y0165
X01275Y018
X00975
X00825
X009Y0165
X0105
X0075
T02
X01Y01485
X0135Y01275
X018Y01505
X01795Y01545
X019Y01514
X01995Y01515
X0201Y01405
X0199Y0138
X022085Y014019
X02262Y01381
X02215Y01209
X02145Y01529
X02545Y015
X027635Y0151
X0278Y0153
X02896Y01525
X028957Y014943
X028683Y01487
X028319Y014313
X028484Y013965
X029438Y013912
X029585Y01526
X030209Y014943
X030846Y014943
X03075Y01145
X02945
X0292Y0107
X0288Y011015
X02825Y01125
X0283Y01184
X0278Y0117
X02845Y01045
X0272Y0141
X0391Y01405
X0404Y015
X0414
X042285Y014495
X0424Y01335
X041Y01295
X0406
X0401Y0157
X0408Y01795
X04135
X0421Y0183
X04225Y0195
X0428Y01895
X04125Y02075
X0405Y02115
X04025Y02015
X039449Y019159
X032402Y018397
X0321Y0184
X03165Y0189
X0313Y0192
X031788Y01652
X031787Y016206
X032417Y016206
X03274Y016168
X0332Y02455
X0319Y0249
X03265Y0271
X03345Y02665
X033753Y027253
X03415Y02795
X0346
Y0286
X0327Y02905
Y03055
X02805
X02795Y0293
X02705Y028
Y0276
X0293Y028
X02895Y02525
X0302
X0309Y0249
X0299Y0218
X030213Y017781
X030843
X03075Y016747
X0301Y016722
X03015Y01605
X03075
X02895Y015888
X028953Y016515
X02864Y016517
X028953Y017458
X029264Y017462
X0296Y01745
X029898Y017458
X028957Y018092
X02745Y01792
X026868Y017932
X027788Y015864
X02505Y01645
X02472Y016241
X0244Y01605
X0241Y01585
X0233Y01565
X0195
X019916Y016113
X01905Y01614
X018Y0161
X017893Y015837
X01765Y01565
X01915Y0173
X01605Y01739
X016Y01839
X019661Y023983
X01965Y02505
X02115Y0247
X0206Y0269
X02Y02785
X0198Y0286
X0214Y0293
X02165Y0298
X020972
X02115Y03025
X021099Y031151
X020769Y030872
X021635Y030735
X0236Y02915
X0244Y0295
X02405Y02715
X0253Y02565
X0105Y02765
Y0302
X01175Y03095
X01245Y03055
X01335Y0307
X0136Y03105
X00905Y0309
X008968Y031219
X00855Y03065
X00785Y0308
X007602Y031191
X0114Y0184
X00995Y01635
X01035Y01585
X00865Y03125
X0122
X0127Y0316
X01335Y03135
X01365Y03145
X020749Y031401
X0214Y031685
X0219Y0313
X022202Y031841
T03
X0227Y02735
T04
X0015Y0045
X003
X0045
X006
X00525Y006
X00375
X0045Y0075
X006
X00525Y009
X00375
X00225
X003Y0105
X0045
X006
X00525Y012
X00375
X00225
X003Y0135
X0045
X006
X00525Y015
X00375
X00225
X0015Y0135
Y0105
Y0075
X003
X015
Y0105
Y0045
X0165
X018
X0195
X021
X0225
X024
X0255
X027
X0285
X03
X03075Y006
X02925
X02775
X02625
X02475
X02325
X02175
X02025
X01875
X01725
X01575
X0165Y0075
X018
X0195
X021
X0225
X024
X0255
X027
X0285
X03
X03075Y009
X02925
X02775
X02625
X02475
X02325
X02175
X02025
X01875
X01725
X01575
X0165Y0105
X018
X01725Y012
X01575
X0165Y0135
X018
X0225
X024
X0255
X02625Y012
X02475
X02325
X03075
X03225
X0315Y0135
X0345
X036
X0375
X03825Y015
X03975
X04275
X04425
X04575
X0465Y0135
X045
X0435
X04425Y012
X04575
X0465Y0105
X045
X0435
X042
X0405
X039
X0375
X036
X0345
X03525Y012
X03675
X03825
X03975
X04275
Y009
X04425
X04575
X0465Y0075
X045
X0435
X04425Y006
X04275
X04125
X042Y0045
X0435
X045
X0465
X0405
X039
X0375
X036
X0345
X033
X0315
X03225Y006
X03375
X03525
X03675
X03825
X039Y0075
X0405
X04125Y009
X03975
X03825
X03675
X03525
X03375
X03225
X033Y0075
X0345
X036
X0375
X0315
Y0105
X03375Y015
X03525
X03675
X0375Y0165
X039
X0405
X042
X0435
X045
X0465
X04575Y018
X04425
X04275
X0435Y0195
X045
X0465
X04575Y021
X04425
X04275
X0435Y0225
X045
X0465
X04575Y024
X04425
X04275
X04125
X03975
X03825
X03675
X0375Y0255
X039
X0405
X042
X0435
X045
X0465
X04575Y027
X04425
X04275
X04125
X03975
X03825
X03675
X0375Y0285
X036
X03675Y03
X03825
X03975
X04125
X04275
X04425
X045Y0285
X0465
X0435
X0405
Y0225
X042
X039
X0375
X036
X0345
X03375Y024
X033Y0255
X03375Y03
X03525
X03675Y021
X03825
X03975
X039Y0195
X0375
X036
X0345
X03375Y021
X036Y0165
X03975Y018
X03075Y021
X02925
X02775
X027Y0225
X0255
X02625Y024
X02775
X02925
X0285Y0255
X027
X02775Y027
X02925
X03075
X03Y0285
X027
X0255
X024
X0225
X02325Y03
X02475
X02625
X02775
X02625Y027
X024Y0255
X0225
X021
X0195
X018
X0165
X01725Y024
X01875
X0195Y0225
X021
X0225
X02325Y021
X02475
X0255Y0195
X024
X0225
X021
X0195
X018
X0165
X01725Y021
X01875
X02025
X02175
X018Y0225
X0165
X01575Y024
Y021
X01725Y018
X01875
X02025Y027
X018Y0285
X0165
X0135
X012
X01275Y027
X012Y0255
X0105
X009
X0075
X006
X0045
X003
X0015
X00225Y027
X00375
X0045Y0285
X006
X0075
X009
X00975Y027
X00825
X00675
Y03
X00525
X00375
X003Y0285
X0015
X00225Y024
X00375
X0045Y0225
X006
X0075
X009
X0105
X012
X0135
X015
X01425Y024
X01275
X01125
X00975
Y021
X01125
X01275
X01425
X0135Y0195
X012
X0105
X009
X0075
X006
X0045
X003
X0015
X00225Y021
X00375
X00525
X00675
X00825
X00525Y018
X00375
X00225
X003Y0165
X0045
X006
X0015
Y0225
X003
X01425Y03
T05
X009Y0099
X01
X011
X012
X0125Y0109
X0115
X0105
X0095
T06
X0157Y027
X0167
Y028
X0157
Y029
X0167
Y03
X0157
X02695Y0233
X02795
T07
X04005Y0062
X04205
X00515Y0218
Y0238
Y02745
Y02945
T08
X0078Y0086
X0137
T09
X001755Y005645
X045755
Y029645
X001755
M30
