G04*
G04 #@! TF.GenerationSoftware,Altium Limited,Altium Designer,21.6.4 (81)*
G04*
G04 Layer_Color=8388736*
%FSLAX25Y25*%
%MOIN*%
G70*
G04*
G04 #@! TF.SameCoordinates,32ACE0EF-A2FC-4BC7-9326-31937D1A4F50*
G04*
G04*
G04 #@! TF.FilePolarity,Negative*
G04*
G01*
G75*
%ADD17R,0.22000X0.16000*%
%ADD18R,0.21000X0.16000*%
%ADD19R,1.61500X0.44500*%
%ADD20R,0.02953X0.02559*%
%ADD21R,0.02559X0.02953*%
%ADD22R,0.04134X0.03740*%
%ADD23R,0.00100X0.00100*%
%ADD24R,0.04200X0.01000*%
%ADD25R,0.01000X0.04200*%
%ADD26R,0.05709X0.06693*%
%ADD27R,0.03740X0.04134*%
%ADD28R,0.03504X0.11575*%
%ADD29R,0.06100X0.03900*%
%ADD30R,0.02591X0.02591*%
%ADD31R,0.02591X0.02591*%
G04:AMPARAMS|DCode=32|XSize=51.18mil|YSize=23.62mil|CornerRadius=2.01mil|HoleSize=0mil|Usage=FLASHONLY|Rotation=90.000|XOffset=0mil|YOffset=0mil|HoleType=Round|Shape=RoundedRectangle|*
%AMROUNDEDRECTD32*
21,1,0.05118,0.01961,0,0,90.0*
21,1,0.04717,0.02362,0,0,90.0*
1,1,0.00402,0.00980,0.02358*
1,1,0.00402,0.00980,-0.02358*
1,1,0.00402,-0.00980,-0.02358*
1,1,0.00402,-0.00980,0.02358*
%
%ADD32ROUNDEDRECTD32*%
%ADD33R,0.00984X0.02657*%
%ADD34R,0.02264X0.00984*%
%ADD35R,0.07087X0.03583*%
%ADD36R,0.04921X0.07284*%
%ADD37C,0.01600*%
%ADD38R,0.08465X0.03347*%
%ADD39R,0.03347X0.08465*%
%ADD40R,0.01775X0.04375*%
%ADD41O,0.02762X0.06109*%
%ADD42R,0.30891X0.40591*%
%ADD43R,0.02559X0.40591*%
%ADD44R,0.06496X0.06496*%
%ADD45C,0.06496*%
%ADD46C,0.07100*%
%ADD47C,0.05091*%
%ADD48C,0.07991*%
%ADD49R,0.06496X0.06496*%
%ADD50C,0.13591*%
%ADD51C,0.02391*%
%ADD52C,0.03591*%
%ADD53C,0.02362*%
G36*
X202850Y161937D02*
Y160363D01*
Y158837D01*
Y157263D01*
Y155737D01*
Y154163D01*
Y152637D01*
Y148650D01*
X187150D01*
Y151063D01*
Y152637D01*
Y154163D01*
Y155737D01*
Y157263D01*
Y158837D01*
Y160363D01*
Y161937D01*
Y164350D01*
X202850D01*
Y161937D01*
D02*
G37*
%LPC*%
G36*
X200437D02*
X198863D01*
Y160363D01*
X200437D01*
Y161937D01*
D02*
G37*
G36*
X197337D02*
X195763D01*
Y160363D01*
X197337D01*
Y161937D01*
D02*
G37*
G36*
X194237D02*
X192663D01*
Y160363D01*
X194237D01*
Y161937D01*
D02*
G37*
G36*
X191137D02*
X189563D01*
Y160363D01*
X191137D01*
Y161937D01*
D02*
G37*
G36*
X200437Y158837D02*
X198863D01*
Y157263D01*
X200437D01*
Y158837D01*
D02*
G37*
G36*
X197337D02*
X195763D01*
Y157263D01*
X197337D01*
Y158837D01*
D02*
G37*
G36*
X194237D02*
X192663D01*
Y157263D01*
X194237D01*
Y158837D01*
D02*
G37*
G36*
X191137D02*
X189563D01*
Y157263D01*
X191137D01*
Y158837D01*
D02*
G37*
G36*
X200437Y155737D02*
X198863D01*
Y154163D01*
X200437D01*
Y155737D01*
D02*
G37*
G36*
X197337D02*
X195763D01*
Y154163D01*
X197337D01*
Y155737D01*
D02*
G37*
G36*
X194237D02*
X192663D01*
Y154163D01*
X194237D01*
Y155737D01*
D02*
G37*
G36*
X191137D02*
X189563D01*
Y154163D01*
X191137D01*
Y155737D01*
D02*
G37*
G36*
X200437Y152637D02*
X198863D01*
Y151063D01*
X200437D01*
Y152637D01*
D02*
G37*
G36*
X197337D02*
X195763D01*
Y151063D01*
X197337D01*
Y152637D01*
D02*
G37*
G36*
X194237D02*
X192663D01*
Y151063D01*
X194237D01*
Y152637D01*
D02*
G37*
G36*
X191137D02*
X189563D01*
Y151063D01*
X191137D01*
Y152637D01*
D02*
G37*
%LPD*%
D17*
X406500Y190500D02*
D03*
D18*
X405000Y139500D02*
D03*
D19*
X143500Y343500D02*
D03*
D20*
X301095Y107000D02*
D03*
X305031D02*
D03*
X338032Y171500D02*
D03*
X341968D02*
D03*
X120031Y132500D02*
D03*
X123969D02*
D03*
X244468Y291500D02*
D03*
X240531D02*
D03*
X103563Y176500D02*
D03*
X107500D02*
D03*
X99468Y167000D02*
D03*
X95531D02*
D03*
X104032Y148500D02*
D03*
X107968D02*
D03*
X409031Y153000D02*
D03*
X412968D02*
D03*
X420031Y141000D02*
D03*
X423969D02*
D03*
X409969Y122000D02*
D03*
X406032D02*
D03*
X409969Y126000D02*
D03*
X406032D02*
D03*
X424968Y187000D02*
D03*
X421032D02*
D03*
X423969Y136500D02*
D03*
X420031D02*
D03*
X409031Y175500D02*
D03*
X412968D02*
D03*
X409031Y171000D02*
D03*
X412968D02*
D03*
X421032Y192000D02*
D03*
X424968D02*
D03*
X298563Y118000D02*
D03*
X302500D02*
D03*
X302468Y114500D02*
D03*
X298532D02*
D03*
X329031Y275500D02*
D03*
X332968D02*
D03*
X329532Y283000D02*
D03*
X333469D02*
D03*
X296969Y252500D02*
D03*
X293032D02*
D03*
X341469Y275500D02*
D03*
X337531D02*
D03*
X341469Y283000D02*
D03*
X337531D02*
D03*
D21*
X216500Y138469D02*
D03*
Y134531D02*
D03*
X212500Y138469D02*
D03*
Y134531D02*
D03*
X217000Y155500D02*
D03*
Y151563D02*
D03*
X333000Y149469D02*
D03*
Y145531D02*
D03*
X110000Y123031D02*
D03*
Y126969D02*
D03*
X115000Y123031D02*
D03*
Y126969D02*
D03*
X404000Y153032D02*
D03*
Y156968D02*
D03*
X248000Y267032D02*
D03*
Y270969D02*
D03*
X409500Y203532D02*
D03*
Y207469D02*
D03*
X405500Y207469D02*
D03*
Y203532D02*
D03*
X220500Y147468D02*
D03*
Y143532D02*
D03*
X172000Y148063D02*
D03*
Y152000D02*
D03*
X208500Y134531D02*
D03*
Y138469D02*
D03*
X204000Y134531D02*
D03*
Y138469D02*
D03*
X272000Y147968D02*
D03*
Y144032D02*
D03*
X265000Y148468D02*
D03*
Y144532D02*
D03*
X268500Y147968D02*
D03*
Y144032D02*
D03*
X277500Y306063D02*
D03*
Y310000D02*
D03*
X331000Y309968D02*
D03*
Y306031D02*
D03*
X279000Y276031D02*
D03*
Y279969D02*
D03*
X274500Y276031D02*
D03*
Y279969D02*
D03*
X275500Y291032D02*
D03*
Y294969D02*
D03*
D22*
X207000Y121244D02*
D03*
Y126756D02*
D03*
X212500Y121244D02*
D03*
Y126756D02*
D03*
X217500Y121244D02*
D03*
Y126756D02*
D03*
X332000Y103256D02*
D03*
Y97744D02*
D03*
X338500Y103256D02*
D03*
Y97744D02*
D03*
X325500Y103256D02*
D03*
Y97744D02*
D03*
X325500Y109744D02*
D03*
Y115256D02*
D03*
X332000Y109744D02*
D03*
Y115256D02*
D03*
X338500Y109744D02*
D03*
Y115256D02*
D03*
X319000Y109744D02*
D03*
Y115256D02*
D03*
X319000Y103256D02*
D03*
Y97744D02*
D03*
X156000Y132744D02*
D03*
Y138256D02*
D03*
X133000Y269756D02*
D03*
Y264244D02*
D03*
X143000Y269756D02*
D03*
Y264244D02*
D03*
X148000Y269756D02*
D03*
Y264244D02*
D03*
X148000Y251244D02*
D03*
Y256756D02*
D03*
X143000Y251244D02*
D03*
Y256756D02*
D03*
X138000Y269756D02*
D03*
Y264244D02*
D03*
X138000Y251244D02*
D03*
Y256756D02*
D03*
X133000Y251244D02*
D03*
Y256756D02*
D03*
X299000Y223244D02*
D03*
Y228756D02*
D03*
X253000Y266756D02*
D03*
Y261244D02*
D03*
X202000Y126756D02*
D03*
Y121244D02*
D03*
X98000Y297756D02*
D03*
Y292244D02*
D03*
X105000Y297756D02*
D03*
Y292244D02*
D03*
X112500Y297756D02*
D03*
Y292244D02*
D03*
X98000Y279744D02*
D03*
Y285256D02*
D03*
X105000Y279744D02*
D03*
Y285256D02*
D03*
X112500Y279744D02*
D03*
Y285256D02*
D03*
X199000Y247756D02*
D03*
Y242244D02*
D03*
X194000Y242244D02*
D03*
Y247756D02*
D03*
D23*
X195000Y156500D02*
D03*
D24*
X183800Y148500D02*
D03*
Y150500D02*
D03*
Y152500D02*
D03*
Y154500D02*
D03*
Y156500D02*
D03*
Y158500D02*
D03*
Y160500D02*
D03*
Y162500D02*
D03*
Y164500D02*
D03*
X206200D02*
D03*
Y162500D02*
D03*
Y160500D02*
D03*
Y158500D02*
D03*
Y156500D02*
D03*
Y154500D02*
D03*
Y152500D02*
D03*
Y150500D02*
D03*
Y148500D02*
D03*
D25*
X187000Y167700D02*
D03*
X189000D02*
D03*
X191000D02*
D03*
X193000D02*
D03*
X195000D02*
D03*
X197000D02*
D03*
X199000D02*
D03*
X201000D02*
D03*
X203000D02*
D03*
Y145300D02*
D03*
X201000D02*
D03*
X199000D02*
D03*
X197000D02*
D03*
X195000D02*
D03*
X193000D02*
D03*
X191000D02*
D03*
X189000D02*
D03*
X187000D02*
D03*
D26*
X232500Y152000D02*
D03*
Y143339D02*
D03*
X226201Y152000D02*
D03*
Y143339D02*
D03*
D27*
X336744Y165500D02*
D03*
X342256D02*
D03*
X143744Y196500D02*
D03*
X149256D02*
D03*
X216744Y273500D02*
D03*
X222256D02*
D03*
X211256Y273500D02*
D03*
X205744D02*
D03*
D28*
X327500Y241024D02*
D03*
X322500D02*
D03*
X317500D02*
D03*
X312500D02*
D03*
X307500D02*
D03*
Y225000D02*
D03*
X312500D02*
D03*
X317500D02*
D03*
X322500D02*
D03*
X327500D02*
D03*
D29*
X396165Y288299D02*
D03*
Y275701D02*
D03*
X416835D02*
D03*
Y288299D02*
D03*
D30*
X77000Y295000D02*
D03*
X83500Y238500D02*
D03*
X410000Y86500D02*
D03*
X84500Y217500D02*
D03*
D31*
X180500Y290000D02*
D03*
Y300500D02*
D03*
Y280000D02*
D03*
X180000Y271000D02*
D03*
D32*
X240760Y277866D02*
D03*
X248240D02*
D03*
X244500Y286134D02*
D03*
D33*
X413858Y133348D02*
D03*
X411890D02*
D03*
X409921D02*
D03*
X407953D02*
D03*
X405984D02*
D03*
X404016D02*
D03*
X402047D02*
D03*
X400079D02*
D03*
X398110D02*
D03*
X396142D02*
D03*
X413858Y145652D02*
D03*
X411890D02*
D03*
X409921D02*
D03*
X407953D02*
D03*
X405984D02*
D03*
X404016D02*
D03*
X402047D02*
D03*
X400079D02*
D03*
X398110D02*
D03*
X396142D02*
D03*
X415779Y184500D02*
D03*
X413811D02*
D03*
X411842D02*
D03*
X409874D02*
D03*
X407905D02*
D03*
X405937D02*
D03*
X403968D02*
D03*
X402000D02*
D03*
X400032D02*
D03*
X398063D02*
D03*
X415779Y196803D02*
D03*
X413811D02*
D03*
X411842D02*
D03*
X409874D02*
D03*
X407905D02*
D03*
X405937D02*
D03*
X403968D02*
D03*
X402000D02*
D03*
X400032D02*
D03*
X398063D02*
D03*
D34*
X414104Y136547D02*
D03*
Y138516D02*
D03*
Y140484D02*
D03*
Y142453D02*
D03*
X395896Y136547D02*
D03*
Y138516D02*
D03*
Y140484D02*
D03*
Y142453D02*
D03*
X416026Y187699D02*
D03*
Y189667D02*
D03*
Y191636D02*
D03*
Y193604D02*
D03*
X397817Y187699D02*
D03*
Y189667D02*
D03*
Y191636D02*
D03*
Y193604D02*
D03*
D35*
X121000Y184000D02*
D03*
Y179000D02*
D03*
Y174000D02*
D03*
Y169000D02*
D03*
Y164000D02*
D03*
Y159000D02*
D03*
Y154000D02*
D03*
Y149000D02*
D03*
X154504Y184000D02*
D03*
Y179000D02*
D03*
Y174000D02*
D03*
Y169000D02*
D03*
Y164000D02*
D03*
Y159000D02*
D03*
Y154000D02*
D03*
Y149000D02*
D03*
D36*
X150315Y123000D02*
D03*
X139685D02*
D03*
X139500Y132000D02*
D03*
X150130D02*
D03*
D37*
X325748Y141551D02*
D03*
X322598D02*
D03*
X319449D02*
D03*
X316299D02*
D03*
X313150D02*
D03*
X310000D02*
D03*
X306850D02*
D03*
X303701D02*
D03*
X300551D02*
D03*
X297402D02*
D03*
X294252D02*
D03*
X291102D02*
D03*
X287953D02*
D03*
X284803D02*
D03*
X281653D02*
D03*
X325748Y144701D02*
D03*
X322598D02*
D03*
X319449D02*
D03*
X316299D02*
D03*
X313150D02*
D03*
X310000D02*
D03*
X306850D02*
D03*
X303701D02*
D03*
X300551D02*
D03*
X297402D02*
D03*
X294252D02*
D03*
X291102D02*
D03*
X287953D02*
D03*
X284803D02*
D03*
X281653D02*
D03*
X325748Y147850D02*
D03*
X322598D02*
D03*
X319449D02*
D03*
X316299D02*
D03*
X313150D02*
D03*
X310000D02*
D03*
X306850D02*
D03*
X303701D02*
D03*
X300551D02*
D03*
X297402D02*
D03*
X294252D02*
D03*
X291102D02*
D03*
X287953D02*
D03*
X284803D02*
D03*
X281653D02*
D03*
X325748Y151000D02*
D03*
X322598D02*
D03*
X319449D02*
D03*
X316299D02*
D03*
X313150D02*
D03*
X310000D02*
D03*
X306850D02*
D03*
X303701D02*
D03*
X300551D02*
D03*
X297402D02*
D03*
X294252D02*
D03*
X291102D02*
D03*
X287953D02*
D03*
X284803D02*
D03*
X281653D02*
D03*
X325748Y154150D02*
D03*
X322598D02*
D03*
X319449D02*
D03*
X316299D02*
D03*
X313150D02*
D03*
X310000D02*
D03*
X306850D02*
D03*
X303701D02*
D03*
X300551D02*
D03*
X297402D02*
D03*
X294252D02*
D03*
X291102D02*
D03*
X287953D02*
D03*
X284803D02*
D03*
X281653D02*
D03*
X325748Y157299D02*
D03*
X322598D02*
D03*
X319449D02*
D03*
X316299D02*
D03*
X313150D02*
D03*
X310000D02*
D03*
X306850D02*
D03*
X303701D02*
D03*
X300551D02*
D03*
X297402D02*
D03*
X294252D02*
D03*
X291102D02*
D03*
X287953D02*
D03*
X284803D02*
D03*
X281653D02*
D03*
X325748Y160449D02*
D03*
X322598D02*
D03*
X319449D02*
D03*
X316299D02*
D03*
X313150D02*
D03*
X310000D02*
D03*
X297402D02*
D03*
X294252D02*
D03*
X291102D02*
D03*
X287953D02*
D03*
X284803D02*
D03*
X281653D02*
D03*
X325748Y163598D02*
D03*
X322598D02*
D03*
X319449D02*
D03*
X316299D02*
D03*
X313150D02*
D03*
X310000D02*
D03*
X297402D02*
D03*
X294252D02*
D03*
X291102D02*
D03*
X287953D02*
D03*
X284803D02*
D03*
X281653D02*
D03*
X325748Y166748D02*
D03*
X322598D02*
D03*
X319449D02*
D03*
X316299D02*
D03*
X313150D02*
D03*
X310000D02*
D03*
X297402D02*
D03*
X294252D02*
D03*
X291102D02*
D03*
X287953D02*
D03*
X284803D02*
D03*
X281653D02*
D03*
X325748Y169898D02*
D03*
X322598D02*
D03*
X319449D02*
D03*
X316299D02*
D03*
X313150D02*
D03*
X310000D02*
D03*
X306850D02*
D03*
X303701D02*
D03*
X300551D02*
D03*
X297402D02*
D03*
X294252D02*
D03*
X291102D02*
D03*
X287953D02*
D03*
X284803D02*
D03*
X281653D02*
D03*
X325748Y173047D02*
D03*
X322598D02*
D03*
X319449D02*
D03*
X316299D02*
D03*
X313150D02*
D03*
X310000D02*
D03*
X306850D02*
D03*
X303701D02*
D03*
X300551D02*
D03*
X297402D02*
D03*
X294252D02*
D03*
X291102D02*
D03*
X287953D02*
D03*
X284803D02*
D03*
X281653D02*
D03*
X325748Y176197D02*
D03*
X322598D02*
D03*
X319449D02*
D03*
X316299D02*
D03*
X313150D02*
D03*
X310000D02*
D03*
X306850D02*
D03*
X303701D02*
D03*
X300551D02*
D03*
X297402D02*
D03*
X294252D02*
D03*
X291102D02*
D03*
X287953D02*
D03*
X284803D02*
D03*
X281653D02*
D03*
X325748Y179347D02*
D03*
X322598D02*
D03*
X319449D02*
D03*
X316299D02*
D03*
X313150D02*
D03*
X310000D02*
D03*
X306850D02*
D03*
X303701D02*
D03*
X300551D02*
D03*
X297402D02*
D03*
X294252D02*
D03*
X291102D02*
D03*
X287953D02*
D03*
X284803D02*
D03*
X281653D02*
D03*
X325748Y182496D02*
D03*
X322598D02*
D03*
X319449D02*
D03*
X316299D02*
D03*
X313150D02*
D03*
X310000D02*
D03*
X306850D02*
D03*
X303701D02*
D03*
X300551D02*
D03*
X297402D02*
D03*
X294252D02*
D03*
X291102D02*
D03*
X287953D02*
D03*
X284803D02*
D03*
X281653D02*
D03*
X325748Y185646D02*
D03*
X322598D02*
D03*
X319449D02*
D03*
X316299D02*
D03*
X313150D02*
D03*
X310000D02*
D03*
X306850D02*
D03*
X303701D02*
D03*
X300551D02*
D03*
X297402D02*
D03*
X294252D02*
D03*
X291102D02*
D03*
X287953D02*
D03*
X284803D02*
D03*
X281653D02*
D03*
D38*
X286500Y297169D02*
D03*
Y292823D02*
D03*
Y301500D02*
D03*
Y310169D02*
D03*
Y305831D02*
D03*
Y284169D02*
D03*
Y275500D02*
D03*
Y288500D02*
D03*
Y279831D02*
D03*
Y271169D02*
D03*
X320516Y297169D02*
D03*
Y292823D02*
D03*
Y301500D02*
D03*
Y310169D02*
D03*
Y305831D02*
D03*
Y284169D02*
D03*
Y275500D02*
D03*
Y266839D02*
D03*
Y288500D02*
D03*
Y279831D02*
D03*
Y271169D02*
D03*
X286500Y266839D02*
D03*
D39*
X292760Y259752D02*
D03*
X297091D02*
D03*
X301421D02*
D03*
X310083D02*
D03*
X314413D02*
D03*
X305752D02*
D03*
D40*
X214000Y289543D02*
D03*
X216756Y282457D02*
D03*
X211244D02*
D03*
D41*
X206500Y263228D02*
D03*
X211500D02*
D03*
X216500D02*
D03*
X221500D02*
D03*
Y241772D02*
D03*
X216500D02*
D03*
X211500D02*
D03*
X206500D02*
D03*
D42*
X82100Y341775D02*
D03*
X129400D02*
D03*
D43*
X217150D02*
D03*
X214000D02*
D03*
X210850D02*
D03*
X207700D02*
D03*
X204550D02*
D03*
X201400D02*
D03*
X198250D02*
D03*
X191950D02*
D03*
X195100D02*
D03*
X188800D02*
D03*
X185650D02*
D03*
X182500D02*
D03*
X179350D02*
D03*
X176200D02*
D03*
X173050D02*
D03*
X169900D02*
D03*
X163600D02*
D03*
X160450D02*
D03*
X166750D02*
D03*
X220300D02*
D03*
D44*
X167000Y270000D02*
D03*
D45*
X157000D02*
D03*
X167000Y280000D02*
D03*
X157000D02*
D03*
X167000Y290000D02*
D03*
X157000D02*
D03*
X167000Y300000D02*
D03*
X157000D02*
D03*
X269500Y233000D02*
D03*
D46*
X51500Y218000D02*
D03*
Y238000D02*
D03*
Y274500D02*
D03*
Y294500D02*
D03*
X400500Y62000D02*
D03*
X420500D02*
D03*
D47*
X125000Y109000D02*
D03*
X120000Y99000D02*
D03*
X115000Y109000D02*
D03*
X110000Y99000D02*
D03*
X105000Y109000D02*
D03*
X100000Y99000D02*
D03*
X90000D02*
D03*
X95000Y109000D02*
D03*
D48*
X137000Y86000D02*
D03*
X78000D02*
D03*
D49*
X279500Y233000D02*
D03*
D50*
X457550Y56450D02*
D03*
X17550D02*
D03*
X457550Y296450D02*
D03*
X17550D02*
D03*
D51*
X216347Y307347D02*
D03*
X277880Y158642D02*
D03*
X254500Y150000D02*
D03*
X233000Y156500D02*
D03*
X250500Y164500D02*
D03*
X247203Y162412D02*
D03*
X244000Y160500D02*
D03*
X241000Y158500D02*
D03*
X276350Y151000D02*
D03*
X284500Y104500D02*
D03*
X292000Y107000D02*
D03*
X191500Y173000D02*
D03*
X199000Y138000D02*
D03*
X190500Y161401D02*
D03*
X176500Y156500D02*
D03*
X180000Y150500D02*
D03*
X178929Y158366D02*
D03*
X179500Y154500D02*
D03*
X195000Y156500D02*
D03*
X190000Y151401D02*
D03*
X199157Y161127D02*
D03*
X201000Y140500D02*
D03*
X180000Y161000D02*
D03*
X199500Y151500D02*
D03*
X289500Y158875D02*
D03*
X289600Y152500D02*
D03*
X220850Y140193D02*
D03*
X214500Y152901D02*
D03*
X226201Y138102D02*
D03*
X221500Y120901D02*
D03*
X278000Y117000D02*
D03*
Y153000D02*
D03*
X268683Y179317D02*
D03*
X283000Y118401D02*
D03*
X307500Y114500D02*
D03*
X284840Y139650D02*
D03*
X294500Y114500D02*
D03*
X288000Y110150D02*
D03*
X282500Y112500D02*
D03*
X294376Y139124D02*
D03*
X286834Y148696D02*
D03*
X160000Y183901D02*
D03*
X160500Y173901D02*
D03*
X402500Y201500D02*
D03*
X289566Y149425D02*
D03*
X324173Y162062D02*
D03*
X292639Y174622D02*
D03*
X207492Y314008D02*
D03*
X207692Y308725D02*
D03*
X210992Y311508D02*
D03*
X214000Y316850D02*
D03*
X211500Y302500D02*
D03*
X90500Y309000D02*
D03*
X85500Y306500D02*
D03*
X78500Y308000D02*
D03*
X89683Y312187D02*
D03*
X86500Y312500D02*
D03*
X76023Y311908D02*
D03*
X222023Y318408D02*
D03*
X114000Y184000D02*
D03*
X272000Y141000D02*
D03*
X422500Y195000D02*
D03*
X100000Y148500D02*
D03*
X103500Y158500D02*
D03*
X410000Y129500D02*
D03*
X406000D02*
D03*
X413500Y179500D02*
D03*
X414000Y150000D02*
D03*
X391000Y140500D02*
D03*
X405000Y211500D02*
D03*
X394486Y191590D02*
D03*
X421000Y183000D02*
D03*
X408000Y179500D02*
D03*
X422850Y144955D02*
D03*
X270500Y276000D02*
D03*
X319000Y249000D02*
D03*
X309000D02*
D03*
X332000Y245500D02*
D03*
X133500Y313500D02*
D03*
X117500Y309500D02*
D03*
X209722Y298000D02*
D03*
X219000Y313000D02*
D03*
X198000Y286000D02*
D03*
X200000Y278500D02*
D03*
X216500Y298000D02*
D03*
X298976Y174583D02*
D03*
X299000Y218000D02*
D03*
X346000Y286000D02*
D03*
X341500Y279500D02*
D03*
X334500Y266500D02*
D03*
X346000Y279500D02*
D03*
X320996Y184004D02*
D03*
X324025Y183971D02*
D03*
X316500Y189000D02*
D03*
X313000Y192000D02*
D03*
X327400Y161675D02*
D03*
X289528Y174583D02*
D03*
X289566Y180921D02*
D03*
X296000Y174500D02*
D03*
X424000Y133500D02*
D03*
X283190Y143126D02*
D03*
X236000Y291500D02*
D03*
X240500Y271500D02*
D03*
X253000Y256500D02*
D03*
X274500Y179200D02*
D03*
X99504Y163500D02*
D03*
X412500Y207500D02*
D03*
X401000Y157000D02*
D03*
X404000Y150000D02*
D03*
X428000Y189500D02*
D03*
X308464Y149425D02*
D03*
X317874Y162062D02*
D03*
X302088Y149425D02*
D03*
X308425Y177810D02*
D03*
X302126D02*
D03*
X301000Y167220D02*
D03*
X307500Y160500D02*
D03*
X301500D02*
D03*
X307500Y167469D02*
D03*
X295850Y152600D02*
D03*
X286400Y165175D02*
D03*
X317875Y165200D02*
D03*
X289525Y165150D02*
D03*
X133500Y307000D02*
D03*
X136000Y310500D02*
D03*
X136500Y314500D02*
D03*
X124500Y305500D02*
D03*
X122000Y312500D02*
D03*
X127000Y316000D02*
D03*
X227000Y273500D02*
D03*
X135000Y127500D02*
D03*
X244000Y295000D02*
D03*
X337531Y272532D02*
D03*
X326500Y271000D02*
D03*
X302000Y252500D02*
D03*
X270500Y280000D02*
D03*
X327000Y290500D02*
D03*
X293000Y280000D02*
D03*
X279500Y293000D02*
D03*
X289500Y252500D02*
D03*
X327000Y305500D02*
D03*
X280500D02*
D03*
X211500Y247000D02*
D03*
X206000Y269000D02*
D03*
X214000Y293000D02*
D03*
X105000Y276500D02*
D03*
Y302000D02*
D03*
X196500Y250500D02*
D03*
X196610Y239831D02*
D03*
D52*
X465000Y285000D02*
D03*
Y255000D02*
D03*
Y225000D02*
D03*
Y195000D02*
D03*
Y165000D02*
D03*
Y135000D02*
D03*
Y105000D02*
D03*
Y75000D02*
D03*
Y45000D02*
D03*
X450000Y285000D02*
D03*
X457500Y270000D02*
D03*
X450000Y255000D02*
D03*
X457500Y240000D02*
D03*
X450000Y225000D02*
D03*
X457500Y210000D02*
D03*
X450000Y195000D02*
D03*
X457500Y180000D02*
D03*
X450000Y165000D02*
D03*
X457500Y150000D02*
D03*
X450000Y135000D02*
D03*
X457500Y120000D02*
D03*
X450000Y105000D02*
D03*
X457500Y90000D02*
D03*
X450000Y75000D02*
D03*
Y45000D02*
D03*
X442500Y300000D02*
D03*
X435000Y285000D02*
D03*
X442500Y270000D02*
D03*
X435000Y255000D02*
D03*
X442500Y240000D02*
D03*
X435000Y225000D02*
D03*
X442500Y210000D02*
D03*
X435000Y195000D02*
D03*
X442500Y180000D02*
D03*
X435000Y165000D02*
D03*
X442500Y150000D02*
D03*
X435000Y135000D02*
D03*
X442500Y120000D02*
D03*
X435000Y105000D02*
D03*
X442500Y90000D02*
D03*
X435000Y75000D02*
D03*
X442500Y60000D02*
D03*
X435000Y45000D02*
D03*
X427500Y300000D02*
D03*
Y270000D02*
D03*
X420000Y255000D02*
D03*
X427500Y240000D02*
D03*
X420000Y225000D02*
D03*
X427500Y210000D02*
D03*
Y180000D02*
D03*
X420000Y165000D02*
D03*
X427500Y150000D02*
D03*
Y120000D02*
D03*
X420000Y105000D02*
D03*
X427500Y90000D02*
D03*
Y60000D02*
D03*
X420000Y45000D02*
D03*
X412500Y300000D02*
D03*
X405000Y285000D02*
D03*
X412500Y270000D02*
D03*
X405000Y255000D02*
D03*
X412500Y240000D02*
D03*
X405000Y225000D02*
D03*
Y165000D02*
D03*
Y105000D02*
D03*
X412500Y90000D02*
D03*
X405000Y75000D02*
D03*
X412500Y60000D02*
D03*
X405000Y45000D02*
D03*
X397500Y300000D02*
D03*
Y270000D02*
D03*
X390000Y255000D02*
D03*
X397500Y240000D02*
D03*
X390000Y225000D02*
D03*
X397500Y210000D02*
D03*
X390000Y195000D02*
D03*
X397500Y180000D02*
D03*
X390000Y165000D02*
D03*
X397500Y150000D02*
D03*
Y120000D02*
D03*
X390000Y105000D02*
D03*
X397500Y90000D02*
D03*
X390000Y75000D02*
D03*
Y45000D02*
D03*
X382500Y300000D02*
D03*
X375000Y285000D02*
D03*
X382500Y270000D02*
D03*
X375000Y255000D02*
D03*
X382500Y240000D02*
D03*
X375000Y225000D02*
D03*
X382500Y210000D02*
D03*
X375000Y195000D02*
D03*
Y165000D02*
D03*
X382500Y150000D02*
D03*
X375000Y135000D02*
D03*
X382500Y120000D02*
D03*
X375000Y105000D02*
D03*
X382500Y90000D02*
D03*
X375000Y75000D02*
D03*
X382500Y60000D02*
D03*
X375000Y45000D02*
D03*
X367500Y300000D02*
D03*
X360000Y285000D02*
D03*
X367500Y270000D02*
D03*
Y240000D02*
D03*
X360000Y225000D02*
D03*
X367500Y210000D02*
D03*
X360000Y195000D02*
D03*
Y165000D02*
D03*
X367500Y150000D02*
D03*
X360000Y135000D02*
D03*
X367500Y120000D02*
D03*
X360000Y105000D02*
D03*
X367500Y90000D02*
D03*
X360000Y75000D02*
D03*
X367500Y60000D02*
D03*
X360000Y45000D02*
D03*
X352500Y300000D02*
D03*
X345000Y225000D02*
D03*
Y195000D02*
D03*
X352500Y150000D02*
D03*
X345000Y135000D02*
D03*
X352500Y120000D02*
D03*
X345000Y105000D02*
D03*
X352500Y90000D02*
D03*
X345000Y75000D02*
D03*
X352500Y60000D02*
D03*
X345000Y45000D02*
D03*
X337500Y300000D02*
D03*
X330000Y255000D02*
D03*
X337500Y240000D02*
D03*
Y210000D02*
D03*
Y150000D02*
D03*
Y90000D02*
D03*
X330000Y75000D02*
D03*
X337500Y60000D02*
D03*
X330000Y45000D02*
D03*
X315000Y135000D02*
D03*
X322500Y120000D02*
D03*
X315000Y105000D02*
D03*
X322500Y90000D02*
D03*
X315000Y75000D02*
D03*
X322500Y60000D02*
D03*
X315000Y45000D02*
D03*
X300000Y285000D02*
D03*
X307500Y270000D02*
D03*
Y210000D02*
D03*
Y120000D02*
D03*
Y90000D02*
D03*
X300000Y75000D02*
D03*
X307500Y60000D02*
D03*
X300000Y45000D02*
D03*
X292500Y270000D02*
D03*
X285000Y255000D02*
D03*
X292500Y240000D02*
D03*
Y210000D02*
D03*
Y90000D02*
D03*
X285000Y75000D02*
D03*
X292500Y60000D02*
D03*
X285000Y45000D02*
D03*
X277500Y300000D02*
D03*
X270000Y285000D02*
D03*
X277500Y270000D02*
D03*
X270000Y255000D02*
D03*
X277500Y240000D02*
D03*
X270000Y225000D02*
D03*
X277500Y210000D02*
D03*
Y90000D02*
D03*
X270000Y75000D02*
D03*
X277500Y60000D02*
D03*
X270000Y45000D02*
D03*
X262500Y300000D02*
D03*
X255000Y285000D02*
D03*
X262500Y270000D02*
D03*
Y240000D02*
D03*
X255000Y225000D02*
D03*
Y195000D02*
D03*
Y135000D02*
D03*
X262500Y120000D02*
D03*
Y90000D02*
D03*
X255000Y75000D02*
D03*
X262500Y60000D02*
D03*
X255000Y45000D02*
D03*
X247500Y300000D02*
D03*
X240000Y285000D02*
D03*
Y255000D02*
D03*
X247500Y210000D02*
D03*
X240000Y195000D02*
D03*
Y135000D02*
D03*
X247500Y120000D02*
D03*
Y90000D02*
D03*
X240000Y75000D02*
D03*
X247500Y60000D02*
D03*
X240000Y45000D02*
D03*
X232500Y300000D02*
D03*
X225000Y285000D02*
D03*
Y255000D02*
D03*
Y225000D02*
D03*
X232500Y210000D02*
D03*
X225000Y195000D02*
D03*
Y135000D02*
D03*
X232500Y120000D02*
D03*
Y90000D02*
D03*
X225000Y75000D02*
D03*
X232500Y60000D02*
D03*
X225000Y45000D02*
D03*
X210000Y255000D02*
D03*
Y225000D02*
D03*
X217500Y210000D02*
D03*
X210000Y195000D02*
D03*
X217500Y90000D02*
D03*
X210000Y75000D02*
D03*
X217500Y60000D02*
D03*
X210000Y45000D02*
D03*
X202500Y270000D02*
D03*
X195000Y255000D02*
D03*
Y225000D02*
D03*
X202500Y210000D02*
D03*
X195000Y195000D02*
D03*
X202500Y90000D02*
D03*
X195000Y75000D02*
D03*
X202500Y60000D02*
D03*
X195000Y45000D02*
D03*
X180000Y285000D02*
D03*
Y255000D02*
D03*
X187500Y240000D02*
D03*
X180000Y225000D02*
D03*
X187500Y210000D02*
D03*
X180000Y195000D02*
D03*
X187500Y180000D02*
D03*
X180000Y135000D02*
D03*
Y105000D02*
D03*
X187500Y90000D02*
D03*
X180000Y75000D02*
D03*
X187500Y60000D02*
D03*
X180000Y45000D02*
D03*
X165000Y285000D02*
D03*
Y255000D02*
D03*
X172500Y240000D02*
D03*
X165000Y225000D02*
D03*
X172500Y210000D02*
D03*
X165000Y195000D02*
D03*
X172500Y180000D02*
D03*
X165000Y135000D02*
D03*
X172500Y120000D02*
D03*
X165000Y105000D02*
D03*
X172500Y90000D02*
D03*
X165000Y75000D02*
D03*
X172500Y60000D02*
D03*
X165000Y45000D02*
D03*
X157500Y240000D02*
D03*
X150000Y225000D02*
D03*
X157500Y210000D02*
D03*
Y120000D02*
D03*
X150000Y105000D02*
D03*
X157500Y90000D02*
D03*
X150000Y75000D02*
D03*
X157500Y60000D02*
D03*
X150000Y45000D02*
D03*
X142500Y300000D02*
D03*
X135000Y285000D02*
D03*
X142500Y240000D02*
D03*
X135000Y225000D02*
D03*
X142500Y210000D02*
D03*
X135000Y195000D02*
D03*
X120000Y285000D02*
D03*
X127500Y270000D02*
D03*
X120000Y255000D02*
D03*
X127500Y240000D02*
D03*
X120000Y225000D02*
D03*
X127500Y210000D02*
D03*
X120000Y195000D02*
D03*
X105000Y255000D02*
D03*
X112500Y240000D02*
D03*
X105000Y225000D02*
D03*
X112500Y210000D02*
D03*
X105000Y195000D02*
D03*
X90000Y285000D02*
D03*
X97500Y270000D02*
D03*
X90000Y255000D02*
D03*
X97500Y240000D02*
D03*
X90000Y225000D02*
D03*
X97500Y210000D02*
D03*
X90000Y195000D02*
D03*
X75000Y285000D02*
D03*
X82500Y270000D02*
D03*
X75000Y255000D02*
D03*
Y225000D02*
D03*
X82500Y210000D02*
D03*
X75000Y195000D02*
D03*
X67500Y300000D02*
D03*
X60000Y285000D02*
D03*
X67500Y270000D02*
D03*
X60000Y255000D02*
D03*
Y225000D02*
D03*
X67500Y210000D02*
D03*
X60000Y195000D02*
D03*
Y165000D02*
D03*
Y135000D02*
D03*
Y105000D02*
D03*
Y75000D02*
D03*
Y45000D02*
D03*
X52500Y300000D02*
D03*
X45000Y285000D02*
D03*
Y255000D02*
D03*
Y225000D02*
D03*
X52500Y210000D02*
D03*
X45000Y195000D02*
D03*
X52500Y180000D02*
D03*
X45000Y165000D02*
D03*
X52500Y150000D02*
D03*
X45000Y135000D02*
D03*
X52500Y120000D02*
D03*
X45000Y105000D02*
D03*
X52500Y90000D02*
D03*
X45000Y75000D02*
D03*
X52500Y60000D02*
D03*
X45000Y45000D02*
D03*
X37500Y300000D02*
D03*
X30000Y285000D02*
D03*
X37500Y270000D02*
D03*
X30000Y255000D02*
D03*
X37500Y240000D02*
D03*
X30000Y225000D02*
D03*
X37500Y210000D02*
D03*
X30000Y195000D02*
D03*
X37500Y180000D02*
D03*
X30000Y165000D02*
D03*
X37500Y150000D02*
D03*
X30000Y135000D02*
D03*
X37500Y120000D02*
D03*
X30000Y105000D02*
D03*
X37500Y90000D02*
D03*
X30000Y75000D02*
D03*
X37500Y60000D02*
D03*
X30000Y45000D02*
D03*
X15000Y285000D02*
D03*
X22500Y270000D02*
D03*
X15000Y255000D02*
D03*
X22500Y240000D02*
D03*
X15000Y225000D02*
D03*
X22500Y210000D02*
D03*
X15000Y195000D02*
D03*
X22500Y180000D02*
D03*
X15000Y165000D02*
D03*
X22500Y150000D02*
D03*
X15000Y135000D02*
D03*
X22500Y120000D02*
D03*
X15000Y105000D02*
D03*
X22500Y90000D02*
D03*
X15000Y75000D02*
D03*
Y45000D02*
D03*
D53*
X135000Y165000D02*
D03*
Y135000D02*
D03*
Y105000D02*
D03*
X127500Y180000D02*
D03*
Y150000D02*
D03*
X120000Y135000D02*
D03*
X127500Y120000D02*
D03*
X120000Y105000D02*
D03*
X127500Y90000D02*
D03*
Y60000D02*
D03*
X105000Y165000D02*
D03*
Y105000D02*
D03*
X97500Y180000D02*
D03*
X90000Y165000D02*
D03*
Y135000D02*
D03*
X97500Y120000D02*
D03*
X90000Y105000D02*
D03*
X82500Y180000D02*
D03*
X75000Y165000D02*
D03*
X82500Y150000D02*
D03*
X75000Y135000D02*
D03*
X82500Y120000D02*
D03*
X75000Y105000D02*
D03*
X82500Y90000D02*
D03*
X75000Y75000D02*
D03*
X82500Y60000D02*
D03*
X75000Y45000D02*
D03*
M02*
