G04*
G04 #@! TF.GenerationSoftware,Altium Limited,Altium Designer,21.6.4 (81)*
G04*
G04 Layer_Color=16711935*
%FSLAX25Y25*%
%MOIN*%
G70*
G04*
G04 #@! TF.SameCoordinates,32ACE0EF-A2FC-4BC7-9326-31937D1A4F50*
G04*
G04*
G04 #@! TF.FilePolarity,Negative*
G04*
G01*
G75*
%ADD19R,1.61500X0.44500*%
%ADD20R,0.02953X0.02559*%
%ADD21R,0.02559X0.02953*%
%ADD22R,0.04134X0.03740*%
%ADD42R,0.30891X0.40591*%
%ADD43R,0.02559X0.40591*%
%ADD44R,0.06496X0.06496*%
%ADD45C,0.06496*%
%ADD46C,0.07100*%
%ADD47C,0.05091*%
%ADD48C,0.07991*%
%ADD49R,0.06496X0.06496*%
%ADD50C,0.13591*%
%ADD51C,0.02391*%
%ADD52C,0.03591*%
%ADD53C,0.02362*%
D19*
X143500Y343500D02*
D03*
D20*
X187469Y154500D02*
D03*
X183531D02*
D03*
X187469Y161000D02*
D03*
X183531D02*
D03*
X183500Y149500D02*
D03*
X187437D02*
D03*
X311000Y160500D02*
D03*
X314937D02*
D03*
X311032Y166500D02*
D03*
X314968D02*
D03*
X297969Y157500D02*
D03*
X294032D02*
D03*
X297969Y161000D02*
D03*
X294032D02*
D03*
X297969Y164000D02*
D03*
X294032D02*
D03*
X297969Y167000D02*
D03*
X294032D02*
D03*
X286000Y168500D02*
D03*
X289937D02*
D03*
X286063Y171500D02*
D03*
X290000D02*
D03*
X298000Y170500D02*
D03*
X294063D02*
D03*
X315032Y157000D02*
D03*
X318969D02*
D03*
X311032Y163500D02*
D03*
X314968D02*
D03*
D21*
X241000Y153969D02*
D03*
Y150031D02*
D03*
X244500Y153969D02*
D03*
Y150031D02*
D03*
X248000Y153969D02*
D03*
Y150031D02*
D03*
X251500Y153969D02*
D03*
Y150031D02*
D03*
X194000Y167063D02*
D03*
Y171000D02*
D03*
X198000Y148437D02*
D03*
Y144500D02*
D03*
X201000Y148468D02*
D03*
Y144532D02*
D03*
X311500Y157468D02*
D03*
Y153532D02*
D03*
X302000Y170031D02*
D03*
Y173969D02*
D03*
X305000Y157500D02*
D03*
Y153563D02*
D03*
X302000Y157468D02*
D03*
Y153532D02*
D03*
X308500Y157500D02*
D03*
Y153563D02*
D03*
X308000Y170031D02*
D03*
Y173969D02*
D03*
X311500Y170031D02*
D03*
Y173969D02*
D03*
X305000Y170031D02*
D03*
Y173969D02*
D03*
X314500Y170031D02*
D03*
Y173969D02*
D03*
D22*
X188000Y172756D02*
D03*
Y167244D02*
D03*
X205000Y144500D02*
D03*
Y150012D02*
D03*
D42*
X129400Y341775D02*
D03*
X82100D02*
D03*
D43*
X220300D02*
D03*
X217150D02*
D03*
X214000D02*
D03*
X210850D02*
D03*
X207700D02*
D03*
X204550D02*
D03*
X201400D02*
D03*
X198250D02*
D03*
X191950D02*
D03*
X195100D02*
D03*
X188800D02*
D03*
X185650D02*
D03*
X182500D02*
D03*
X179350D02*
D03*
X176200D02*
D03*
X173050D02*
D03*
X169900D02*
D03*
X163600D02*
D03*
X160450D02*
D03*
X166750D02*
D03*
D44*
X167000Y270000D02*
D03*
D45*
X157000D02*
D03*
X167000Y280000D02*
D03*
X157000D02*
D03*
X167000Y290000D02*
D03*
X157000D02*
D03*
X167000Y300000D02*
D03*
X157000D02*
D03*
X269500Y233000D02*
D03*
D46*
X51500Y218000D02*
D03*
Y238000D02*
D03*
Y274500D02*
D03*
Y294500D02*
D03*
X400500Y62000D02*
D03*
X420500D02*
D03*
D47*
X125000Y109000D02*
D03*
X120000Y99000D02*
D03*
X115000Y109000D02*
D03*
X110000Y99000D02*
D03*
X105000Y109000D02*
D03*
X100000Y99000D02*
D03*
X90000D02*
D03*
X95000Y109000D02*
D03*
D48*
X137000Y86000D02*
D03*
X78000D02*
D03*
D49*
X279500Y233000D02*
D03*
D50*
X457550Y56450D02*
D03*
X17550D02*
D03*
X457550Y296450D02*
D03*
X17550D02*
D03*
D51*
X216347Y307347D02*
D03*
X277880Y158642D02*
D03*
X254500Y150000D02*
D03*
X233000Y156500D02*
D03*
X250500Y164500D02*
D03*
X247203Y162412D02*
D03*
X244000Y160500D02*
D03*
X241000Y158500D02*
D03*
X276350Y151000D02*
D03*
X284500Y104500D02*
D03*
X292000Y107000D02*
D03*
X191500Y173000D02*
D03*
X199000Y138000D02*
D03*
X190500Y161401D02*
D03*
X176500Y156500D02*
D03*
X180000Y150500D02*
D03*
X178929Y158366D02*
D03*
X179500Y154500D02*
D03*
X195000Y156500D02*
D03*
X190000Y151401D02*
D03*
X199157Y161127D02*
D03*
X201000Y140500D02*
D03*
X180000Y161000D02*
D03*
X199500Y151500D02*
D03*
X289500Y158875D02*
D03*
X289600Y152500D02*
D03*
X220850Y140193D02*
D03*
X214500Y152901D02*
D03*
X226201Y138102D02*
D03*
X221500Y120901D02*
D03*
X278000Y117000D02*
D03*
Y153000D02*
D03*
X268683Y179317D02*
D03*
X283000Y118401D02*
D03*
X307500Y114500D02*
D03*
X284840Y139650D02*
D03*
X294500Y114500D02*
D03*
X288000Y110150D02*
D03*
X282500Y112500D02*
D03*
X294376Y139124D02*
D03*
X286834Y148696D02*
D03*
X160000Y183901D02*
D03*
X160500Y173901D02*
D03*
X402500Y201500D02*
D03*
X289566Y149425D02*
D03*
X324173Y162062D02*
D03*
X292639Y174622D02*
D03*
X207492Y314008D02*
D03*
X207692Y308725D02*
D03*
X210992Y311508D02*
D03*
X214000Y316850D02*
D03*
X211500Y302500D02*
D03*
X90500Y309000D02*
D03*
X85500Y306500D02*
D03*
X78500Y308000D02*
D03*
X89683Y312187D02*
D03*
X86500Y312500D02*
D03*
X76023Y311908D02*
D03*
X222023Y318408D02*
D03*
X114000Y184000D02*
D03*
X272000Y141000D02*
D03*
X422500Y195000D02*
D03*
X100000Y148500D02*
D03*
X103500Y158500D02*
D03*
X410000Y129500D02*
D03*
X406000D02*
D03*
X413500Y179500D02*
D03*
X414000Y150000D02*
D03*
X391000Y140500D02*
D03*
X405000Y211500D02*
D03*
X394486Y191590D02*
D03*
X421000Y183000D02*
D03*
X408000Y179500D02*
D03*
X422850Y144955D02*
D03*
X270500Y276000D02*
D03*
X319000Y249000D02*
D03*
X309000D02*
D03*
X332000Y245500D02*
D03*
X133500Y313500D02*
D03*
X117500Y309500D02*
D03*
X209722Y298000D02*
D03*
X219000Y313000D02*
D03*
X198000Y286000D02*
D03*
X200000Y278500D02*
D03*
X216500Y298000D02*
D03*
X298976Y174583D02*
D03*
X299000Y218000D02*
D03*
X346000Y286000D02*
D03*
X341500Y279500D02*
D03*
X334500Y266500D02*
D03*
X346000Y279500D02*
D03*
X320996Y184004D02*
D03*
X324025Y183971D02*
D03*
X316500Y189000D02*
D03*
X313000Y192000D02*
D03*
X327400Y161675D02*
D03*
X289528Y174583D02*
D03*
X289566Y180921D02*
D03*
X296000Y174500D02*
D03*
X424000Y133500D02*
D03*
X283190Y143126D02*
D03*
X236000Y291500D02*
D03*
X240500Y271500D02*
D03*
X253000Y256500D02*
D03*
X274500Y179200D02*
D03*
X99504Y163500D02*
D03*
X412500Y207500D02*
D03*
X401000Y157000D02*
D03*
X404000Y150000D02*
D03*
X428000Y189500D02*
D03*
X308464Y149425D02*
D03*
X317874Y162062D02*
D03*
X302088Y149425D02*
D03*
X308425Y177810D02*
D03*
X302126D02*
D03*
X301000Y167220D02*
D03*
X307500Y160500D02*
D03*
X301500D02*
D03*
X307500Y167469D02*
D03*
X295850Y152600D02*
D03*
X286400Y165175D02*
D03*
X317875Y165200D02*
D03*
X289525Y165150D02*
D03*
X133500Y307000D02*
D03*
X136000Y310500D02*
D03*
X136500Y314500D02*
D03*
X124500Y305500D02*
D03*
X122000Y312500D02*
D03*
X127000Y316000D02*
D03*
X227000Y273500D02*
D03*
X135000Y127500D02*
D03*
X244000Y295000D02*
D03*
X337531Y272532D02*
D03*
X326500Y271000D02*
D03*
X302000Y252500D02*
D03*
X270500Y280000D02*
D03*
X327000Y290500D02*
D03*
X293000Y280000D02*
D03*
X279500Y293000D02*
D03*
X289500Y252500D02*
D03*
X327000Y305500D02*
D03*
X280500D02*
D03*
X211500Y247000D02*
D03*
X206000Y269000D02*
D03*
X214000Y293000D02*
D03*
X105000Y276500D02*
D03*
Y302000D02*
D03*
X196500Y250500D02*
D03*
X196610Y239831D02*
D03*
D52*
X465000Y285000D02*
D03*
Y255000D02*
D03*
Y225000D02*
D03*
Y195000D02*
D03*
Y165000D02*
D03*
Y135000D02*
D03*
Y105000D02*
D03*
Y75000D02*
D03*
Y45000D02*
D03*
X450000Y285000D02*
D03*
X457500Y270000D02*
D03*
X450000Y255000D02*
D03*
X457500Y240000D02*
D03*
X450000Y225000D02*
D03*
X457500Y210000D02*
D03*
X450000Y195000D02*
D03*
X457500Y180000D02*
D03*
X450000Y165000D02*
D03*
X457500Y150000D02*
D03*
X450000Y135000D02*
D03*
X457500Y120000D02*
D03*
X450000Y105000D02*
D03*
X457500Y90000D02*
D03*
X450000Y75000D02*
D03*
Y45000D02*
D03*
X442500Y300000D02*
D03*
X435000Y285000D02*
D03*
X442500Y270000D02*
D03*
X435000Y255000D02*
D03*
X442500Y240000D02*
D03*
X435000Y225000D02*
D03*
X442500Y210000D02*
D03*
X435000Y195000D02*
D03*
X442500Y180000D02*
D03*
X435000Y165000D02*
D03*
X442500Y150000D02*
D03*
X435000Y135000D02*
D03*
X442500Y120000D02*
D03*
X435000Y105000D02*
D03*
X442500Y90000D02*
D03*
X435000Y75000D02*
D03*
X442500Y60000D02*
D03*
X435000Y45000D02*
D03*
X427500Y300000D02*
D03*
Y270000D02*
D03*
X420000Y255000D02*
D03*
X427500Y240000D02*
D03*
X420000Y225000D02*
D03*
X427500Y210000D02*
D03*
Y180000D02*
D03*
X420000Y165000D02*
D03*
X427500Y150000D02*
D03*
Y120000D02*
D03*
X420000Y105000D02*
D03*
X427500Y90000D02*
D03*
Y60000D02*
D03*
X420000Y45000D02*
D03*
X412500Y300000D02*
D03*
X405000Y285000D02*
D03*
X412500Y270000D02*
D03*
X405000Y255000D02*
D03*
X412500Y240000D02*
D03*
X405000Y225000D02*
D03*
Y165000D02*
D03*
Y105000D02*
D03*
X412500Y90000D02*
D03*
X405000Y75000D02*
D03*
X412500Y60000D02*
D03*
X405000Y45000D02*
D03*
X397500Y300000D02*
D03*
Y270000D02*
D03*
X390000Y255000D02*
D03*
X397500Y240000D02*
D03*
X390000Y225000D02*
D03*
X397500Y210000D02*
D03*
X390000Y195000D02*
D03*
X397500Y180000D02*
D03*
X390000Y165000D02*
D03*
X397500Y150000D02*
D03*
Y120000D02*
D03*
X390000Y105000D02*
D03*
X397500Y90000D02*
D03*
X390000Y75000D02*
D03*
Y45000D02*
D03*
X382500Y300000D02*
D03*
X375000Y285000D02*
D03*
X382500Y270000D02*
D03*
X375000Y255000D02*
D03*
X382500Y240000D02*
D03*
X375000Y225000D02*
D03*
X382500Y210000D02*
D03*
X375000Y195000D02*
D03*
Y165000D02*
D03*
X382500Y150000D02*
D03*
X375000Y135000D02*
D03*
X382500Y120000D02*
D03*
X375000Y105000D02*
D03*
X382500Y90000D02*
D03*
X375000Y75000D02*
D03*
X382500Y60000D02*
D03*
X375000Y45000D02*
D03*
X367500Y300000D02*
D03*
X360000Y285000D02*
D03*
X367500Y270000D02*
D03*
Y240000D02*
D03*
X360000Y225000D02*
D03*
X367500Y210000D02*
D03*
X360000Y195000D02*
D03*
Y165000D02*
D03*
X367500Y150000D02*
D03*
X360000Y135000D02*
D03*
X367500Y120000D02*
D03*
X360000Y105000D02*
D03*
X367500Y90000D02*
D03*
X360000Y75000D02*
D03*
X367500Y60000D02*
D03*
X360000Y45000D02*
D03*
X352500Y300000D02*
D03*
X345000Y225000D02*
D03*
Y195000D02*
D03*
X352500Y150000D02*
D03*
X345000Y135000D02*
D03*
X352500Y120000D02*
D03*
X345000Y105000D02*
D03*
X352500Y90000D02*
D03*
X345000Y75000D02*
D03*
X352500Y60000D02*
D03*
X345000Y45000D02*
D03*
X337500Y300000D02*
D03*
X330000Y255000D02*
D03*
X337500Y240000D02*
D03*
Y210000D02*
D03*
Y150000D02*
D03*
Y90000D02*
D03*
X330000Y75000D02*
D03*
X337500Y60000D02*
D03*
X330000Y45000D02*
D03*
X315000Y135000D02*
D03*
X322500Y120000D02*
D03*
X315000Y105000D02*
D03*
X322500Y90000D02*
D03*
X315000Y75000D02*
D03*
X322500Y60000D02*
D03*
X315000Y45000D02*
D03*
X300000Y285000D02*
D03*
X307500Y270000D02*
D03*
Y210000D02*
D03*
Y120000D02*
D03*
Y90000D02*
D03*
X300000Y75000D02*
D03*
X307500Y60000D02*
D03*
X300000Y45000D02*
D03*
X292500Y270000D02*
D03*
X285000Y255000D02*
D03*
X292500Y240000D02*
D03*
Y210000D02*
D03*
Y90000D02*
D03*
X285000Y75000D02*
D03*
X292500Y60000D02*
D03*
X285000Y45000D02*
D03*
X277500Y300000D02*
D03*
X270000Y285000D02*
D03*
X277500Y270000D02*
D03*
X270000Y255000D02*
D03*
X277500Y240000D02*
D03*
X270000Y225000D02*
D03*
X277500Y210000D02*
D03*
Y90000D02*
D03*
X270000Y75000D02*
D03*
X277500Y60000D02*
D03*
X270000Y45000D02*
D03*
X262500Y300000D02*
D03*
X255000Y285000D02*
D03*
X262500Y270000D02*
D03*
Y240000D02*
D03*
X255000Y225000D02*
D03*
Y195000D02*
D03*
Y135000D02*
D03*
X262500Y120000D02*
D03*
Y90000D02*
D03*
X255000Y75000D02*
D03*
X262500Y60000D02*
D03*
X255000Y45000D02*
D03*
X247500Y300000D02*
D03*
X240000Y285000D02*
D03*
Y255000D02*
D03*
X247500Y210000D02*
D03*
X240000Y195000D02*
D03*
Y135000D02*
D03*
X247500Y120000D02*
D03*
Y90000D02*
D03*
X240000Y75000D02*
D03*
X247500Y60000D02*
D03*
X240000Y45000D02*
D03*
X232500Y300000D02*
D03*
X225000Y285000D02*
D03*
Y255000D02*
D03*
Y225000D02*
D03*
X232500Y210000D02*
D03*
X225000Y195000D02*
D03*
Y135000D02*
D03*
X232500Y120000D02*
D03*
Y90000D02*
D03*
X225000Y75000D02*
D03*
X232500Y60000D02*
D03*
X225000Y45000D02*
D03*
X210000Y255000D02*
D03*
Y225000D02*
D03*
X217500Y210000D02*
D03*
X210000Y195000D02*
D03*
X217500Y90000D02*
D03*
X210000Y75000D02*
D03*
X217500Y60000D02*
D03*
X210000Y45000D02*
D03*
X202500Y270000D02*
D03*
X195000Y255000D02*
D03*
Y225000D02*
D03*
X202500Y210000D02*
D03*
X195000Y195000D02*
D03*
X202500Y90000D02*
D03*
X195000Y75000D02*
D03*
X202500Y60000D02*
D03*
X195000Y45000D02*
D03*
X180000Y285000D02*
D03*
Y255000D02*
D03*
X187500Y240000D02*
D03*
X180000Y225000D02*
D03*
X187500Y210000D02*
D03*
X180000Y195000D02*
D03*
X187500Y180000D02*
D03*
X180000Y135000D02*
D03*
Y105000D02*
D03*
X187500Y90000D02*
D03*
X180000Y75000D02*
D03*
X187500Y60000D02*
D03*
X180000Y45000D02*
D03*
X165000Y285000D02*
D03*
Y255000D02*
D03*
X172500Y240000D02*
D03*
X165000Y225000D02*
D03*
X172500Y210000D02*
D03*
X165000Y195000D02*
D03*
X172500Y180000D02*
D03*
X165000Y135000D02*
D03*
X172500Y120000D02*
D03*
X165000Y105000D02*
D03*
X172500Y90000D02*
D03*
X165000Y75000D02*
D03*
X172500Y60000D02*
D03*
X165000Y45000D02*
D03*
X157500Y240000D02*
D03*
X150000Y225000D02*
D03*
X157500Y210000D02*
D03*
Y120000D02*
D03*
X150000Y105000D02*
D03*
X157500Y90000D02*
D03*
X150000Y75000D02*
D03*
X157500Y60000D02*
D03*
X150000Y45000D02*
D03*
X142500Y300000D02*
D03*
X135000Y285000D02*
D03*
X142500Y240000D02*
D03*
X135000Y225000D02*
D03*
X142500Y210000D02*
D03*
X135000Y195000D02*
D03*
X120000Y285000D02*
D03*
X127500Y270000D02*
D03*
X120000Y255000D02*
D03*
X127500Y240000D02*
D03*
X120000Y225000D02*
D03*
X127500Y210000D02*
D03*
X120000Y195000D02*
D03*
X105000Y255000D02*
D03*
X112500Y240000D02*
D03*
X105000Y225000D02*
D03*
X112500Y210000D02*
D03*
X105000Y195000D02*
D03*
X90000Y285000D02*
D03*
X97500Y270000D02*
D03*
X90000Y255000D02*
D03*
X97500Y240000D02*
D03*
X90000Y225000D02*
D03*
X97500Y210000D02*
D03*
X90000Y195000D02*
D03*
X75000Y285000D02*
D03*
X82500Y270000D02*
D03*
X75000Y255000D02*
D03*
Y225000D02*
D03*
X82500Y210000D02*
D03*
X75000Y195000D02*
D03*
X67500Y300000D02*
D03*
X60000Y285000D02*
D03*
X67500Y270000D02*
D03*
X60000Y255000D02*
D03*
Y225000D02*
D03*
X67500Y210000D02*
D03*
X60000Y195000D02*
D03*
Y165000D02*
D03*
Y135000D02*
D03*
Y105000D02*
D03*
Y75000D02*
D03*
Y45000D02*
D03*
X52500Y300000D02*
D03*
X45000Y285000D02*
D03*
Y255000D02*
D03*
Y225000D02*
D03*
X52500Y210000D02*
D03*
X45000Y195000D02*
D03*
X52500Y180000D02*
D03*
X45000Y165000D02*
D03*
X52500Y150000D02*
D03*
X45000Y135000D02*
D03*
X52500Y120000D02*
D03*
X45000Y105000D02*
D03*
X52500Y90000D02*
D03*
X45000Y75000D02*
D03*
X52500Y60000D02*
D03*
X45000Y45000D02*
D03*
X37500Y300000D02*
D03*
X30000Y285000D02*
D03*
X37500Y270000D02*
D03*
X30000Y255000D02*
D03*
X37500Y240000D02*
D03*
X30000Y225000D02*
D03*
X37500Y210000D02*
D03*
X30000Y195000D02*
D03*
X37500Y180000D02*
D03*
X30000Y165000D02*
D03*
X37500Y150000D02*
D03*
X30000Y135000D02*
D03*
X37500Y120000D02*
D03*
X30000Y105000D02*
D03*
X37500Y90000D02*
D03*
X30000Y75000D02*
D03*
X37500Y60000D02*
D03*
X30000Y45000D02*
D03*
X15000Y285000D02*
D03*
X22500Y270000D02*
D03*
X15000Y255000D02*
D03*
X22500Y240000D02*
D03*
X15000Y225000D02*
D03*
X22500Y210000D02*
D03*
X15000Y195000D02*
D03*
X22500Y180000D02*
D03*
X15000Y165000D02*
D03*
X22500Y150000D02*
D03*
X15000Y135000D02*
D03*
X22500Y120000D02*
D03*
X15000Y105000D02*
D03*
X22500Y90000D02*
D03*
X15000Y75000D02*
D03*
Y45000D02*
D03*
D53*
X135000Y165000D02*
D03*
Y135000D02*
D03*
Y105000D02*
D03*
X127500Y180000D02*
D03*
Y150000D02*
D03*
X120000Y135000D02*
D03*
X127500Y120000D02*
D03*
X120000Y105000D02*
D03*
X127500Y90000D02*
D03*
Y60000D02*
D03*
X105000Y165000D02*
D03*
Y105000D02*
D03*
X97500Y180000D02*
D03*
X90000Y165000D02*
D03*
Y135000D02*
D03*
X97500Y120000D02*
D03*
X90000Y105000D02*
D03*
X82500Y180000D02*
D03*
X75000Y165000D02*
D03*
X82500Y150000D02*
D03*
X75000Y135000D02*
D03*
X82500Y120000D02*
D03*
X75000Y105000D02*
D03*
X82500Y90000D02*
D03*
X75000Y75000D02*
D03*
X82500Y60000D02*
D03*
X75000Y45000D02*
D03*
M02*
