G04*
G04 #@! TF.GenerationSoftware,Altium Limited,Altium Designer,21.6.4 (81)*
G04*
G04 Layer_Physical_Order=2*
G04 Layer_Color=32768*
%FSLAX25Y25*%
%MOIN*%
G70*
G04*
G04 #@! TF.SameCoordinates,32ACE0EF-A2FC-4BC7-9326-31937D1A4F50*
G04*
G04*
G04 #@! TF.FilePolarity,Negative*
G04*
G01*
G75*
%ADD37C,0.01600*%
%ADD82C,0.04000*%
%ADD83C,0.05000*%
%ADD84C,0.04343*%
G04:AMPARAMS|DCode=85|XSize=82.622mil|YSize=82.622mil|CornerRadius=0mil|HoleSize=0mil|Usage=FLASHONLY|Rotation=0.000|XOffset=0mil|YOffset=0mil|HoleType=Round|Shape=Relief|Width=4mil|Gap=4mil|Entries=4|*
%AMTHD85*
7,0,0,0.08262,0.07462,0.00400,45*
%
%ADD85THD85*%
%ADD86C,0.05900*%
%ADD87C,0.04300*%
G04:AMPARAMS|DCode=88|XSize=95.622mil|YSize=95.622mil|CornerRadius=0mil|HoleSize=0mil|Usage=FLASHONLY|Rotation=0.000|XOffset=0mil|YOffset=0mil|HoleType=Round|Shape=Relief|Width=4mil|Gap=4mil|Entries=4|*
%AMTHD88*
7,0,0,0.09562,0.08762,0.00400,45*
%
%ADD88THD88*%
G04:AMPARAMS|DCode=89|XSize=67.055mil|YSize=67.055mil|CornerRadius=0mil|HoleSize=0mil|Usage=FLASHONLY|Rotation=0.000|XOffset=0mil|YOffset=0mil|HoleType=Round|Shape=Relief|Width=4mil|Gap=4mil|Entries=4|*
%AMTHD89*
7,0,0,0.06706,0.05906,0.00400,45*
%
%ADD89THD89*%
%ADD90C,0.13800*%
G36*
X125250Y80500D02*
X130000D01*
Y67500D01*
X125250D01*
Y51800D01*
X137550D01*
Y45600D01*
X77450D01*
Y51800D01*
X89750D01*
Y67500D01*
X85000D01*
Y80500D01*
X89750D01*
Y92900D01*
X125250D01*
Y80500D01*
D02*
G37*
D37*
X216347Y307347D02*
D03*
X277880Y158642D02*
D03*
X254500Y150000D02*
D03*
X250500Y164500D02*
D03*
X247203Y162412D02*
D03*
X244000Y160500D02*
D03*
X241000Y158500D02*
D03*
X284500Y104500D02*
D03*
X292000Y107000D02*
D03*
X191500Y173000D02*
D03*
X199000Y138000D02*
D03*
X176500Y156500D02*
D03*
X180000Y150500D02*
D03*
X178929Y158366D02*
D03*
X179500Y154500D02*
D03*
X201000Y140500D02*
D03*
X180000Y161000D02*
D03*
X289500Y158875D02*
D03*
X289600Y152500D02*
D03*
X221500Y120901D02*
D03*
X278000Y117000D02*
D03*
Y153000D02*
D03*
X268683Y179317D02*
D03*
X283000Y118401D02*
D03*
X307500Y114500D02*
D03*
X284840Y139650D02*
D03*
X294500Y114500D02*
D03*
X288000Y110150D02*
D03*
X282500Y112500D02*
D03*
X294376Y139124D02*
D03*
X286834Y148696D02*
D03*
X160000Y183901D02*
D03*
X160500Y173901D02*
D03*
X289566Y149425D02*
D03*
X324173Y162062D02*
D03*
X207492Y314008D02*
D03*
X207692Y308725D02*
D03*
X210992Y311508D02*
D03*
X214000Y316850D02*
D03*
X211500Y302500D02*
D03*
X114000Y184000D02*
D03*
X272000Y141000D02*
D03*
X422500Y195000D02*
D03*
X100000Y148500D02*
D03*
X103500Y158500D02*
D03*
X410000Y129500D02*
D03*
X413500Y179500D02*
D03*
X405000Y211500D02*
D03*
X422850Y144955D02*
D03*
X332000Y245500D02*
D03*
X133500Y313500D02*
D03*
X117500Y309500D02*
D03*
X209722Y298000D02*
D03*
X219000Y313000D02*
D03*
X198000Y286000D02*
D03*
X200000Y278500D02*
D03*
X216500Y298000D02*
D03*
X298976Y174583D02*
D03*
X299000Y218000D02*
D03*
X346000Y286000D02*
D03*
X341500Y279500D02*
D03*
X334500Y266500D02*
D03*
X320996Y184004D02*
D03*
X324025Y183971D02*
D03*
X316500Y189000D02*
D03*
X313000Y192000D02*
D03*
X327400Y161675D02*
D03*
X289528Y174583D02*
D03*
X289566Y180921D02*
D03*
X296000Y174500D02*
D03*
X424000Y133500D02*
D03*
X283190Y143126D02*
D03*
X236000Y291500D02*
D03*
X240500Y271500D02*
D03*
X274500Y179200D02*
D03*
X99504Y163500D02*
D03*
X401000Y157000D02*
D03*
X404000Y150000D02*
D03*
X428000Y189500D02*
D03*
X308464Y149425D02*
D03*
X317874Y162062D02*
D03*
X302088Y149425D02*
D03*
X308425Y177810D02*
D03*
X302126D02*
D03*
X317875Y165200D02*
D03*
X289525Y165150D02*
D03*
X133500Y307000D02*
D03*
X136000Y310500D02*
D03*
X136500Y314500D02*
D03*
X124500Y305500D02*
D03*
X122000Y312500D02*
D03*
X127000Y316000D02*
D03*
X337531Y272532D02*
D03*
X270500Y280000D02*
D03*
X289500Y252500D02*
D03*
X105000Y302000D02*
D03*
X196500Y250500D02*
D03*
D82*
X224500Y314000D02*
Y364000D01*
X157000D02*
X224500D01*
X157000Y314000D02*
Y364000D01*
X150000Y314000D02*
X157000D01*
X150000D02*
Y364000D01*
X63500D02*
X150000D01*
X63500Y314000D02*
Y364000D01*
X0Y314000D02*
X63500D01*
X0Y39000D02*
Y314000D01*
Y39000D02*
X77500D01*
Y45600D01*
X77450D02*
X77500D01*
X77450Y51800D02*
X77500D01*
Y52000D01*
X89750D01*
Y67500D01*
X84500D02*
X89750D01*
X83846Y67532D02*
X84500Y67500D01*
X82564Y67792D02*
X83846Y67532D01*
X81359Y68303D02*
X82564Y67792D01*
X80281Y69045D02*
X81359Y68303D01*
X79373Y69987D02*
X80281Y69045D01*
X78672Y71092D02*
X79373Y69987D01*
X78206Y72314D02*
X78672Y71092D01*
X77994Y73605D02*
X78206Y72314D01*
X77994Y73605D02*
X78044Y74913D01*
X78355Y76183D01*
X78914Y77367D01*
X79698Y78414D01*
X80675Y79284D01*
X81807Y79940D01*
X83047Y80358D01*
X84345Y80518D01*
X85000Y80500D01*
X89500D01*
Y93000D01*
X125000D01*
Y92900D02*
Y93000D01*
Y92900D02*
X125250D01*
X130000Y80500D02*
Y80500D01*
Y80500D02*
X130671Y80517D01*
X132000Y80344D01*
X133265Y79904D01*
X134414Y79213D01*
X135398Y78303D01*
X136174Y77210D01*
X136711Y75982D01*
X136985Y74670D01*
Y73330D02*
Y74670D01*
X136711Y72018D02*
X136985Y73330D01*
X136174Y70790D02*
X136711Y72018D01*
X135398Y69697D02*
X136174Y70790D01*
X134414Y68787D02*
X135398Y69697D01*
X133265Y68097D02*
X134414Y68787D01*
X132000Y67656D02*
X133265Y68097D01*
X130671Y67483D02*
X132000Y67656D01*
X130000Y67500D02*
X130671Y67483D01*
X125500Y67500D02*
X130000D01*
X125500Y52000D02*
Y67500D01*
Y52000D02*
X137500D01*
Y51800D02*
Y52000D01*
Y51800D02*
X137550D01*
X137500Y45600D02*
X137550D01*
X137500Y39000D02*
Y45600D01*
Y39000D02*
X137600Y38900D01*
X474900D01*
X475000Y39000D01*
Y314000D01*
X224500D02*
X475000D01*
X125250Y80500D02*
Y92900D01*
Y80500D02*
X130000D01*
X137550Y45600D02*
Y51800D01*
X77450Y45600D02*
Y51800D01*
D83*
X145000Y43500D02*
X145500Y43000D01*
X145000Y189000D02*
X145000Y43500D01*
X68000Y189000D02*
X145000Y189000D01*
X68000Y188500D02*
X68000Y41500D01*
D84*
X167000Y270000D02*
D03*
X157000D02*
D03*
X167000Y280000D02*
D03*
X157000D02*
D03*
X167000Y290000D02*
D03*
X157000D02*
D03*
X167000Y300000D02*
D03*
X157000D02*
D03*
X279500Y233000D02*
D03*
D85*
X51500Y218000D02*
D03*
Y274500D02*
D03*
X400500Y62000D02*
D03*
D86*
X51500Y238000D02*
D03*
Y294500D02*
D03*
X420500Y62000D02*
D03*
D87*
X125000Y109000D02*
D03*
X120000Y99000D02*
D03*
X115000Y109000D02*
D03*
X110000Y99000D02*
D03*
X105000Y109000D02*
D03*
X100000Y99000D02*
D03*
X90000D02*
D03*
X95000Y109000D02*
D03*
D88*
X137000Y86000D02*
D03*
X78000D02*
D03*
D89*
X269500Y233000D02*
D03*
D90*
X457550Y56450D02*
D03*
X17550D02*
D03*
X457550Y296450D02*
D03*
X17550D02*
D03*
M02*
